<?xml version="1.0" encoding="UTF-8" standalone="no"?>
<!DOCTYPE svg PUBLIC "-//W3C//DTD SVG 1.1//EN"
 "http://www.w3.org/Graphics/SVG/1.1/DTD/svg11.dtd">
<!-- Generated by graphviz version 2.44.1 (20200629.0846)
 -->
<!-- Title: source/app/utils/thread_pool/EThreadPoolState.h Pages: 1 -->
<!--zoomable 374 -->
<svg id="main" version="1.1" xmlns="http://www.w3.org/2000/svg" xmlns:xlink="http://www.w3.org/1999/xlink" xml:space="preserve" onload="init(evt)">
<style type="text/css"><![CDATA[
.edge:hover path { stroke: red; }
.edge:hover polygon { stroke: red; fill: red; }
]]></style>
<script type="text/javascript"><![CDATA[
var edges = document.getElementsByTagName('g');
if (edges && edges.length) {
  for (var i=0;i<edges.length;i++) {
    if (edges[i].id.substr(0,4)=='edge') {
      edges[i].setAttribute('class','edge');
    }
  }
}
]]></script>
        <defs>
                <circle id="rim" cx="0" cy="0" r="7"/>
                <circle id="rim2" cx="0" cy="0" r="3.5"/>
                <g id="zoomPlus">
                        <use xlink:href="#rim" fill="#404040">
                                <set attributeName="fill" to="#808080" begin="zoomplus.mouseover" end="zoomplus.mouseout"/>
                        </use>
                        <path d="M-4,0h8M0,-4v8" fill="none" stroke="white" stroke-width="1.5" pointer-events="none"/>
                </g>
                <g id="zoomMin">
                        <use xlink:href="#rim" fill="#404040">
                                <set attributeName="fill" to="#808080" begin="zoomminus.mouseover" end="zoomminus.mouseout"/>
                        </use>
                        <path d="M-4,0h8" fill="none" stroke="white" stroke-width="1.5" pointer-events="none"/>
                </g>
                <g id="dirArrow">
                        <path fill="none" stroke="white" stroke-width="1.5" d="M0,-3.0v7 M-2.5,-0.5L0,-3.0L2.5,-0.5"/>
                </g>
               <g id="resetDef">
                       <use xlink:href="#rim2" fill="#404040">
                               <set attributeName="fill" to="#808080" begin="reset.mouseover" end="reset.mouseout"/>
                       </use>
               </g>
        </defs>

<script type="text/javascript">
var viewWidth = 533;
var viewHeight = 374;
var sectionId = 'dynsection-1';
</script>
<script xlink:href="svgpan.js"/>
<svg id="graph" class="graph">
<g id="viewport">
<title>source/app/utils/thread_pool/EThreadPoolState.h</title>
<polygon fill="white" stroke="transparent" points="-4,4 -4,-370 528.5,-370 528.5,4 -4,4"/>
<!-- Node1 -->
<g id="node1" class="node">
<title>Node1</title>
<g id="a_node1"><a xlink:title=" ">
<polygon fill="#bfbfbf" stroke="black" points="262,-335.5 262,-365.5 393,-365.5 393,-335.5 262,-335.5"/>
<text text-anchor="start" x="270" y="-353.5" font-family="Helvetica,sans-Serif" font-size="10.00">source/app/utils/thread</text>
<text text-anchor="middle" x="327.5" y="-342.5" font-family="Helvetica,sans-Serif" font-size="10.00">_pool/EThreadPoolState.h</text>
</a>
</g>
</g>
<!-- Node2 -->
<g id="node2" class="node">
<title>Node2</title>
<g id="a_node2"><a xlink:href="_thread_pool_8h.html" target="_top" xlink:title=" ">
<polygon fill="white" stroke="black" points="269.5,-268.5 269.5,-298.5 385.5,-298.5 385.5,-268.5 269.5,-268.5"/>
<text text-anchor="start" x="277.5" y="-286.5" font-family="Helvetica,sans-Serif" font-size="10.00">source/app/utils/thread</text>
<text text-anchor="middle" x="327.5" y="-275.5" font-family="Helvetica,sans-Serif" font-size="10.00">_pool/ThreadPool.h</text>
</a>
</g>
</g>
<!-- Node1&#45;&gt;Node2 -->
<g id="edge1" class="edge">
<title>Node1&#45;&gt;Node2</title>
<path fill="none" stroke="midnightblue" d="M327.5,-325.11C327.5,-316.15 327.5,-306.32 327.5,-298.58"/>
<polygon fill="midnightblue" stroke="midnightblue" points="324,-325.4 327.5,-335.4 331,-325.4 324,-325.4"/>
</g>
<!-- Node3 -->
<g id="node3" class="node">
<title>Node3</title>
<g id="a_node3"><a xlink:href="main_8cpp.html" target="_top" xlink:title=" ">
<polygon fill="white" stroke="black" points="0,-6 0,-25 107,-25 107,-6 0,-6"/>
<text text-anchor="middle" x="53.5" y="-13" font-family="Helvetica,sans-Serif" font-size="10.00">source/app/main.cpp</text>
</a>
</g>
</g>
<!-- Node2&#45;&gt;Node3 -->
<g id="edge2" class="edge">
<title>Node2&#45;&gt;Node3</title>
<path fill="none" stroke="midnightblue" d="M258.96,-279.34C183.49,-271.7 65.81,-246.54 12.5,-165 -17.94,-118.44 28.15,-49.51 46.51,-25.29"/>
<polygon fill="midnightblue" stroke="midnightblue" points="259.03,-282.86 269.32,-280.3 259.68,-275.89 259.03,-282.86"/>
</g>
<!-- Node4 -->
<g id="node4" class="node">
<title>Node4</title>
<g id="a_node4"><a xlink:href="_file_signature_creator_8h.html" target="_top" xlink:title=" ">
<polygon fill="white" stroke="black" points="240.5,-67.5 240.5,-97.5 386.5,-97.5 386.5,-67.5 240.5,-67.5"/>
<text text-anchor="start" x="248.5" y="-85.5" font-family="Helvetica,sans-Serif" font-size="10.00">source/app/sign/FileSignature</text>
<text text-anchor="middle" x="313.5" y="-74.5" font-family="Helvetica,sans-Serif" font-size="10.00">Creator.h</text>
</a>
</g>
</g>
<!-- Node2&#45;&gt;Node4 -->
<g id="edge3" class="edge">
<title>Node2&#45;&gt;Node4</title>
<path fill="none" stroke="midnightblue" d="M334.46,-258.31C336.51,-250.04 338.48,-240.68 339.5,-232 344.57,-188.74 349.76,-176.33 339.5,-134 336.34,-120.97 329.2,-107.53 323.2,-97.79"/>
<polygon fill="midnightblue" stroke="midnightblue" points="331.05,-257.51 331.88,-268.08 337.82,-259.3 331.05,-257.51"/>
</g>
<!-- Node6 -->
<g id="node6" class="node">
<title>Node6</title>
<g id="a_node6"><a xlink:href="_file_signature_creation_context_8h.html" target="_top" xlink:title=" ">
<polygon fill="white" stroke="black" points="174.5,-201.5 174.5,-231.5 330.5,-231.5 330.5,-201.5 174.5,-201.5"/>
<text text-anchor="start" x="182.5" y="-219.5" font-family="Helvetica,sans-Serif" font-size="10.00">source/app/sign/internal</text>
<text text-anchor="middle" x="252.5" y="-208.5" font-family="Helvetica,sans-Serif" font-size="10.00">/FileSignatureCreationContext.h</text>
</a>
</g>
</g>
<!-- Node2&#45;&gt;Node6 -->
<g id="edge6" class="edge">
<title>Node2&#45;&gt;Node6</title>
<path fill="none" stroke="midnightblue" d="M303.38,-261.6C292.06,-251.78 278.86,-240.34 268.74,-231.58"/>
<polygon fill="midnightblue" stroke="midnightblue" points="301.38,-264.49 311.23,-268.4 305.96,-259.2 301.38,-264.49"/>
</g>
<!-- Node10 -->
<g id="node10" class="node">
<title>Node10</title>
<g id="a_node10"><a xlink:href="_thread_pool_8cpp.html" target="_top" xlink:title=" ">
<polygon fill="white" stroke="black" points="408.5,-201.5 408.5,-231.5 524.5,-231.5 524.5,-201.5 408.5,-201.5"/>
<text text-anchor="start" x="416.5" y="-219.5" font-family="Helvetica,sans-Serif" font-size="10.00">source/app/utils/thread</text>
<text text-anchor="middle" x="466.5" y="-208.5" font-family="Helvetica,sans-Serif" font-size="10.00">_pool/ThreadPool.cpp</text>
</a>
</g>
</g>
<!-- Node2&#45;&gt;Node10 -->
<g id="edge13" class="edge">
<title>Node2&#45;&gt;Node10</title>
<path fill="none" stroke="midnightblue" d="M366.78,-264.13C388.87,-253.8 416.01,-241.11 436.4,-231.58"/>
<polygon fill="midnightblue" stroke="midnightblue" points="365.24,-260.99 357.66,-268.4 368.2,-267.33 365.24,-260.99"/>
</g>
<!-- Node4&#45;&gt;Node3 -->
<g id="edge4" class="edge">
<title>Node4&#45;&gt;Node3</title>
<path fill="none" stroke="midnightblue" d="M247.46,-64.99C196.51,-52.25 128.09,-35.15 87.61,-25.03"/>
<polygon fill="midnightblue" stroke="midnightblue" points="246.85,-68.45 257.4,-67.48 248.55,-61.66 246.85,-68.45"/>
</g>
<!-- Node5 -->
<g id="node5" class="node">
<title>Node5</title>
<g id="a_node5"><a xlink:href="_file_signature_creator_8cpp.html" target="_top" xlink:title=" ">
<polygon fill="white" stroke="black" points="240.5,-0.5 240.5,-30.5 386.5,-30.5 386.5,-0.5 240.5,-0.5"/>
<text text-anchor="start" x="248.5" y="-18.5" font-family="Helvetica,sans-Serif" font-size="10.00">source/app/sign/FileSignature</text>
<text text-anchor="middle" x="313.5" y="-7.5" font-family="Helvetica,sans-Serif" font-size="10.00">Creator.cpp</text>
</a>
</g>
</g>
<!-- Node4&#45;&gt;Node5 -->
<g id="edge5" class="edge">
<title>Node4&#45;&gt;Node5</title>
<path fill="none" stroke="midnightblue" d="M313.5,-57.11C313.5,-48.15 313.5,-38.32 313.5,-30.58"/>
<polygon fill="midnightblue" stroke="midnightblue" points="310,-57.4 313.5,-67.4 317,-57.4 310,-57.4"/>
</g>
<!-- Node6&#45;&gt;Node4 -->
<g id="edge7" class="edge">
<title>Node6&#45;&gt;Node4</title>
<path fill="none" stroke="midnightblue" d="M293.32,-196.04C305.25,-188.18 316.86,-177.87 323.5,-165 334.61,-143.46 326.56,-114.59 319.89,-97.62"/>
<polygon fill="midnightblue" stroke="midnightblue" points="291.36,-193.14 284.65,-201.34 295.01,-199.12 291.36,-193.14"/>
</g>
<!-- Node7 -->
<g id="node7" class="node">
<title>Node7</title>
<g id="a_node7"><a xlink:href="_job_get_signature_8h.html" target="_top" xlink:title=" ">
<polygon fill="white" stroke="black" points="22,-134.5 22,-164.5 129,-164.5 129,-134.5 22,-134.5"/>
<text text-anchor="start" x="30" y="-152.5" font-family="Helvetica,sans-Serif" font-size="10.00">source/app/sign/jobs</text>
<text text-anchor="middle" x="75.5" y="-141.5" font-family="Helvetica,sans-Serif" font-size="10.00">/JobGetSignature.h</text>
</a>
</g>
</g>
<!-- Node6&#45;&gt;Node7 -->
<g id="edge8" class="edge">
<title>Node6&#45;&gt;Node7</title>
<path fill="none" stroke="midnightblue" d="M204.35,-197.82C175.9,-187.37 140.37,-174.32 113.83,-164.58"/>
<polygon fill="midnightblue" stroke="midnightblue" points="203.5,-201.23 214.09,-201.4 205.91,-194.66 203.5,-201.23"/>
</g>
<!-- Node9 -->
<g id="node9" class="node">
<title>Node9</title>
<g id="a_node9"><a xlink:href="_file_signature_creation_context_8cpp.html" target="_top" xlink:title=" ">
<polygon fill="white" stroke="black" points="147,-134.5 147,-164.5 314,-164.5 314,-134.5 147,-134.5"/>
<text text-anchor="start" x="155" y="-152.5" font-family="Helvetica,sans-Serif" font-size="10.00">source/app/sign/internal</text>
<text text-anchor="middle" x="230.5" y="-141.5" font-family="Helvetica,sans-Serif" font-size="10.00">/FileSignatureCreationContext.cpp</text>
</a>
</g>
</g>
<!-- Node6&#45;&gt;Node9 -->
<g id="edge12" class="edge">
<title>Node6&#45;&gt;Node9</title>
<path fill="none" stroke="midnightblue" d="M244.44,-191.7C241.36,-182.59 237.94,-172.49 235.26,-164.58"/>
<polygon fill="midnightblue" stroke="midnightblue" points="241.21,-193.05 247.73,-201.4 247.84,-190.8 241.21,-193.05"/>
</g>
<!-- Node7&#45;&gt;Node3 -->
<g id="edge9" class="edge">
<title>Node7&#45;&gt;Node3</title>
<path fill="none" stroke="midnightblue" d="M71.47,-124.32C66.48,-94.38 58.24,-44.91 54.93,-25.1"/>
<polygon fill="midnightblue" stroke="midnightblue" points="68.05,-125.09 73.15,-134.37 74.95,-123.93 68.05,-125.09"/>
</g>
<!-- Node7&#45;&gt;Node4 -->
<g id="edge10" class="edge">
<title>Node7&#45;&gt;Node4</title>
<path fill="none" stroke="midnightblue" d="M136.96,-131.71C175.69,-121.14 225.13,-107.63 261.83,-97.61"/>
<polygon fill="midnightblue" stroke="midnightblue" points="135.57,-128.46 126.85,-134.48 137.42,-135.22 135.57,-128.46"/>
</g>
<!-- Node8 -->
<g id="node8" class="node">
<title>Node8</title>
<g id="a_node8"><a xlink:href="_job_get_signature_8cpp.html" target="_top" xlink:title=" ">
<polygon fill="white" stroke="black" points="82,-67.5 82,-97.5 193,-97.5 193,-67.5 82,-67.5"/>
<text text-anchor="start" x="90" y="-85.5" font-family="Helvetica,sans-Serif" font-size="10.00">source/app/sign/jobs</text>
<text text-anchor="middle" x="137.5" y="-74.5" font-family="Helvetica,sans-Serif" font-size="10.00">/JobGetSignature.cpp</text>
</a>
</g>
</g>
<!-- Node7&#45;&gt;Node8 -->
<g id="edge11" class="edge">
<title>Node7&#45;&gt;Node8</title>
<path fill="none" stroke="midnightblue" d="M95.98,-127.02C105.22,-117.34 115.87,-106.17 124.07,-97.58"/>
<polygon fill="midnightblue" stroke="midnightblue" points="93.32,-124.74 88.95,-134.4 98.39,-129.58 93.32,-124.74"/>
</g>
</g>
</svg>
        <g id="navigator" transform="translate(0 0)" fill="#404254">
                <rect fill="#f2f5e9" fill-opacity="0.5" stroke="#606060" stroke-width=".5" x="0" y="0" width="60" height="60"/>
                <use id="zoomplus" xlink:href="#zoomPlus" x="17" y="9" onmousedown="handleZoom(evt,'in')"/>
                <use id="zoomminus" xlink:href="#zoomMin" x="42" y="9" onmousedown="handleZoom(evt,'out')"/>
                <use id="reset" xlink:href="#resetDef" x="30" y="36" onmousedown="handleReset()"/>
                <g id="arrowUp" xlink:href="#dirArrow" transform="translate(30 24)" onmousedown="handlePan(0,-1)">
                  <use xlink:href="#rim" fill="#404040">
                        <set attributeName="fill" to="#808080" begin="arrowUp.mouseover" end="arrowUp.mouseout"/>
                  </use>
                  <path fill="none" stroke="white" stroke-width="1.5" d="M0,-3.0v7 M-2.5,-0.5L0,-3.0L2.5,-0.5"/>
                </g>
                <g id="arrowRight" xlink:href="#dirArrow" transform="rotate(90) translate(36 -43)" onmousedown="handlePan(1,0)">
                  <use xlink:href="#rim" fill="#404040">
                        <set attributeName="fill" to="#808080" begin="arrowRight.mouseover" end="arrowRight.mouseout"/>
                  </use>
                  <path fill="none" stroke="white" stroke-width="1.5" d="M0,-3.0v7 M-2.5,-0.5L0,-3.0L2.5,-0.5"/>
                </g>
                <g id="arrowDown" xlink:href="#dirArrow" transform="rotate(180) translate(-30 -48)" onmousedown="handlePan(0,1)">
                  <use xlink:href="#rim" fill="#404040">
                        <set attributeName="fill" to="#808080" begin="arrowDown.mouseover" end="arrowDown.mouseout"/>
                  </use>
                  <path fill="none" stroke="white" stroke-width="1.5" d="M0,-3.0v7 M-2.5,-0.5L0,-3.0L2.5,-0.5"/>
                </g>
                <g id="arrowLeft" xlink:href="#dirArrow" transform="rotate(270) translate(-36 17)" onmousedown="handlePan(-1,0)">
                  <use xlink:href="#rim" fill="#404040">
                        <set attributeName="fill" to="#808080" begin="arrowLeft.mouseover" end="arrowLeft.mouseout"/>
                  </use>
                  <path fill="none" stroke="white" stroke-width="1.5" d="M0,-3.0v7 M-2.5,-0.5L0,-3.0L2.5,-0.5"/>
                </g>
        </g>
        <svg viewBox="0 0 15 15" width="100%" height="30px" preserveAspectRatio="xMaxYMin meet">
         <g id="arrow_out" transform="scale(0.3 0.3)">
          <a xlink:href="_e_thread_pool_state_8h__dep__incl_org.svg" target="_base">
           <rect id="button" ry="5" rx="5" y="6" x="6" height="38" width="38"
                fill="#f2f5e9" fill-opacity="0.5" stroke="#606060" stroke-width="1.0"/>
           <path id="arrow"
             d="M 11.500037,31.436501 C 11.940474,20.09759 22.043105,11.32322 32.158766,21.979434 L 37.068811,17.246167 C 37.068811,17.246167 37.088388,32 37.088388,32 L 22.160133,31.978069 C 22.160133,31.978069 26.997745,27.140456 26.997745,27.140456 C 18.528582,18.264221 13.291696,25.230495 11.500037,31.436501 z"
             style="fill:#404040;"/>
          </a>
         </g>
        </svg>
</svg>
