<?xml version="1.0" encoding="UTF-8" standalone="no"?>
<!DOCTYPE svg PUBLIC "-//W3C//DTD SVG 1.1//EN"
 "http://www.w3.org/Graphics/SVG/1.1/DTD/svg11.dtd">
<!-- Generated by graphviz version 2.44.1 (20200629.0846)
 -->
<!-- Title: source/app/sign/internal/FileSignatureCreationContext.cpp Pages: 1 -->
<svg width="1026pt" height="274pt"
 viewBox="0.00 0.00 1025.50 274.00" xmlns="http://www.w3.org/2000/svg" xmlns:xlink="http://www.w3.org/1999/xlink">
<g id="graph0" class="graph" transform="scale(1 1) rotate(0) translate(4 270)">
<title>source/app/sign/internal/FileSignatureCreationContext.cpp</title>
<polygon fill="white" stroke="transparent" points="-4,4 -4,-270 1021.5,-270 1021.5,4 -4,4"/>
<!-- Node1 -->
<g id="node1" class="node">
<title>Node1</title>
<g id="a_node1"><a xlink:title=" ">
<polygon fill="#bfbfbf" stroke="black" points="306.5,-235.5 306.5,-265.5 473.5,-265.5 473.5,-235.5 306.5,-235.5"/>
<text text-anchor="start" x="314.5" y="-253.5" font-family="Helvetica,sans-Serif" font-size="10.00">source/app/sign/internal</text>
<text text-anchor="middle" x="390" y="-242.5" font-family="Helvetica,sans-Serif" font-size="10.00">/FileSignatureCreationContext.cpp</text>
</a>
</g>
</g>
<!-- Node2 -->
<g id="node2" class="node">
<title>Node2</title>
<g id="a_node2"><a xlink:href="_file_signature_creation_context_8h.html" target="_top" xlink:title=" ">
<polygon fill="white" stroke="black" points="313.5,-179.5 313.5,-198.5 466.5,-198.5 466.5,-179.5 313.5,-179.5"/>
<text text-anchor="middle" x="390" y="-186.5" font-family="Helvetica,sans-Serif" font-size="10.00">FileSignatureCreationContext.h</text>
</a>
</g>
</g>
<!-- Node1&#45;&gt;Node2 -->
<g id="edge1" class="edge">
<title>Node1&#45;&gt;Node2</title>
<path fill="none" stroke="midnightblue" d="M390,-235.4C390,-227.47 390,-217.46 390,-208.86"/>
<polygon fill="midnightblue" stroke="midnightblue" points="393.5,-208.66 390,-198.66 386.5,-208.66 393.5,-208.66"/>
</g>
<!-- Node3 -->
<g id="node3" class="node">
<title>Node3</title>
<g id="a_node3"><a xlink:title=" ">
<polygon fill="white" stroke="#bfbfbf" points="264,-56.5 264,-75.5 310,-75.5 310,-56.5 264,-56.5"/>
<text text-anchor="middle" x="287" y="-63.5" font-family="Helvetica,sans-Serif" font-size="10.00">atomic</text>
</a>
</g>
</g>
<!-- Node2&#45;&gt;Node3 -->
<g id="edge2" class="edge">
<title>Node2&#45;&gt;Node3</title>
<path fill="none" stroke="midnightblue" d="M382.59,-179.3C365.52,-159.24 323.17,-109.49 301.01,-83.46"/>
<polygon fill="midnightblue" stroke="midnightblue" points="303.49,-80.97 294.34,-75.62 298.16,-85.51 303.49,-80.97"/>
</g>
<!-- Node4 -->
<g id="node4" class="node">
<title>Node4</title>
<g id="a_node4"><a xlink:title=" ">
<polygon fill="white" stroke="#bfbfbf" points="85.5,-118 85.5,-137 120.5,-137 120.5,-118 85.5,-118"/>
<text text-anchor="middle" x="103" y="-125" font-family="Helvetica,sans-Serif" font-size="10.00">map</text>
</a>
</g>
</g>
<!-- Node2&#45;&gt;Node4 -->
<g id="edge3" class="edge">
<title>Node2&#45;&gt;Node4</title>
<path fill="none" stroke="midnightblue" d="M313.3,-181.27C260.65,-175.08 189.76,-163.61 130,-143 128.76,-142.57 127.5,-142.09 126.24,-141.57"/>
<polygon fill="midnightblue" stroke="midnightblue" points="127.43,-138.26 116.9,-137.07 124.39,-144.56 127.43,-138.26"/>
</g>
<!-- Node5 -->
<g id="node5" class="node">
<title>Node5</title>
<g id="a_node5"><a xlink:title=" ">
<polygon fill="white" stroke="#bfbfbf" points="860,-56.5 860,-75.5 904,-75.5 904,-56.5 860,-56.5"/>
<text text-anchor="middle" x="882" y="-63.5" font-family="Helvetica,sans-Serif" font-size="10.00">mutex</text>
</a>
</g>
</g>
<!-- Node2&#45;&gt;Node5 -->
<g id="edge4" class="edge">
<title>Node2&#45;&gt;Node5</title>
<path fill="none" stroke="midnightblue" d="M440.76,-179.48C487.75,-171.27 559.45,-157.92 621,-143 704.5,-122.75 801.23,-92.87 850.15,-77.29"/>
<polygon fill="midnightblue" stroke="midnightblue" points="851.38,-80.57 859.84,-74.2 849.25,-73.91 851.38,-80.57"/>
</g>
<!-- Node6 -->
<g id="node6" class="node">
<title>Node6</title>
<g id="a_node6"><a xlink:title=" ">
<polygon fill="white" stroke="#bfbfbf" points="328,-56.5 328,-75.5 372,-75.5 372,-56.5 328,-56.5"/>
<text text-anchor="middle" x="350" y="-63.5" font-family="Helvetica,sans-Serif" font-size="10.00">vector</text>
</a>
</g>
</g>
<!-- Node2&#45;&gt;Node6 -->
<g id="edge5" class="edge">
<title>Node2&#45;&gt;Node6</title>
<path fill="none" stroke="midnightblue" d="M387.12,-179.3C380.64,-159.68 364.76,-111.64 356.01,-85.19"/>
<polygon fill="midnightblue" stroke="midnightblue" points="359.31,-84.02 352.85,-75.62 352.67,-86.22 359.31,-84.02"/>
</g>
<!-- Node7 -->
<g id="node7" class="node">
<title>Node7</title>
<g id="a_node7"><a xlink:title=" ">
<polygon fill="white" stroke="#bfbfbf" points="0,-56.5 0,-75.5 50,-75.5 50,-56.5 0,-56.5"/>
<text text-anchor="middle" x="25" y="-63.5" font-family="Helvetica,sans-Serif" font-size="10.00">fstream</text>
</a>
</g>
</g>
<!-- Node2&#45;&gt;Node7 -->
<g id="edge6" class="edge">
<title>Node2&#45;&gt;Node7</title>
<path fill="none" stroke="midnightblue" d="M313.32,-184.01C233.64,-178.64 115.33,-166.86 77,-143 55.22,-129.44 40.31,-103.01 32.22,-85.18"/>
<polygon fill="midnightblue" stroke="midnightblue" points="35.38,-83.66 28.24,-75.83 28.93,-86.41 35.38,-83.66"/>
</g>
<!-- Node8 -->
<g id="node8" class="node">
<title>Node8</title>
<g id="a_node8"><a xlink:title=" ">
<polygon fill="white" stroke="#bfbfbf" points="390,-56.5 390,-75.5 442,-75.5 442,-56.5 390,-56.5"/>
<text text-anchor="middle" x="416" y="-63.5" font-family="Helvetica,sans-Serif" font-size="10.00">memory</text>
</a>
</g>
</g>
<!-- Node2&#45;&gt;Node8 -->
<g id="edge7" class="edge">
<title>Node2&#45;&gt;Node8</title>
<path fill="none" stroke="midnightblue" d="M391.87,-179.3C396.07,-159.76 406.32,-112.06 412.01,-85.55"/>
<polygon fill="midnightblue" stroke="midnightblue" points="415.47,-86.14 414.15,-75.62 408.62,-84.66 415.47,-86.14"/>
</g>
<!-- Node9 -->
<g id="node9" class="node">
<title>Node9</title>
<g id="a_node9"><a xlink:href="_signature_creation_params_8h.html" target="_top" xlink:title=" ">
<polygon fill="white" stroke="black" points="139,-112.5 139,-142.5 273,-142.5 273,-112.5 139,-112.5"/>
<text text-anchor="start" x="147" y="-130.5" font-family="Helvetica,sans-Serif" font-size="10.00">app/sign/SignatureCreation</text>
<text text-anchor="middle" x="206" y="-119.5" font-family="Helvetica,sans-Serif" font-size="10.00">Params.h</text>
</a>
</g>
</g>
<!-- Node2&#45;&gt;Node9 -->
<g id="edge8" class="edge">
<title>Node2&#45;&gt;Node9</title>
<path fill="none" stroke="midnightblue" d="M363.64,-179.48C336.5,-170.7 293.48,-156.79 259.23,-145.71"/>
<polygon fill="midnightblue" stroke="midnightblue" points="259.96,-142.27 249.37,-142.52 257.8,-148.93 259.96,-142.27"/>
</g>
<!-- Node13 -->
<g id="node13" class="node">
<title>Node13</title>
<g id="a_node13"><a xlink:href="_thread_pool_8h.html" target="_top" xlink:title=" ">
<polygon fill="white" stroke="black" points="504.5,-112.5 504.5,-142.5 611.5,-142.5 611.5,-112.5 504.5,-112.5"/>
<text text-anchor="start" x="512.5" y="-130.5" font-family="Helvetica,sans-Serif" font-size="10.00">app/utils/thread_pool</text>
<text text-anchor="middle" x="558" y="-119.5" font-family="Helvetica,sans-Serif" font-size="10.00">/ThreadPool.h</text>
</a>
</g>
</g>
<!-- Node2&#45;&gt;Node13 -->
<g id="edge13" class="edge">
<title>Node2&#45;&gt;Node13</title>
<path fill="none" stroke="midnightblue" d="M414.07,-179.48C438.63,-170.78 477.45,-157.03 508.59,-146"/>
<polygon fill="midnightblue" stroke="midnightblue" points="510.15,-149.16 518.41,-142.52 507.81,-142.56 510.15,-149.16"/>
</g>
<!-- Node16 -->
<g id="node16" class="node">
<title>Node16</title>
<g id="a_node16"><a xlink:title=" ">
<polygon fill="white" stroke="#bfbfbf" points="922.5,-56.5 922.5,-75.5 1017.5,-75.5 1017.5,-56.5 922.5,-56.5"/>
<text text-anchor="middle" x="970" y="-63.5" font-family="Helvetica,sans-Serif" font-size="10.00">condition_variable</text>
</a>
</g>
</g>
<!-- Node2&#45;&gt;Node16 -->
<g id="edge26" class="edge">
<title>Node2&#45;&gt;Node16</title>
<path fill="none" stroke="midnightblue" d="M466.74,-186.33C609.79,-182.55 906.1,-171.36 943,-143 960.57,-129.5 966.73,-103.65 968.88,-85.87"/>
<polygon fill="midnightblue" stroke="midnightblue" points="972.38,-86.07 969.78,-75.8 965.4,-85.45 972.38,-86.07"/>
</g>
<!-- Node21 -->
<g id="node21" class="node">
<title>Node21</title>
<g id="a_node21"><a xlink:href="_semaphore_8h.html" target="_top" xlink:title=" ">
<polygon fill="white" stroke="black" points="830,-112.5 830,-142.5 934,-142.5 934,-112.5 830,-112.5"/>
<text text-anchor="start" x="838" y="-130.5" font-family="Helvetica,sans-Serif" font-size="10.00">app/utils/semaphore</text>
<text text-anchor="middle" x="882" y="-119.5" font-family="Helvetica,sans-Serif" font-size="10.00">/Semaphore.h</text>
</a>
</g>
</g>
<!-- Node2&#45;&gt;Node21 -->
<g id="edge27" class="edge">
<title>Node2&#45;&gt;Node21</title>
<path fill="none" stroke="midnightblue" d="M460.49,-179.48C556.79,-167.83 727.95,-147.13 819.75,-136.03"/>
<polygon fill="midnightblue" stroke="midnightblue" points="820.22,-139.5 829.73,-134.82 819.38,-132.55 820.22,-139.5"/>
</g>
<!-- Node9&#45;&gt;Node7 -->
<g id="edge11" class="edge">
<title>Node9&#45;&gt;Node7</title>
<path fill="none" stroke="midnightblue" d="M163.11,-112.4C131.59,-102.04 89.31,-88.14 59.87,-78.46"/>
<polygon fill="midnightblue" stroke="midnightblue" points="60.62,-75.02 50.03,-75.23 58.43,-81.67 60.62,-75.02"/>
</g>
<!-- Node10 -->
<g id="node10" class="node">
<title>Node10</title>
<g id="a_node10"><a xlink:title=" ">
<polygon fill="white" stroke="#bfbfbf" points="128,-56.5 128,-75.5 168,-75.5 168,-56.5 128,-56.5"/>
<text text-anchor="middle" x="148" y="-63.5" font-family="Helvetica,sans-Serif" font-size="10.00">utility</text>
</a>
</g>
</g>
<!-- Node9&#45;&gt;Node10 -->
<g id="edge9" class="edge">
<title>Node9&#45;&gt;Node10</title>
<path fill="none" stroke="midnightblue" d="M192.25,-112.4C183.65,-103.58 172.55,-92.18 163.61,-83.02"/>
<polygon fill="midnightblue" stroke="midnightblue" points="165.93,-80.38 156.44,-75.66 160.91,-85.26 165.93,-80.38"/>
</g>
<!-- Node11 -->
<g id="node11" class="node">
<title>Node11</title>
<g id="a_node11"><a xlink:title=" ">
<polygon fill="white" stroke="#bfbfbf" points="68.5,-56.5 68.5,-75.5 109.5,-75.5 109.5,-56.5 68.5,-56.5"/>
<text text-anchor="middle" x="89" y="-63.5" font-family="Helvetica,sans-Serif" font-size="10.00">string</text>
</a>
</g>
</g>
<!-- Node9&#45;&gt;Node11 -->
<g id="edge10" class="edge">
<title>Node9&#45;&gt;Node11</title>
<path fill="none" stroke="midnightblue" d="M178.27,-112.4C159.17,-102.68 133.94,-89.86 115.18,-80.31"/>
<polygon fill="midnightblue" stroke="midnightblue" points="116.52,-77.07 106.02,-75.66 113.35,-83.31 116.52,-77.07"/>
</g>
<!-- Node12 -->
<g id="node12" class="node">
<title>Node12</title>
<g id="a_node12"><a xlink:title=" ">
<polygon fill="white" stroke="#bfbfbf" points="186.5,-56.5 186.5,-75.5 245.5,-75.5 245.5,-56.5 186.5,-56.5"/>
<text text-anchor="middle" x="216" y="-63.5" font-family="Helvetica,sans-Serif" font-size="10.00">exception</text>
</a>
</g>
</g>
<!-- Node9&#45;&gt;Node12 -->
<g id="edge12" class="edge">
<title>Node9&#45;&gt;Node12</title>
<path fill="none" stroke="midnightblue" d="M208.37,-112.4C209.72,-104.38 211.42,-94.23 212.88,-85.57"/>
<polygon fill="midnightblue" stroke="midnightblue" points="216.34,-86.1 214.54,-75.66 209.44,-84.94 216.34,-86.1"/>
</g>
<!-- Node13&#45;&gt;Node3 -->
<g id="edge21" class="edge">
<title>Node13&#45;&gt;Node3</title>
<path fill="none" stroke="midnightblue" d="M504.14,-116.17C457.73,-107.04 388.75,-92.89 319.76,-76.06"/>
<polygon fill="midnightblue" stroke="midnightblue" points="320.57,-72.66 310.02,-73.67 318.9,-79.46 320.57,-72.66"/>
</g>
<!-- Node13&#45;&gt;Node5 -->
<g id="edge20" class="edge">
<title>Node13&#45;&gt;Node5</title>
<path fill="none" stroke="midnightblue" d="M611.56,-119.11C668.44,-110.85 761.13,-96.21 849.78,-76.08"/>
<polygon fill="midnightblue" stroke="midnightblue" points="850.77,-79.44 859.73,-73.79 849.2,-72.62 850.77,-79.44"/>
</g>
<!-- Node13&#45;&gt;Node6 -->
<g id="edge17" class="edge">
<title>Node13&#45;&gt;Node6</title>
<path fill="none" stroke="midnightblue" d="M508.39,-112.41C475.12,-102.95 430.05,-90.1 381.72,-76.2"/>
<polygon fill="midnightblue" stroke="midnightblue" points="382.59,-72.81 372.01,-73.4 380.65,-79.53 382.59,-72.81"/>
</g>
<!-- Node13&#45;&gt;Node8 -->
<g id="edge14" class="edge">
<title>Node13&#45;&gt;Node8</title>
<path fill="none" stroke="midnightblue" d="M524.35,-112.4C500.52,-102.42 468.85,-89.15 445.91,-79.53"/>
<polygon fill="midnightblue" stroke="midnightblue" points="447.24,-76.29 436.66,-75.66 444.53,-82.75 447.24,-76.29"/>
</g>
<!-- Node13&#45;&gt;Node12 -->
<g id="edge16" class="edge">
<title>Node13&#45;&gt;Node12</title>
<path fill="none" stroke="midnightblue" d="M504.45,-118.6C445.84,-109.72 348.87,-94.36 255.65,-76.03"/>
<polygon fill="midnightblue" stroke="midnightblue" points="256.26,-72.58 245.77,-74.07 254.9,-79.45 256.26,-72.58"/>
</g>
<!-- Node14 -->
<g id="node14" class="node">
<title>Node14</title>
<g id="a_node14"><a xlink:title=" ">
<polygon fill="white" stroke="#bfbfbf" points="582,-56.5 582,-75.5 626,-75.5 626,-56.5 582,-56.5"/>
<text text-anchor="middle" x="604" y="-63.5" font-family="Helvetica,sans-Serif" font-size="10.00">thread</text>
</a>
</g>
</g>
<!-- Node13&#45;&gt;Node14 -->
<g id="edge15" class="edge">
<title>Node13&#45;&gt;Node14</title>
<path fill="none" stroke="midnightblue" d="M568.9,-112.4C575.59,-103.75 584.18,-92.64 591.18,-83.58"/>
<polygon fill="midnightblue" stroke="midnightblue" points="593.96,-85.71 597.31,-75.66 588.42,-81.43 593.96,-85.71"/>
</g>
<!-- Node15 -->
<g id="node15" class="node">
<title>Node15</title>
<g id="a_node15"><a xlink:title=" ">
<polygon fill="white" stroke="#bfbfbf" points="644.5,-56.5 644.5,-75.5 687.5,-75.5 687.5,-56.5 644.5,-56.5"/>
<text text-anchor="middle" x="666" y="-63.5" font-family="Helvetica,sans-Serif" font-size="10.00">queue</text>
</a>
</g>
</g>
<!-- Node13&#45;&gt;Node15 -->
<g id="edge18" class="edge">
<title>Node13&#45;&gt;Node15</title>
<path fill="none" stroke="midnightblue" d="M583.59,-112.4C601.07,-102.77 624.09,-90.09 641.36,-80.58"/>
<polygon fill="midnightblue" stroke="midnightblue" points="643.22,-83.55 650.29,-75.66 639.84,-77.42 643.22,-83.55"/>
</g>
<!-- Node13&#45;&gt;Node16 -->
<g id="edge19" class="edge">
<title>Node13&#45;&gt;Node16</title>
<path fill="none" stroke="midnightblue" d="M611.56,-119.14C679.13,-109.8 799.15,-93.01 912.53,-76.05"/>
<polygon fill="midnightblue" stroke="midnightblue" points="913.05,-79.51 922.42,-74.57 912.01,-72.59 913.05,-79.51"/>
</g>
<!-- Node17 -->
<g id="node17" class="node">
<title>Node17</title>
<g id="a_node17"><a xlink:title=" ">
<polygon fill="white" stroke="#bfbfbf" points="706,-56.5 706,-75.5 760,-75.5 760,-56.5 706,-56.5"/>
<text text-anchor="middle" x="733" y="-63.5" font-family="Helvetica,sans-Serif" font-size="10.00">iostream</text>
</a>
</g>
</g>
<!-- Node13&#45;&gt;Node17 -->
<g id="edge22" class="edge">
<title>Node13&#45;&gt;Node17</title>
<path fill="none" stroke="midnightblue" d="M599.47,-112.4C629.58,-102.16 669.85,-88.47 698.27,-78.81"/>
<polygon fill="midnightblue" stroke="midnightblue" points="699.45,-82.1 707.79,-75.57 697.2,-75.48 699.45,-82.1"/>
</g>
<!-- Node18 -->
<g id="node18" class="node">
<title>Node18</title>
<g id="a_node18"><a xlink:href="_job_base_8h.html" target="_top" xlink:title=" ">
<polygon fill="white" stroke="black" points="778.5,-56.5 778.5,-75.5 841.5,-75.5 841.5,-56.5 778.5,-56.5"/>
<text text-anchor="middle" x="810" y="-63.5" font-family="Helvetica,sans-Serif" font-size="10.00">JobBase.h</text>
</a>
</g>
</g>
<!-- Node13&#45;&gt;Node18 -->
<g id="edge23" class="edge">
<title>Node13&#45;&gt;Node18</title>
<path fill="none" stroke="midnightblue" d="M611.75,-113.81C658.59,-102.75 725.54,-86.94 768.39,-76.82"/>
<polygon fill="midnightblue" stroke="midnightblue" points="769.28,-80.21 778.21,-74.51 767.68,-73.4 769.28,-80.21"/>
</g>
<!-- Node19 -->
<g id="node19" class="node">
<title>Node19</title>
<g id="a_node19"><a xlink:href="_e_thread_pool_state_8h.html" target="_top" xlink:title=" ">
<polygon fill="white" stroke="black" points="460,-56.5 460,-75.5 564,-75.5 564,-56.5 460,-56.5"/>
<text text-anchor="middle" x="512" y="-63.5" font-family="Helvetica,sans-Serif" font-size="10.00">EThreadPoolState.h</text>
</a>
</g>
</g>
<!-- Node13&#45;&gt;Node19 -->
<g id="edge24" class="edge">
<title>Node13&#45;&gt;Node19</title>
<path fill="none" stroke="midnightblue" d="M547.1,-112.4C540.41,-103.75 531.82,-92.64 524.82,-83.58"/>
<polygon fill="midnightblue" stroke="midnightblue" points="527.58,-81.43 518.69,-75.66 522.04,-85.71 527.58,-81.43"/>
</g>
<!-- Node20 -->
<g id="node20" class="node">
<title>Node20</title>
<g id="a_node20"><a xlink:title=" ">
<polygon fill="white" stroke="#bfbfbf" points="487.5,-0.5 487.5,-19.5 536.5,-19.5 536.5,-0.5 487.5,-0.5"/>
<text text-anchor="middle" x="512" y="-7.5" font-family="Helvetica,sans-Serif" font-size="10.00">stdint.h</text>
</a>
</g>
</g>
<!-- Node19&#45;&gt;Node20 -->
<g id="edge25" class="edge">
<title>Node19&#45;&gt;Node20</title>
<path fill="none" stroke="midnightblue" d="M512,-56.08C512,-49.01 512,-38.86 512,-29.99"/>
<polygon fill="midnightblue" stroke="midnightblue" points="515.5,-29.75 512,-19.75 508.5,-29.75 515.5,-29.75"/>
</g>
<!-- Node21&#45;&gt;Node5 -->
<g id="edge28" class="edge">
<title>Node21&#45;&gt;Node5</title>
<path fill="none" stroke="midnightblue" d="M882,-112.4C882,-104.47 882,-94.46 882,-85.86"/>
<polygon fill="midnightblue" stroke="midnightblue" points="885.5,-85.66 882,-75.66 878.5,-85.66 885.5,-85.66"/>
</g>
<!-- Node21&#45;&gt;Node16 -->
<g id="edge29" class="edge">
<title>Node21&#45;&gt;Node16</title>
<path fill="none" stroke="midnightblue" d="M902.85,-112.4C916.7,-103.04 934.81,-90.79 948.74,-81.38"/>
<polygon fill="midnightblue" stroke="midnightblue" points="950.87,-84.16 957.2,-75.66 946.95,-78.36 950.87,-84.16"/>
</g>
</g>
</svg>
