<?xml version="1.0" encoding="UTF-8" standalone="no"?>
<!DOCTYPE svg PUBLIC "-//W3C//DTD SVG 1.1//EN"
 "http://www.w3.org/Graphics/SVG/1.1/DTD/svg11.dtd">
<!-- Generated by graphviz version 2.44.1 (20200629.0846)
 -->
<!-- Title: source/app/sign/FileSignatureCreator.cpp Pages: 1 -->
<!--zoomable 408 -->
<svg id="main" version="1.1" xmlns="http://www.w3.org/2000/svg" xmlns:xlink="http://www.w3.org/1999/xlink" xml:space="preserve" onload="init(evt)">
<style type="text/css"><![CDATA[
.edge:hover path { stroke: red; }
.edge:hover polygon { stroke: red; fill: red; }
]]></style>
<script type="text/javascript"><![CDATA[
var edges = document.getElementsByTagName('g');
if (edges && edges.length) {
  for (var i=0;i<edges.length;i++) {
    if (edges[i].id.substr(0,4)=='edge') {
      edges[i].setAttribute('class','edge');
    }
  }
}
]]></script>
        <defs>
                <circle id="rim" cx="0" cy="0" r="7"/>
                <circle id="rim2" cx="0" cy="0" r="3.5"/>
                <g id="zoomPlus">
                        <use xlink:href="#rim" fill="#404040">
                                <set attributeName="fill" to="#808080" begin="zoomplus.mouseover" end="zoomplus.mouseout"/>
                        </use>
                        <path d="M-4,0h8M0,-4v8" fill="none" stroke="white" stroke-width="1.5" pointer-events="none"/>
                </g>
                <g id="zoomMin">
                        <use xlink:href="#rim" fill="#404040">
                                <set attributeName="fill" to="#808080" begin="zoomminus.mouseover" end="zoomminus.mouseout"/>
                        </use>
                        <path d="M-4,0h8" fill="none" stroke="white" stroke-width="1.5" pointer-events="none"/>
                </g>
                <g id="dirArrow">
                        <path fill="none" stroke="white" stroke-width="1.5" d="M0,-3.0v7 M-2.5,-0.5L0,-3.0L2.5,-0.5"/>
                </g>
               <g id="resetDef">
                       <use xlink:href="#rim2" fill="#404040">
                               <set attributeName="fill" to="#808080" begin="reset.mouseover" end="reset.mouseout"/>
                       </use>
               </g>
        </defs>

<script type="text/javascript">
var viewWidth = 1073;
var viewHeight = 408;
var sectionId = 'dynsection-0';
</script>
<script xlink:href="svgpan.js"/>
<svg id="graph" class="graph">
<g id="viewport">
<title>source/app/sign/FileSignatureCreator.cpp</title>
<polygon fill="white" stroke="transparent" points="-4,4 -4,-404 1069,-404 1069,4 -4,4"/>
<!-- Node1 -->
<g id="node1" class="node">
<title>Node1</title>
<g id="a_node1"><a xlink:title=" ">
<polygon fill="#bfbfbf" stroke="black" points="493,-369.5 493,-399.5 639,-399.5 639,-369.5 493,-369.5"/>
<text text-anchor="start" x="501" y="-387.5" font-family="Helvetica,sans-Serif" font-size="10.00">source/app/sign/FileSignature</text>
<text text-anchor="middle" x="566" y="-376.5" font-family="Helvetica,sans-Serif" font-size="10.00">Creator.cpp</text>
</a>
</g>
</g>
<!-- Node2 -->
<g id="node2" class="node">
<title>Node2</title>
<g id="a_node2"><a xlink:href="_file_signature_creator_8h.html" target="_top" xlink:title=" ">
<polygon fill="white" stroke="black" points="509.5,-313.5 509.5,-332.5 622.5,-332.5 622.5,-313.5 509.5,-313.5"/>
<text text-anchor="middle" x="566" y="-320.5" font-family="Helvetica,sans-Serif" font-size="10.00">FileSignatureCreator.h</text>
</a>
</g>
</g>
<!-- Node1&#45;&gt;Node2 -->
<g id="edge1" class="edge">
<title>Node1&#45;&gt;Node2</title>
<path fill="none" stroke="midnightblue" d="M566,-369.4C566,-361.47 566,-351.46 566,-342.86"/>
<polygon fill="midnightblue" stroke="midnightblue" points="569.5,-342.66 566,-332.66 562.5,-342.66 569.5,-342.66"/>
</g>
<!-- Node3 -->
<g id="node3" class="node">
<title>Node3</title>
<g id="a_node3"><a xlink:title=" ">
<polygon fill="white" stroke="#bfbfbf" points="0,-62 0,-81 40,-81 40,-62 0,-62"/>
<text text-anchor="middle" x="20" y="-69" font-family="Helvetica,sans-Serif" font-size="10.00">utility</text>
</a>
</g>
</g>
<!-- Node2&#45;&gt;Node3 -->
<g id="edge2" class="edge">
<title>Node2&#45;&gt;Node3</title>
<path fill="none" stroke="midnightblue" d="M509.19,-316.12C460.37,-309.93 388.63,-298.05 329,-277 219.69,-238.41 191.56,-223.79 99,-154 73.41,-134.7 48.45,-107.03 33.64,-89.41"/>
<polygon fill="midnightblue" stroke="midnightblue" points="35.94,-86.7 26.88,-81.21 30.54,-91.15 35.94,-86.7"/>
</g>
<!-- Node4 -->
<g id="node4" class="node">
<title>Node4</title>
<g id="a_node4"><a xlink:href="_signature_creation_params_8h.html" target="_top" xlink:title=" ">
<polygon fill="white" stroke="black" points="108,-123.5 108,-153.5 242,-153.5 242,-123.5 108,-123.5"/>
<text text-anchor="start" x="116" y="-141.5" font-family="Helvetica,sans-Serif" font-size="10.00">app/sign/SignatureCreation</text>
<text text-anchor="middle" x="175" y="-130.5" font-family="Helvetica,sans-Serif" font-size="10.00">Params.h</text>
</a>
</g>
</g>
<!-- Node2&#45;&gt;Node4 -->
<g id="edge3" class="edge">
<title>Node2&#45;&gt;Node4</title>
<path fill="none" stroke="midnightblue" d="M509.11,-314.78C469.2,-308.32 415.27,-296.73 371,-277 302.46,-246.45 233.12,-190.61 198.19,-160.34"/>
<polygon fill="midnightblue" stroke="midnightblue" points="200.3,-157.54 190.47,-153.58 195.69,-162.8 200.3,-157.54"/>
</g>
<!-- Node8 -->
<g id="node8" class="node">
<title>Node8</title>
<g id="a_node8"><a xlink:href="_job_get_signature_8h.html" target="_top" xlink:title=" ">
<polygon fill="white" stroke="black" points="380,-257.5 380,-276.5 538,-276.5 538,-257.5 380,-257.5"/>
<text text-anchor="middle" x="459" y="-264.5" font-family="Helvetica,sans-Serif" font-size="10.00">app/sign/jobs/JobGetSignature.h</text>
</a>
</g>
</g>
<!-- Node2&#45;&gt;Node8 -->
<g id="edge8" class="edge">
<title>Node2&#45;&gt;Node8</title>
<path fill="none" stroke="midnightblue" d="M548.81,-313.32C531.65,-304.66 505.05,-291.24 485.25,-281.25"/>
<polygon fill="midnightblue" stroke="midnightblue" points="486.65,-278.04 476.15,-276.65 483.5,-284.28 486.65,-278.04"/>
</g>
<!-- Node11 -->
<g id="node11" class="node">
<title>Node11</title>
<g id="a_node11"><a xlink:href="_file_signature_creation_context_8h.html" target="_top" xlink:title=" ">
<polygon fill="white" stroke="black" points="439,-190.5 439,-220.5 587,-220.5 587,-190.5 439,-190.5"/>
<text text-anchor="start" x="447" y="-208.5" font-family="Helvetica,sans-Serif" font-size="10.00">app/sign/internal/FileSignature</text>
<text text-anchor="middle" x="513" y="-197.5" font-family="Helvetica,sans-Serif" font-size="10.00">CreationContext.h</text>
</a>
</g>
</g>
<!-- Node2&#45;&gt;Node11 -->
<g id="edge40" class="edge">
<title>Node2&#45;&gt;Node11</title>
<path fill="none" stroke="midnightblue" d="M564.35,-313.28C561.73,-300.51 555.98,-276.16 547,-257 542.47,-247.34 536.23,-237.45 530.33,-229.01"/>
<polygon fill="midnightblue" stroke="midnightblue" points="533.09,-226.85 524.39,-220.81 527.42,-230.96 533.09,-226.85"/>
</g>
<!-- Node13 -->
<g id="node13" class="node">
<title>Node13</title>
<g id="a_node13"><a xlink:title=" ">
<polygon fill="white" stroke="#bfbfbf" points="955,-62 955,-81 999,-81 999,-62 955,-62"/>
<text text-anchor="middle" x="977" y="-69" font-family="Helvetica,sans-Serif" font-size="10.00">mutex</text>
</a>
</g>
</g>
<!-- Node2&#45;&gt;Node13 -->
<g id="edge41" class="edge">
<title>Node2&#45;&gt;Node13</title>
<path fill="none" stroke="midnightblue" d="M582.72,-313.46C615.68,-296.51 691.22,-257.15 753,-221 801.1,-192.85 812.51,-184.73 859,-154 893.47,-131.21 932.84,-103.72 956.27,-87.2"/>
<polygon fill="midnightblue" stroke="midnightblue" points="958.56,-89.86 964.71,-81.23 954.52,-84.15 958.56,-89.86"/>
</g>
<!-- Node16 -->
<g id="node16" class="node">
<title>Node16</title>
<g id="a_node16"><a xlink:href="_thread_pool_8h.html" target="_top" xlink:title=" ">
<polygon fill="white" stroke="black" points="560.5,-123.5 560.5,-153.5 667.5,-153.5 667.5,-123.5 560.5,-123.5"/>
<text text-anchor="start" x="568.5" y="-141.5" font-family="Helvetica,sans-Serif" font-size="10.00">app/utils/thread_pool</text>
<text text-anchor="middle" x="614" y="-130.5" font-family="Helvetica,sans-Serif" font-size="10.00">/ThreadPool.h</text>
</a>
</g>
</g>
<!-- Node2&#45;&gt;Node16 -->
<g id="edge39" class="edge">
<title>Node2&#45;&gt;Node16</title>
<path fill="none" stroke="midnightblue" d="M568.78,-313.41C574.34,-296.06 587.07,-255.53 596,-221 600.97,-201.78 605.78,-179.79 609.17,-163.5"/>
<polygon fill="midnightblue" stroke="midnightblue" points="612.6,-164.21 611.18,-153.71 605.74,-162.8 612.6,-164.21"/>
</g>
<!-- Node17 -->
<g id="node17" class="node">
<title>Node17</title>
<g id="a_node17"><a xlink:title=" ">
<polygon fill="white" stroke="#bfbfbf" points="1021,-62 1021,-81 1065,-81 1065,-62 1021,-62"/>
<text text-anchor="middle" x="1043" y="-69" font-family="Helvetica,sans-Serif" font-size="10.00">thread</text>
</a>
</g>
</g>
<!-- Node2&#45;&gt;Node17 -->
<g id="edge42" class="edge">
<title>Node2&#45;&gt;Node17</title>
<path fill="none" stroke="midnightblue" d="M583.22,-313.44C632.24,-289.04 776.59,-216.82 895,-154 938.77,-130.78 989.21,-102.72 1018.46,-86.32"/>
<polygon fill="midnightblue" stroke="midnightblue" points="1020.53,-89.17 1027.53,-81.23 1017.1,-83.07 1020.53,-89.17"/>
</g>
<!-- Node4&#45;&gt;Node3 -->
<g id="edge4" class="edge">
<title>Node4&#45;&gt;Node3</title>
<path fill="none" stroke="midnightblue" d="M137.72,-123.49C112.46,-113.77 78.45,-100.24 49,-87 47.84,-86.48 46.67,-85.94 45.48,-85.39"/>
<polygon fill="midnightblue" stroke="midnightblue" points="46.98,-82.22 36.45,-81.02 43.93,-88.52 46.98,-82.22"/>
</g>
<!-- Node5 -->
<g id="node5" class="node">
<title>Node5</title>
<g id="a_node5"><a xlink:title=" ">
<polygon fill="white" stroke="#bfbfbf" points="58.5,-62 58.5,-81 99.5,-81 99.5,-62 58.5,-62"/>
<text text-anchor="middle" x="79" y="-69" font-family="Helvetica,sans-Serif" font-size="10.00">string</text>
</a>
</g>
</g>
<!-- Node4&#45;&gt;Node5 -->
<g id="edge5" class="edge">
<title>Node4&#45;&gt;Node5</title>
<path fill="none" stroke="midnightblue" d="M154.17,-123.4C138.22,-112.6 116.3,-97.76 100.25,-86.89"/>
<polygon fill="midnightblue" stroke="midnightblue" points="101.81,-83.72 91.56,-81.01 97.88,-89.51 101.81,-83.72"/>
</g>
<!-- Node6 -->
<g id="node6" class="node">
<title>Node6</title>
<g id="a_node6"><a xlink:title=" ">
<polygon fill="white" stroke="#bfbfbf" points="118,-62 118,-81 168,-81 168,-62 118,-62"/>
<text text-anchor="middle" x="143" y="-69" font-family="Helvetica,sans-Serif" font-size="10.00">fstream</text>
</a>
</g>
</g>
<!-- Node4&#45;&gt;Node6 -->
<g id="edge6" class="edge">
<title>Node4&#45;&gt;Node6</title>
<path fill="none" stroke="midnightblue" d="M168.06,-123.4C163.26,-113.66 156.86,-100.65 151.72,-90.21"/>
<polygon fill="midnightblue" stroke="midnightblue" points="154.84,-88.62 147.28,-81.19 148.56,-91.71 154.84,-88.62"/>
</g>
<!-- Node7 -->
<g id="node7" class="node">
<title>Node7</title>
<g id="a_node7"><a xlink:title=" ">
<polygon fill="white" stroke="#bfbfbf" points="186.5,-62 186.5,-81 245.5,-81 245.5,-62 186.5,-62"/>
<text text-anchor="middle" x="216" y="-69" font-family="Helvetica,sans-Serif" font-size="10.00">exception</text>
</a>
</g>
</g>
<!-- Node4&#45;&gt;Node7 -->
<g id="edge7" class="edge">
<title>Node4&#45;&gt;Node7</title>
<path fill="none" stroke="midnightblue" d="M183.9,-123.4C190.1,-113.56 198.42,-100.38 205.03,-89.89"/>
<polygon fill="midnightblue" stroke="midnightblue" points="208.14,-91.52 210.52,-81.19 202.22,-87.79 208.14,-91.52"/>
</g>
<!-- Node9 -->
<g id="node9" class="node">
<title>Node9</title>
<g id="a_node9"><a xlink:href="_job_base_8h.html" target="_top" xlink:title=" ">
<polygon fill="white" stroke="black" points="263.5,-56.5 263.5,-86.5 370.5,-86.5 370.5,-56.5 263.5,-56.5"/>
<text text-anchor="start" x="271.5" y="-74.5" font-family="Helvetica,sans-Serif" font-size="10.00">app/utils/thread_pool</text>
<text text-anchor="middle" x="317" y="-63.5" font-family="Helvetica,sans-Serif" font-size="10.00">/JobBase.h</text>
</a>
</g>
</g>
<!-- Node8&#45;&gt;Node9 -->
<g id="edge9" class="edge">
<title>Node8&#45;&gt;Node9</title>
<path fill="none" stroke="midnightblue" d="M425.84,-257.36C405.35,-250.51 379.84,-239.03 363,-221 330.7,-186.42 321.07,-129.55 318.2,-97.14"/>
<polygon fill="midnightblue" stroke="midnightblue" points="321.66,-96.5 317.45,-86.78 314.68,-97.01 321.66,-96.5"/>
</g>
<!-- Node10 -->
<g id="node10" class="node">
<title>Node10</title>
<g id="a_node10"><a xlink:title=" ">
<polygon fill="white" stroke="#bfbfbf" points="389,-62 389,-81 435,-81 435,-62 389,-62"/>
<text text-anchor="middle" x="412" y="-69" font-family="Helvetica,sans-Serif" font-size="10.00">atomic</text>
</a>
</g>
</g>
<!-- Node8&#45;&gt;Node10 -->
<g id="edge10" class="edge">
<title>Node8&#45;&gt;Node10</title>
<path fill="none" stroke="midnightblue" d="M443.95,-257.33C417.59,-241.09 364.12,-203.25 346,-154 341.24,-141.07 339.9,-135.35 346,-123 353.92,-106.98 369.62,-94.64 383.73,-86.17"/>
<polygon fill="midnightblue" stroke="midnightblue" points="385.65,-89.1 392.67,-81.16 382.23,-82.99 385.65,-89.1"/>
</g>
<!-- Node8&#45;&gt;Node11 -->
<g id="edge11" class="edge">
<title>Node8&#45;&gt;Node11</title>
<path fill="none" stroke="midnightblue" d="M466.74,-257.48C473.71,-249.79 484.26,-238.17 493.52,-227.96"/>
<polygon fill="midnightblue" stroke="midnightblue" points="496.14,-230.28 500.27,-220.52 490.96,-225.58 496.14,-230.28"/>
</g>
<!-- Node12 -->
<g id="node12" class="node">
<title>Node12</title>
<g id="a_node12"><a xlink:title=" ">
<polygon fill="white" stroke="#bfbfbf" points="354.5,-129 354.5,-148 389.5,-148 389.5,-129 354.5,-129"/>
<text text-anchor="middle" x="372" y="-136" font-family="Helvetica,sans-Serif" font-size="10.00">map</text>
</a>
</g>
</g>
<!-- Node8&#45;&gt;Node12 -->
<g id="edge36" class="edge">
<title>Node8&#45;&gt;Node12</title>
<path fill="none" stroke="midnightblue" d="M453.02,-257.31C438.8,-236.63 402.76,-184.23 383.91,-156.82"/>
<polygon fill="midnightblue" stroke="midnightblue" points="386.57,-154.51 378.02,-148.26 380.8,-158.48 386.57,-154.51"/>
</g>
<!-- Node8&#45;&gt;Node13 -->
<g id="edge37" class="edge">
<title>Node8&#45;&gt;Node13</title>
<path fill="none" stroke="midnightblue" d="M518.39,-257.46C601.07,-243.92 753.98,-212.83 872,-154 907.06,-136.52 941.79,-106.39 961.21,-88.07"/>
<polygon fill="midnightblue" stroke="midnightblue" points="963.77,-90.46 968.56,-81.01 958.92,-85.42 963.77,-90.46"/>
</g>
<!-- Node15 -->
<g id="node15" class="node">
<title>Node15</title>
<g id="a_node15"><a xlink:title=" ">
<polygon fill="white" stroke="#bfbfbf" points="515,-62 515,-81 567,-81 567,-62 515,-62"/>
<text text-anchor="middle" x="541" y="-69" font-family="Helvetica,sans-Serif" font-size="10.00">memory</text>
</a>
</g>
</g>
<!-- Node8&#45;&gt;Node15 -->
<g id="edge38" class="edge">
<title>Node8&#45;&gt;Node15</title>
<path fill="none" stroke="midnightblue" d="M516.31,-257.47C612.2,-241.89 798.46,-205.62 837,-154 887.9,-85.84 827.78,-153.78 577,-87 574.49,-86.33 571.93,-85.54 569.37,-84.67"/>
<polygon fill="midnightblue" stroke="midnightblue" points="570.35,-81.3 559.76,-81.07 567.9,-87.85 570.35,-81.3"/>
</g>
<!-- Node11&#45;&gt;Node4 -->
<g id="edge18" class="edge">
<title>Node11&#45;&gt;Node4</title>
<path fill="none" stroke="midnightblue" d="M440.08,-190.48C384.6,-179.81 308.45,-165.16 252,-154.31"/>
<polygon fill="midnightblue" stroke="midnightblue" points="252.53,-150.85 242.05,-152.39 251.21,-157.72 252.53,-150.85"/>
</g>
<!-- Node11&#45;&gt;Node6 -->
<g id="edge16" class="edge">
<title>Node11&#45;&gt;Node6</title>
<path fill="none" stroke="midnightblue" d="M495.5,-190.47C468.99,-169.48 419.58,-131.48 399,-123 306.58,-84.93 273.01,-114.81 177,-87 174.71,-86.34 172.37,-85.56 170.04,-84.72"/>
<polygon fill="midnightblue" stroke="midnightblue" points="171.29,-81.45 160.7,-81.01 168.7,-87.95 171.29,-81.45"/>
</g>
<!-- Node11&#45;&gt;Node10 -->
<g id="edge12" class="edge">
<title>Node11&#45;&gt;Node10</title>
<path fill="none" stroke="midnightblue" d="M502.19,-190.37C483.44,-165.86 444.95,-115.56 424.86,-89.3"/>
<polygon fill="midnightblue" stroke="midnightblue" points="427.43,-86.91 418.58,-81.1 421.88,-91.17 427.43,-86.91"/>
</g>
<!-- Node11&#45;&gt;Node12 -->
<g id="edge13" class="edge">
<title>Node11&#45;&gt;Node12</title>
<path fill="none" stroke="midnightblue" d="M482.41,-190.4C457.49,-178.91 422.66,-162.85 398.82,-151.86"/>
<polygon fill="midnightblue" stroke="midnightblue" points="400.2,-148.64 389.65,-147.64 397.27,-155 400.2,-148.64"/>
</g>
<!-- Node11&#45;&gt;Node13 -->
<g id="edge14" class="edge">
<title>Node11&#45;&gt;Node13</title>
<path fill="none" stroke="midnightblue" d="M587.04,-202.74C654.47,-198.89 755.64,-187.41 837,-154 858.79,-145.05 859.94,-135.36 880,-123 902.78,-108.96 929.88,-95.07 949.63,-85.43"/>
<polygon fill="midnightblue" stroke="midnightblue" points="951.21,-88.55 958.69,-81.05 948.16,-82.25 951.21,-88.55"/>
</g>
<!-- Node14 -->
<g id="node14" class="node">
<title>Node14</title>
<g id="a_node14"><a xlink:title=" ">
<polygon fill="white" stroke="#bfbfbf" points="453,-62 453,-81 497,-81 497,-62 453,-62"/>
<text text-anchor="middle" x="475" y="-69" font-family="Helvetica,sans-Serif" font-size="10.00">vector</text>
</a>
</g>
</g>
<!-- Node11&#45;&gt;Node14 -->
<g id="edge15" class="edge">
<title>Node11&#45;&gt;Node14</title>
<path fill="none" stroke="midnightblue" d="M508.93,-190.37C502.03,-166.4 488.03,-117.75 480.34,-91.06"/>
<polygon fill="midnightblue" stroke="midnightblue" points="483.6,-89.74 477.47,-81.1 476.88,-91.68 483.6,-89.74"/>
</g>
<!-- Node11&#45;&gt;Node15 -->
<g id="edge17" class="edge">
<title>Node11&#45;&gt;Node15</title>
<path fill="none" stroke="midnightblue" d="M516,-190.37C521.08,-166.4 531.4,-117.75 537.06,-91.06"/>
<polygon fill="midnightblue" stroke="midnightblue" points="540.53,-91.61 539.18,-81.1 533.68,-90.15 540.53,-91.61"/>
</g>
<!-- Node11&#45;&gt;Node16 -->
<g id="edge19" class="edge">
<title>Node11&#45;&gt;Node16</title>
<path fill="none" stroke="midnightblue" d="M534.92,-190.4C549.08,-181.28 567.71,-169.29 583.33,-159.24"/>
<polygon fill="midnightblue" stroke="midnightblue" points="585.61,-161.93 592.13,-153.58 581.82,-156.05 585.61,-161.93"/>
</g>
<!-- Node19 -->
<g id="node19" class="node">
<title>Node19</title>
<g id="a_node19"><a xlink:title=" ">
<polygon fill="white" stroke="#bfbfbf" points="841.5,-62 841.5,-81 936.5,-81 936.5,-62 841.5,-62"/>
<text text-anchor="middle" x="889" y="-69" font-family="Helvetica,sans-Serif" font-size="10.00">condition_variable</text>
</a>
</g>
</g>
<!-- Node11&#45;&gt;Node19 -->
<g id="edge32" class="edge">
<title>Node11&#45;&gt;Node19</title>
<path fill="none" stroke="midnightblue" d="M578.76,-190.45C609.69,-182.31 646.4,-170.38 677,-154 696.22,-143.71 695.7,-133.13 715,-123 726.83,-116.79 799.61,-96.58 847.22,-83.68"/>
<polygon fill="midnightblue" stroke="midnightblue" points="848.22,-87.04 856.97,-81.05 846.4,-80.28 848.22,-87.04"/>
</g>
<!-- Node23 -->
<g id="node23" class="node">
<title>Node23</title>
<g id="a_node23"><a xlink:href="_semaphore_8h.html" target="_top" xlink:title=" ">
<polygon fill="white" stroke="black" points="724,-123.5 724,-153.5 828,-153.5 828,-123.5 724,-123.5"/>
<text text-anchor="start" x="732" y="-141.5" font-family="Helvetica,sans-Serif" font-size="10.00">app/utils/semaphore</text>
<text text-anchor="middle" x="776" y="-130.5" font-family="Helvetica,sans-Serif" font-size="10.00">/Semaphore.h</text>
</a>
</g>
</g>
<!-- Node11&#45;&gt;Node23 -->
<g id="edge33" class="edge">
<title>Node11&#45;&gt;Node23</title>
<path fill="none" stroke="midnightblue" d="M569.74,-190.48C612.19,-179.99 670.2,-165.65 713.89,-154.85"/>
<polygon fill="midnightblue" stroke="midnightblue" points="714.96,-158.19 723.83,-152.39 713.28,-151.4 714.96,-158.19"/>
</g>
<!-- Node16&#45;&gt;Node7 -->
<g id="edge22" class="edge">
<title>Node16&#45;&gt;Node7</title>
<path fill="none" stroke="midnightblue" d="M560.38,-133.6C489.6,-127.62 361.47,-113.94 255,-87 252.02,-86.24 248.94,-85.34 245.9,-84.35"/>
<polygon fill="midnightblue" stroke="midnightblue" points="246.98,-81.02 236.38,-81.02 244.66,-87.63 246.98,-81.02"/>
</g>
<!-- Node16&#45;&gt;Node9 -->
<g id="edge29" class="edge">
<title>Node16&#45;&gt;Node9</title>
<path fill="none" stroke="midnightblue" d="M560.05,-126.08C514.82,-116.45 448.26,-102.16 380.59,-87.12"/>
<polygon fill="midnightblue" stroke="midnightblue" points="381.13,-83.65 370.6,-84.89 379.6,-90.48 381.13,-83.65"/>
</g>
<!-- Node16&#45;&gt;Node10 -->
<g id="edge27" class="edge">
<title>Node16&#45;&gt;Node10</title>
<path fill="none" stroke="midnightblue" d="M560.17,-123.54C526.42,-114.29 482.22,-101.26 444,-87 442.39,-86.4 440.75,-85.75 439.09,-85.08"/>
<polygon fill="midnightblue" stroke="midnightblue" points="440.33,-81.8 429.76,-81.07 437.56,-88.23 440.33,-81.8"/>
</g>
<!-- Node16&#45;&gt;Node13 -->
<g id="edge26" class="edge">
<title>Node16&#45;&gt;Node13</title>
<path fill="none" stroke="midnightblue" d="M667.61,-129.75C758.14,-116.62 932.82,-90.99 946,-87 947.88,-86.43 949.78,-85.77 951.68,-85.04"/>
<polygon fill="midnightblue" stroke="midnightblue" points="953.12,-88.24 960.94,-81.08 950.37,-81.8 953.12,-88.24"/>
</g>
<!-- Node16&#45;&gt;Node14 -->
<g id="edge23" class="edge">
<title>Node16&#45;&gt;Node14</title>
<path fill="none" stroke="midnightblue" d="M583.84,-123.4C559.56,-112.04 525.72,-96.22 502.25,-85.24"/>
<polygon fill="midnightblue" stroke="midnightblue" points="503.73,-82.07 493.19,-81.01 500.77,-88.41 503.73,-82.07"/>
</g>
<!-- Node16&#45;&gt;Node15 -->
<g id="edge20" class="edge">
<title>Node16&#45;&gt;Node15</title>
<path fill="none" stroke="midnightblue" d="M598.16,-123.4C586.44,-112.96 570.48,-98.75 558.41,-88"/>
<polygon fill="midnightblue" stroke="midnightblue" points="560.56,-85.23 550.76,-81.19 555.91,-90.46 560.56,-85.23"/>
</g>
<!-- Node16&#45;&gt;Node17 -->
<g id="edge21" class="edge">
<title>Node16&#45;&gt;Node17</title>
<path fill="none" stroke="midnightblue" d="M667.7,-129.58C682.97,-127.39 699.64,-125.05 715,-123 845.05,-105.68 881.12,-120.41 1008,-87 1010.45,-86.36 1012.95,-85.58 1015.44,-84.72"/>
<polygon fill="midnightblue" stroke="midnightblue" points="1016.71,-87.98 1024.8,-81.13 1014.21,-81.44 1016.71,-87.98"/>
</g>
<!-- Node18 -->
<g id="node18" class="node">
<title>Node18</title>
<g id="a_node18"><a xlink:title=" ">
<polygon fill="white" stroke="#bfbfbf" points="585.5,-62 585.5,-81 628.5,-81 628.5,-62 585.5,-62"/>
<text text-anchor="middle" x="607" y="-69" font-family="Helvetica,sans-Serif" font-size="10.00">queue</text>
</a>
</g>
</g>
<!-- Node16&#45;&gt;Node18 -->
<g id="edge24" class="edge">
<title>Node16&#45;&gt;Node18</title>
<path fill="none" stroke="midnightblue" d="M612.48,-123.4C611.47,-113.96 610.12,-101.45 609.01,-91.19"/>
<polygon fill="midnightblue" stroke="midnightblue" points="612.49,-90.76 607.94,-81.19 605.53,-91.51 612.49,-90.76"/>
</g>
<!-- Node16&#45;&gt;Node19 -->
<g id="edge25" class="edge">
<title>Node16&#45;&gt;Node19</title>
<path fill="none" stroke="midnightblue" d="M667.83,-125.37C712,-115.33 776.13,-100.58 832,-87 836.6,-85.88 841.39,-84.7 846.17,-83.5"/>
<polygon fill="midnightblue" stroke="midnightblue" points="847.03,-86.89 855.88,-81.05 845.32,-80.1 847.03,-86.89"/>
</g>
<!-- Node20 -->
<g id="node20" class="node">
<title>Node20</title>
<g id="a_node20"><a xlink:title=" ">
<polygon fill="white" stroke="#bfbfbf" points="647,-62 647,-81 701,-81 701,-62 647,-62"/>
<text text-anchor="middle" x="674" y="-69" font-family="Helvetica,sans-Serif" font-size="10.00">iostream</text>
</a>
</g>
</g>
<!-- Node16&#45;&gt;Node20 -->
<g id="edge28" class="edge">
<title>Node16&#45;&gt;Node20</title>
<path fill="none" stroke="midnightblue" d="M627.02,-123.4C636.47,-113.16 649.27,-99.3 659.12,-88.62"/>
<polygon fill="midnightblue" stroke="midnightblue" points="661.76,-90.92 665.97,-81.19 656.62,-86.17 661.76,-90.92"/>
</g>
<!-- Node21 -->
<g id="node21" class="node">
<title>Node21</title>
<g id="a_node21"><a xlink:href="_e_thread_pool_state_8h.html" target="_top" xlink:title=" ">
<polygon fill="white" stroke="black" points="719,-62 719,-81 823,-81 823,-62 719,-62"/>
<text text-anchor="middle" x="771" y="-69" font-family="Helvetica,sans-Serif" font-size="10.00">EThreadPoolState.h</text>
</a>
</g>
</g>
<!-- Node16&#45;&gt;Node21 -->
<g id="edge30" class="edge">
<title>Node16&#45;&gt;Node21</title>
<path fill="none" stroke="midnightblue" d="M648.07,-123.4C675.74,-111.94 714.39,-95.94 740.92,-84.95"/>
<polygon fill="midnightblue" stroke="midnightblue" points="742.55,-88.07 750.45,-81.01 739.87,-81.6 742.55,-88.07"/>
</g>
<!-- Node22 -->
<g id="node22" class="node">
<title>Node22</title>
<g id="a_node22"><a xlink:title=" ">
<polygon fill="white" stroke="#bfbfbf" points="746.5,-0.5 746.5,-19.5 795.5,-19.5 795.5,-0.5 746.5,-0.5"/>
<text text-anchor="middle" x="771" y="-7.5" font-family="Helvetica,sans-Serif" font-size="10.00">stdint.h</text>
</a>
</g>
</g>
<!-- Node21&#45;&gt;Node22 -->
<g id="edge31" class="edge">
<title>Node21&#45;&gt;Node22</title>
<path fill="none" stroke="midnightblue" d="M771,-61.98C771,-53.58 771,-40.48 771,-29.66"/>
<polygon fill="midnightblue" stroke="midnightblue" points="774.5,-29.51 771,-19.51 767.5,-29.51 774.5,-29.51"/>
</g>
<!-- Node23&#45;&gt;Node13 -->
<g id="edge34" class="edge">
<title>Node23&#45;&gt;Node13</title>
<path fill="none" stroke="midnightblue" d="M828.37,-124.11C862.33,-114.9 907.29,-101.71 946,-87 947.42,-86.46 948.87,-85.88 950.33,-85.28"/>
<polygon fill="midnightblue" stroke="midnightblue" points="952.08,-88.33 959.82,-81.09 949.25,-81.93 952.08,-88.33"/>
</g>
<!-- Node23&#45;&gt;Node19 -->
<g id="edge35" class="edge">
<title>Node23&#45;&gt;Node19</title>
<path fill="none" stroke="midnightblue" d="M800.52,-123.4C819.73,-112.34 846.3,-97.06 865.3,-86.13"/>
<polygon fill="midnightblue" stroke="midnightblue" points="867.29,-89.03 874.21,-81.01 863.8,-82.96 867.29,-89.03"/>
</g>
</g>
</svg>
        <g id="navigator" transform="translate(0 0)" fill="#404254">
                <rect fill="#f2f5e9" fill-opacity="0.5" stroke="#606060" stroke-width=".5" x="0" y="0" width="60" height="60"/>
                <use id="zoomplus" xlink:href="#zoomPlus" x="17" y="9" onmousedown="handleZoom(evt,'in')"/>
                <use id="zoomminus" xlink:href="#zoomMin" x="42" y="9" onmousedown="handleZoom(evt,'out')"/>
                <use id="reset" xlink:href="#resetDef" x="30" y="36" onmousedown="handleReset()"/>
                <g id="arrowUp" xlink:href="#dirArrow" transform="translate(30 24)" onmousedown="handlePan(0,-1)">
                  <use xlink:href="#rim" fill="#404040">
                        <set attributeName="fill" to="#808080" begin="arrowUp.mouseover" end="arrowUp.mouseout"/>
                  </use>
                  <path fill="none" stroke="white" stroke-width="1.5" d="M0,-3.0v7 M-2.5,-0.5L0,-3.0L2.5,-0.5"/>
                </g>
                <g id="arrowRight" xlink:href="#dirArrow" transform="rotate(90) translate(36 -43)" onmousedown="handlePan(1,0)">
                  <use xlink:href="#rim" fill="#404040">
                        <set attributeName="fill" to="#808080" begin="arrowRight.mouseover" end="arrowRight.mouseout"/>
                  </use>
                  <path fill="none" stroke="white" stroke-width="1.5" d="M0,-3.0v7 M-2.5,-0.5L0,-3.0L2.5,-0.5"/>
                </g>
                <g id="arrowDown" xlink:href="#dirArrow" transform="rotate(180) translate(-30 -48)" onmousedown="handlePan(0,1)">
                  <use xlink:href="#rim" fill="#404040">
                        <set attributeName="fill" to="#808080" begin="arrowDown.mouseover" end="arrowDown.mouseout"/>
                  </use>
                  <path fill="none" stroke="white" stroke-width="1.5" d="M0,-3.0v7 M-2.5,-0.5L0,-3.0L2.5,-0.5"/>
                </g>
                <g id="arrowLeft" xlink:href="#dirArrow" transform="rotate(270) translate(-36 17)" onmousedown="handlePan(-1,0)">
                  <use xlink:href="#rim" fill="#404040">
                        <set attributeName="fill" to="#808080" begin="arrowLeft.mouseover" end="arrowLeft.mouseout"/>
                  </use>
                  <path fill="none" stroke="white" stroke-width="1.5" d="M0,-3.0v7 M-2.5,-0.5L0,-3.0L2.5,-0.5"/>
                </g>
        </g>
        <svg viewBox="0 0 15 15" width="100%" height="30px" preserveAspectRatio="xMaxYMin meet">
         <g id="arrow_out" transform="scale(0.3 0.3)">
          <a xlink:href="_file_signature_creator_8cpp__incl_org.svg" target="_base">
           <rect id="button" ry="5" rx="5" y="6" x="6" height="38" width="38"
                fill="#f2f5e9" fill-opacity="0.5" stroke="#606060" stroke-width="1.0"/>
           <path id="arrow"
             d="M 11.500037,31.436501 C 11.940474,20.09759 22.043105,11.32322 32.158766,21.979434 L 37.068811,17.246167 C 37.068811,17.246167 37.088388,32 37.088388,32 L 22.160133,31.978069 C 22.160133,31.978069 26.997745,27.140456 26.997745,27.140456 C 18.528582,18.264221 13.291696,25.230495 11.500037,31.436501 z"
             style="fill:#404040;"/>
          </a>
         </g>
        </svg>
</svg>
