<?xml version="1.0" encoding="UTF-8" standalone="no"?>
<!DOCTYPE svg PUBLIC "-//W3C//DTD SVG 1.1//EN"
 "http://www.w3.org/Graphics/SVG/1.1/DTD/svg11.dtd">
<!-- Generated by graphviz version 2.44.1 (20200629.0846)
 -->
<!-- Title: source/app/sign/internal/FileSignatureCreationContext.h Pages: 1 -->
<svg width="366pt" height="240pt"
 viewBox="0.00 0.00 365.50 240.00" xmlns="http://www.w3.org/2000/svg" xmlns:xlink="http://www.w3.org/1999/xlink">
<g id="graph0" class="graph" transform="scale(1 1) rotate(0) translate(4 236)">
<title>source/app/sign/internal/FileSignatureCreationContext.h</title>
<polygon fill="white" stroke="transparent" points="-4,4 -4,-236 361.5,-236 361.5,4 -4,4"/>
<!-- Node1 -->
<g id="node1" class="node">
<title>Node1</title>
<g id="a_node1"><a xlink:title=" ">
<polygon fill="#bfbfbf" stroke="black" points="27,-201.5 27,-231.5 183,-231.5 183,-201.5 27,-201.5"/>
<text text-anchor="start" x="35" y="-219.5" font-family="Helvetica,sans-Serif" font-size="10.00">source/app/sign/internal</text>
<text text-anchor="middle" x="105" y="-208.5" font-family="Helvetica,sans-Serif" font-size="10.00">/FileSignatureCreationContext.h</text>
</a>
</g>
</g>
<!-- Node2 -->
<g id="node2" class="node">
<title>Node2</title>
<g id="a_node2"><a xlink:href="_file_signature_creator_8h.html" target="_top" xlink:title=" ">
<polygon fill="white" stroke="black" points="22,-67.5 22,-97.5 168,-97.5 168,-67.5 22,-67.5"/>
<text text-anchor="start" x="30" y="-85.5" font-family="Helvetica,sans-Serif" font-size="10.00">source/app/sign/FileSignature</text>
<text text-anchor="middle" x="95" y="-74.5" font-family="Helvetica,sans-Serif" font-size="10.00">Creator.h</text>
</a>
</g>
</g>
<!-- Node1&#45;&gt;Node2 -->
<g id="edge1" class="edge">
<title>Node1&#45;&gt;Node2</title>
<path fill="none" stroke="midnightblue" d="M48.79,-197.12C34.28,-189.54 20.4,-179.12 12,-165 4.96,-153.16 5.25,-146.01 12,-134 21.34,-117.38 38.61,-105.6 54.98,-97.62"/>
<polygon fill="midnightblue" stroke="midnightblue" points="47.33,-200.3 57.86,-201.48 50.37,-193.99 47.33,-200.3"/>
</g>
<!-- Node5 -->
<g id="node5" class="node">
<title>Node5</title>
<g id="a_node5"><a xlink:href="_file_signature_creation_context_8cpp.html" target="_top" xlink:title=" ">
<polygon fill="white" stroke="black" points="21.5,-134.5 21.5,-164.5 188.5,-164.5 188.5,-134.5 21.5,-134.5"/>
<text text-anchor="start" x="29.5" y="-152.5" font-family="Helvetica,sans-Serif" font-size="10.00">source/app/sign/internal</text>
<text text-anchor="middle" x="105" y="-141.5" font-family="Helvetica,sans-Serif" font-size="10.00">/FileSignatureCreationContext.cpp</text>
</a>
</g>
</g>
<!-- Node1&#45;&gt;Node5 -->
<g id="edge4" class="edge">
<title>Node1&#45;&gt;Node5</title>
<path fill="none" stroke="midnightblue" d="M105,-191.11C105,-182.15 105,-172.32 105,-164.58"/>
<polygon fill="midnightblue" stroke="midnightblue" points="101.5,-191.4 105,-201.4 108.5,-191.4 101.5,-191.4"/>
</g>
<!-- Node6 -->
<g id="node6" class="node">
<title>Node6</title>
<g id="a_node6"><a xlink:href="_job_get_signature_8h.html" target="_top" xlink:title=" ">
<polygon fill="white" stroke="black" points="206.5,-134.5 206.5,-164.5 313.5,-164.5 313.5,-134.5 206.5,-134.5"/>
<text text-anchor="start" x="214.5" y="-152.5" font-family="Helvetica,sans-Serif" font-size="10.00">source/app/sign/jobs</text>
<text text-anchor="middle" x="260" y="-141.5" font-family="Helvetica,sans-Serif" font-size="10.00">/JobGetSignature.h</text>
</a>
</g>
</g>
<!-- Node1&#45;&gt;Node6 -->
<g id="edge5" class="edge">
<title>Node1&#45;&gt;Node6</title>
<path fill="none" stroke="midnightblue" d="M148.15,-197.41C172.89,-187.03 203.5,-174.2 226.43,-164.58"/>
<polygon fill="midnightblue" stroke="midnightblue" points="146.5,-194.3 138.63,-201.4 149.21,-200.76 146.5,-194.3"/>
</g>
<!-- Node3 -->
<g id="node3" class="node">
<title>Node3</title>
<g id="a_node3"><a xlink:href="main_8cpp.html" target="_top" xlink:title=" ">
<polygon fill="white" stroke="black" points="164.5,-6 164.5,-25 271.5,-25 271.5,-6 164.5,-6"/>
<text text-anchor="middle" x="218" y="-13" font-family="Helvetica,sans-Serif" font-size="10.00">source/app/main.cpp</text>
</a>
</g>
</g>
<!-- Node2&#45;&gt;Node3 -->
<g id="edge2" class="edge">
<title>Node2&#45;&gt;Node3</title>
<path fill="none" stroke="midnightblue" d="M130.69,-62.64C154.22,-50.2 183.91,-34.51 201.9,-25.01"/>
<polygon fill="midnightblue" stroke="midnightblue" points="128.9,-59.63 121.69,-67.4 132.17,-65.82 128.9,-59.63"/>
</g>
<!-- Node4 -->
<g id="node4" class="node">
<title>Node4</title>
<g id="a_node4"><a xlink:href="_file_signature_creator_8cpp.html" target="_top" xlink:title=" ">
<polygon fill="white" stroke="black" points="0,-0.5 0,-30.5 146,-30.5 146,-0.5 0,-0.5"/>
<text text-anchor="start" x="8" y="-18.5" font-family="Helvetica,sans-Serif" font-size="10.00">source/app/sign/FileSignature</text>
<text text-anchor="middle" x="73" y="-7.5" font-family="Helvetica,sans-Serif" font-size="10.00">Creator.cpp</text>
</a>
</g>
</g>
<!-- Node2&#45;&gt;Node4 -->
<g id="edge3" class="edge">
<title>Node2&#45;&gt;Node4</title>
<path fill="none" stroke="midnightblue" d="M86.94,-57.7C83.86,-48.59 80.44,-38.49 77.76,-30.58"/>
<polygon fill="midnightblue" stroke="midnightblue" points="83.71,-59.05 90.23,-67.4 90.34,-56.8 83.71,-59.05"/>
</g>
<!-- Node6&#45;&gt;Node2 -->
<g id="edge7" class="edge">
<title>Node6&#45;&gt;Node2</title>
<path fill="none" stroke="midnightblue" d="M214.77,-130.68C188.31,-120.26 155.37,-107.28 130.73,-97.58"/>
<polygon fill="midnightblue" stroke="midnightblue" points="213.61,-133.99 224.2,-134.4 216.18,-127.47 213.61,-133.99"/>
</g>
<!-- Node6&#45;&gt;Node3 -->
<g id="edge6" class="edge">
<title>Node6&#45;&gt;Node3</title>
<path fill="none" stroke="midnightblue" d="M248.77,-124.98C245.02,-116.59 241.04,-106.99 238,-98 229.23,-72.05 222.56,-40.26 219.63,-25.2"/>
<polygon fill="midnightblue" stroke="midnightblue" points="245.63,-126.54 252.98,-134.17 251.99,-123.62 245.63,-126.54"/>
</g>
<!-- Node7 -->
<g id="node7" class="node">
<title>Node7</title>
<g id="a_node7"><a xlink:href="_job_get_signature_8cpp.html" target="_top" xlink:title=" ">
<polygon fill="white" stroke="black" points="246.5,-67.5 246.5,-97.5 357.5,-97.5 357.5,-67.5 246.5,-67.5"/>
<text text-anchor="start" x="254.5" y="-85.5" font-family="Helvetica,sans-Serif" font-size="10.00">source/app/sign/jobs</text>
<text text-anchor="middle" x="302" y="-74.5" font-family="Helvetica,sans-Serif" font-size="10.00">/JobGetSignature.cpp</text>
</a>
</g>
</g>
<!-- Node6&#45;&gt;Node7 -->
<g id="edge8" class="edge">
<title>Node6&#45;&gt;Node7</title>
<path fill="none" stroke="midnightblue" d="M274.62,-125.87C280.7,-116.46 287.57,-105.83 292.9,-97.58"/>
<polygon fill="midnightblue" stroke="midnightblue" points="271.6,-124.1 269.11,-134.4 277.48,-127.9 271.6,-124.1"/>
</g>
</g>
</svg>
