<?xml version="1.0" encoding="UTF-8" standalone="no"?>
<!DOCTYPE svg PUBLIC "-//W3C//DTD SVG 1.1//EN"
 "http://www.w3.org/Graphics/SVG/1.1/DTD/svg11.dtd">
<!-- Generated by graphviz version 2.44.1 (20200629.0846)
 -->
<!-- Title: source/app/sign/jobs/JobGetSignature.cpp Pages: 1 -->
<svg width="1133pt" height="352pt"
 viewBox="0.00 0.00 1132.50 352.00" xmlns="http://www.w3.org/2000/svg" xmlns:xlink="http://www.w3.org/1999/xlink">
<g id="graph0" class="graph" transform="scale(1 1) rotate(0) translate(4 348)">
<title>source/app/sign/jobs/JobGetSignature.cpp</title>
<polygon fill="white" stroke="transparent" points="-4,4 -4,-348 1128.5,-348 1128.5,4 -4,4"/>
<!-- Node1 -->
<g id="node1" class="node">
<title>Node1</title>
<g id="a_node1"><a xlink:title=" ">
<polygon fill="#bfbfbf" stroke="black" points="198.5,-313.5 198.5,-343.5 309.5,-343.5 309.5,-313.5 198.5,-313.5"/>
<text text-anchor="start" x="206.5" y="-331.5" font-family="Helvetica,sans-Serif" font-size="10.00">source/app/sign/jobs</text>
<text text-anchor="middle" x="254" y="-320.5" font-family="Helvetica,sans-Serif" font-size="10.00">/JobGetSignature.cpp</text>
</a>
</g>
</g>
<!-- Node2 -->
<g id="node2" class="node">
<title>Node2</title>
<g id="a_node2"><a xlink:href="md5_8h.html" target="_top" xlink:title=" ">
<polygon fill="white" stroke="black" points="114.5,-129 114.5,-148 179.5,-148 179.5,-129 114.5,-129"/>
<text text-anchor="middle" x="147" y="-136" font-family="Helvetica,sans-Serif" font-size="10.00">md5/md5.h</text>
</a>
</g>
</g>
<!-- Node1&#45;&gt;Node2 -->
<g id="edge1" class="edge">
<title>Node1&#45;&gt;Node2</title>
<path fill="none" stroke="midnightblue" d="M245.96,-313.37C226.77,-279.65 178.32,-194.52 157.15,-157.34"/>
<polygon fill="midnightblue" stroke="midnightblue" points="159.94,-155.17 151.96,-148.21 153.86,-158.63 159.94,-155.17"/>
</g>
<!-- Node7 -->
<g id="node7" class="node">
<title>Node7</title>
<g id="a_node7"><a xlink:href="_job_get_signature_8h.html" target="_top" xlink:title=" ">
<polygon fill="white" stroke="black" points="311,-257.5 311,-276.5 409,-276.5 409,-257.5 311,-257.5"/>
<text text-anchor="middle" x="360" y="-264.5" font-family="Helvetica,sans-Serif" font-size="10.00">JobGetSignature.h</text>
</a>
</g>
</g>
<!-- Node1&#45;&gt;Node7 -->
<g id="edge6" class="edge">
<title>Node1&#45;&gt;Node7</title>
<path fill="none" stroke="midnightblue" d="M279.12,-313.4C296.27,-303.77 318.86,-291.09 335.81,-281.58"/>
<polygon fill="midnightblue" stroke="midnightblue" points="337.57,-284.6 344.58,-276.66 334.14,-278.5 337.57,-284.6"/>
</g>
<!-- Node3 -->
<g id="node3" class="node">
<title>Node3</title>
<g id="a_node3"><a xlink:title=" ">
<polygon fill="white" stroke="#bfbfbf" points="0,-62 0,-81 46,-81 46,-62 0,-62"/>
<text text-anchor="middle" x="23" y="-69" font-family="Helvetica,sans-Serif" font-size="10.00">cstring</text>
</a>
</g>
</g>
<!-- Node2&#45;&gt;Node3 -->
<g id="edge2" class="edge">
<title>Node2&#45;&gt;Node3</title>
<path fill="none" stroke="midnightblue" d="M130.53,-128.87C109.6,-117.89 73.22,-98.82 48.64,-85.94"/>
<polygon fill="midnightblue" stroke="midnightblue" points="50.02,-82.71 39.53,-81.17 46.77,-88.91 50.02,-82.71"/>
</g>
<!-- Node4 -->
<g id="node4" class="node">
<title>Node4</title>
<g id="a_node4"><a xlink:title=" ">
<polygon fill="white" stroke="#bfbfbf" points="64,-62 64,-81 118,-81 118,-62 64,-62"/>
<text text-anchor="middle" x="91" y="-69" font-family="Helvetica,sans-Serif" font-size="10.00">iostream</text>
</a>
</g>
</g>
<!-- Node2&#45;&gt;Node4 -->
<g id="edge3" class="edge">
<title>Node2&#45;&gt;Node4</title>
<path fill="none" stroke="midnightblue" d="M139.45,-128.73C130.72,-118.6 116.15,-101.69 105.26,-89.06"/>
<polygon fill="midnightblue" stroke="midnightblue" points="107.61,-86.42 98.43,-81.13 102.31,-90.99 107.61,-86.42"/>
</g>
<!-- Node5 -->
<g id="node5" class="node">
<title>Node5</title>
<g id="a_node5"><a xlink:title=" ">
<polygon fill="white" stroke="#bfbfbf" points="136,-62 136,-81 180,-81 180,-62 136,-62"/>
<text text-anchor="middle" x="158" y="-69" font-family="Helvetica,sans-Serif" font-size="10.00">vector</text>
</a>
</g>
</g>
<!-- Node2&#45;&gt;Node5 -->
<g id="edge4" class="edge">
<title>Node2&#45;&gt;Node5</title>
<path fill="none" stroke="midnightblue" d="M148.48,-128.73C150.1,-119.18 152.73,-103.62 154.82,-91.28"/>
<polygon fill="midnightblue" stroke="midnightblue" points="158.32,-91.57 156.54,-81.13 151.42,-90.4 158.32,-91.57"/>
</g>
<!-- Node6 -->
<g id="node6" class="node">
<title>Node6</title>
<g id="a_node6"><a xlink:title=" ">
<polygon fill="white" stroke="#bfbfbf" points="198,-62 198,-81 250,-81 250,-62 198,-62"/>
<text text-anchor="middle" x="224" y="-69" font-family="Helvetica,sans-Serif" font-size="10.00">memory</text>
</a>
</g>
</g>
<!-- Node2&#45;&gt;Node6 -->
<g id="edge5" class="edge">
<title>Node2&#45;&gt;Node6</title>
<path fill="none" stroke="midnightblue" d="M157.38,-128.73C169.85,-118.21 190.97,-100.38 206.09,-87.62"/>
<polygon fill="midnightblue" stroke="midnightblue" points="208.4,-90.25 213.78,-81.13 203.88,-84.9 208.4,-90.25"/>
</g>
<!-- Node7&#45;&gt;Node6 -->
<g id="edge40" class="edge">
<title>Node7&#45;&gt;Node6</title>
<path fill="none" stroke="midnightblue" d="M353.98,-257.44C333.19,-227.85 264.12,-129.59 236.04,-89.62"/>
<polygon fill="midnightblue" stroke="midnightblue" points="238.87,-87.58 230.26,-81.41 233.15,-91.6 238.87,-87.58"/>
</g>
<!-- Node8 -->
<g id="node8" class="node">
<title>Node8</title>
<g id="a_node8"><a xlink:href="_job_base_8h.html" target="_top" xlink:title=" ">
<polygon fill="white" stroke="black" points="268.5,-56.5 268.5,-86.5 375.5,-86.5 375.5,-56.5 268.5,-56.5"/>
<text text-anchor="start" x="276.5" y="-74.5" font-family="Helvetica,sans-Serif" font-size="10.00">app/utils/thread_pool</text>
<text text-anchor="middle" x="322" y="-63.5" font-family="Helvetica,sans-Serif" font-size="10.00">/JobBase.h</text>
</a>
</g>
</g>
<!-- Node7&#45;&gt;Node8 -->
<g id="edge7" class="edge">
<title>Node7&#45;&gt;Node8</title>
<path fill="none" stroke="midnightblue" d="M356.95,-257.47C353.83,-248.5 349.03,-233.9 346,-221 335.82,-177.72 328.57,-126.33 324.85,-96.75"/>
<polygon fill="midnightblue" stroke="midnightblue" points="328.29,-96.05 323.6,-86.55 321.34,-96.9 328.29,-96.05"/>
</g>
<!-- Node9 -->
<g id="node9" class="node">
<title>Node9</title>
<g id="a_node9"><a xlink:title=" ">
<polygon fill="white" stroke="#bfbfbf" points="394,-62 394,-81 440,-81 440,-62 394,-62"/>
<text text-anchor="middle" x="417" y="-69" font-family="Helvetica,sans-Serif" font-size="10.00">atomic</text>
</a>
</g>
</g>
<!-- Node7&#45;&gt;Node9 -->
<g id="edge8" class="edge">
<title>Node7&#45;&gt;Node9</title>
<path fill="none" stroke="midnightblue" d="M359.65,-257.23C359.06,-234.25 359.45,-170.75 379,-123 384.16,-110.41 393.24,-98.16 401.23,-88.88"/>
<polygon fill="midnightblue" stroke="midnightblue" points="404,-91.04 408.12,-81.27 398.81,-86.34 404,-91.04"/>
</g>
<!-- Node10 -->
<g id="node10" class="node">
<title>Node10</title>
<g id="a_node10"><a xlink:href="_file_signature_creation_context_8h.html" target="_top" xlink:title=" ">
<polygon fill="white" stroke="black" points="460,-190.5 460,-220.5 608,-220.5 608,-190.5 460,-190.5"/>
<text text-anchor="start" x="468" y="-208.5" font-family="Helvetica,sans-Serif" font-size="10.00">app/sign/internal/FileSignature</text>
<text text-anchor="middle" x="534" y="-197.5" font-family="Helvetica,sans-Serif" font-size="10.00">CreationContext.h</text>
</a>
</g>
</g>
<!-- Node7&#45;&gt;Node10 -->
<g id="edge9" class="edge">
<title>Node7&#45;&gt;Node10</title>
<path fill="none" stroke="midnightblue" d="M384.93,-257.48C410.48,-248.74 450.93,-234.91 483.25,-223.86"/>
<polygon fill="midnightblue" stroke="midnightblue" points="484.66,-227.07 492.99,-220.52 482.4,-220.45 484.66,-227.07"/>
</g>
<!-- Node11 -->
<g id="node11" class="node">
<title>Node11</title>
<g id="a_node11"><a xlink:title=" ">
<polygon fill="white" stroke="#bfbfbf" points="388.5,-129 388.5,-148 423.5,-148 423.5,-129 388.5,-129"/>
<text text-anchor="middle" x="406" y="-136" font-family="Helvetica,sans-Serif" font-size="10.00">map</text>
</a>
</g>
</g>
<!-- Node7&#45;&gt;Node11 -->
<g id="edge38" class="edge">
<title>Node7&#45;&gt;Node11</title>
<path fill="none" stroke="midnightblue" d="M363.16,-257.31C370.58,-236.9 389.24,-185.6 399.31,-157.91"/>
<polygon fill="midnightblue" stroke="midnightblue" points="402.69,-158.85 402.82,-148.26 396.11,-156.46 402.69,-158.85"/>
</g>
<!-- Node12 -->
<g id="node12" class="node">
<title>Node12</title>
<g id="a_node12"><a xlink:title=" ">
<polygon fill="white" stroke="#bfbfbf" points="704,-62 704,-81 748,-81 748,-62 704,-62"/>
<text text-anchor="middle" x="726" y="-69" font-family="Helvetica,sans-Serif" font-size="10.00">mutex</text>
</a>
</g>
</g>
<!-- Node7&#45;&gt;Node12 -->
<g id="edge39" class="edge">
<title>Node7&#45;&gt;Node12</title>
<path fill="none" stroke="midnightblue" d="M409.22,-262.35C474.21,-256.7 584.25,-244.01 617,-221 658.05,-192.16 642.07,-162.5 673,-123 683.24,-109.92 696.84,-97.04 707.7,-87.55"/>
<polygon fill="midnightblue" stroke="midnightblue" points="710.02,-90.17 715.36,-81.02 705.48,-84.84 710.02,-90.17"/>
</g>
<!-- Node10&#45;&gt;Node5 -->
<g id="edge13" class="edge">
<title>Node10&#45;&gt;Node5</title>
<path fill="none" stroke="midnightblue" d="M459.91,-193C415.56,-184.85 358.56,-172.11 310,-154 261.14,-135.78 208.41,-104.63 179.69,-86.58"/>
<polygon fill="midnightblue" stroke="midnightblue" points="181.56,-83.62 171.25,-81.21 177.81,-89.53 181.56,-83.62"/>
</g>
<!-- Node10&#45;&gt;Node6 -->
<g id="edge15" class="edge">
<title>Node10&#45;&gt;Node6</title>
<path fill="none" stroke="midnightblue" d="M483.65,-190.45C452.94,-181.31 413.16,-168.42 379,-154 330.73,-133.62 277.2,-103.74 247.37,-86.39"/>
<polygon fill="midnightblue" stroke="midnightblue" points="248.95,-83.26 238.56,-81.23 245.42,-89.3 248.95,-83.26"/>
</g>
<!-- Node10&#45;&gt;Node9 -->
<g id="edge10" class="edge">
<title>Node10&#45;&gt;Node9</title>
<path fill="none" stroke="midnightblue" d="M513.34,-190.47C500.33,-181.06 483.67,-167.87 471,-154 452.82,-134.09 436.41,-107.52 426.58,-90.21"/>
<polygon fill="midnightblue" stroke="midnightblue" points="429.49,-88.25 421.58,-81.21 423.37,-91.65 429.49,-88.25"/>
</g>
<!-- Node10&#45;&gt;Node11 -->
<g id="edge11" class="edge">
<title>Node10&#45;&gt;Node11</title>
<path fill="none" stroke="midnightblue" d="M506.23,-190.4C484.06,-179.14 453.26,-163.5 431.67,-152.54"/>
<polygon fill="midnightblue" stroke="midnightblue" points="433.25,-149.41 422.75,-148.01 430.08,-155.66 433.25,-149.41"/>
</g>
<!-- Node10&#45;&gt;Node12 -->
<g id="edge12" class="edge">
<title>Node10&#45;&gt;Node12</title>
<path fill="none" stroke="midnightblue" d="M551.14,-190.26C571.7,-173.42 607.47,-144.93 640,-123 659.99,-109.52 683.67,-95.77 701.12,-86.03"/>
<polygon fill="midnightblue" stroke="midnightblue" points="703.05,-88.96 710.1,-81.05 699.66,-82.83 703.05,-88.96"/>
</g>
<!-- Node13 -->
<g id="node13" class="node">
<title>Node13</title>
<g id="a_node13"><a xlink:title=" ">
<polygon fill="white" stroke="#bfbfbf" points="957,-62 957,-81 1007,-81 1007,-62 957,-62"/>
<text text-anchor="middle" x="982" y="-69" font-family="Helvetica,sans-Serif" font-size="10.00">fstream</text>
</a>
</g>
</g>
<!-- Node10&#45;&gt;Node13 -->
<g id="edge14" class="edge">
<title>Node10&#45;&gt;Node13</title>
<path fill="none" stroke="midnightblue" d="M608.11,-197.07C666.03,-189.9 748.02,-176.68 817,-154 870.36,-136.45 928.25,-104.57 959.28,-86.31"/>
<polygon fill="midnightblue" stroke="midnightblue" points="961.21,-89.24 968.01,-81.12 957.63,-83.22 961.21,-89.24"/>
</g>
<!-- Node14 -->
<g id="node14" class="node">
<title>Node14</title>
<g id="a_node14"><a xlink:href="_signature_creation_params_8h.html" target="_top" xlink:title=" ">
<polygon fill="white" stroke="black" points="915,-123.5 915,-153.5 1049,-153.5 1049,-123.5 915,-123.5"/>
<text text-anchor="start" x="923" y="-141.5" font-family="Helvetica,sans-Serif" font-size="10.00">app/sign/SignatureCreation</text>
<text text-anchor="middle" x="982" y="-130.5" font-family="Helvetica,sans-Serif" font-size="10.00">Params.h</text>
</a>
</g>
</g>
<!-- Node10&#45;&gt;Node14 -->
<g id="edge16" class="edge">
<title>Node10&#45;&gt;Node14</title>
<path fill="none" stroke="midnightblue" d="M608.09,-193.89C678.94,-183.72 788.78,-167.91 884,-154 890.69,-153.02 897.63,-152 904.6,-150.98"/>
<polygon fill="midnightblue" stroke="midnightblue" points="905.41,-154.4 914.79,-149.48 904.39,-147.47 905.41,-154.4"/>
</g>
<!-- Node18 -->
<g id="node18" class="node">
<title>Node18</title>
<g id="a_node18"><a xlink:href="_thread_pool_8h.html" target="_top" xlink:title=" ">
<polygon fill="white" stroke="black" points="480.5,-123.5 480.5,-153.5 587.5,-153.5 587.5,-123.5 480.5,-123.5"/>
<text text-anchor="start" x="488.5" y="-141.5" font-family="Helvetica,sans-Serif" font-size="10.00">app/utils/thread_pool</text>
<text text-anchor="middle" x="534" y="-130.5" font-family="Helvetica,sans-Serif" font-size="10.00">/ThreadPool.h</text>
</a>
</g>
</g>
<!-- Node10&#45;&gt;Node18 -->
<g id="edge21" class="edge">
<title>Node10&#45;&gt;Node18</title>
<path fill="none" stroke="midnightblue" d="M534,-190.4C534,-182.64 534,-172.81 534,-163.86"/>
<polygon fill="midnightblue" stroke="midnightblue" points="537.5,-163.58 534,-153.58 530.5,-163.58 537.5,-163.58"/>
</g>
<!-- Node21 -->
<g id="node21" class="node">
<title>Node21</title>
<g id="a_node21"><a xlink:title=" ">
<polygon fill="white" stroke="#bfbfbf" points="766.5,-62 766.5,-81 861.5,-81 861.5,-62 766.5,-62"/>
<text text-anchor="middle" x="814" y="-69" font-family="Helvetica,sans-Serif" font-size="10.00">condition_variable</text>
</a>
</g>
</g>
<!-- Node10&#45;&gt;Node21 -->
<g id="edge34" class="edge">
<title>Node10&#45;&gt;Node21</title>
<path fill="none" stroke="midnightblue" d="M608.23,-199.05C675.77,-192.56 768.78,-179.25 795,-154 811.81,-137.81 815.01,-109.84 815.05,-91.26"/>
<polygon fill="midnightblue" stroke="midnightblue" points="818.55,-90.98 814.77,-81.09 811.55,-91.18 818.55,-90.98"/>
</g>
<!-- Node24 -->
<g id="node24" class="node">
<title>Node24</title>
<g id="a_node24"><a xlink:href="_semaphore_8h.html" target="_top" xlink:title=" ">
<polygon fill="white" stroke="black" points="682,-123.5 682,-153.5 786,-153.5 786,-123.5 682,-123.5"/>
<text text-anchor="start" x="690" y="-141.5" font-family="Helvetica,sans-Serif" font-size="10.00">app/utils/semaphore</text>
<text text-anchor="middle" x="734" y="-130.5" font-family="Helvetica,sans-Serif" font-size="10.00">/Semaphore.h</text>
</a>
</g>
</g>
<!-- Node10&#45;&gt;Node24 -->
<g id="edge35" class="edge">
<title>Node10&#45;&gt;Node24</title>
<path fill="none" stroke="midnightblue" d="M577.4,-190.4C607.8,-180.52 648.61,-167.25 680.94,-156.74"/>
<polygon fill="midnightblue" stroke="midnightblue" points="682.26,-160 690.69,-153.58 680.1,-153.34 682.26,-160"/>
</g>
<!-- Node14&#45;&gt;Node13 -->
<g id="edge19" class="edge">
<title>Node14&#45;&gt;Node13</title>
<path fill="none" stroke="midnightblue" d="M982,-123.4C982,-114.06 982,-101.71 982,-91.52"/>
<polygon fill="midnightblue" stroke="midnightblue" points="985.5,-91.19 982,-81.19 978.5,-91.19 985.5,-91.19"/>
</g>
<!-- Node15 -->
<g id="node15" class="node">
<title>Node15</title>
<g id="a_node15"><a xlink:title=" ">
<polygon fill="white" stroke="#bfbfbf" points="1025,-62 1025,-81 1065,-81 1065,-62 1025,-62"/>
<text text-anchor="middle" x="1045" y="-69" font-family="Helvetica,sans-Serif" font-size="10.00">utility</text>
</a>
</g>
</g>
<!-- Node14&#45;&gt;Node15 -->
<g id="edge17" class="edge">
<title>Node14&#45;&gt;Node15</title>
<path fill="none" stroke="midnightblue" d="M995.67,-123.4C1005.59,-113.16 1019.03,-99.3 1029.37,-88.62"/>
<polygon fill="midnightblue" stroke="midnightblue" points="1032.13,-90.81 1036.57,-81.19 1027.1,-85.94 1032.13,-90.81"/>
</g>
<!-- Node16 -->
<g id="node16" class="node">
<title>Node16</title>
<g id="a_node16"><a xlink:title=" ">
<polygon fill="white" stroke="#bfbfbf" points="1083.5,-62 1083.5,-81 1124.5,-81 1124.5,-62 1083.5,-62"/>
<text text-anchor="middle" x="1104" y="-69" font-family="Helvetica,sans-Serif" font-size="10.00">string</text>
</a>
</g>
</g>
<!-- Node14&#45;&gt;Node16 -->
<g id="edge18" class="edge">
<title>Node14&#45;&gt;Node16</title>
<path fill="none" stroke="midnightblue" d="M1008.47,-123.4C1029.4,-112.24 1058.43,-96.78 1078.97,-85.83"/>
<polygon fill="midnightblue" stroke="midnightblue" points="1080.85,-88.8 1088.03,-81.01 1077.56,-82.62 1080.85,-88.8"/>
</g>
<!-- Node17 -->
<g id="node17" class="node">
<title>Node17</title>
<g id="a_node17"><a xlink:title=" ">
<polygon fill="white" stroke="#bfbfbf" points="879.5,-62 879.5,-81 938.5,-81 938.5,-62 879.5,-62"/>
<text text-anchor="middle" x="909" y="-69" font-family="Helvetica,sans-Serif" font-size="10.00">exception</text>
</a>
</g>
</g>
<!-- Node14&#45;&gt;Node17 -->
<g id="edge20" class="edge">
<title>Node14&#45;&gt;Node17</title>
<path fill="none" stroke="midnightblue" d="M966.16,-123.4C954.44,-112.96 938.48,-98.75 926.41,-88"/>
<polygon fill="midnightblue" stroke="midnightblue" points="928.56,-85.23 918.76,-81.19 923.91,-90.46 928.56,-85.23"/>
</g>
<!-- Node18&#45;&gt;Node4 -->
<g id="edge30" class="edge">
<title>Node18&#45;&gt;Node4</title>
<path fill="none" stroke="midnightblue" d="M480.3,-129.62C464.73,-127.4 447.7,-125.04 432,-123 296.64,-105.39 259.25,-120.8 127,-87 124.49,-86.36 121.92,-85.58 119.36,-84.72"/>
<polygon fill="midnightblue" stroke="midnightblue" points="120.33,-81.35 109.74,-81.14 117.89,-87.91 120.33,-81.35"/>
</g>
<!-- Node18&#45;&gt;Node5 -->
<g id="edge25" class="edge">
<title>Node18&#45;&gt;Node5</title>
<path fill="none" stroke="midnightblue" d="M480.28,-129.84C385.06,-116.24 195.93,-89.08 189,-87 187.12,-86.44 185.21,-85.78 183.31,-85.06"/>
<polygon fill="midnightblue" stroke="midnightblue" points="184.63,-81.81 174.06,-81.1 181.88,-88.25 184.63,-81.81"/>
</g>
<!-- Node18&#45;&gt;Node6 -->
<g id="edge22" class="edge">
<title>Node18&#45;&gt;Node6</title>
<path fill="none" stroke="midnightblue" d="M480.48,-129.05C412.64,-118.1 299.62,-99 259,-87 256.71,-86.32 254.37,-85.55 252.03,-84.72"/>
<polygon fill="midnightblue" stroke="midnightblue" points="253.22,-81.42 242.63,-81.07 250.69,-87.95 253.22,-81.42"/>
</g>
<!-- Node18&#45;&gt;Node8 -->
<g id="edge31" class="edge">
<title>Node18&#45;&gt;Node8</title>
<path fill="none" stroke="midnightblue" d="M488.26,-123.48C455.91,-113.56 412.35,-100.2 377.93,-89.65"/>
<polygon fill="midnightblue" stroke="midnightblue" points="378.61,-86.2 368.02,-86.61 376.56,-92.89 378.61,-86.2"/>
</g>
<!-- Node18&#45;&gt;Node9 -->
<g id="edge29" class="edge">
<title>Node18&#45;&gt;Node9</title>
<path fill="none" stroke="midnightblue" d="M508.61,-123.4C488.63,-112.29 460.96,-96.92 441.27,-85.98"/>
<polygon fill="midnightblue" stroke="midnightblue" points="442.75,-82.8 432.31,-81.01 439.35,-88.92 442.75,-82.8"/>
</g>
<!-- Node18&#45;&gt;Node12 -->
<g id="edge28" class="edge">
<title>Node18&#45;&gt;Node12</title>
<path fill="none" stroke="midnightblue" d="M585,-123.4C616.96,-114.1 658.82,-101.06 695,-87 696.42,-86.45 697.86,-85.86 699.32,-85.25"/>
<polygon fill="midnightblue" stroke="midnightblue" points="701.08,-88.3 708.8,-81.04 698.24,-81.9 701.08,-88.3"/>
</g>
<!-- Node18&#45;&gt;Node17 -->
<g id="edge24" class="edge">
<title>Node18&#45;&gt;Node17</title>
<path fill="none" stroke="midnightblue" d="M587.81,-130.87C668.93,-120.64 818.64,-100.74 871,-87 873.82,-86.26 876.71,-85.38 879.59,-84.43"/>
<polygon fill="midnightblue" stroke="midnightblue" points="880.92,-87.67 889.15,-81 878.55,-81.08 880.92,-87.67"/>
</g>
<!-- Node19 -->
<g id="node19" class="node">
<title>Node19</title>
<g id="a_node19"><a xlink:title=" ">
<polygon fill="white" stroke="#bfbfbf" points="458,-62 458,-81 502,-81 502,-62 458,-62"/>
<text text-anchor="middle" x="480" y="-69" font-family="Helvetica,sans-Serif" font-size="10.00">thread</text>
</a>
</g>
</g>
<!-- Node18&#45;&gt;Node19 -->
<g id="edge23" class="edge">
<title>Node18&#45;&gt;Node19</title>
<path fill="none" stroke="midnightblue" d="M522.28,-123.4C513.86,-113.26 502.49,-99.57 493.66,-88.94"/>
<polygon fill="midnightblue" stroke="midnightblue" points="496.31,-86.65 487.22,-81.19 490.92,-91.12 496.31,-86.65"/>
</g>
<!-- Node20 -->
<g id="node20" class="node">
<title>Node20</title>
<g id="a_node20"><a xlink:title=" ">
<polygon fill="white" stroke="#bfbfbf" points="520.5,-62 520.5,-81 563.5,-81 563.5,-62 520.5,-62"/>
<text text-anchor="middle" x="542" y="-69" font-family="Helvetica,sans-Serif" font-size="10.00">queue</text>
</a>
</g>
</g>
<!-- Node18&#45;&gt;Node20 -->
<g id="edge26" class="edge">
<title>Node18&#45;&gt;Node20</title>
<path fill="none" stroke="midnightblue" d="M535.74,-123.4C536.9,-113.96 538.44,-101.45 539.7,-91.19"/>
<polygon fill="midnightblue" stroke="midnightblue" points="543.18,-91.55 540.93,-81.19 536.23,-90.69 543.18,-91.55"/>
</g>
<!-- Node18&#45;&gt;Node21 -->
<g id="edge27" class="edge">
<title>Node18&#45;&gt;Node21</title>
<path fill="none" stroke="midnightblue" d="M587.71,-125.75C632.94,-115.76 699.3,-100.87 757,-87 761.66,-85.88 766.52,-84.68 771.36,-83.48"/>
<polygon fill="midnightblue" stroke="midnightblue" points="772.34,-86.84 781.18,-81.01 770.63,-80.05 772.34,-86.84"/>
</g>
<!-- Node22 -->
<g id="node22" class="node">
<title>Node22</title>
<g id="a_node22"><a xlink:href="_e_thread_pool_state_8h.html" target="_top" xlink:title=" ">
<polygon fill="white" stroke="black" points="582,-62 582,-81 686,-81 686,-62 582,-62"/>
<text text-anchor="middle" x="634" y="-69" font-family="Helvetica,sans-Serif" font-size="10.00">EThreadPoolState.h</text>
</a>
</g>
</g>
<!-- Node18&#45;&gt;Node22 -->
<g id="edge32" class="edge">
<title>Node18&#45;&gt;Node22</title>
<path fill="none" stroke="midnightblue" d="M555.7,-123.4C572.47,-112.5 595.57,-97.48 612.33,-86.58"/>
<polygon fill="midnightblue" stroke="midnightblue" points="614.44,-89.39 620.91,-81.01 610.62,-83.52 614.44,-89.39"/>
</g>
<!-- Node23 -->
<g id="node23" class="node">
<title>Node23</title>
<g id="a_node23"><a xlink:title=" ">
<polygon fill="white" stroke="#bfbfbf" points="609.5,-0.5 609.5,-19.5 658.5,-19.5 658.5,-0.5 609.5,-0.5"/>
<text text-anchor="middle" x="634" y="-7.5" font-family="Helvetica,sans-Serif" font-size="10.00">stdint.h</text>
</a>
</g>
</g>
<!-- Node22&#45;&gt;Node23 -->
<g id="edge33" class="edge">
<title>Node22&#45;&gt;Node23</title>
<path fill="none" stroke="midnightblue" d="M634,-61.98C634,-53.58 634,-40.48 634,-29.66"/>
<polygon fill="midnightblue" stroke="midnightblue" points="637.5,-29.51 634,-19.51 630.5,-29.51 637.5,-29.51"/>
</g>
<!-- Node24&#45;&gt;Node12 -->
<g id="edge36" class="edge">
<title>Node24&#45;&gt;Node12</title>
<path fill="none" stroke="midnightblue" d="M732.26,-123.4C731.1,-113.96 729.56,-101.45 728.3,-91.19"/>
<polygon fill="midnightblue" stroke="midnightblue" points="731.77,-90.69 727.07,-81.19 724.82,-91.55 731.77,-90.69"/>
</g>
<!-- Node24&#45;&gt;Node21 -->
<g id="edge37" class="edge">
<title>Node24&#45;&gt;Node21</title>
<path fill="none" stroke="midnightblue" d="M751.36,-123.4C764.33,-112.86 782.03,-98.48 795.31,-87.69"/>
<polygon fill="midnightblue" stroke="midnightblue" points="797.74,-90.22 803.3,-81.19 793.33,-84.78 797.74,-90.22"/>
</g>
</g>
</svg>
