<?xml version="1.0" encoding="UTF-8" standalone="no"?>
<!DOCTYPE svg PUBLIC "-//W3C//DTD SVG 1.1//EN"
 "http://www.w3.org/Graphics/SVG/1.1/DTD/svg11.dtd">
<!-- Generated by graphviz version 2.44.1 (20200629.0846)
 -->
<!-- Title: source/app/utils/thread_pool/JobBase.h Pages: 1 -->
<!--zoomable 374 -->
<svg id="main" version="1.1" xmlns="http://www.w3.org/2000/svg" xmlns:xlink="http://www.w3.org/1999/xlink" xml:space="preserve" onload="init(evt)">
<style type="text/css"><![CDATA[
.edge:hover path { stroke: red; }
.edge:hover polygon { stroke: red; fill: red; }
]]></style>
<script type="text/javascript"><![CDATA[
var edges = document.getElementsByTagName('g');
if (edges && edges.length) {
  for (var i=0;i<edges.length;i++) {
    if (edges[i].id.substr(0,4)=='edge') {
      edges[i].setAttribute('class','edge');
    }
  }
}
]]></script>
        <defs>
                <circle id="rim" cx="0" cy="0" r="7"/>
                <circle id="rim2" cx="0" cy="0" r="3.5"/>
                <g id="zoomPlus">
                        <use xlink:href="#rim" fill="#404040">
                                <set attributeName="fill" to="#808080" begin="zoomplus.mouseover" end="zoomplus.mouseout"/>
                        </use>
                        <path d="M-4,0h8M0,-4v8" fill="none" stroke="white" stroke-width="1.5" pointer-events="none"/>
                </g>
                <g id="zoomMin">
                        <use xlink:href="#rim" fill="#404040">
                                <set attributeName="fill" to="#808080" begin="zoomminus.mouseover" end="zoomminus.mouseout"/>
                        </use>
                        <path d="M-4,0h8" fill="none" stroke="white" stroke-width="1.5" pointer-events="none"/>
                </g>
                <g id="dirArrow">
                        <path fill="none" stroke="white" stroke-width="1.5" d="M0,-3.0v7 M-2.5,-0.5L0,-3.0L2.5,-0.5"/>
                </g>
               <g id="resetDef">
                       <use xlink:href="#rim2" fill="#404040">
                               <set attributeName="fill" to="#808080" begin="reset.mouseover" end="reset.mouseout"/>
                       </use>
               </g>
        </defs>

<script type="text/javascript">
var viewWidth = 506;
var viewHeight = 374;
var sectionId = 'dynsection-0';
</script>
<script xlink:href="svgpan.js"/>
<svg id="graph" class="graph">
<g id="viewport">
<title>source/app/utils/thread_pool/JobBase.h</title>
<polygon fill="white" stroke="transparent" points="-4,4 -4,-370 501.5,-370 501.5,4 -4,4"/>
<!-- Node1 -->
<g id="node1" class="node">
<title>Node1</title>
<g id="a_node1"><a xlink:title=" ">
<polygon fill="#bfbfbf" stroke="black" points="247.5,-335.5 247.5,-365.5 363.5,-365.5 363.5,-335.5 247.5,-335.5"/>
<text text-anchor="start" x="255.5" y="-353.5" font-family="Helvetica,sans-Serif" font-size="10.00">source/app/utils/thread</text>
<text text-anchor="middle" x="305.5" y="-342.5" font-family="Helvetica,sans-Serif" font-size="10.00">_pool/JobBase.h</text>
</a>
</g>
</g>
<!-- Node2 -->
<g id="node2" class="node">
<title>Node2</title>
<g id="a_node2"><a xlink:href="_job_get_signature_8h.html" target="_top" xlink:title=" ">
<polygon fill="white" stroke="black" points="0,-134.5 0,-164.5 107,-164.5 107,-134.5 0,-134.5"/>
<text text-anchor="start" x="8" y="-152.5" font-family="Helvetica,sans-Serif" font-size="10.00">source/app/sign/jobs</text>
<text text-anchor="middle" x="53.5" y="-141.5" font-family="Helvetica,sans-Serif" font-size="10.00">/JobGetSignature.h</text>
</a>
</g>
</g>
<!-- Node1&#45;&gt;Node2 -->
<g id="edge1" class="edge">
<title>Node1&#45;&gt;Node2</title>
<path fill="none" stroke="midnightblue" d="M237.57,-335.08C181.81,-319.5 105.58,-288.86 64.5,-232 50.12,-212.09 50.1,-182.15 51.63,-164.64"/>
<polygon fill="midnightblue" stroke="midnightblue" points="236.82,-338.5 247.38,-337.72 238.64,-331.74 236.82,-338.5"/>
</g>
<!-- Node7 -->
<g id="node7" class="node">
<title>Node7</title>
<g id="a_node7"><a xlink:href="_job_base_8cpp.html" target="_top" xlink:title=" ">
<polygon fill="white" stroke="black" points="381.5,-268.5 381.5,-298.5 497.5,-298.5 497.5,-268.5 381.5,-268.5"/>
<text text-anchor="start" x="389.5" y="-286.5" font-family="Helvetica,sans-Serif" font-size="10.00">source/app/utils/thread</text>
<text text-anchor="middle" x="439.5" y="-275.5" font-family="Helvetica,sans-Serif" font-size="10.00">_pool/JobBase.cpp</text>
</a>
</g>
</g>
<!-- Node1&#45;&gt;Node7 -->
<g id="edge7" class="edge">
<title>Node1&#45;&gt;Node7</title>
<path fill="none" stroke="midnightblue" d="M343.65,-330.99C364.89,-320.69 390.91,-308.07 410.48,-298.58"/>
<polygon fill="midnightblue" stroke="midnightblue" points="342.05,-327.88 334.58,-335.4 345.1,-334.18 342.05,-327.88"/>
</g>
<!-- Node8 -->
<g id="node8" class="node">
<title>Node8</title>
<g id="a_node8"><a xlink:href="_thread_pool_8h.html" target="_top" xlink:title=" ">
<polygon fill="white" stroke="black" points="247.5,-268.5 247.5,-298.5 363.5,-298.5 363.5,-268.5 247.5,-268.5"/>
<text text-anchor="start" x="255.5" y="-286.5" font-family="Helvetica,sans-Serif" font-size="10.00">source/app/utils/thread</text>
<text text-anchor="middle" x="305.5" y="-275.5" font-family="Helvetica,sans-Serif" font-size="10.00">_pool/ThreadPool.h</text>
</a>
</g>
</g>
<!-- Node1&#45;&gt;Node8 -->
<g id="edge8" class="edge">
<title>Node1&#45;&gt;Node8</title>
<path fill="none" stroke="midnightblue" d="M305.5,-325.11C305.5,-316.15 305.5,-306.32 305.5,-298.58"/>
<polygon fill="midnightblue" stroke="midnightblue" points="302,-325.4 305.5,-335.4 309,-325.4 302,-325.4"/>
</g>
<!-- Node3 -->
<g id="node3" class="node">
<title>Node3</title>
<g id="a_node3"><a xlink:href="main_8cpp.html" target="_top" xlink:title=" ">
<polygon fill="white" stroke="black" points="194,-6 194,-25 301,-25 301,-6 194,-6"/>
<text text-anchor="middle" x="247.5" y="-13" font-family="Helvetica,sans-Serif" font-size="10.00">source/app/main.cpp</text>
</a>
</g>
</g>
<!-- Node2&#45;&gt;Node3 -->
<g id="edge2" class="edge">
<title>Node2&#45;&gt;Node3</title>
<path fill="none" stroke="midnightblue" d="M52.94,-124.35C53.84,-106.32 58.02,-82.25 72.5,-67 103.74,-34.09 154.95,-22.21 193.92,-18.12"/>
<polygon fill="midnightblue" stroke="midnightblue" points="49.44,-124.35 52.74,-134.41 56.44,-124.49 49.44,-124.35"/>
</g>
<!-- Node4 -->
<g id="node4" class="node">
<title>Node4</title>
<g id="a_node4"><a xlink:href="_file_signature_creator_8h.html" target="_top" xlink:title=" ">
<polygon fill="white" stroke="black" points="247.5,-67.5 247.5,-97.5 393.5,-97.5 393.5,-67.5 247.5,-67.5"/>
<text text-anchor="start" x="255.5" y="-85.5" font-family="Helvetica,sans-Serif" font-size="10.00">source/app/sign/FileSignature</text>
<text text-anchor="middle" x="320.5" y="-74.5" font-family="Helvetica,sans-Serif" font-size="10.00">Creator.h</text>
</a>
</g>
</g>
<!-- Node2&#45;&gt;Node4 -->
<g id="edge3" class="edge">
<title>Node2&#45;&gt;Node4</title>
<path fill="none" stroke="midnightblue" d="M116.99,-133.04C161.23,-122.27 219.78,-108.02 262.71,-97.57"/>
<polygon fill="midnightblue" stroke="midnightblue" points="116.1,-129.66 107.21,-135.42 117.75,-136.46 116.1,-129.66"/>
</g>
<!-- Node6 -->
<g id="node6" class="node">
<title>Node6</title>
<g id="a_node6"><a xlink:href="_job_get_signature_8cpp.html" target="_top" xlink:title=" ">
<polygon fill="white" stroke="black" points="82,-67.5 82,-97.5 193,-97.5 193,-67.5 82,-67.5"/>
<text text-anchor="start" x="90" y="-85.5" font-family="Helvetica,sans-Serif" font-size="10.00">source/app/sign/jobs</text>
<text text-anchor="middle" x="137.5" y="-74.5" font-family="Helvetica,sans-Serif" font-size="10.00">/JobGetSignature.cpp</text>
</a>
</g>
</g>
<!-- Node2&#45;&gt;Node6 -->
<g id="edge6" class="edge">
<title>Node2&#45;&gt;Node6</title>
<path fill="none" stroke="midnightblue" d="M79.78,-128.17C92.62,-118.23 107.76,-106.51 119.31,-97.58"/>
<polygon fill="midnightblue" stroke="midnightblue" points="77.49,-125.51 71.73,-134.4 81.78,-131.04 77.49,-125.51"/>
</g>
<!-- Node4&#45;&gt;Node3 -->
<g id="edge4" class="edge">
<title>Node4&#45;&gt;Node3</title>
<path fill="none" stroke="midnightblue" d="M297.11,-60.67C283.63,-48.67 267.4,-34.22 257.26,-25.19"/>
<polygon fill="midnightblue" stroke="midnightblue" points="294.86,-63.36 304.66,-67.4 299.52,-58.13 294.86,-63.36"/>
</g>
<!-- Node5 -->
<g id="node5" class="node">
<title>Node5</title>
<g id="a_node5"><a xlink:href="_file_signature_creator_8cpp.html" target="_top" xlink:title=" ">
<polygon fill="white" stroke="black" points="319.5,-0.5 319.5,-30.5 465.5,-30.5 465.5,-0.5 319.5,-0.5"/>
<text text-anchor="start" x="327.5" y="-18.5" font-family="Helvetica,sans-Serif" font-size="10.00">source/app/sign/FileSignature</text>
<text text-anchor="middle" x="392.5" y="-7.5" font-family="Helvetica,sans-Serif" font-size="10.00">Creator.cpp</text>
</a>
</g>
</g>
<!-- Node4&#45;&gt;Node5 -->
<g id="edge5" class="edge">
<title>Node4&#45;&gt;Node5</title>
<path fill="none" stroke="midnightblue" d="M343.65,-60.6C354.52,-50.78 367.2,-39.34 376.91,-30.58"/>
<polygon fill="midnightblue" stroke="midnightblue" points="341.2,-58.1 336.12,-67.4 345.89,-63.29 341.2,-58.1"/>
</g>
<!-- Node8&#45;&gt;Node3 -->
<g id="edge9" class="edge">
<title>Node8&#45;&gt;Node3</title>
<path fill="none" stroke="midnightblue" d="M353.44,-263.76C367.27,-256 380.93,-245.57 389.5,-232 428.77,-169.8 445.71,-126.53 402.5,-67 395.14,-56.87 323.86,-36.6 280.57,-25.06"/>
<polygon fill="midnightblue" stroke="midnightblue" points="351.62,-260.75 344.37,-268.48 354.86,-266.96 351.62,-260.75"/>
</g>
<!-- Node8&#45;&gt;Node4 -->
<g id="edge10" class="edge">
<title>Node8&#45;&gt;Node4</title>
<path fill="none" stroke="midnightblue" d="M343.84,-262.75C355.18,-254.83 366.23,-244.57 372.5,-232 395.9,-185.06 354.95,-125 333.01,-97.9"/>
<polygon fill="midnightblue" stroke="midnightblue" points="341.69,-259.97 335.19,-268.34 345.48,-265.85 341.69,-259.97"/>
</g>
<!-- Node9 -->
<g id="node9" class="node">
<title>Node9</title>
<g id="a_node9"><a xlink:href="_file_signature_creation_context_8h.html" target="_top" xlink:title=" ">
<polygon fill="white" stroke="black" points="73.5,-201.5 73.5,-231.5 229.5,-231.5 229.5,-201.5 73.5,-201.5"/>
<text text-anchor="start" x="81.5" y="-219.5" font-family="Helvetica,sans-Serif" font-size="10.00">source/app/sign/internal</text>
<text text-anchor="middle" x="151.5" y="-208.5" font-family="Helvetica,sans-Serif" font-size="10.00">/FileSignatureCreationContext.h</text>
</a>
</g>
</g>
<!-- Node8&#45;&gt;Node9 -->
<g id="edge11" class="edge">
<title>Node8&#45;&gt;Node9</title>
<path fill="none" stroke="midnightblue" d="M262.63,-264.41C238.05,-254.03 207.64,-241.2 184.85,-231.58"/>
<polygon fill="midnightblue" stroke="midnightblue" points="261.51,-267.73 272.08,-268.4 264.23,-261.28 261.51,-267.73"/>
</g>
<!-- Node11 -->
<g id="node11" class="node">
<title>Node11</title>
<g id="a_node11"><a xlink:href="_thread_pool_8cpp.html" target="_top" xlink:title=" ">
<polygon fill="white" stroke="black" points="247.5,-201.5 247.5,-231.5 363.5,-231.5 363.5,-201.5 247.5,-201.5"/>
<text text-anchor="start" x="255.5" y="-219.5" font-family="Helvetica,sans-Serif" font-size="10.00">source/app/utils/thread</text>
<text text-anchor="middle" x="305.5" y="-208.5" font-family="Helvetica,sans-Serif" font-size="10.00">_pool/ThreadPool.cpp</text>
</a>
</g>
</g>
<!-- Node8&#45;&gt;Node11 -->
<g id="edge15" class="edge">
<title>Node8&#45;&gt;Node11</title>
<path fill="none" stroke="midnightblue" d="M305.5,-258.11C305.5,-249.15 305.5,-239.32 305.5,-231.58"/>
<polygon fill="midnightblue" stroke="midnightblue" points="302,-258.4 305.5,-268.4 309,-258.4 302,-258.4"/>
</g>
<!-- Node9&#45;&gt;Node2 -->
<g id="edge14" class="edge">
<title>Node9&#45;&gt;Node2</title>
<path fill="none" stroke="midnightblue" d="M121.7,-195.73C106.53,-185.68 88.46,-173.68 74.72,-164.58"/>
<polygon fill="midnightblue" stroke="midnightblue" points="119.97,-198.79 130.24,-201.4 123.84,-192.95 119.97,-198.79"/>
</g>
<!-- Node9&#45;&gt;Node4 -->
<g id="edge12" class="edge">
<title>Node9&#45;&gt;Node4</title>
<path fill="none" stroke="midnightblue" d="M222.17,-198.77C255.4,-189.54 290.19,-177.45 301.5,-165 318.4,-146.4 321.14,-115.72 321.13,-97.78"/>
<polygon fill="midnightblue" stroke="midnightblue" points="221.13,-195.42 212.39,-201.41 222.96,-202.18 221.13,-195.42"/>
</g>
<!-- Node10 -->
<g id="node10" class="node">
<title>Node10</title>
<g id="a_node10"><a xlink:href="_file_signature_creation_context_8cpp.html" target="_top" xlink:title=" ">
<polygon fill="white" stroke="black" points="125,-134.5 125,-164.5 292,-164.5 292,-134.5 125,-134.5"/>
<text text-anchor="start" x="133" y="-152.5" font-family="Helvetica,sans-Serif" font-size="10.00">source/app/sign/internal</text>
<text text-anchor="middle" x="208.5" y="-141.5" font-family="Helvetica,sans-Serif" font-size="10.00">/FileSignatureCreationContext.cpp</text>
</a>
</g>
</g>
<!-- Node9&#45;&gt;Node10 -->
<g id="edge13" class="edge">
<title>Node9&#45;&gt;Node10</title>
<path fill="none" stroke="midnightblue" d="M170.59,-193.74C179.02,-184.12 188.69,-173.09 196.16,-164.58"/>
<polygon fill="midnightblue" stroke="midnightblue" points="167.83,-191.57 163.87,-201.4 173.09,-196.18 167.83,-191.57"/>
</g>
</g>
</svg>
        <g id="navigator" transform="translate(0 0)" fill="#404254">
                <rect fill="#f2f5e9" fill-opacity="0.5" stroke="#606060" stroke-width=".5" x="0" y="0" width="60" height="60"/>
                <use id="zoomplus" xlink:href="#zoomPlus" x="17" y="9" onmousedown="handleZoom(evt,'in')"/>
                <use id="zoomminus" xlink:href="#zoomMin" x="42" y="9" onmousedown="handleZoom(evt,'out')"/>
                <use id="reset" xlink:href="#resetDef" x="30" y="36" onmousedown="handleReset()"/>
                <g id="arrowUp" xlink:href="#dirArrow" transform="translate(30 24)" onmousedown="handlePan(0,-1)">
                  <use xlink:href="#rim" fill="#404040">
                        <set attributeName="fill" to="#808080" begin="arrowUp.mouseover" end="arrowUp.mouseout"/>
                  </use>
                  <path fill="none" stroke="white" stroke-width="1.5" d="M0,-3.0v7 M-2.5,-0.5L0,-3.0L2.5,-0.5"/>
                </g>
                <g id="arrowRight" xlink:href="#dirArrow" transform="rotate(90) translate(36 -43)" onmousedown="handlePan(1,0)">
                  <use xlink:href="#rim" fill="#404040">
                        <set attributeName="fill" to="#808080" begin="arrowRight.mouseover" end="arrowRight.mouseout"/>
                  </use>
                  <path fill="none" stroke="white" stroke-width="1.5" d="M0,-3.0v7 M-2.5,-0.5L0,-3.0L2.5,-0.5"/>
                </g>
                <g id="arrowDown" xlink:href="#dirArrow" transform="rotate(180) translate(-30 -48)" onmousedown="handlePan(0,1)">
                  <use xlink:href="#rim" fill="#404040">
                        <set attributeName="fill" to="#808080" begin="arrowDown.mouseover" end="arrowDown.mouseout"/>
                  </use>
                  <path fill="none" stroke="white" stroke-width="1.5" d="M0,-3.0v7 M-2.5,-0.5L0,-3.0L2.5,-0.5"/>
                </g>
                <g id="arrowLeft" xlink:href="#dirArrow" transform="rotate(270) translate(-36 17)" onmousedown="handlePan(-1,0)">
                  <use xlink:href="#rim" fill="#404040">
                        <set attributeName="fill" to="#808080" begin="arrowLeft.mouseover" end="arrowLeft.mouseout"/>
                  </use>
                  <path fill="none" stroke="white" stroke-width="1.5" d="M0,-3.0v7 M-2.5,-0.5L0,-3.0L2.5,-0.5"/>
                </g>
        </g>
        <svg viewBox="0 0 15 15" width="100%" height="30px" preserveAspectRatio="xMaxYMin meet">
         <g id="arrow_out" transform="scale(0.3 0.3)">
          <a xlink:href="_job_base_8h__dep__incl_org.svg" target="_base">
           <rect id="button" ry="5" rx="5" y="6" x="6" height="38" width="38"
                fill="#f2f5e9" fill-opacity="0.5" stroke="#606060" stroke-width="1.0"/>
           <path id="arrow"
             d="M 11.500037,31.436501 C 11.940474,20.09759 22.043105,11.32322 32.158766,21.979434 L 37.068811,17.246167 C 37.068811,17.246167 37.088388,32 37.088388,32 L 22.160133,31.978069 C 22.160133,31.978069 26.997745,27.140456 26.997745,27.140456 C 18.528582,18.264221 13.291696,25.230495 11.500037,31.436501 z"
             style="fill:#404040;"/>
          </a>
         </g>
        </svg>
</svg>
