<?xml version="1.0" encoding="UTF-8" standalone="no"?>
<!DOCTYPE svg PUBLIC "-//W3C//DTD SVG 1.1//EN"
 "http://www.w3.org/Graphics/SVG/1.1/DTD/svg11.dtd">
<!-- Generated by graphviz version 2.44.1 (20200629.0846)
 -->
<!-- Title: source/app/sign/jobs/JobGetSignature.h Pages: 1 -->
<!--zoomable 296 -->
<svg id="main" version="1.1" xmlns="http://www.w3.org/2000/svg" xmlns:xlink="http://www.w3.org/1999/xlink" xml:space="preserve" onload="init(evt)">
<style type="text/css"><![CDATA[
.edge:hover path { stroke: red; }
.edge:hover polygon { stroke: red; fill: red; }
]]></style>
<script type="text/javascript"><![CDATA[
var edges = document.getElementsByTagName('g');
if (edges && edges.length) {
  for (var i=0;i<edges.length;i++) {
    if (edges[i].id.substr(0,4)=='edge') {
      edges[i].setAttribute('class','edge');
    }
  }
}
]]></script>
        <defs>
                <circle id="rim" cx="0" cy="0" r="7"/>
                <circle id="rim2" cx="0" cy="0" r="3.5"/>
                <g id="zoomPlus">
                        <use xlink:href="#rim" fill="#404040">
                                <set attributeName="fill" to="#808080" begin="zoomplus.mouseover" end="zoomplus.mouseout"/>
                        </use>
                        <path d="M-4,0h8M0,-4v8" fill="none" stroke="white" stroke-width="1.5" pointer-events="none"/>
                </g>
                <g id="zoomMin">
                        <use xlink:href="#rim" fill="#404040">
                                <set attributeName="fill" to="#808080" begin="zoomminus.mouseover" end="zoomminus.mouseout"/>
                        </use>
                        <path d="M-4,0h8" fill="none" stroke="white" stroke-width="1.5" pointer-events="none"/>
                </g>
                <g id="dirArrow">
                        <path fill="none" stroke="white" stroke-width="1.5" d="M0,-3.0v7 M-2.5,-0.5L0,-3.0L2.5,-0.5"/>
                </g>
               <g id="resetDef">
                       <use xlink:href="#rim2" fill="#404040">
                               <set attributeName="fill" to="#808080" begin="reset.mouseover" end="reset.mouseout"/>
                       </use>
               </g>
        </defs>

<script type="text/javascript">
var viewWidth = 1069;
var viewHeight = 296;
var sectionId = 'dynsection-0';
</script>
<script xlink:href="svgpan.js"/>
<svg id="graph" class="graph">
<g id="viewport">
<title>source/app/sign/jobs/JobGetSignature.h</title>
<polygon fill="white" stroke="transparent" points="-4,4 -4,-292 1065,-292 1065,4 -4,4"/>
<!-- Node1 -->
<g id="node1" class="node">
<title>Node1</title>
<g id="a_node1"><a xlink:title=" ">
<polygon fill="#bfbfbf" stroke="black" points="205,-257.5 205,-287.5 312,-287.5 312,-257.5 205,-257.5"/>
<text text-anchor="start" x="213" y="-275.5" font-family="Helvetica,sans-Serif" font-size="10.00">source/app/sign/jobs</text>
<text text-anchor="middle" x="258.5" y="-264.5" font-family="Helvetica,sans-Serif" font-size="10.00">/JobGetSignature.h</text>
</a>
</g>
</g>
<!-- Node2 -->
<g id="node2" class="node">
<title>Node2</title>
<g id="a_node2"><a xlink:href="_job_base_8h.html" target="_top" xlink:title=" ">
<polygon fill="white" stroke="black" points="0,-56.5 0,-86.5 107,-86.5 107,-56.5 0,-56.5"/>
<text text-anchor="start" x="8" y="-74.5" font-family="Helvetica,sans-Serif" font-size="10.00">app/utils/thread_pool</text>
<text text-anchor="middle" x="53.5" y="-63.5" font-family="Helvetica,sans-Serif" font-size="10.00">/JobBase.h</text>
</a>
</g>
</g>
<!-- Node1&#45;&gt;Node2 -->
<g id="edge1" class="edge">
<title>Node1&#45;&gt;Node2</title>
<path fill="none" stroke="midnightblue" d="M243.76,-257.19C208.15,-222.62 117.31,-134.44 75.35,-93.71"/>
<polygon fill="midnightblue" stroke="midnightblue" points="77.72,-91.14 68.11,-86.68 72.85,-96.16 77.72,-91.14"/>
</g>
<!-- Node3 -->
<g id="node3" class="node">
<title>Node3</title>
<g id="a_node3"><a xlink:title=" ">
<polygon fill="white" stroke="#bfbfbf" points="125.5,-62 125.5,-81 171.5,-81 171.5,-62 125.5,-62"/>
<text text-anchor="middle" x="148.5" y="-69" font-family="Helvetica,sans-Serif" font-size="10.00">atomic</text>
</a>
</g>
</g>
<!-- Node1&#45;&gt;Node3 -->
<g id="edge2" class="edge">
<title>Node1&#45;&gt;Node3</title>
<path fill="none" stroke="midnightblue" d="M250.59,-257.19C230.92,-221.61 179.85,-129.22 158.31,-90.25"/>
<polygon fill="midnightblue" stroke="midnightblue" points="161.3,-88.42 153.4,-81.36 155.17,-91.81 161.3,-88.42"/>
</g>
<!-- Node4 -->
<g id="node4" class="node">
<title>Node4</title>
<g id="a_node4"><a xlink:href="_file_signature_creation_context_8h.html" target="_top" xlink:title=" ">
<polygon fill="white" stroke="black" points="474.5,-190.5 474.5,-220.5 622.5,-220.5 622.5,-190.5 474.5,-190.5"/>
<text text-anchor="start" x="482.5" y="-208.5" font-family="Helvetica,sans-Serif" font-size="10.00">app/sign/internal/FileSignature</text>
<text text-anchor="middle" x="548.5" y="-197.5" font-family="Helvetica,sans-Serif" font-size="10.00">CreationContext.h</text>
</a>
</g>
</g>
<!-- Node1&#45;&gt;Node4 -->
<g id="edge3" class="edge">
<title>Node1&#45;&gt;Node4</title>
<path fill="none" stroke="midnightblue" d="M312.03,-259.5C358.13,-249.17 425.1,-234.16 476,-222.75"/>
<polygon fill="midnightblue" stroke="midnightblue" points="476.97,-226.12 485.96,-220.52 475.44,-219.29 476.97,-226.12"/>
</g>
<!-- Node5 -->
<g id="node5" class="node">
<title>Node5</title>
<g id="a_node5"><a xlink:title=" ">
<polygon fill="white" stroke="#bfbfbf" points="263,-129 263,-148 298,-148 298,-129 263,-129"/>
<text text-anchor="middle" x="280.5" y="-136" font-family="Helvetica,sans-Serif" font-size="10.00">map</text>
</a>
</g>
</g>
<!-- Node1&#45;&gt;Node5 -->
<g id="edge32" class="edge">
<title>Node1&#45;&gt;Node5</title>
<path fill="none" stroke="midnightblue" d="M260.85,-257.37C264.85,-233.4 272.96,-184.75 277.41,-158.06"/>
<polygon fill="midnightblue" stroke="midnightblue" points="280.88,-158.54 279.07,-148.1 273.97,-157.39 280.88,-158.54"/>
</g>
<!-- Node6 -->
<g id="node6" class="node">
<title>Node6</title>
<g id="a_node6"><a xlink:title=" ">
<polygon fill="white" stroke="#bfbfbf" points="753.5,-62 753.5,-81 797.5,-81 797.5,-62 753.5,-62"/>
<text text-anchor="middle" x="775.5" y="-69" font-family="Helvetica,sans-Serif" font-size="10.00">mutex</text>
</a>
</g>
</g>
<!-- Node1&#45;&gt;Node6 -->
<g id="edge33" class="edge">
<title>Node1&#45;&gt;Node6</title>
<path fill="none" stroke="midnightblue" d="M312.07,-270.37C385.78,-267.46 521.8,-257.16 631.5,-221 690.25,-201.64 715.27,-202.64 753.5,-154 767.83,-135.77 772.85,-108.93 774.6,-91.1"/>
<polygon fill="midnightblue" stroke="midnightblue" points="778.09,-91.31 775.32,-81.09 771.11,-90.81 778.09,-91.31"/>
</g>
<!-- Node9 -->
<g id="node9" class="node">
<title>Node9</title>
<g id="a_node9"><a xlink:title=" ">
<polygon fill="white" stroke="#bfbfbf" points="189.5,-62 189.5,-81 241.5,-81 241.5,-62 189.5,-62"/>
<text text-anchor="middle" x="215.5" y="-69" font-family="Helvetica,sans-Serif" font-size="10.00">memory</text>
</a>
</g>
</g>
<!-- Node1&#45;&gt;Node9 -->
<g id="edge34" class="edge">
<title>Node1&#45;&gt;Node9</title>
<path fill="none" stroke="midnightblue" d="M255.41,-257.19C247.78,-221.91 228.09,-130.78 219.55,-91.25"/>
<polygon fill="midnightblue" stroke="midnightblue" points="222.95,-90.4 217.41,-81.36 216.11,-91.87 222.95,-90.4"/>
</g>
<!-- Node4&#45;&gt;Node3 -->
<g id="edge4" class="edge">
<title>Node4&#45;&gt;Node3</title>
<path fill="none" stroke="midnightblue" d="M474.29,-192.12C436.42,-184.16 390.29,-171.9 351.5,-154 329.78,-143.98 329.09,-133.3 307.5,-123 254.55,-97.75 235.59,-107.16 180.5,-87 178.89,-86.41 177.24,-85.77 175.59,-85.11"/>
<polygon fill="midnightblue" stroke="midnightblue" points="176.81,-81.83 166.24,-81.11 174.06,-88.26 176.81,-81.83"/>
</g>
<!-- Node4&#45;&gt;Node5 -->
<g id="edge5" class="edge">
<title>Node4&#45;&gt;Node5</title>
<path fill="none" stroke="midnightblue" d="M477.09,-190.46C432.62,-181.23 374.39,-168.25 323.5,-154 318.41,-152.58 313.04,-150.9 307.89,-149.21"/>
<polygon fill="midnightblue" stroke="midnightblue" points="308.96,-145.88 298.36,-145.99 306.71,-152.51 308.96,-145.88"/>
</g>
<!-- Node4&#45;&gt;Node6 -->
<g id="edge6" class="edge">
<title>Node4&#45;&gt;Node6</title>
<path fill="none" stroke="midnightblue" d="M622.6,-196.49C657.28,-189.7 697.45,-177.16 727.5,-154 748.59,-137.74 762.22,-109.38 769.38,-90.77"/>
<polygon fill="midnightblue" stroke="midnightblue" points="772.77,-91.7 772.86,-81.1 766.18,-89.33 772.77,-91.7"/>
</g>
<!-- Node7 -->
<g id="node7" class="node">
<title>Node7</title>
<g id="a_node7"><a xlink:title=" ">
<polygon fill="white" stroke="#bfbfbf" points="577.5,-62 577.5,-81 621.5,-81 621.5,-62 577.5,-62"/>
<text text-anchor="middle" x="599.5" y="-69" font-family="Helvetica,sans-Serif" font-size="10.00">vector</text>
</a>
</g>
</g>
<!-- Node4&#45;&gt;Node7 -->
<g id="edge7" class="edge">
<title>Node4&#45;&gt;Node7</title>
<path fill="none" stroke="midnightblue" d="M551.73,-190.36C555.71,-173.86 563.11,-145.93 572.5,-123 577.14,-111.67 583.57,-99.54 588.99,-90.02"/>
<polygon fill="midnightblue" stroke="midnightblue" points="592.13,-91.57 594.15,-81.17 586.09,-88.04 592.13,-91.57"/>
</g>
<!-- Node8 -->
<g id="node8" class="node">
<title>Node8</title>
<g id="a_node8"><a xlink:title=" ">
<polygon fill="white" stroke="#bfbfbf" points="893.5,-62 893.5,-81 943.5,-81 943.5,-62 893.5,-62"/>
<text text-anchor="middle" x="918.5" y="-69" font-family="Helvetica,sans-Serif" font-size="10.00">fstream</text>
</a>
</g>
</g>
<!-- Node4&#45;&gt;Node8 -->
<g id="edge8" class="edge">
<title>Node4&#45;&gt;Node8</title>
<path fill="none" stroke="midnightblue" d="M622.23,-190.4C661.77,-181.83 710.98,-169.53 753.5,-154 805.99,-134.83 863.78,-103.81 895.12,-86.08"/>
<polygon fill="midnightblue" stroke="midnightblue" points="897.01,-89.03 903.96,-81.03 893.54,-82.95 897.01,-89.03"/>
</g>
<!-- Node4&#45;&gt;Node9 -->
<g id="edge9" class="edge">
<title>Node4&#45;&gt;Node9</title>
<path fill="none" stroke="midnightblue" d="M500.52,-190.49C471.81,-181.44 434.91,-168.65 403.5,-154 379.11,-142.63 375.84,-134.46 351.5,-123 308.38,-102.7 294.97,-104.13 250.5,-87 248.85,-86.37 247.17,-85.71 245.47,-85.03"/>
<polygon fill="midnightblue" stroke="midnightblue" points="246.37,-81.62 235.79,-81.11 243.74,-88.11 246.37,-81.62"/>
</g>
<!-- Node10 -->
<g id="node10" class="node">
<title>Node10</title>
<g id="a_node10"><a xlink:href="_signature_creation_params_8h.html" target="_top" xlink:title=" ">
<polygon fill="white" stroke="black" points="851.5,-123.5 851.5,-153.5 985.5,-153.5 985.5,-123.5 851.5,-123.5"/>
<text text-anchor="start" x="859.5" y="-141.5" font-family="Helvetica,sans-Serif" font-size="10.00">app/sign/SignatureCreation</text>
<text text-anchor="middle" x="918.5" y="-130.5" font-family="Helvetica,sans-Serif" font-size="10.00">Params.h</text>
</a>
</g>
</g>
<!-- Node4&#45;&gt;Node10 -->
<g id="edge10" class="edge">
<title>Node4&#45;&gt;Node10</title>
<path fill="none" stroke="midnightblue" d="M622.93,-191.42C686.33,-180.29 777.09,-164.34 841.28,-153.07"/>
<polygon fill="midnightblue" stroke="midnightblue" points="842.1,-156.48 851.34,-151.3 840.89,-149.58 842.1,-156.48"/>
</g>
<!-- Node14 -->
<g id="node14" class="node">
<title>Node14</title>
<g id="a_node14"><a xlink:href="_thread_pool_8h.html" target="_top" xlink:title=" ">
<polygon fill="white" stroke="black" points="412,-123.5 412,-153.5 519,-153.5 519,-123.5 412,-123.5"/>
<text text-anchor="start" x="420" y="-141.5" font-family="Helvetica,sans-Serif" font-size="10.00">app/utils/thread_pool</text>
<text text-anchor="middle" x="465.5" y="-130.5" font-family="Helvetica,sans-Serif" font-size="10.00">/ThreadPool.h</text>
</a>
</g>
</g>
<!-- Node4&#45;&gt;Node14 -->
<g id="edge15" class="edge">
<title>Node4&#45;&gt;Node14</title>
<path fill="none" stroke="midnightblue" d="M530.49,-190.4C519.07,-181.45 504.11,-169.74 491.42,-159.8"/>
<polygon fill="midnightblue" stroke="midnightblue" points="493.51,-156.99 483.47,-153.58 489.19,-162.5 493.51,-156.99"/>
</g>
<!-- Node17 -->
<g id="node17" class="node">
<title>Node17</title>
<g id="a_node17"><a xlink:title=" ">
<polygon fill="white" stroke="#bfbfbf" points="640,-62 640,-81 735,-81 735,-62 640,-62"/>
<text text-anchor="middle" x="687.5" y="-69" font-family="Helvetica,sans-Serif" font-size="10.00">condition_variable</text>
</a>
</g>
</g>
<!-- Node4&#45;&gt;Node17 -->
<g id="edge28" class="edge">
<title>Node4&#45;&gt;Node17</title>
<path fill="none" stroke="midnightblue" d="M556.08,-190.21C565.81,-172.82 584.02,-143.26 605.5,-123 621.56,-107.85 642.88,-94.89 659.75,-85.89"/>
<polygon fill="midnightblue" stroke="midnightblue" points="661.82,-88.76 669.1,-81.07 658.61,-82.54 661.82,-88.76"/>
</g>
<!-- Node21 -->
<g id="node21" class="node">
<title>Node21</title>
<g id="a_node21"><a xlink:href="_semaphore_8h.html" target="_top" xlink:title=" ">
<polygon fill="white" stroke="black" points="614.5,-123.5 614.5,-153.5 718.5,-153.5 718.5,-123.5 614.5,-123.5"/>
<text text-anchor="start" x="622.5" y="-141.5" font-family="Helvetica,sans-Serif" font-size="10.00">app/utils/semaphore</text>
<text text-anchor="middle" x="666.5" y="-130.5" font-family="Helvetica,sans-Serif" font-size="10.00">/Semaphore.h</text>
</a>
</g>
</g>
<!-- Node4&#45;&gt;Node21 -->
<g id="edge29" class="edge">
<title>Node4&#45;&gt;Node21</title>
<path fill="none" stroke="midnightblue" d="M574.1,-190.4C591.04,-181.07 613.44,-168.73 631.95,-158.53"/>
<polygon fill="midnightblue" stroke="midnightblue" points="633.88,-161.47 640.95,-153.58 630.5,-155.34 633.88,-161.47"/>
</g>
<!-- Node10&#45;&gt;Node8 -->
<g id="edge13" class="edge">
<title>Node10&#45;&gt;Node8</title>
<path fill="none" stroke="midnightblue" d="M918.5,-123.4C918.5,-114.06 918.5,-101.71 918.5,-91.52"/>
<polygon fill="midnightblue" stroke="midnightblue" points="922,-91.19 918.5,-81.19 915,-91.19 922,-91.19"/>
</g>
<!-- Node11 -->
<g id="node11" class="node">
<title>Node11</title>
<g id="a_node11"><a xlink:title=" ">
<polygon fill="white" stroke="#bfbfbf" points="961.5,-62 961.5,-81 1001.5,-81 1001.5,-62 961.5,-62"/>
<text text-anchor="middle" x="981.5" y="-69" font-family="Helvetica,sans-Serif" font-size="10.00">utility</text>
</a>
</g>
</g>
<!-- Node10&#45;&gt;Node11 -->
<g id="edge11" class="edge">
<title>Node10&#45;&gt;Node11</title>
<path fill="none" stroke="midnightblue" d="M932.17,-123.4C942.09,-113.16 955.53,-99.3 965.87,-88.62"/>
<polygon fill="midnightblue" stroke="midnightblue" points="968.63,-90.81 973.07,-81.19 963.6,-85.94 968.63,-90.81"/>
</g>
<!-- Node12 -->
<g id="node12" class="node">
<title>Node12</title>
<g id="a_node12"><a xlink:title=" ">
<polygon fill="white" stroke="#bfbfbf" points="1020,-62 1020,-81 1061,-81 1061,-62 1020,-62"/>
<text text-anchor="middle" x="1040.5" y="-69" font-family="Helvetica,sans-Serif" font-size="10.00">string</text>
</a>
</g>
</g>
<!-- Node10&#45;&gt;Node12 -->
<g id="edge12" class="edge">
<title>Node10&#45;&gt;Node12</title>
<path fill="none" stroke="midnightblue" d="M944.97,-123.4C965.9,-112.24 994.93,-96.78 1015.47,-85.83"/>
<polygon fill="midnightblue" stroke="midnightblue" points="1017.35,-88.8 1024.53,-81.01 1014.06,-82.62 1017.35,-88.8"/>
</g>
<!-- Node13 -->
<g id="node13" class="node">
<title>Node13</title>
<g id="a_node13"><a xlink:title=" ">
<polygon fill="white" stroke="#bfbfbf" points="816,-62 816,-81 875,-81 875,-62 816,-62"/>
<text text-anchor="middle" x="845.5" y="-69" font-family="Helvetica,sans-Serif" font-size="10.00">exception</text>
</a>
</g>
</g>
<!-- Node10&#45;&gt;Node13 -->
<g id="edge14" class="edge">
<title>Node10&#45;&gt;Node13</title>
<path fill="none" stroke="midnightblue" d="M902.66,-123.4C890.94,-112.96 874.98,-98.75 862.91,-88"/>
<polygon fill="midnightblue" stroke="midnightblue" points="865.06,-85.23 855.26,-81.19 860.41,-90.46 865.06,-85.23"/>
</g>
<!-- Node14&#45;&gt;Node2 -->
<g id="edge25" class="edge">
<title>Node14&#45;&gt;Node2</title>
<path fill="none" stroke="midnightblue" d="M411.76,-131.12C345.05,-122.89 227.59,-107.39 117.04,-87"/>
<polygon fill="midnightblue" stroke="midnightblue" points="117.52,-83.53 107.05,-85.14 116.24,-90.41 117.52,-83.53"/>
</g>
<!-- Node14&#45;&gt;Node3 -->
<g id="edge23" class="edge">
<title>Node14&#45;&gt;Node3</title>
<path fill="none" stroke="midnightblue" d="M411.77,-129.62C341.61,-119.05 222.74,-100.09 180.5,-87 178.62,-86.42 176.71,-85.75 174.8,-85.03"/>
<polygon fill="midnightblue" stroke="midnightblue" points="176.04,-81.76 165.46,-81.14 173.34,-88.22 176.04,-81.76"/>
</g>
<!-- Node14&#45;&gt;Node6 -->
<g id="edge22" class="edge">
<title>Node14&#45;&gt;Node6</title>
<path fill="none" stroke="midnightblue" d="M519.2,-131.96C576.13,-125.12 668.16,-111.31 744.5,-87 746.17,-86.47 747.87,-85.86 749.57,-85.21"/>
<polygon fill="midnightblue" stroke="midnightblue" points="751.27,-88.29 759.09,-81.14 748.52,-81.86 751.27,-88.29"/>
</g>
<!-- Node14&#45;&gt;Node7 -->
<g id="edge19" class="edge">
<title>Node14&#45;&gt;Node7</title>
<path fill="none" stroke="midnightblue" d="M494.58,-123.4C517.88,-112.09 550.31,-96.36 572.93,-85.39"/>
<polygon fill="midnightblue" stroke="midnightblue" points="574.49,-88.52 581.96,-81.01 571.44,-82.22 574.49,-88.52"/>
</g>
<!-- Node14&#45;&gt;Node9 -->
<g id="edge16" class="edge">
<title>Node14&#45;&gt;Node9</title>
<path fill="none" stroke="midnightblue" d="M411.78,-125.93C358.31,-114.22 280.06,-96.53 250.5,-87 248.36,-86.31 246.18,-85.55 243.99,-84.74"/>
<polygon fill="midnightblue" stroke="midnightblue" points="245.13,-81.44 234.55,-81.05 242.58,-87.95 245.13,-81.44"/>
</g>
<!-- Node14&#45;&gt;Node13 -->
<g id="edge18" class="edge">
<title>Node14&#45;&gt;Node13</title>
<path fill="none" stroke="midnightblue" d="M519.26,-130.93C601.17,-120.69 753.32,-100.66 806.5,-87 809.32,-86.28 812.22,-85.42 815.1,-84.49"/>
<polygon fill="midnightblue" stroke="midnightblue" points="816.42,-87.74 824.71,-81.15 814.11,-81.13 816.42,-87.74"/>
</g>
<!-- Node15 -->
<g id="node15" class="node">
<title>Node15</title>
<g id="a_node15"><a xlink:title=" ">
<polygon fill="white" stroke="#bfbfbf" points="259.5,-62 259.5,-81 303.5,-81 303.5,-62 259.5,-62"/>
<text text-anchor="middle" x="281.5" y="-69" font-family="Helvetica,sans-Serif" font-size="10.00">thread</text>
</a>
</g>
</g>
<!-- Node14&#45;&gt;Node15 -->
<g id="edge17" class="edge">
<title>Node14&#45;&gt;Node15</title>
<path fill="none" stroke="midnightblue" d="M419.16,-123.49C388.82,-113.98 348.46,-100.68 313.5,-87 312.08,-86.44 310.63,-85.86 309.18,-85.25"/>
<polygon fill="midnightblue" stroke="midnightblue" points="310.2,-81.88 299.64,-81.11 307.42,-88.31 310.2,-81.88"/>
</g>
<!-- Node16 -->
<g id="node16" class="node">
<title>Node16</title>
<g id="a_node16"><a xlink:title=" ">
<polygon fill="white" stroke="#bfbfbf" points="322,-62 322,-81 365,-81 365,-62 322,-62"/>
<text text-anchor="middle" x="343.5" y="-69" font-family="Helvetica,sans-Serif" font-size="10.00">queue</text>
</a>
</g>
</g>
<!-- Node14&#45;&gt;Node16 -->
<g id="edge20" class="edge">
<title>Node14&#45;&gt;Node16</title>
<path fill="none" stroke="midnightblue" d="M439.03,-123.4C418.1,-112.24 389.07,-96.78 368.53,-85.83"/>
<polygon fill="midnightblue" stroke="midnightblue" points="369.94,-82.62 359.47,-81.01 366.65,-88.8 369.94,-82.62"/>
</g>
<!-- Node14&#45;&gt;Node17 -->
<g id="edge21" class="edge">
<title>Node14&#45;&gt;Node17</title>
<path fill="none" stroke="midnightblue" d="M513.4,-123.48C553.71,-111.67 610.65,-95 648.3,-83.98"/>
<polygon fill="midnightblue" stroke="midnightblue" points="649.76,-87.2 658.37,-81.03 647.79,-80.48 649.76,-87.2"/>
</g>
<!-- Node18 -->
<g id="node18" class="node">
<title>Node18</title>
<g id="a_node18"><a xlink:title=" ">
<polygon fill="white" stroke="#bfbfbf" points="383.5,-62 383.5,-81 437.5,-81 437.5,-62 383.5,-62"/>
<text text-anchor="middle" x="410.5" y="-69" font-family="Helvetica,sans-Serif" font-size="10.00">iostream</text>
</a>
</g>
</g>
<!-- Node14&#45;&gt;Node18 -->
<g id="edge24" class="edge">
<title>Node14&#45;&gt;Node18</title>
<path fill="none" stroke="midnightblue" d="M453.57,-123.4C444.99,-113.26 433.4,-99.57 424.41,-88.94"/>
<polygon fill="midnightblue" stroke="midnightblue" points="426.99,-86.57 417.86,-81.19 421.64,-91.09 426.99,-86.57"/>
</g>
<!-- Node19 -->
<g id="node19" class="node">
<title>Node19</title>
<g id="a_node19"><a xlink:href="_e_thread_pool_state_8h.html" target="_top" xlink:title=" ">
<polygon fill="white" stroke="black" points="455.5,-62 455.5,-81 559.5,-81 559.5,-62 455.5,-62"/>
<text text-anchor="middle" x="507.5" y="-69" font-family="Helvetica,sans-Serif" font-size="10.00">EThreadPoolState.h</text>
</a>
</g>
</g>
<!-- Node14&#45;&gt;Node19 -->
<g id="edge26" class="edge">
<title>Node14&#45;&gt;Node19</title>
<path fill="none" stroke="midnightblue" d="M474.61,-123.4C480.97,-113.56 489.49,-100.38 496.26,-89.89"/>
<polygon fill="midnightblue" stroke="midnightblue" points="499.39,-91.49 501.88,-81.19 493.52,-87.69 499.39,-91.49"/>
</g>
<!-- Node20 -->
<g id="node20" class="node">
<title>Node20</title>
<g id="a_node20"><a xlink:title=" ">
<polygon fill="white" stroke="#bfbfbf" points="483,-0.5 483,-19.5 532,-19.5 532,-0.5 483,-0.5"/>
<text text-anchor="middle" x="507.5" y="-7.5" font-family="Helvetica,sans-Serif" font-size="10.00">stdint.h</text>
</a>
</g>
</g>
<!-- Node19&#45;&gt;Node20 -->
<g id="edge27" class="edge">
<title>Node19&#45;&gt;Node20</title>
<path fill="none" stroke="midnightblue" d="M507.5,-61.98C507.5,-53.58 507.5,-40.48 507.5,-29.66"/>
<polygon fill="midnightblue" stroke="midnightblue" points="511,-29.51 507.5,-19.51 504,-29.51 511,-29.51"/>
</g>
<!-- Node21&#45;&gt;Node6 -->
<g id="edge30" class="edge">
<title>Node21&#45;&gt;Node6</title>
<path fill="none" stroke="midnightblue" d="M690.15,-123.4C708.68,-112.34 734.31,-97.06 752.64,-86.13"/>
<polygon fill="midnightblue" stroke="midnightblue" points="754.44,-89.13 761.23,-81.01 750.85,-83.12 754.44,-89.13"/>
</g>
<!-- Node21&#45;&gt;Node17 -->
<g id="edge31" class="edge">
<title>Node21&#45;&gt;Node17</title>
<path fill="none" stroke="midnightblue" d="M671.06,-123.4C674.14,-113.86 678.23,-101.18 681.57,-90.86"/>
<polygon fill="midnightblue" stroke="midnightblue" points="684.95,-91.79 684.69,-81.19 678.29,-89.63 684.95,-91.79"/>
</g>
</g>
</svg>
        <g id="navigator" transform="translate(0 0)" fill="#404254">
                <rect fill="#f2f5e9" fill-opacity="0.5" stroke="#606060" stroke-width=".5" x="0" y="0" width="60" height="60"/>
                <use id="zoomplus" xlink:href="#zoomPlus" x="17" y="9" onmousedown="handleZoom(evt,'in')"/>
                <use id="zoomminus" xlink:href="#zoomMin" x="42" y="9" onmousedown="handleZoom(evt,'out')"/>
                <use id="reset" xlink:href="#resetDef" x="30" y="36" onmousedown="handleReset()"/>
                <g id="arrowUp" xlink:href="#dirArrow" transform="translate(30 24)" onmousedown="handlePan(0,-1)">
                  <use xlink:href="#rim" fill="#404040">
                        <set attributeName="fill" to="#808080" begin="arrowUp.mouseover" end="arrowUp.mouseout"/>
                  </use>
                  <path fill="none" stroke="white" stroke-width="1.5" d="M0,-3.0v7 M-2.5,-0.5L0,-3.0L2.5,-0.5"/>
                </g>
                <g id="arrowRight" xlink:href="#dirArrow" transform="rotate(90) translate(36 -43)" onmousedown="handlePan(1,0)">
                  <use xlink:href="#rim" fill="#404040">
                        <set attributeName="fill" to="#808080" begin="arrowRight.mouseover" end="arrowRight.mouseout"/>
                  </use>
                  <path fill="none" stroke="white" stroke-width="1.5" d="M0,-3.0v7 M-2.5,-0.5L0,-3.0L2.5,-0.5"/>
                </g>
                <g id="arrowDown" xlink:href="#dirArrow" transform="rotate(180) translate(-30 -48)" onmousedown="handlePan(0,1)">
                  <use xlink:href="#rim" fill="#404040">
                        <set attributeName="fill" to="#808080" begin="arrowDown.mouseover" end="arrowDown.mouseout"/>
                  </use>
                  <path fill="none" stroke="white" stroke-width="1.5" d="M0,-3.0v7 M-2.5,-0.5L0,-3.0L2.5,-0.5"/>
                </g>
                <g id="arrowLeft" xlink:href="#dirArrow" transform="rotate(270) translate(-36 17)" onmousedown="handlePan(-1,0)">
                  <use xlink:href="#rim" fill="#404040">
                        <set attributeName="fill" to="#808080" begin="arrowLeft.mouseover" end="arrowLeft.mouseout"/>
                  </use>
                  <path fill="none" stroke="white" stroke-width="1.5" d="M0,-3.0v7 M-2.5,-0.5L0,-3.0L2.5,-0.5"/>
                </g>
        </g>
        <svg viewBox="0 0 15 15" width="100%" height="30px" preserveAspectRatio="xMaxYMin meet">
         <g id="arrow_out" transform="scale(0.3 0.3)">
          <a xlink:href="_job_get_signature_8h__incl_org.svg" target="_base">
           <rect id="button" ry="5" rx="5" y="6" x="6" height="38" width="38"
                fill="#f2f5e9" fill-opacity="0.5" stroke="#606060" stroke-width="1.0"/>
           <path id="arrow"
             d="M 11.500037,31.436501 C 11.940474,20.09759 22.043105,11.32322 32.158766,21.979434 L 37.068811,17.246167 C 37.068811,17.246167 37.088388,32 37.088388,32 L 22.160133,31.978069 C 22.160133,31.978069 26.997745,27.140456 26.997745,27.140456 C 18.528582,18.264221 13.291696,25.230495 11.500037,31.436501 z"
             style="fill:#404040;"/>
          </a>
         </g>
        </svg>
</svg>
