<?xml version="1.0" encoding="UTF-8" standalone="no"?>
<!DOCTYPE svg PUBLIC "-//W3C//DTD SVG 1.1//EN"
 "http://www.w3.org/Graphics/SVG/1.1/DTD/svg11.dtd">
<!-- Generated by graphviz version 2.44.1 (20200629.0846)
 -->
<!-- Title: source/app/sign/jobs/JobGetSignature.cpp Pages: 1 -->
<!--zoomable 352 -->
<svg id="main" version="1.1" xmlns="http://www.w3.org/2000/svg" xmlns:xlink="http://www.w3.org/1999/xlink" xml:space="preserve" onload="init(evt)">
<style type="text/css"><![CDATA[
.edge:hover path { stroke: red; }
.edge:hover polygon { stroke: red; fill: red; }
]]></style>
<script type="text/javascript"><![CDATA[
var edges = document.getElementsByTagName('g');
if (edges && edges.length) {
  for (var i=0;i<edges.length;i++) {
    if (edges[i].id.substr(0,4)=='edge') {
      edges[i].setAttribute('class','edge');
    }
  }
}
]]></script>
        <defs>
                <circle id="rim" cx="0" cy="0" r="7"/>
                <circle id="rim2" cx="0" cy="0" r="3.5"/>
                <g id="zoomPlus">
                        <use xlink:href="#rim" fill="#404040">
                                <set attributeName="fill" to="#808080" begin="zoomplus.mouseover" end="zoomplus.mouseout"/>
                        </use>
                        <path d="M-4,0h8M0,-4v8" fill="none" stroke="white" stroke-width="1.5" pointer-events="none"/>
                </g>
                <g id="zoomMin">
                        <use xlink:href="#rim" fill="#404040">
                                <set attributeName="fill" to="#808080" begin="zoomminus.mouseover" end="zoomminus.mouseout"/>
                        </use>
                        <path d="M-4,0h8" fill="none" stroke="white" stroke-width="1.5" pointer-events="none"/>
                </g>
                <g id="dirArrow">
                        <path fill="none" stroke="white" stroke-width="1.5" d="M0,-3.0v7 M-2.5,-0.5L0,-3.0L2.5,-0.5"/>
                </g>
               <g id="resetDef">
                       <use xlink:href="#rim2" fill="#404040">
                               <set attributeName="fill" to="#808080" begin="reset.mouseover" end="reset.mouseout"/>
                       </use>
               </g>
        </defs>

<script type="text/javascript">
var viewWidth = 1133;
var viewHeight = 352;
var sectionId = 'dynsection-0';
</script>
<script xlink:href="svgpan.js"/>
<svg id="graph" class="graph">
<g id="viewport">
<title>source/app/sign/jobs/JobGetSignature.cpp</title>
<polygon fill="white" stroke="transparent" points="-4,4 -4,-348 1129,-348 1129,4 -4,4"/>
<!-- Node1 -->
<g id="node1" class="node">
<title>Node1</title>
<g id="a_node1"><a xlink:title=" ">
<polygon fill="#bfbfbf" stroke="black" points="394.5,-313.5 394.5,-343.5 505.5,-343.5 505.5,-313.5 394.5,-313.5"/>
<text text-anchor="start" x="402.5" y="-331.5" font-family="Helvetica,sans-Serif" font-size="10.00">source/app/sign/jobs</text>
<text text-anchor="middle" x="450" y="-320.5" font-family="Helvetica,sans-Serif" font-size="10.00">/JobGetSignature.cpp</text>
</a>
</g>
</g>
<!-- Node2 -->
<g id="node2" class="node">
<title>Node2</title>
<g id="a_node2"><a xlink:href="md5_8h.html" target="_top" xlink:title=" ">
<polygon fill="white" stroke="black" points="121.5,-129 121.5,-148 186.5,-148 186.5,-129 121.5,-129"/>
<text text-anchor="middle" x="154" y="-136" font-family="Helvetica,sans-Serif" font-size="10.00">md5/md5.h</text>
</a>
</g>
</g>
<!-- Node1&#45;&gt;Node2 -->
<g id="edge1" class="edge">
<title>Node1&#45;&gt;Node2</title>
<path fill="none" stroke="midnightblue" d="M427.75,-313.37C372.85,-278.5 231.37,-188.64 176.35,-153.7"/>
<polygon fill="midnightblue" stroke="midnightblue" points="178.03,-150.61 167.71,-148.21 174.27,-156.52 178.03,-150.61"/>
</g>
<!-- Node6 -->
<g id="node6" class="node">
<title>Node6</title>
<g id="a_node6"><a xlink:href="_job_get_signature_8h.html" target="_top" xlink:title=" ">
<polygon fill="white" stroke="black" points="669,-257.5 669,-276.5 767,-276.5 767,-257.5 669,-257.5"/>
<text text-anchor="middle" x="718" y="-264.5" font-family="Helvetica,sans-Serif" font-size="10.00">JobGetSignature.h</text>
</a>
</g>
</g>
<!-- Node1&#45;&gt;Node6 -->
<g id="edge5" class="edge">
<title>Node1&#45;&gt;Node6</title>
<path fill="none" stroke="midnightblue" d="M505.53,-315.17C553.95,-304.42 623.48,-288.98 669.65,-278.73"/>
<polygon fill="midnightblue" stroke="midnightblue" points="670.42,-282.15 679.42,-276.56 668.9,-275.32 670.42,-282.15"/>
</g>
<!-- Node3 -->
<g id="node3" class="node">
<title>Node3</title>
<g id="a_node3"><a xlink:title=" ">
<polygon fill="white" stroke="#bfbfbf" points="0,-62 0,-81 46,-81 46,-62 0,-62"/>
<text text-anchor="middle" x="23" y="-69" font-family="Helvetica,sans-Serif" font-size="10.00">cstring</text>
</a>
</g>
</g>
<!-- Node2&#45;&gt;Node3 -->
<g id="edge2" class="edge">
<title>Node2&#45;&gt;Node3</title>
<path fill="none" stroke="midnightblue" d="M136.6,-128.87C114.39,-117.84 75.71,-98.66 49.74,-85.77"/>
<polygon fill="midnightblue" stroke="midnightblue" points="50.98,-82.48 40.47,-81.17 47.87,-88.75 50.98,-82.48"/>
</g>
<!-- Node4 -->
<g id="node4" class="node">
<title>Node4</title>
<g id="a_node4"><a xlink:title=" ">
<polygon fill="white" stroke="#bfbfbf" points="194,-62 194,-81 248,-81 248,-62 194,-62"/>
<text text-anchor="middle" x="221" y="-69" font-family="Helvetica,sans-Serif" font-size="10.00">iostream</text>
</a>
</g>
</g>
<!-- Node2&#45;&gt;Node4 -->
<g id="edge3" class="edge">
<title>Node2&#45;&gt;Node4</title>
<path fill="none" stroke="midnightblue" d="M163.04,-128.73C173.68,-118.4 191.58,-101.04 204.68,-88.33"/>
<polygon fill="midnightblue" stroke="midnightblue" points="207.37,-90.6 212.11,-81.13 202.49,-85.58 207.37,-90.6"/>
</g>
<!-- Node5 -->
<g id="node5" class="node">
<title>Node5</title>
<g id="a_node5"><a xlink:title=" ">
<polygon fill="white" stroke="#bfbfbf" points="64,-62 64,-81 108,-81 108,-62 64,-62"/>
<text text-anchor="middle" x="86" y="-69" font-family="Helvetica,sans-Serif" font-size="10.00">vector</text>
</a>
</g>
</g>
<!-- Node2&#45;&gt;Node5 -->
<g id="edge4" class="edge">
<title>Node2&#45;&gt;Node5</title>
<path fill="none" stroke="midnightblue" d="M144.83,-128.73C134.02,-118.4 115.85,-101.04 102.56,-88.33"/>
<polygon fill="midnightblue" stroke="midnightblue" points="104.67,-85.51 95.03,-81.13 99.84,-90.57 104.67,-85.51"/>
</g>
<!-- Node7 -->
<g id="node7" class="node">
<title>Node7</title>
<g id="a_node7"><a xlink:href="_job_base_8h.html" target="_top" xlink:title=" ">
<polygon fill="white" stroke="black" points="325.5,-56.5 325.5,-86.5 432.5,-86.5 432.5,-56.5 325.5,-56.5"/>
<text text-anchor="start" x="333.5" y="-74.5" font-family="Helvetica,sans-Serif" font-size="10.00">app/utils/thread_pool</text>
<text text-anchor="middle" x="379" y="-63.5" font-family="Helvetica,sans-Serif" font-size="10.00">/JobBase.h</text>
</a>
</g>
</g>
<!-- Node6&#45;&gt;Node7 -->
<g id="edge6" class="edge">
<title>Node6&#45;&gt;Node7</title>
<path fill="none" stroke="midnightblue" d="M668.78,-259.59C573.49,-246.01 369.95,-210.82 333,-154 320.1,-134.16 336.78,-110.5 353.55,-93.8"/>
<polygon fill="midnightblue" stroke="midnightblue" points="356.26,-96.06 361.16,-86.66 351.47,-90.95 356.26,-96.06"/>
</g>
<!-- Node8 -->
<g id="node8" class="node">
<title>Node8</title>
<g id="a_node8"><a xlink:title=" ">
<polygon fill="white" stroke="#bfbfbf" points="1009,-62 1009,-81 1055,-81 1055,-62 1009,-62"/>
<text text-anchor="middle" x="1032" y="-69" font-family="Helvetica,sans-Serif" font-size="10.00">atomic</text>
</a>
</g>
</g>
<!-- Node6&#45;&gt;Node8 -->
<g id="edge7" class="edge">
<title>Node6&#45;&gt;Node8</title>
<path fill="none" stroke="midnightblue" d="M761.53,-257.49C793.41,-250.29 837.19,-238.34 873,-221 919.18,-198.64 929.76,-189.28 967,-154 988.06,-134.05 1008.24,-107.12 1020.37,-89.78"/>
<polygon fill="midnightblue" stroke="midnightblue" points="1023.46,-91.47 1026.24,-81.24 1017.7,-87.5 1023.46,-91.47"/>
</g>
<!-- Node9 -->
<g id="node9" class="node">
<title>Node9</title>
<g id="a_node9"><a xlink:href="_file_signature_creation_context_8h.html" target="_top" xlink:title=" ">
<polygon fill="white" stroke="black" points="644,-190.5 644,-220.5 792,-220.5 792,-190.5 644,-190.5"/>
<text text-anchor="start" x="652" y="-208.5" font-family="Helvetica,sans-Serif" font-size="10.00">app/sign/internal/FileSignature</text>
<text text-anchor="middle" x="718" y="-197.5" font-family="Helvetica,sans-Serif" font-size="10.00">CreationContext.h</text>
</a>
</g>
</g>
<!-- Node6&#45;&gt;Node9 -->
<g id="edge8" class="edge">
<title>Node6&#45;&gt;Node9</title>
<path fill="none" stroke="midnightblue" d="M718,-257.48C718,-250.47 718,-240.19 718,-230.7"/>
<polygon fill="midnightblue" stroke="midnightblue" points="721.5,-230.52 718,-220.52 714.5,-230.52 721.5,-230.52"/>
</g>
<!-- Node10 -->
<g id="node10" class="node">
<title>Node10</title>
<g id="a_node10"><a xlink:title=" ">
<polygon fill="white" stroke="#bfbfbf" points="341.5,-129 341.5,-148 376.5,-148 376.5,-129 341.5,-129"/>
<text text-anchor="middle" x="359" y="-136" font-family="Helvetica,sans-Serif" font-size="10.00">map</text>
</a>
</g>
</g>
<!-- Node6&#45;&gt;Node10 -->
<g id="edge37" class="edge">
<title>Node6&#45;&gt;Node10</title>
<path fill="none" stroke="midnightblue" d="M690.11,-257.44C633.25,-239.77 500.05,-197.27 391,-154 389.4,-153.37 387.77,-152.7 386.13,-152"/>
<polygon fill="midnightblue" stroke="midnightblue" points="387.38,-148.73 376.81,-147.93 384.57,-155.15 387.38,-148.73"/>
</g>
<!-- Node11 -->
<g id="node11" class="node">
<title>Node11</title>
<g id="a_node11"><a xlink:title=" ">
<polygon fill="white" stroke="#bfbfbf" points="947,-62 947,-81 991,-81 991,-62 947,-62"/>
<text text-anchor="middle" x="969" y="-69" font-family="Helvetica,sans-Serif" font-size="10.00">mutex</text>
</a>
</g>
</g>
<!-- Node6&#45;&gt;Node11 -->
<g id="edge38" class="edge">
<title>Node6&#45;&gt;Node11</title>
<path fill="none" stroke="midnightblue" d="M746.64,-257.39C791.1,-242.74 877.07,-209.07 930,-154 947.28,-136.02 958.14,-108.93 963.89,-90.99"/>
<polygon fill="midnightblue" stroke="midnightblue" points="967.32,-91.75 966.82,-81.16 960.61,-89.75 967.32,-91.75"/>
</g>
<!-- Node13 -->
<g id="node13" class="node">
<title>Node13</title>
<g id="a_node13"><a xlink:title=" ">
<polygon fill="white" stroke="#bfbfbf" points="1073,-62 1073,-81 1125,-81 1125,-62 1073,-62"/>
<text text-anchor="middle" x="1099" y="-69" font-family="Helvetica,sans-Serif" font-size="10.00">memory</text>
</a>
</g>
</g>
<!-- Node6&#45;&gt;Node13 -->
<g id="edge39" class="edge">
<title>Node6&#45;&gt;Node13</title>
<path fill="none" stroke="midnightblue" d="M767.28,-259.82C807.7,-253.54 865.75,-241.72 913,-221 961.32,-199.81 969.76,-186.9 1011,-154 1037.58,-132.8 1066.05,-105.49 1083.19,-88.48"/>
<polygon fill="midnightblue" stroke="midnightblue" points="1086.04,-90.58 1090.64,-81.04 1081.09,-85.64 1086.04,-90.58"/>
</g>
<!-- Node9&#45;&gt;Node5 -->
<g id="edge12" class="edge">
<title>Node9&#45;&gt;Node5</title>
<path fill="none" stroke="midnightblue" d="M643.85,-196.94C568.48,-188.38 457.49,-173.11 419,-154 400.98,-145.05 404.18,-131.64 386,-123 277.05,-71.23 232.75,-120.95 117,-87 115.12,-86.45 113.21,-85.8 111.3,-85.08"/>
<polygon fill="midnightblue" stroke="midnightblue" points="112.62,-81.84 102.05,-81.14 109.87,-88.28 112.62,-81.84"/>
</g>
<!-- Node9&#45;&gt;Node8 -->
<g id="edge9" class="edge">
<title>Node9&#45;&gt;Node8</title>
<path fill="none" stroke="midnightblue" d="M792.35,-195.01C834.3,-187.67 886.82,-175.07 930,-154 964.58,-137.13 998.15,-106.8 1016.84,-88.27"/>
<polygon fill="midnightblue" stroke="midnightblue" points="1019.36,-90.7 1023.9,-81.13 1014.38,-85.78 1019.36,-90.7"/>
</g>
<!-- Node9&#45;&gt;Node10 -->
<g id="edge10" class="edge">
<title>Node9&#45;&gt;Node10</title>
<path fill="none" stroke="midnightblue" d="M643.68,-198.83C576.57,-192.35 475.65,-179.2 391,-154 389.07,-153.43 387.11,-152.76 385.15,-152.03"/>
<polygon fill="midnightblue" stroke="midnightblue" points="386.19,-148.67 375.61,-148.06 383.5,-155.13 386.19,-148.67"/>
</g>
<!-- Node9&#45;&gt;Node11 -->
<g id="edge11" class="edge">
<title>Node9&#45;&gt;Node11</title>
<path fill="none" stroke="midnightblue" d="M792.12,-194.3C826.9,-187.01 867.69,-174.69 900,-154 925.79,-137.49 947.03,-108.35 958.85,-89.75"/>
<polygon fill="midnightblue" stroke="midnightblue" points="961.91,-91.47 964.15,-81.11 955.94,-87.81 961.91,-91.47"/>
</g>
<!-- Node12 -->
<g id="node12" class="node">
<title>Node12</title>
<g id="a_node12"><a xlink:title=" ">
<polygon fill="white" stroke="#bfbfbf" points="126,-62 126,-81 176,-81 176,-62 126,-62"/>
<text text-anchor="middle" x="151" y="-69" font-family="Helvetica,sans-Serif" font-size="10.00">fstream</text>
</a>
</g>
</g>
<!-- Node9&#45;&gt;Node12 -->
<g id="edge13" class="edge">
<title>Node9&#45;&gt;Node12</title>
<path fill="none" stroke="midnightblue" d="M643.78,-198.35C591.28,-192 520.17,-179.26 462,-154 440.39,-144.62 440.8,-131.93 419,-123 321.62,-83.13 286.19,-115.86 185,-87 182.71,-86.35 180.37,-85.58 178.04,-84.74"/>
<polygon fill="midnightblue" stroke="midnightblue" points="179.28,-81.47 168.69,-81.04 176.7,-87.97 179.28,-81.47"/>
</g>
<!-- Node9&#45;&gt;Node13 -->
<g id="edge14" class="edge">
<title>Node9&#45;&gt;Node13</title>
<path fill="none" stroke="midnightblue" d="M792.14,-196.43C842.71,-189.27 910.5,-176.35 967,-154 1010.27,-136.89 1055.26,-105.75 1079.94,-87.31"/>
<polygon fill="midnightblue" stroke="midnightblue" points="1082.22,-89.98 1088.07,-81.14 1077.99,-84.4 1082.22,-89.98"/>
</g>
<!-- Node14 -->
<g id="node14" class="node">
<title>Node14</title>
<g id="a_node14"><a xlink:href="_signature_creation_params_8h.html" target="_top" xlink:title=" ">
<polygon fill="white" stroke="black" points="471,-123.5 471,-153.5 605,-153.5 605,-123.5 471,-123.5"/>
<text text-anchor="start" x="479" y="-141.5" font-family="Helvetica,sans-Serif" font-size="10.00">app/sign/SignatureCreation</text>
<text text-anchor="middle" x="538" y="-130.5" font-family="Helvetica,sans-Serif" font-size="10.00">Params.h</text>
</a>
</g>
</g>
<!-- Node9&#45;&gt;Node14 -->
<g id="edge15" class="edge">
<title>Node9&#45;&gt;Node14</title>
<path fill="none" stroke="midnightblue" d="M678.94,-190.4C651.82,-180.6 615.49,-167.48 586.5,-157.02"/>
<polygon fill="midnightblue" stroke="midnightblue" points="587.58,-153.68 576.98,-153.58 585.2,-160.26 587.58,-153.68"/>
</g>
<!-- Node18 -->
<g id="node18" class="node">
<title>Node18</title>
<g id="a_node18"><a xlink:href="_thread_pool_8h.html" target="_top" xlink:title=" ">
<polygon fill="white" stroke="black" points="623.5,-123.5 623.5,-153.5 730.5,-153.5 730.5,-123.5 623.5,-123.5"/>
<text text-anchor="start" x="631.5" y="-141.5" font-family="Helvetica,sans-Serif" font-size="10.00">app/utils/thread_pool</text>
<text text-anchor="middle" x="677" y="-130.5" font-family="Helvetica,sans-Serif" font-size="10.00">/ThreadPool.h</text>
</a>
</g>
</g>
<!-- Node9&#45;&gt;Node18 -->
<g id="edge20" class="edge">
<title>Node9&#45;&gt;Node18</title>
<path fill="none" stroke="midnightblue" d="M709.1,-190.4C703.89,-182.13 697.19,-171.51 691.26,-162.1"/>
<polygon fill="midnightblue" stroke="midnightblue" points="694.17,-160.17 685.88,-153.58 688.25,-163.9 694.17,-160.17"/>
</g>
<!-- Node21 -->
<g id="node21" class="node">
<title>Node21</title>
<g id="a_node21"><a xlink:title=" ">
<polygon fill="white" stroke="#bfbfbf" points="833.5,-62 833.5,-81 928.5,-81 928.5,-62 833.5,-62"/>
<text text-anchor="middle" x="881" y="-69" font-family="Helvetica,sans-Serif" font-size="10.00">condition_variable</text>
</a>
</g>
</g>
<!-- Node9&#45;&gt;Node21 -->
<g id="edge33" class="edge">
<title>Node9&#45;&gt;Node21</title>
<path fill="none" stroke="midnightblue" d="M725.48,-190.5C735.47,-172.86 754.67,-142.49 778,-123 798.05,-106.24 824.61,-93.4 845.74,-84.86"/>
<polygon fill="midnightblue" stroke="midnightblue" points="847.27,-88.01 855.32,-81.12 844.73,-81.49 847.27,-88.01"/>
</g>
<!-- Node24 -->
<g id="node24" class="node">
<title>Node24</title>
<g id="a_node24"><a xlink:href="_semaphore_8h.html" target="_top" xlink:title=" ">
<polygon fill="white" stroke="black" points="787,-123.5 787,-153.5 891,-153.5 891,-123.5 787,-123.5"/>
<text text-anchor="start" x="795" y="-141.5" font-family="Helvetica,sans-Serif" font-size="10.00">app/utils/semaphore</text>
<text text-anchor="middle" x="839" y="-130.5" font-family="Helvetica,sans-Serif" font-size="10.00">/Semaphore.h</text>
</a>
</g>
</g>
<!-- Node9&#45;&gt;Node24 -->
<g id="edge34" class="edge">
<title>Node9&#45;&gt;Node24</title>
<path fill="none" stroke="midnightblue" d="M744.26,-190.4C761.7,-181.03 784.8,-168.62 803.83,-158.39"/>
<polygon fill="midnightblue" stroke="midnightblue" points="805.64,-161.39 812.8,-153.58 802.33,-155.23 805.64,-161.39"/>
</g>
<!-- Node14&#45;&gt;Node12 -->
<g id="edge18" class="edge">
<title>Node14&#45;&gt;Node12</title>
<path fill="none" stroke="midnightblue" d="M470.86,-125.24C466.17,-124.46 461.52,-123.7 457,-123 336.51,-104.25 302.61,-119.21 185,-87 182.7,-86.37 180.36,-85.62 178.02,-84.79"/>
<polygon fill="midnightblue" stroke="midnightblue" points="179.26,-81.52 168.67,-81.11 176.69,-88.03 179.26,-81.52"/>
</g>
<!-- Node15 -->
<g id="node15" class="node">
<title>Node15</title>
<g id="a_node15"><a xlink:title=" ">
<polygon fill="white" stroke="#bfbfbf" points="451,-62 451,-81 491,-81 491,-62 451,-62"/>
<text text-anchor="middle" x="471" y="-69" font-family="Helvetica,sans-Serif" font-size="10.00">utility</text>
</a>
</g>
</g>
<!-- Node14&#45;&gt;Node15 -->
<g id="edge16" class="edge">
<title>Node14&#45;&gt;Node15</title>
<path fill="none" stroke="midnightblue" d="M523.46,-123.4C512.81,-113.06 498.34,-99.02 487.3,-88.31"/>
<polygon fill="midnightblue" stroke="midnightblue" points="489.58,-85.65 479.96,-81.19 484.7,-90.67 489.58,-85.65"/>
</g>
<!-- Node16 -->
<g id="node16" class="node">
<title>Node16</title>
<g id="a_node16"><a xlink:title=" ">
<polygon fill="white" stroke="#bfbfbf" points="266.5,-62 266.5,-81 307.5,-81 307.5,-62 266.5,-62"/>
<text text-anchor="middle" x="287" y="-69" font-family="Helvetica,sans-Serif" font-size="10.00">string</text>
</a>
</g>
</g>
<!-- Node14&#45;&gt;Node16 -->
<g id="edge17" class="edge">
<title>Node14&#45;&gt;Node16</title>
<path fill="none" stroke="midnightblue" d="M470.84,-123.89C416.65,-112.59 344.99,-96.82 317,-87 315.39,-86.43 313.75,-85.81 312.1,-85.14"/>
<polygon fill="midnightblue" stroke="midnightblue" points="313.46,-81.91 302.91,-81.01 310.6,-88.3 313.46,-81.91"/>
</g>
<!-- Node17 -->
<g id="node17" class="node">
<title>Node17</title>
<g id="a_node17"><a xlink:title=" ">
<polygon fill="white" stroke="#bfbfbf" points="509.5,-62 509.5,-81 568.5,-81 568.5,-62 509.5,-62"/>
<text text-anchor="middle" x="539" y="-69" font-family="Helvetica,sans-Serif" font-size="10.00">exception</text>
</a>
</g>
</g>
<!-- Node14&#45;&gt;Node17 -->
<g id="edge19" class="edge">
<title>Node14&#45;&gt;Node17</title>
<path fill="none" stroke="midnightblue" d="M538.22,-123.4C538.36,-114.06 538.55,-101.71 538.71,-91.52"/>
<polygon fill="midnightblue" stroke="midnightblue" points="542.21,-91.25 538.87,-81.19 535.21,-91.14 542.21,-91.25"/>
</g>
<!-- Node18&#45;&gt;Node4 -->
<g id="edge29" class="edge">
<title>Node18&#45;&gt;Node4</title>
<path fill="none" stroke="midnightblue" d="M623.47,-124.7C620.28,-124.08 617.1,-123.51 614,-123 456.65,-97.06 411.84,-125.17 257,-87 254.33,-86.34 251.6,-85.53 248.89,-84.62"/>
<polygon fill="midnightblue" stroke="midnightblue" points="249.95,-81.28 239.35,-81.05 247.49,-87.83 249.95,-81.28"/>
</g>
<!-- Node18&#45;&gt;Node5 -->
<g id="edge24" class="edge">
<title>Node18&#45;&gt;Node5</title>
<path fill="none" stroke="midnightblue" d="M623.49,-124.59C620.29,-124.01 617.11,-123.47 614,-123 394.99,-90.07 331.31,-142.84 117,-87 115.02,-86.48 113,-85.84 111.01,-85.12"/>
<polygon fill="midnightblue" stroke="midnightblue" points="111.93,-81.71 101.35,-81.03 109.2,-88.15 111.93,-81.71"/>
</g>
<!-- Node18&#45;&gt;Node7 -->
<g id="edge30" class="edge">
<title>Node18&#45;&gt;Node7</title>
<path fill="none" stroke="midnightblue" d="M623.4,-125.09C620.22,-124.37 617.07,-123.67 614,-123 540.85,-106.93 519.97,-103.99 442.82,-87.15"/>
<polygon fill="midnightblue" stroke="midnightblue" points="443.12,-83.63 432.6,-84.91 441.62,-90.47 443.12,-83.63"/>
</g>
<!-- Node18&#45;&gt;Node8 -->
<g id="edge28" class="edge">
<title>Node18&#45;&gt;Node8</title>
<path fill="none" stroke="midnightblue" d="M730.56,-129.51C819.01,-116.26 987.22,-90.82 1000,-87 1001.93,-86.42 1003.89,-85.76 1005.85,-85.03"/>
<polygon fill="midnightblue" stroke="midnightblue" points="1007.5,-88.13 1015.39,-81.05 1004.81,-81.67 1007.5,-88.13"/>
</g>
<!-- Node18&#45;&gt;Node11 -->
<g id="edge27" class="edge">
<title>Node18&#45;&gt;Node11</title>
<path fill="none" stroke="midnightblue" d="M730.67,-128.72C795.41,-117.85 900.25,-99.27 938,-87 939.67,-86.46 941.37,-85.85 943.07,-85.19"/>
<polygon fill="midnightblue" stroke="midnightblue" points="944.77,-88.27 952.57,-81.1 942,-81.84 944.77,-88.27"/>
</g>
<!-- Node18&#45;&gt;Node13 -->
<g id="edge21" class="edge">
<title>Node18&#45;&gt;Node13</title>
<path fill="none" stroke="midnightblue" d="M730.7,-129.61C745.98,-127.42 762.64,-125.07 778,-123 904.97,-105.9 940.16,-119.81 1064,-87 1066.45,-86.35 1068.95,-85.57 1071.44,-84.71"/>
<polygon fill="midnightblue" stroke="midnightblue" points="1072.71,-87.97 1080.79,-81.12 1070.2,-81.44 1072.71,-87.97"/>
</g>
<!-- Node18&#45;&gt;Node17 -->
<g id="edge23" class="edge">
<title>Node18&#45;&gt;Node17</title>
<path fill="none" stroke="midnightblue" d="M647.06,-123.4C623.06,-112.09 589.66,-96.36 566.37,-85.39"/>
<polygon fill="midnightblue" stroke="midnightblue" points="567.6,-82.1 557.06,-81.01 564.62,-88.43 567.6,-82.1"/>
</g>
<!-- Node19 -->
<g id="node19" class="node">
<title>Node19</title>
<g id="a_node19"><a xlink:title=" ">
<polygon fill="white" stroke="#bfbfbf" points="587,-62 587,-81 631,-81 631,-62 587,-62"/>
<text text-anchor="middle" x="609" y="-69" font-family="Helvetica,sans-Serif" font-size="10.00">thread</text>
</a>
</g>
</g>
<!-- Node18&#45;&gt;Node19 -->
<g id="edge22" class="edge">
<title>Node18&#45;&gt;Node19</title>
<path fill="none" stroke="midnightblue" d="M662.25,-123.4C651.43,-113.06 636.75,-99.02 625.54,-88.31"/>
<polygon fill="midnightblue" stroke="midnightblue" points="627.74,-85.57 618.1,-81.19 622.91,-90.63 627.74,-85.57"/>
</g>
<!-- Node20 -->
<g id="node20" class="node">
<title>Node20</title>
<g id="a_node20"><a xlink:title=" ">
<polygon fill="white" stroke="#bfbfbf" points="649.5,-62 649.5,-81 692.5,-81 692.5,-62 649.5,-62"/>
<text text-anchor="middle" x="671" y="-69" font-family="Helvetica,sans-Serif" font-size="10.00">queue</text>
</a>
</g>
</g>
<!-- Node18&#45;&gt;Node20 -->
<g id="edge25" class="edge">
<title>Node18&#45;&gt;Node20</title>
<path fill="none" stroke="midnightblue" d="M675.7,-123.4C674.83,-113.96 673.67,-101.45 672.73,-91.19"/>
<polygon fill="midnightblue" stroke="midnightblue" points="676.21,-90.83 671.8,-81.19 669.24,-91.47 676.21,-90.83"/>
</g>
<!-- Node18&#45;&gt;Node21 -->
<g id="edge26" class="edge">
<title>Node18&#45;&gt;Node21</title>
<path fill="none" stroke="midnightblue" d="M721.01,-123.48C757.9,-111.72 809.93,-95.14 844.53,-84.12"/>
<polygon fill="midnightblue" stroke="midnightblue" points="845.77,-87.4 854.23,-81.03 843.64,-80.73 845.77,-87.4"/>
</g>
<!-- Node22 -->
<g id="node22" class="node">
<title>Node22</title>
<g id="a_node22"><a xlink:href="_e_thread_pool_state_8h.html" target="_top" xlink:title=" ">
<polygon fill="white" stroke="black" points="711,-62 711,-81 815,-81 815,-62 711,-62"/>
<text text-anchor="middle" x="763" y="-69" font-family="Helvetica,sans-Serif" font-size="10.00">EThreadPoolState.h</text>
</a>
</g>
</g>
<!-- Node18&#45;&gt;Node22 -->
<g id="edge31" class="edge">
<title>Node18&#45;&gt;Node22</title>
<path fill="none" stroke="midnightblue" d="M695.66,-123.4C709.73,-112.76 728.99,-98.2 743.31,-87.38"/>
<polygon fill="midnightblue" stroke="midnightblue" points="745.63,-90.02 751.5,-81.19 741.41,-84.43 745.63,-90.02"/>
</g>
<!-- Node23 -->
<g id="node23" class="node">
<title>Node23</title>
<g id="a_node23"><a xlink:title=" ">
<polygon fill="white" stroke="#bfbfbf" points="738.5,-0.5 738.5,-19.5 787.5,-19.5 787.5,-0.5 738.5,-0.5"/>
<text text-anchor="middle" x="763" y="-7.5" font-family="Helvetica,sans-Serif" font-size="10.00">stdint.h</text>
</a>
</g>
</g>
<!-- Node22&#45;&gt;Node23 -->
<g id="edge32" class="edge">
<title>Node22&#45;&gt;Node23</title>
<path fill="none" stroke="midnightblue" d="M763,-61.98C763,-53.58 763,-40.48 763,-29.66"/>
<polygon fill="midnightblue" stroke="midnightblue" points="766.5,-29.51 763,-19.51 759.5,-29.51 766.5,-29.51"/>
</g>
<!-- Node24&#45;&gt;Node11 -->
<g id="edge35" class="edge">
<title>Node24&#45;&gt;Node11</title>
<path fill="none" stroke="midnightblue" d="M867.21,-123.4C889.72,-112.14 921,-96.5 942.92,-85.54"/>
<polygon fill="midnightblue" stroke="midnightblue" points="944.61,-88.61 951.99,-81.01 941.48,-82.35 944.61,-88.61"/>
</g>
<!-- Node24&#45;&gt;Node21 -->
<g id="edge36" class="edge">
<title>Node24&#45;&gt;Node21</title>
<path fill="none" stroke="midnightblue" d="M848.11,-123.4C854.47,-113.56 862.99,-100.38 869.76,-89.89"/>
<polygon fill="midnightblue" stroke="midnightblue" points="872.89,-91.49 875.38,-81.19 867.02,-87.69 872.89,-91.49"/>
</g>
</g>
</svg>
        <g id="navigator" transform="translate(0 0)" fill="#404254">
                <rect fill="#f2f5e9" fill-opacity="0.5" stroke="#606060" stroke-width=".5" x="0" y="0" width="60" height="60"/>
                <use id="zoomplus" xlink:href="#zoomPlus" x="17" y="9" onmousedown="handleZoom(evt,'in')"/>
                <use id="zoomminus" xlink:href="#zoomMin" x="42" y="9" onmousedown="handleZoom(evt,'out')"/>
                <use id="reset" xlink:href="#resetDef" x="30" y="36" onmousedown="handleReset()"/>
                <g id="arrowUp" xlink:href="#dirArrow" transform="translate(30 24)" onmousedown="handlePan(0,-1)">
                  <use xlink:href="#rim" fill="#404040">
                        <set attributeName="fill" to="#808080" begin="arrowUp.mouseover" end="arrowUp.mouseout"/>
                  </use>
                  <path fill="none" stroke="white" stroke-width="1.5" d="M0,-3.0v7 M-2.5,-0.5L0,-3.0L2.5,-0.5"/>
                </g>
                <g id="arrowRight" xlink:href="#dirArrow" transform="rotate(90) translate(36 -43)" onmousedown="handlePan(1,0)">
                  <use xlink:href="#rim" fill="#404040">
                        <set attributeName="fill" to="#808080" begin="arrowRight.mouseover" end="arrowRight.mouseout"/>
                  </use>
                  <path fill="none" stroke="white" stroke-width="1.5" d="M0,-3.0v7 M-2.5,-0.5L0,-3.0L2.5,-0.5"/>
                </g>
                <g id="arrowDown" xlink:href="#dirArrow" transform="rotate(180) translate(-30 -48)" onmousedown="handlePan(0,1)">
                  <use xlink:href="#rim" fill="#404040">
                        <set attributeName="fill" to="#808080" begin="arrowDown.mouseover" end="arrowDown.mouseout"/>
                  </use>
                  <path fill="none" stroke="white" stroke-width="1.5" d="M0,-3.0v7 M-2.5,-0.5L0,-3.0L2.5,-0.5"/>
                </g>
                <g id="arrowLeft" xlink:href="#dirArrow" transform="rotate(270) translate(-36 17)" onmousedown="handlePan(-1,0)">
                  <use xlink:href="#rim" fill="#404040">
                        <set attributeName="fill" to="#808080" begin="arrowLeft.mouseover" end="arrowLeft.mouseout"/>
                  </use>
                  <path fill="none" stroke="white" stroke-width="1.5" d="M0,-3.0v7 M-2.5,-0.5L0,-3.0L2.5,-0.5"/>
                </g>
        </g>
        <svg viewBox="0 0 15 15" width="100%" height="30px" preserveAspectRatio="xMaxYMin meet">
         <g id="arrow_out" transform="scale(0.3 0.3)">
          <a xlink:href="_job_get_signature_8cpp__incl_org.svg" target="_base">
           <rect id="button" ry="5" rx="5" y="6" x="6" height="38" width="38"
                fill="#f2f5e9" fill-opacity="0.5" stroke="#606060" stroke-width="1.0"/>
           <path id="arrow"
             d="M 11.500037,31.436501 C 11.940474,20.09759 22.043105,11.32322 32.158766,21.979434 L 37.068811,17.246167 C 37.068811,17.246167 37.088388,32 37.088388,32 L 22.160133,31.978069 C 22.160133,31.978069 26.997745,27.140456 26.997745,27.140456 C 18.528582,18.264221 13.291696,25.230495 11.500037,31.436501 z"
             style="fill:#404040;"/>
          </a>
         </g>
        </svg>
</svg>
