<?xml version="1.0" encoding="UTF-8" standalone="no"?>
<!DOCTYPE svg PUBLIC "-//W3C//DTD SVG 1.1//EN"
 "http://www.w3.org/Graphics/SVG/1.1/DTD/svg11.dtd">
<!-- Generated by graphviz version 2.44.1 (20200629.0846)
 -->
<!-- Title: source/app/sign/jobs/JobGetSignature.h Pages: 1 -->
<svg width="365pt" height="173pt"
 viewBox="0.00 0.00 365.00 173.00" xmlns="http://www.w3.org/2000/svg" xmlns:xlink="http://www.w3.org/1999/xlink">
<g id="graph0" class="graph" transform="scale(1 1) rotate(0) translate(4 169)">
<title>source/app/sign/jobs/JobGetSignature.h</title>
<polygon fill="white" stroke="transparent" points="-4,4 -4,-169 361,-169 361,4 -4,4"/>
<!-- Node1 -->
<g id="node1" class="node">
<title>Node1</title>
<g id="a_node1"><a xlink:title=" ">
<polygon fill="#bfbfbf" stroke="black" points="101,-134.5 101,-164.5 208,-164.5 208,-134.5 101,-134.5"/>
<text text-anchor="start" x="109" y="-152.5" font-family="Helvetica,sans-Serif" font-size="10.00">source/app/sign/jobs</text>
<text text-anchor="middle" x="154.5" y="-141.5" font-family="Helvetica,sans-Serif" font-size="10.00">/JobGetSignature.h</text>
</a>
</g>
</g>
<!-- Node2 -->
<g id="node2" class="node">
<title>Node2</title>
<g id="a_node2"><a xlink:href="main_8cpp.html" target="_top" xlink:title=" ">
<polygon fill="white" stroke="black" points="0,-6 0,-25 107,-25 107,-6 0,-6"/>
<text text-anchor="middle" x="53.5" y="-13" font-family="Helvetica,sans-Serif" font-size="10.00">source/app/main.cpp</text>
</a>
</g>
</g>
<!-- Node1&#45;&gt;Node2 -->
<g id="edge1" class="edge">
<title>Node1&#45;&gt;Node2</title>
<path fill="none" stroke="midnightblue" d="M110.13,-129.64C96.22,-121.73 82.03,-111.25 72.5,-98 56.29,-75.48 53.69,-41.2 53.42,-25.24"/>
<polygon fill="midnightblue" stroke="midnightblue" points="108.7,-132.85 119.17,-134.46 111.99,-126.67 108.7,-132.85"/>
</g>
<!-- Node3 -->
<g id="node3" class="node">
<title>Node3</title>
<g id="a_node3"><a xlink:href="_file_signature_creator_8h.html" target="_top" xlink:title=" ">
<polygon fill="white" stroke="black" points="81.5,-67.5 81.5,-97.5 227.5,-97.5 227.5,-67.5 81.5,-67.5"/>
<text text-anchor="start" x="89.5" y="-85.5" font-family="Helvetica,sans-Serif" font-size="10.00">source/app/sign/FileSignature</text>
<text text-anchor="middle" x="154.5" y="-74.5" font-family="Helvetica,sans-Serif" font-size="10.00">Creator.h</text>
</a>
</g>
</g>
<!-- Node1&#45;&gt;Node3 -->
<g id="edge2" class="edge">
<title>Node1&#45;&gt;Node3</title>
<path fill="none" stroke="midnightblue" d="M154.5,-124.11C154.5,-115.15 154.5,-105.32 154.5,-97.58"/>
<polygon fill="midnightblue" stroke="midnightblue" points="151,-124.4 154.5,-134.4 158,-124.4 151,-124.4"/>
</g>
<!-- Node5 -->
<g id="node5" class="node">
<title>Node5</title>
<g id="a_node5"><a xlink:href="_job_get_signature_8cpp.html" target="_top" xlink:title=" ">
<polygon fill="white" stroke="black" points="246,-67.5 246,-97.5 357,-97.5 357,-67.5 246,-67.5"/>
<text text-anchor="start" x="254" y="-85.5" font-family="Helvetica,sans-Serif" font-size="10.00">source/app/sign/jobs</text>
<text text-anchor="middle" x="301.5" y="-74.5" font-family="Helvetica,sans-Serif" font-size="10.00">/JobGetSignature.cpp</text>
</a>
</g>
</g>
<!-- Node1&#45;&gt;Node5 -->
<g id="edge5" class="edge">
<title>Node1&#45;&gt;Node5</title>
<path fill="none" stroke="midnightblue" d="M195.73,-130.27C219.14,-119.92 248.01,-107.15 269.67,-97.58"/>
<polygon fill="midnightblue" stroke="midnightblue" points="194.13,-127.15 186.4,-134.4 196.96,-133.55 194.13,-127.15"/>
</g>
<!-- Node3&#45;&gt;Node2 -->
<g id="edge3" class="edge">
<title>Node3&#45;&gt;Node2</title>
<path fill="none" stroke="midnightblue" d="M124.16,-61.97C105.01,-49.65 81.23,-34.35 66.72,-25.01"/>
<polygon fill="midnightblue" stroke="midnightblue" points="122.28,-64.93 132.58,-67.4 126.07,-59.04 122.28,-64.93"/>
</g>
<!-- Node4 -->
<g id="node4" class="node">
<title>Node4</title>
<g id="a_node4"><a xlink:href="_file_signature_creator_8cpp.html" target="_top" xlink:title=" ">
<polygon fill="white" stroke="black" points="125.5,-0.5 125.5,-30.5 271.5,-30.5 271.5,-0.5 125.5,-0.5"/>
<text text-anchor="start" x="133.5" y="-18.5" font-family="Helvetica,sans-Serif" font-size="10.00">source/app/sign/FileSignature</text>
<text text-anchor="middle" x="198.5" y="-7.5" font-family="Helvetica,sans-Serif" font-size="10.00">Creator.cpp</text>
</a>
</g>
</g>
<!-- Node3&#45;&gt;Node4 -->
<g id="edge4" class="edge">
<title>Node3&#45;&gt;Node4</title>
<path fill="none" stroke="midnightblue" d="M169.82,-58.87C176.19,-49.46 183.38,-38.83 188.97,-30.58"/>
<polygon fill="midnightblue" stroke="midnightblue" points="166.75,-57.15 164.05,-67.4 172.55,-61.08 166.75,-57.15"/>
</g>
</g>
</svg>
