<?xml version="1.0" encoding="UTF-8" standalone="no"?>
<!DOCTYPE svg PUBLIC "-//W3C//DTD SVG 1.1//EN"
 "http://www.w3.org/Graphics/SVG/1.1/DTD/svg11.dtd">
<!-- Generated by graphviz version 2.44.1 (20200629.0846)
 -->
<!-- Title: source/app/utils/semaphore/Semaphore.h Pages: 1 -->
<svg width="460pt" height="307pt"
 viewBox="0.00 0.00 459.50 307.00" xmlns="http://www.w3.org/2000/svg" xmlns:xlink="http://www.w3.org/1999/xlink">
<g id="graph0" class="graph" transform="scale(1 1) rotate(0) translate(4 303)">
<title>source/app/utils/semaphore/Semaphore.h</title>
<polygon fill="white" stroke="transparent" points="-4,4 -4,-303 455.5,-303 455.5,4 -4,4"/>
<!-- Node1 -->
<g id="node1" class="node">
<title>Node1</title>
<g id="a_node1"><a xlink:title=" ">
<polygon fill="#bfbfbf" stroke="black" points="226.5,-268.5 226.5,-298.5 363.5,-298.5 363.5,-268.5 226.5,-268.5"/>
<text text-anchor="start" x="234.5" y="-286.5" font-family="Helvetica,sans-Serif" font-size="10.00">source/app/utils/semaphore</text>
<text text-anchor="middle" x="295" y="-275.5" font-family="Helvetica,sans-Serif" font-size="10.00">/Semaphore.h</text>
</a>
</g>
</g>
<!-- Node2 -->
<g id="node2" class="node">
<title>Node2</title>
<g id="a_node2"><a xlink:href="_file_signature_creation_context_8h.html" target="_top" xlink:title=" ">
<polygon fill="white" stroke="black" points="135,-201.5 135,-231.5 291,-231.5 291,-201.5 135,-201.5"/>
<text text-anchor="start" x="143" y="-219.5" font-family="Helvetica,sans-Serif" font-size="10.00">source/app/sign/internal</text>
<text text-anchor="middle" x="213" y="-208.5" font-family="Helvetica,sans-Serif" font-size="10.00">/FileSignatureCreationContext.h</text>
</a>
</g>
</g>
<!-- Node1&#45;&gt;Node2 -->
<g id="edge1" class="edge">
<title>Node1&#45;&gt;Node2</title>
<path fill="none" stroke="midnightblue" d="M269.35,-262.17C256.81,-252.23 242.03,-240.51 230.76,-231.58"/>
<polygon fill="midnightblue" stroke="midnightblue" points="267.2,-264.93 277.21,-268.4 271.54,-259.44 267.2,-264.93"/>
</g>
<!-- Node9 -->
<g id="node9" class="node">
<title>Node9</title>
<g id="a_node9"><a xlink:href="_semaphore_8cpp.html" target="_top" xlink:title=" ">
<polygon fill="white" stroke="black" points="309.5,-201.5 309.5,-231.5 446.5,-231.5 446.5,-201.5 309.5,-201.5"/>
<text text-anchor="start" x="317.5" y="-219.5" font-family="Helvetica,sans-Serif" font-size="10.00">source/app/utils/semaphore</text>
<text text-anchor="middle" x="378" y="-208.5" font-family="Helvetica,sans-Serif" font-size="10.00">/Semaphore.cpp</text>
</a>
</g>
</g>
<!-- Node1&#45;&gt;Node9 -->
<g id="edge10" class="edge">
<title>Node1&#45;&gt;Node9</title>
<path fill="none" stroke="midnightblue" d="M320.96,-262.17C333.65,-252.23 348.61,-240.51 360.03,-231.58"/>
<polygon fill="midnightblue" stroke="midnightblue" points="318.72,-259.47 313.01,-268.4 323.04,-264.99 318.72,-259.47"/>
</g>
<!-- Node3 -->
<g id="node3" class="node">
<title>Node3</title>
<g id="a_node3"><a xlink:href="_file_signature_creator_8h.html" target="_top" xlink:title=" ">
<polygon fill="white" stroke="black" points="44,-67.5 44,-97.5 190,-97.5 190,-67.5 44,-67.5"/>
<text text-anchor="start" x="52" y="-85.5" font-family="Helvetica,sans-Serif" font-size="10.00">source/app/sign/FileSignature</text>
<text text-anchor="middle" x="117" y="-74.5" font-family="Helvetica,sans-Serif" font-size="10.00">Creator.h</text>
</a>
</g>
</g>
<!-- Node2&#45;&gt;Node3 -->
<g id="edge2" class="edge">
<title>Node2&#45;&gt;Node3</title>
<path fill="none" stroke="midnightblue" d="M181.82,-195.5C170.64,-187.14 158.67,-176.65 150,-165 134.41,-144.06 124.93,-114.73 120.34,-97.56"/>
<polygon fill="midnightblue" stroke="midnightblue" points="179.98,-198.49 190.15,-201.47 184.05,-192.8 179.98,-198.49"/>
</g>
<!-- Node6 -->
<g id="node6" class="node">
<title>Node6</title>
<g id="a_node6"><a xlink:href="_job_get_signature_8h.html" target="_top" xlink:title=" ">
<polygon fill="white" stroke="black" points="159.5,-134.5 159.5,-164.5 266.5,-164.5 266.5,-134.5 159.5,-134.5"/>
<text text-anchor="start" x="167.5" y="-152.5" font-family="Helvetica,sans-Serif" font-size="10.00">source/app/sign/jobs</text>
<text text-anchor="middle" x="213" y="-141.5" font-family="Helvetica,sans-Serif" font-size="10.00">/JobGetSignature.h</text>
</a>
</g>
</g>
<!-- Node2&#45;&gt;Node6 -->
<g id="edge5" class="edge">
<title>Node2&#45;&gt;Node6</title>
<path fill="none" stroke="midnightblue" d="M213,-191.11C213,-182.15 213,-172.32 213,-164.58"/>
<polygon fill="midnightblue" stroke="midnightblue" points="209.5,-191.4 213,-201.4 216.5,-191.4 209.5,-191.4"/>
</g>
<!-- Node8 -->
<g id="node8" class="node">
<title>Node8</title>
<g id="a_node8"><a xlink:href="_file_signature_creation_context_8cpp.html" target="_top" xlink:title=" ">
<polygon fill="white" stroke="black" points="284.5,-134.5 284.5,-164.5 451.5,-164.5 451.5,-134.5 284.5,-134.5"/>
<text text-anchor="start" x="292.5" y="-152.5" font-family="Helvetica,sans-Serif" font-size="10.00">source/app/sign/internal</text>
<text text-anchor="middle" x="368" y="-141.5" font-family="Helvetica,sans-Serif" font-size="10.00">/FileSignatureCreationContext.cpp</text>
</a>
</g>
</g>
<!-- Node2&#45;&gt;Node8 -->
<g id="edge9" class="edge">
<title>Node2&#45;&gt;Node8</title>
<path fill="none" stroke="midnightblue" d="M256.15,-197.41C280.89,-187.03 311.5,-174.2 334.43,-164.58"/>
<polygon fill="midnightblue" stroke="midnightblue" points="254.5,-194.3 246.63,-201.4 257.21,-200.76 254.5,-194.3"/>
</g>
<!-- Node4 -->
<g id="node4" class="node">
<title>Node4</title>
<g id="a_node4"><a xlink:href="main_8cpp.html" target="_top" xlink:title=" ">
<polygon fill="white" stroke="black" points="164.5,-6 164.5,-25 271.5,-25 271.5,-6 164.5,-6"/>
<text text-anchor="middle" x="218" y="-13" font-family="Helvetica,sans-Serif" font-size="10.00">source/app/main.cpp</text>
</a>
</g>
</g>
<!-- Node3&#45;&gt;Node4 -->
<g id="edge3" class="edge">
<title>Node3&#45;&gt;Node4</title>
<path fill="none" stroke="midnightblue" d="M147.34,-61.97C166.49,-49.65 190.27,-34.35 204.78,-25.01"/>
<polygon fill="midnightblue" stroke="midnightblue" points="145.43,-59.04 138.92,-67.4 149.22,-64.93 145.43,-59.04"/>
</g>
<!-- Node5 -->
<g id="node5" class="node">
<title>Node5</title>
<g id="a_node5"><a xlink:href="_file_signature_creator_8cpp.html" target="_top" xlink:title=" ">
<polygon fill="white" stroke="black" points="0,-0.5 0,-30.5 146,-30.5 146,-0.5 0,-0.5"/>
<text text-anchor="start" x="8" y="-18.5" font-family="Helvetica,sans-Serif" font-size="10.00">source/app/sign/FileSignature</text>
<text text-anchor="middle" x="73" y="-7.5" font-family="Helvetica,sans-Serif" font-size="10.00">Creator.cpp</text>
</a>
</g>
</g>
<!-- Node3&#45;&gt;Node5 -->
<g id="edge4" class="edge">
<title>Node3&#45;&gt;Node5</title>
<path fill="none" stroke="midnightblue" d="M101.68,-58.87C95.31,-49.46 88.12,-38.83 82.53,-30.58"/>
<polygon fill="midnightblue" stroke="midnightblue" points="98.95,-61.08 107.45,-67.4 104.75,-57.15 98.95,-61.08"/>
</g>
<!-- Node6&#45;&gt;Node3 -->
<g id="edge7" class="edge">
<title>Node6&#45;&gt;Node3</title>
<path fill="none" stroke="midnightblue" d="M183.81,-128.73C168.95,-118.68 151.24,-106.68 137.79,-97.58"/>
<polygon fill="midnightblue" stroke="midnightblue" points="181.93,-131.69 192.17,-134.4 185.85,-125.89 181.93,-131.69"/>
</g>
<!-- Node6&#45;&gt;Node4 -->
<g id="edge6" class="edge">
<title>Node6&#45;&gt;Node4</title>
<path fill="none" stroke="midnightblue" d="M213.92,-124.32C215.05,-94.38 216.92,-44.91 217.67,-25.1"/>
<polygon fill="midnightblue" stroke="midnightblue" points="210.42,-124.25 213.54,-134.37 217.41,-124.51 210.42,-124.25"/>
</g>
<!-- Node7 -->
<g id="node7" class="node">
<title>Node7</title>
<g id="a_node7"><a xlink:href="_job_get_signature_8cpp.html" target="_top" xlink:title=" ">
<polygon fill="white" stroke="black" points="246.5,-67.5 246.5,-97.5 357.5,-97.5 357.5,-67.5 246.5,-67.5"/>
<text text-anchor="start" x="254.5" y="-85.5" font-family="Helvetica,sans-Serif" font-size="10.00">source/app/sign/jobs</text>
<text text-anchor="middle" x="302" y="-74.5" font-family="Helvetica,sans-Serif" font-size="10.00">/JobGetSignature.cpp</text>
</a>
</g>
</g>
<!-- Node6&#45;&gt;Node7 -->
<g id="edge8" class="edge">
<title>Node6&#45;&gt;Node7</title>
<path fill="none" stroke="midnightblue" d="M240.45,-128.45C254.14,-118.45 270.37,-106.6 282.73,-97.58"/>
<polygon fill="midnightblue" stroke="midnightblue" points="238.32,-125.67 232.31,-134.4 242.45,-131.32 238.32,-125.67"/>
</g>
</g>
</svg>
