<?xml version="1.0" encoding="UTF-8" standalone="no"?>
<!DOCTYPE svg PUBLIC "-//W3C//DTD SVG 1.1//EN"
 "http://www.w3.org/Graphics/SVG/1.1/DTD/svg11.dtd">
<!-- Generated by graphviz version 2.44.1 (20200629.0846)
 -->
<!-- Title: source/app/sign/SignatureCreationParams.h Pages: 1 -->
<svg width="547pt" height="307pt"
 viewBox="0.00 0.00 546.50 307.00" xmlns="http://www.w3.org/2000/svg" xmlns:xlink="http://www.w3.org/1999/xlink">
<g id="graph0" class="graph" transform="scale(1 1) rotate(0) translate(4 303)">
<title>source/app/sign/SignatureCreationParams.h</title>
<polygon fill="white" stroke="transparent" points="-4,4 -4,-303 542.5,-303 542.5,4 -4,4"/>
<!-- Node1 -->
<g id="node1" class="node">
<title>Node1</title>
<g id="a_node1"><a xlink:title=" ">
<polygon fill="#bfbfbf" stroke="black" points="262.5,-268.5 262.5,-298.5 392.5,-298.5 392.5,-268.5 262.5,-268.5"/>
<text text-anchor="start" x="270.5" y="-286.5" font-family="Helvetica,sans-Serif" font-size="10.00">source/app/sign/Signature</text>
<text text-anchor="middle" x="327.5" y="-275.5" font-family="Helvetica,sans-Serif" font-size="10.00">CreationParams.h</text>
</a>
</g>
</g>
<!-- Node2 -->
<g id="node2" class="node">
<title>Node2</title>
<g id="a_node2"><a xlink:href="main_8cpp.html" target="_top" xlink:title=" ">
<polygon fill="white" stroke="black" points="0,-6 0,-25 107,-25 107,-6 0,-6"/>
<text text-anchor="middle" x="53.5" y="-13" font-family="Helvetica,sans-Serif" font-size="10.00">source/app/main.cpp</text>
</a>
</g>
</g>
<!-- Node1&#45;&gt;Node2 -->
<g id="edge1" class="edge">
<title>Node1&#45;&gt;Node2</title>
<path fill="none" stroke="midnightblue" d="M252.05,-278.6C176.48,-270.14 64.21,-244.09 12.5,-165 -17.94,-118.44 28.15,-49.51 46.51,-25.29"/>
<polygon fill="midnightblue" stroke="midnightblue" points="252.15,-282.13 262.46,-279.68 252.87,-275.17 252.15,-282.13"/>
</g>
<!-- Node3 -->
<g id="node3" class="node">
<title>Node3</title>
<g id="a_node3"><a xlink:href="_file_signature_creator_8h.html" target="_top" xlink:title=" ">
<polygon fill="white" stroke="black" points="240.5,-67.5 240.5,-97.5 386.5,-97.5 386.5,-67.5 240.5,-67.5"/>
<text text-anchor="start" x="248.5" y="-85.5" font-family="Helvetica,sans-Serif" font-size="10.00">source/app/sign/FileSignature</text>
<text text-anchor="middle" x="313.5" y="-74.5" font-family="Helvetica,sans-Serif" font-size="10.00">Creator.h</text>
</a>
</g>
</g>
<!-- Node1&#45;&gt;Node3 -->
<g id="edge2" class="edge">
<title>Node1&#45;&gt;Node3</title>
<path fill="none" stroke="midnightblue" d="M334.46,-258.31C336.51,-250.04 338.48,-240.68 339.5,-232 344.57,-188.74 349.76,-176.33 339.5,-134 336.34,-120.97 329.2,-107.53 323.2,-97.79"/>
<polygon fill="midnightblue" stroke="midnightblue" points="331.05,-257.51 331.88,-268.08 337.82,-259.3 331.05,-257.51"/>
</g>
<!-- Node5 -->
<g id="node5" class="node">
<title>Node5</title>
<g id="a_node5"><a xlink:href="_file_signature_creation_context_8h.html" target="_top" xlink:title=" ">
<polygon fill="white" stroke="black" points="174.5,-201.5 174.5,-231.5 330.5,-231.5 330.5,-201.5 174.5,-201.5"/>
<text text-anchor="start" x="182.5" y="-219.5" font-family="Helvetica,sans-Serif" font-size="10.00">source/app/sign/internal</text>
<text text-anchor="middle" x="252.5" y="-208.5" font-family="Helvetica,sans-Serif" font-size="10.00">/FileSignatureCreationContext.h</text>
</a>
</g>
</g>
<!-- Node1&#45;&gt;Node5 -->
<g id="edge5" class="edge">
<title>Node1&#45;&gt;Node5</title>
<path fill="none" stroke="midnightblue" d="M303.38,-261.6C292.06,-251.78 278.86,-240.34 268.74,-231.58"/>
<polygon fill="midnightblue" stroke="midnightblue" points="301.38,-264.49 311.23,-268.4 305.96,-259.2 301.38,-264.49"/>
</g>
<!-- Node9 -->
<g id="node9" class="node">
<title>Node9</title>
<g id="a_node9"><a xlink:href="_signature_creation_params_8cpp.html" target="_top" xlink:title=" ">
<polygon fill="white" stroke="black" points="408.5,-201.5 408.5,-231.5 538.5,-231.5 538.5,-201.5 408.5,-201.5"/>
<text text-anchor="start" x="416.5" y="-219.5" font-family="Helvetica,sans-Serif" font-size="10.00">source/app/sign/Signature</text>
<text text-anchor="middle" x="473.5" y="-208.5" font-family="Helvetica,sans-Serif" font-size="10.00">CreationParams.cpp</text>
</a>
</g>
</g>
<!-- Node1&#45;&gt;Node9 -->
<g id="edge12" class="edge">
<title>Node1&#45;&gt;Node9</title>
<path fill="none" stroke="midnightblue" d="M368.45,-264.27C391.7,-253.92 420.37,-241.15 441.88,-231.58"/>
<polygon fill="midnightblue" stroke="midnightblue" points="366.89,-261.13 359.18,-268.4 369.74,-267.53 366.89,-261.13"/>
</g>
<!-- Node3&#45;&gt;Node2 -->
<g id="edge3" class="edge">
<title>Node3&#45;&gt;Node2</title>
<path fill="none" stroke="midnightblue" d="M247.46,-64.99C196.51,-52.25 128.09,-35.15 87.61,-25.03"/>
<polygon fill="midnightblue" stroke="midnightblue" points="246.85,-68.45 257.4,-67.48 248.55,-61.66 246.85,-68.45"/>
</g>
<!-- Node4 -->
<g id="node4" class="node">
<title>Node4</title>
<g id="a_node4"><a xlink:href="_file_signature_creator_8cpp.html" target="_top" xlink:title=" ">
<polygon fill="white" stroke="black" points="240.5,-0.5 240.5,-30.5 386.5,-30.5 386.5,-0.5 240.5,-0.5"/>
<text text-anchor="start" x="248.5" y="-18.5" font-family="Helvetica,sans-Serif" font-size="10.00">source/app/sign/FileSignature</text>
<text text-anchor="middle" x="313.5" y="-7.5" font-family="Helvetica,sans-Serif" font-size="10.00">Creator.cpp</text>
</a>
</g>
</g>
<!-- Node3&#45;&gt;Node4 -->
<g id="edge4" class="edge">
<title>Node3&#45;&gt;Node4</title>
<path fill="none" stroke="midnightblue" d="M313.5,-57.11C313.5,-48.15 313.5,-38.32 313.5,-30.58"/>
<polygon fill="midnightblue" stroke="midnightblue" points="310,-57.4 313.5,-67.4 317,-57.4 310,-57.4"/>
</g>
<!-- Node5&#45;&gt;Node3 -->
<g id="edge6" class="edge">
<title>Node5&#45;&gt;Node3</title>
<path fill="none" stroke="midnightblue" d="M293.32,-196.04C305.25,-188.18 316.86,-177.87 323.5,-165 334.61,-143.46 326.56,-114.59 319.89,-97.62"/>
<polygon fill="midnightblue" stroke="midnightblue" points="291.36,-193.14 284.65,-201.34 295.01,-199.12 291.36,-193.14"/>
</g>
<!-- Node6 -->
<g id="node6" class="node">
<title>Node6</title>
<g id="a_node6"><a xlink:href="_job_get_signature_8h.html" target="_top" xlink:title=" ">
<polygon fill="white" stroke="black" points="22,-134.5 22,-164.5 129,-164.5 129,-134.5 22,-134.5"/>
<text text-anchor="start" x="30" y="-152.5" font-family="Helvetica,sans-Serif" font-size="10.00">source/app/sign/jobs</text>
<text text-anchor="middle" x="75.5" y="-141.5" font-family="Helvetica,sans-Serif" font-size="10.00">/JobGetSignature.h</text>
</a>
</g>
</g>
<!-- Node5&#45;&gt;Node6 -->
<g id="edge7" class="edge">
<title>Node5&#45;&gt;Node6</title>
<path fill="none" stroke="midnightblue" d="M204.35,-197.82C175.9,-187.37 140.37,-174.32 113.83,-164.58"/>
<polygon fill="midnightblue" stroke="midnightblue" points="203.5,-201.23 214.09,-201.4 205.91,-194.66 203.5,-201.23"/>
</g>
<!-- Node8 -->
<g id="node8" class="node">
<title>Node8</title>
<g id="a_node8"><a xlink:href="_file_signature_creation_context_8cpp.html" target="_top" xlink:title=" ">
<polygon fill="white" stroke="black" points="147,-134.5 147,-164.5 314,-164.5 314,-134.5 147,-134.5"/>
<text text-anchor="start" x="155" y="-152.5" font-family="Helvetica,sans-Serif" font-size="10.00">source/app/sign/internal</text>
<text text-anchor="middle" x="230.5" y="-141.5" font-family="Helvetica,sans-Serif" font-size="10.00">/FileSignatureCreationContext.cpp</text>
</a>
</g>
</g>
<!-- Node5&#45;&gt;Node8 -->
<g id="edge11" class="edge">
<title>Node5&#45;&gt;Node8</title>
<path fill="none" stroke="midnightblue" d="M244.44,-191.7C241.36,-182.59 237.94,-172.49 235.26,-164.58"/>
<polygon fill="midnightblue" stroke="midnightblue" points="241.21,-193.05 247.73,-201.4 247.84,-190.8 241.21,-193.05"/>
</g>
<!-- Node6&#45;&gt;Node2 -->
<g id="edge8" class="edge">
<title>Node6&#45;&gt;Node2</title>
<path fill="none" stroke="midnightblue" d="M71.47,-124.32C66.48,-94.38 58.24,-44.91 54.93,-25.1"/>
<polygon fill="midnightblue" stroke="midnightblue" points="68.05,-125.09 73.15,-134.37 74.95,-123.93 68.05,-125.09"/>
</g>
<!-- Node6&#45;&gt;Node3 -->
<g id="edge9" class="edge">
<title>Node6&#45;&gt;Node3</title>
<path fill="none" stroke="midnightblue" d="M136.96,-131.71C175.69,-121.14 225.13,-107.63 261.83,-97.61"/>
<polygon fill="midnightblue" stroke="midnightblue" points="135.57,-128.46 126.85,-134.48 137.42,-135.22 135.57,-128.46"/>
</g>
<!-- Node7 -->
<g id="node7" class="node">
<title>Node7</title>
<g id="a_node7"><a xlink:href="_job_get_signature_8cpp.html" target="_top" xlink:title=" ">
<polygon fill="white" stroke="black" points="82,-67.5 82,-97.5 193,-97.5 193,-67.5 82,-67.5"/>
<text text-anchor="start" x="90" y="-85.5" font-family="Helvetica,sans-Serif" font-size="10.00">source/app/sign/jobs</text>
<text text-anchor="middle" x="137.5" y="-74.5" font-family="Helvetica,sans-Serif" font-size="10.00">/JobGetSignature.cpp</text>
</a>
</g>
</g>
<!-- Node6&#45;&gt;Node7 -->
<g id="edge10" class="edge">
<title>Node6&#45;&gt;Node7</title>
<path fill="none" stroke="midnightblue" d="M95.98,-127.02C105.22,-117.34 115.87,-106.17 124.07,-97.58"/>
<polygon fill="midnightblue" stroke="midnightblue" points="93.32,-124.74 88.95,-134.4 98.39,-129.58 93.32,-124.74"/>
</g>
</g>
</svg>
