<?xml version="1.0" encoding="UTF-8" standalone="no"?>
<!DOCTYPE svg PUBLIC "-//W3C//DTD SVG 1.1//EN"
 "http://www.w3.org/Graphics/SVG/1.1/DTD/svg11.dtd">
<!-- Generated by graphviz version 2.44.1 (20200629.0846)
 -->
<!-- Title: source/app/sign/SignatureCreationParams.cpp Pages: 1 -->
<svg width="254pt" height="151pt"
 viewBox="0.00 0.00 253.50 151.00" xmlns="http://www.w3.org/2000/svg" xmlns:xlink="http://www.w3.org/1999/xlink">
<g id="graph0" class="graph" transform="scale(1 1) rotate(0) translate(4 147)">
<title>source/app/sign/SignatureCreationParams.cpp</title>
<polygon fill="white" stroke="transparent" points="-4,4 -4,-147 249.5,-147 249.5,4 -4,4"/>
<!-- Node1 -->
<g id="node1" class="node">
<title>Node1</title>
<g id="a_node1"><a xlink:title=" ">
<polygon fill="#bfbfbf" stroke="black" points="46,-112.5 46,-142.5 176,-142.5 176,-112.5 46,-112.5"/>
<text text-anchor="start" x="54" y="-130.5" font-family="Helvetica,sans-Serif" font-size="10.00">source/app/sign/Signature</text>
<text text-anchor="middle" x="111" y="-119.5" font-family="Helvetica,sans-Serif" font-size="10.00">CreationParams.cpp</text>
</a>
</g>
</g>
<!-- Node2 -->
<g id="node2" class="node">
<title>Node2</title>
<g id="a_node2"><a xlink:href="_signature_creation_params_8h.html" target="_top" xlink:title=" ">
<polygon fill="white" stroke="black" points="42.5,-56.5 42.5,-75.5 179.5,-75.5 179.5,-56.5 42.5,-56.5"/>
<text text-anchor="middle" x="111" y="-63.5" font-family="Helvetica,sans-Serif" font-size="10.00">SignatureCreationParams.h</text>
</a>
</g>
</g>
<!-- Node1&#45;&gt;Node2 -->
<g id="edge1" class="edge">
<title>Node1&#45;&gt;Node2</title>
<path fill="none" stroke="midnightblue" d="M111,-112.4C111,-104.47 111,-94.46 111,-85.86"/>
<polygon fill="midnightblue" stroke="midnightblue" points="114.5,-85.66 111,-75.66 107.5,-85.66 114.5,-85.66"/>
</g>
<!-- Node3 -->
<g id="node3" class="node">
<title>Node3</title>
<g id="a_node3"><a xlink:title=" ">
<polygon fill="white" stroke="#bfbfbf" points="0,-0.5 0,-19.5 40,-19.5 40,-0.5 0,-0.5"/>
<text text-anchor="middle" x="20" y="-7.5" font-family="Helvetica,sans-Serif" font-size="10.00">utility</text>
</a>
</g>
</g>
<!-- Node2&#45;&gt;Node3 -->
<g id="edge2" class="edge">
<title>Node2&#45;&gt;Node3</title>
<path fill="none" stroke="midnightblue" d="M96.38,-56.32C82.05,-47.82 59.99,-34.73 43.25,-24.8"/>
<polygon fill="midnightblue" stroke="midnightblue" points="44.97,-21.75 34.58,-19.65 41.4,-27.77 44.97,-21.75"/>
</g>
<!-- Node4 -->
<g id="node4" class="node">
<title>Node4</title>
<g id="a_node4"><a xlink:title=" ">
<polygon fill="white" stroke="#bfbfbf" points="58.5,-0.5 58.5,-19.5 99.5,-19.5 99.5,-0.5 58.5,-0.5"/>
<text text-anchor="middle" x="79" y="-7.5" font-family="Helvetica,sans-Serif" font-size="10.00">string</text>
</a>
</g>
</g>
<!-- Node2&#45;&gt;Node4 -->
<g id="edge3" class="edge">
<title>Node2&#45;&gt;Node4</title>
<path fill="none" stroke="midnightblue" d="M105.72,-56.08C101.29,-48.61 94.84,-37.72 89.38,-28.52"/>
<polygon fill="midnightblue" stroke="midnightblue" points="92.29,-26.57 84.19,-19.75 86.27,-30.14 92.29,-26.57"/>
</g>
<!-- Node5 -->
<g id="node5" class="node">
<title>Node5</title>
<g id="a_node5"><a xlink:title=" ">
<polygon fill="white" stroke="#bfbfbf" points="118,-0.5 118,-19.5 168,-19.5 168,-0.5 118,-0.5"/>
<text text-anchor="middle" x="143" y="-7.5" font-family="Helvetica,sans-Serif" font-size="10.00">fstream</text>
</a>
</g>
</g>
<!-- Node2&#45;&gt;Node5 -->
<g id="edge4" class="edge">
<title>Node2&#45;&gt;Node5</title>
<path fill="none" stroke="midnightblue" d="M116.28,-56.08C120.71,-48.61 127.16,-37.72 132.62,-28.52"/>
<polygon fill="midnightblue" stroke="midnightblue" points="135.73,-30.14 137.81,-19.75 129.71,-26.57 135.73,-30.14"/>
</g>
<!-- Node6 -->
<g id="node6" class="node">
<title>Node6</title>
<g id="a_node6"><a xlink:title=" ">
<polygon fill="white" stroke="#bfbfbf" points="186.5,-0.5 186.5,-19.5 245.5,-19.5 245.5,-0.5 186.5,-0.5"/>
<text text-anchor="middle" x="216" y="-7.5" font-family="Helvetica,sans-Serif" font-size="10.00">exception</text>
</a>
</g>
</g>
<!-- Node2&#45;&gt;Node6 -->
<g id="edge5" class="edge">
<title>Node2&#45;&gt;Node6</title>
<path fill="none" stroke="midnightblue" d="M127.87,-56.32C144.71,-47.66 170.81,-34.24 190.24,-24.25"/>
<polygon fill="midnightblue" stroke="midnightblue" points="191.88,-27.34 199.17,-19.65 188.68,-21.12 191.88,-27.34"/>
</g>
</g>
</svg>
