<?xml version="1.0" encoding="UTF-8" standalone="no"?>
<!DOCTYPE svg PUBLIC "-//W3C//DTD SVG 1.1//EN"
 "http://www.w3.org/Graphics/SVG/1.1/DTD/svg11.dtd">
<!-- Generated by graphviz version 2.44.1 (20200629.0846)
 -->
<!-- Title: source/app/utils/thread_pool/ThreadPool.h Pages: 1 -->
<svg width="839pt" height="151pt"
 viewBox="0.00 0.00 839.00 151.00" xmlns="http://www.w3.org/2000/svg" xmlns:xlink="http://www.w3.org/1999/xlink">
<g id="graph0" class="graph" transform="scale(1 1) rotate(0) translate(4 147)">
<title>source/app/utils/thread_pool/ThreadPool.h</title>
<polygon fill="white" stroke="transparent" points="-4,4 -4,-147 835,-147 835,4 -4,4"/>
<!-- Node1 -->
<g id="node1" class="node">
<title>Node1</title>
<g id="a_node1"><a xlink:title=" ">
<polygon fill="#bfbfbf" stroke="black" points="323,-112.5 323,-142.5 439,-142.5 439,-112.5 323,-112.5"/>
<text text-anchor="start" x="331" y="-130.5" font-family="Helvetica,sans-Serif" font-size="10.00">source/app/utils/thread</text>
<text text-anchor="middle" x="381" y="-119.5" font-family="Helvetica,sans-Serif" font-size="10.00">_pool/ThreadPool.h</text>
</a>
</g>
</g>
<!-- Node2 -->
<g id="node2" class="node">
<title>Node2</title>
<g id="a_node2"><a xlink:title=" ">
<polygon fill="white" stroke="#bfbfbf" points="0,-56.5 0,-75.5 52,-75.5 52,-56.5 0,-56.5"/>
<text text-anchor="middle" x="26" y="-63.5" font-family="Helvetica,sans-Serif" font-size="10.00">memory</text>
</a>
</g>
</g>
<!-- Node1&#45;&gt;Node2 -->
<g id="edge1" class="edge">
<title>Node1&#45;&gt;Node2</title>
<path fill="none" stroke="midnightblue" d="M322.89,-119.02C260.68,-110.64 158.91,-95.83 62.25,-76.1"/>
<polygon fill="midnightblue" stroke="midnightblue" points="62.81,-72.64 52.31,-74.05 61.4,-79.5 62.81,-72.64"/>
</g>
<!-- Node3 -->
<g id="node3" class="node">
<title>Node3</title>
<g id="a_node3"><a xlink:title=" ">
<polygon fill="white" stroke="#bfbfbf" points="70,-56.5 70,-75.5 114,-75.5 114,-56.5 70,-56.5"/>
<text text-anchor="middle" x="92" y="-63.5" font-family="Helvetica,sans-Serif" font-size="10.00">thread</text>
</a>
</g>
</g>
<!-- Node1&#45;&gt;Node3 -->
<g id="edge2" class="edge">
<title>Node1&#45;&gt;Node3</title>
<path fill="none" stroke="midnightblue" d="M322.79,-116.44C272.76,-107.48 198.5,-93.44 124.31,-75.91"/>
<polygon fill="midnightblue" stroke="midnightblue" points="124.86,-72.44 114.32,-73.52 123.24,-79.25 124.86,-72.44"/>
</g>
<!-- Node4 -->
<g id="node4" class="node">
<title>Node4</title>
<g id="a_node4"><a xlink:title=" ">
<polygon fill="white" stroke="#bfbfbf" points="132.5,-56.5 132.5,-75.5 191.5,-75.5 191.5,-56.5 132.5,-56.5"/>
<text text-anchor="middle" x="162" y="-63.5" font-family="Helvetica,sans-Serif" font-size="10.00">exception</text>
</a>
</g>
</g>
<!-- Node1&#45;&gt;Node4 -->
<g id="edge3" class="edge">
<title>Node1&#45;&gt;Node4</title>
<path fill="none" stroke="midnightblue" d="M329.38,-112.47C290.36,-101.87 237.58,-87.54 201.8,-77.81"/>
<polygon fill="midnightblue" stroke="midnightblue" points="202.3,-74.32 191.73,-75.08 200.46,-81.08 202.3,-74.32"/>
</g>
<!-- Node5 -->
<g id="node5" class="node">
<title>Node5</title>
<g id="a_node5"><a xlink:title=" ">
<polygon fill="white" stroke="#bfbfbf" points="210,-56.5 210,-75.5 254,-75.5 254,-56.5 210,-56.5"/>
<text text-anchor="middle" x="232" y="-63.5" font-family="Helvetica,sans-Serif" font-size="10.00">vector</text>
</a>
</g>
</g>
<!-- Node1&#45;&gt;Node5 -->
<g id="edge4" class="edge">
<title>Node1&#45;&gt;Node5</title>
<path fill="none" stroke="midnightblue" d="M345.69,-112.4C320.58,-102.37 287.16,-89.03 263.06,-79.4"/>
<polygon fill="midnightblue" stroke="midnightblue" points="264.27,-76.12 253.68,-75.66 261.67,-82.62 264.27,-76.12"/>
</g>
<!-- Node6 -->
<g id="node6" class="node">
<title>Node6</title>
<g id="a_node6"><a xlink:title=" ">
<polygon fill="white" stroke="#bfbfbf" points="272.5,-56.5 272.5,-75.5 315.5,-75.5 315.5,-56.5 272.5,-56.5"/>
<text text-anchor="middle" x="294" y="-63.5" font-family="Helvetica,sans-Serif" font-size="10.00">queue</text>
</a>
</g>
</g>
<!-- Node1&#45;&gt;Node6 -->
<g id="edge5" class="edge">
<title>Node1&#45;&gt;Node6</title>
<path fill="none" stroke="midnightblue" d="M360.38,-112.4C346.7,-103.04 328.79,-90.79 315.02,-81.38"/>
<polygon fill="midnightblue" stroke="midnightblue" points="316.89,-78.41 306.66,-75.66 312.94,-84.19 316.89,-78.41"/>
</g>
<!-- Node7 -->
<g id="node7" class="node">
<title>Node7</title>
<g id="a_node7"><a xlink:title=" ">
<polygon fill="white" stroke="#bfbfbf" points="333.5,-56.5 333.5,-75.5 428.5,-75.5 428.5,-56.5 333.5,-56.5"/>
<text text-anchor="middle" x="381" y="-63.5" font-family="Helvetica,sans-Serif" font-size="10.00">condition_variable</text>
</a>
</g>
</g>
<!-- Node1&#45;&gt;Node7 -->
<g id="edge6" class="edge">
<title>Node1&#45;&gt;Node7</title>
<path fill="none" stroke="midnightblue" d="M381,-112.4C381,-104.47 381,-94.46 381,-85.86"/>
<polygon fill="midnightblue" stroke="midnightblue" points="384.5,-85.66 381,-75.66 377.5,-85.66 384.5,-85.66"/>
</g>
<!-- Node8 -->
<g id="node8" class="node">
<title>Node8</title>
<g id="a_node8"><a xlink:title=" ">
<polygon fill="white" stroke="#bfbfbf" points="447,-56.5 447,-75.5 491,-75.5 491,-56.5 447,-56.5"/>
<text text-anchor="middle" x="469" y="-63.5" font-family="Helvetica,sans-Serif" font-size="10.00">mutex</text>
</a>
</g>
</g>
<!-- Node1&#45;&gt;Node8 -->
<g id="edge7" class="edge">
<title>Node1&#45;&gt;Node8</title>
<path fill="none" stroke="midnightblue" d="M401.85,-112.4C415.7,-103.04 433.81,-90.79 447.74,-81.38"/>
<polygon fill="midnightblue" stroke="midnightblue" points="449.87,-84.16 456.2,-75.66 445.95,-78.36 449.87,-84.16"/>
</g>
<!-- Node9 -->
<g id="node9" class="node">
<title>Node9</title>
<g id="a_node9"><a xlink:title=" ">
<polygon fill="white" stroke="#bfbfbf" points="509,-56.5 509,-75.5 555,-75.5 555,-56.5 509,-56.5"/>
<text text-anchor="middle" x="532" y="-63.5" font-family="Helvetica,sans-Serif" font-size="10.00">atomic</text>
</a>
</g>
</g>
<!-- Node1&#45;&gt;Node9 -->
<g id="edge8" class="edge">
<title>Node1&#45;&gt;Node9</title>
<path fill="none" stroke="midnightblue" d="M416.78,-112.4C442.23,-102.37 476.1,-89.03 500.52,-79.4"/>
<polygon fill="midnightblue" stroke="midnightblue" points="502.01,-82.58 510.03,-75.66 499.44,-76.07 502.01,-82.58"/>
</g>
<!-- Node10 -->
<g id="node10" class="node">
<title>Node10</title>
<g id="a_node10"><a xlink:title=" ">
<polygon fill="white" stroke="#bfbfbf" points="573,-56.5 573,-75.5 627,-75.5 627,-56.5 573,-56.5"/>
<text text-anchor="middle" x="600" y="-63.5" font-family="Helvetica,sans-Serif" font-size="10.00">iostream</text>
</a>
</g>
</g>
<!-- Node1&#45;&gt;Node10 -->
<g id="edge9" class="edge">
<title>Node1&#45;&gt;Node10</title>
<path fill="none" stroke="midnightblue" d="M432.62,-112.47C472.56,-101.62 526.91,-86.86 562.7,-77.13"/>
<polygon fill="midnightblue" stroke="midnightblue" points="563.99,-80.41 572.73,-74.41 562.16,-73.65 563.99,-80.41"/>
</g>
<!-- Node11 -->
<g id="node11" class="node">
<title>Node11</title>
<g id="a_node11"><a xlink:href="_job_base_8h.html" target="_top" xlink:title=" ">
<polygon fill="white" stroke="black" points="645.5,-56.5 645.5,-75.5 708.5,-75.5 708.5,-56.5 645.5,-56.5"/>
<text text-anchor="middle" x="677" y="-63.5" font-family="Helvetica,sans-Serif" font-size="10.00">JobBase.h</text>
</a>
</g>
</g>
<!-- Node1&#45;&gt;Node11 -->
<g id="edge10" class="edge">
<title>Node1&#45;&gt;Node11</title>
<path fill="none" stroke="midnightblue" d="M439.05,-115.36C488.56,-105.77 561.89,-91.39 635.34,-76.11"/>
<polygon fill="midnightblue" stroke="midnightblue" points="636.16,-79.51 645.23,-74.04 634.73,-72.66 636.16,-79.51"/>
</g>
<!-- Node12 -->
<g id="node12" class="node">
<title>Node12</title>
<g id="a_node12"><a xlink:href="_e_thread_pool_state_8h.html" target="_top" xlink:title=" ">
<polygon fill="white" stroke="black" points="727,-56.5 727,-75.5 831,-75.5 831,-56.5 727,-56.5"/>
<text text-anchor="middle" x="779" y="-63.5" font-family="Helvetica,sans-Serif" font-size="10.00">EThreadPoolState.h</text>
</a>
</g>
</g>
<!-- Node1&#45;&gt;Node12 -->
<g id="edge11" class="edge">
<title>Node1&#45;&gt;Node12</title>
<path fill="none" stroke="midnightblue" d="M439.3,-117.78C513.48,-106.69 641.07,-87.62 716.99,-76.27"/>
<polygon fill="midnightblue" stroke="midnightblue" points="717.52,-79.73 726.89,-74.79 716.48,-72.81 717.52,-79.73"/>
</g>
<!-- Node13 -->
<g id="node13" class="node">
<title>Node13</title>
<g id="a_node13"><a xlink:title=" ">
<polygon fill="white" stroke="#bfbfbf" points="754.5,-0.5 754.5,-19.5 803.5,-19.5 803.5,-0.5 754.5,-0.5"/>
<text text-anchor="middle" x="779" y="-7.5" font-family="Helvetica,sans-Serif" font-size="10.00">stdint.h</text>
</a>
</g>
</g>
<!-- Node12&#45;&gt;Node13 -->
<g id="edge12" class="edge">
<title>Node12&#45;&gt;Node13</title>
<path fill="none" stroke="midnightblue" d="M779,-56.08C779,-49.01 779,-38.86 779,-29.99"/>
<polygon fill="midnightblue" stroke="midnightblue" points="782.5,-29.75 779,-19.75 775.5,-29.75 782.5,-29.75"/>
</g>
</g>
</svg>
