<?xml version="1.0" encoding="UTF-8" standalone="no"?>
<!DOCTYPE svg PUBLIC "-//W3C//DTD SVG 1.1//EN"
 "http://www.w3.org/Graphics/SVG/1.1/DTD/svg11.dtd">
<!-- Generated by graphviz version 2.44.1 (20200629.0846)
 -->
<!-- Title: source/app/utils/thread_pool/ThreadPool.cpp Pages: 1 -->
<svg width="839pt" height="207pt"
 viewBox="0.00 0.00 839.00 207.00" xmlns="http://www.w3.org/2000/svg" xmlns:xlink="http://www.w3.org/1999/xlink">
<g id="graph0" class="graph" transform="scale(1 1) rotate(0) translate(4 203)">
<title>source/app/utils/thread_pool/ThreadPool.cpp</title>
<polygon fill="white" stroke="transparent" points="-4,4 -4,-203 835,-203 835,4 -4,4"/>
<!-- Node1 -->
<g id="node1" class="node">
<title>Node1</title>
<g id="a_node1"><a xlink:title=" ">
<polygon fill="#bfbfbf" stroke="black" points="323,-168.5 323,-198.5 439,-198.5 439,-168.5 323,-168.5"/>
<text text-anchor="start" x="331" y="-186.5" font-family="Helvetica,sans-Serif" font-size="10.00">source/app/utils/thread</text>
<text text-anchor="middle" x="381" y="-175.5" font-family="Helvetica,sans-Serif" font-size="10.00">_pool/ThreadPool.cpp</text>
</a>
</g>
</g>
<!-- Node2 -->
<g id="node2" class="node">
<title>Node2</title>
<g id="a_node2"><a xlink:href="_thread_pool_8h.html" target="_top" xlink:title=" ">
<polygon fill="white" stroke="black" points="344,-112.5 344,-131.5 418,-131.5 418,-112.5 344,-112.5"/>
<text text-anchor="middle" x="381" y="-119.5" font-family="Helvetica,sans-Serif" font-size="10.00">ThreadPool.h</text>
</a>
</g>
</g>
<!-- Node1&#45;&gt;Node2 -->
<g id="edge1" class="edge">
<title>Node1&#45;&gt;Node2</title>
<path fill="none" stroke="midnightblue" d="M381,-168.4C381,-160.47 381,-150.46 381,-141.86"/>
<polygon fill="midnightblue" stroke="midnightblue" points="384.5,-141.66 381,-131.66 377.5,-141.66 384.5,-141.66"/>
</g>
<!-- Node3 -->
<g id="node3" class="node">
<title>Node3</title>
<g id="a_node3"><a xlink:title=" ">
<polygon fill="white" stroke="#bfbfbf" points="0,-56.5 0,-75.5 52,-75.5 52,-56.5 0,-56.5"/>
<text text-anchor="middle" x="26" y="-63.5" font-family="Helvetica,sans-Serif" font-size="10.00">memory</text>
</a>
</g>
</g>
<!-- Node2&#45;&gt;Node3 -->
<g id="edge2" class="edge">
<title>Node2&#45;&gt;Node3</title>
<path fill="none" stroke="midnightblue" d="M343.82,-117.14C285.74,-110.81 169.83,-97 62.34,-76.08"/>
<polygon fill="midnightblue" stroke="midnightblue" points="62.79,-72.6 52.3,-74.1 61.43,-79.47 62.79,-72.6"/>
</g>
<!-- Node4 -->
<g id="node4" class="node">
<title>Node4</title>
<g id="a_node4"><a xlink:title=" ">
<polygon fill="white" stroke="#bfbfbf" points="70,-56.5 70,-75.5 114,-75.5 114,-56.5 70,-56.5"/>
<text text-anchor="middle" x="92" y="-63.5" font-family="Helvetica,sans-Serif" font-size="10.00">thread</text>
</a>
</g>
</g>
<!-- Node2&#45;&gt;Node4 -->
<g id="edge3" class="edge">
<title>Node2&#45;&gt;Node4</title>
<path fill="none" stroke="midnightblue" d="M343.74,-115.68C295.44,-108.53 208.46,-94.74 124.29,-75.85"/>
<polygon fill="midnightblue" stroke="midnightblue" points="124.83,-72.39 114.31,-73.58 123.28,-79.21 124.83,-72.39"/>
</g>
<!-- Node5 -->
<g id="node5" class="node">
<title>Node5</title>
<g id="a_node5"><a xlink:title=" ">
<polygon fill="white" stroke="#bfbfbf" points="132.5,-56.5 132.5,-75.5 191.5,-75.5 191.5,-56.5 132.5,-56.5"/>
<text text-anchor="middle" x="162" y="-63.5" font-family="Helvetica,sans-Serif" font-size="10.00">exception</text>
</a>
</g>
</g>
<!-- Node2&#45;&gt;Node5 -->
<g id="edge4" class="edge">
<title>Node2&#45;&gt;Node5</title>
<path fill="none" stroke="midnightblue" d="M346.3,-112.44C306.86,-102.72 242.61,-86.88 201.34,-76.7"/>
<polygon fill="midnightblue" stroke="midnightblue" points="202.17,-73.3 191.62,-74.3 200.49,-80.1 202.17,-73.3"/>
</g>
<!-- Node6 -->
<g id="node6" class="node">
<title>Node6</title>
<g id="a_node6"><a xlink:title=" ">
<polygon fill="white" stroke="#bfbfbf" points="210,-56.5 210,-75.5 254,-75.5 254,-56.5 210,-56.5"/>
<text text-anchor="middle" x="232" y="-63.5" font-family="Helvetica,sans-Serif" font-size="10.00">vector</text>
</a>
</g>
</g>
<!-- Node2&#45;&gt;Node6 -->
<g id="edge5" class="edge">
<title>Node2&#45;&gt;Node6</title>
<path fill="none" stroke="midnightblue" d="M357.39,-112.44C332.1,-103.28 291.83,-88.68 263.78,-78.52"/>
<polygon fill="midnightblue" stroke="midnightblue" points="264.64,-75.11 254.04,-74.99 262.25,-81.69 264.64,-75.11"/>
</g>
<!-- Node7 -->
<g id="node7" class="node">
<title>Node7</title>
<g id="a_node7"><a xlink:title=" ">
<polygon fill="white" stroke="#bfbfbf" points="272.5,-56.5 272.5,-75.5 315.5,-75.5 315.5,-56.5 272.5,-56.5"/>
<text text-anchor="middle" x="294" y="-63.5" font-family="Helvetica,sans-Serif" font-size="10.00">queue</text>
</a>
</g>
</g>
<!-- Node2&#45;&gt;Node7 -->
<g id="edge6" class="edge">
<title>Node2&#45;&gt;Node7</title>
<path fill="none" stroke="midnightblue" d="M367.02,-112.32C353.45,-103.9 332.62,-90.97 316.68,-81.07"/>
<polygon fill="midnightblue" stroke="midnightblue" points="318.29,-77.95 307.94,-75.65 314.59,-83.9 318.29,-77.95"/>
</g>
<!-- Node8 -->
<g id="node8" class="node">
<title>Node8</title>
<g id="a_node8"><a xlink:title=" ">
<polygon fill="white" stroke="#bfbfbf" points="333.5,-56.5 333.5,-75.5 428.5,-75.5 428.5,-56.5 333.5,-56.5"/>
<text text-anchor="middle" x="381" y="-63.5" font-family="Helvetica,sans-Serif" font-size="10.00">condition_variable</text>
</a>
</g>
</g>
<!-- Node2&#45;&gt;Node8 -->
<g id="edge7" class="edge">
<title>Node2&#45;&gt;Node8</title>
<path fill="none" stroke="midnightblue" d="M381,-112.08C381,-105.01 381,-94.86 381,-85.99"/>
<polygon fill="midnightblue" stroke="midnightblue" points="384.5,-85.75 381,-75.75 377.5,-85.75 384.5,-85.75"/>
</g>
<!-- Node9 -->
<g id="node9" class="node">
<title>Node9</title>
<g id="a_node9"><a xlink:title=" ">
<polygon fill="white" stroke="#bfbfbf" points="447,-56.5 447,-75.5 491,-75.5 491,-56.5 447,-56.5"/>
<text text-anchor="middle" x="469" y="-63.5" font-family="Helvetica,sans-Serif" font-size="10.00">mutex</text>
</a>
</g>
</g>
<!-- Node2&#45;&gt;Node9 -->
<g id="edge8" class="edge">
<title>Node2&#45;&gt;Node9</title>
<path fill="none" stroke="midnightblue" d="M395.14,-112.32C408.87,-103.9 429.94,-90.97 446.06,-81.07"/>
<polygon fill="midnightblue" stroke="midnightblue" points="448.2,-83.87 454.9,-75.65 444.54,-77.9 448.2,-83.87"/>
</g>
<!-- Node10 -->
<g id="node10" class="node">
<title>Node10</title>
<g id="a_node10"><a xlink:title=" ">
<polygon fill="white" stroke="#bfbfbf" points="509,-56.5 509,-75.5 555,-75.5 555,-56.5 509,-56.5"/>
<text text-anchor="middle" x="532" y="-63.5" font-family="Helvetica,sans-Serif" font-size="10.00">atomic</text>
</a>
</g>
</g>
<!-- Node2&#45;&gt;Node10 -->
<g id="edge9" class="edge">
<title>Node2&#45;&gt;Node10</title>
<path fill="none" stroke="midnightblue" d="M404.93,-112.44C430.37,-103.35 470.77,-88.9 499.18,-78.74"/>
<polygon fill="midnightblue" stroke="midnightblue" points="500.44,-82 508.68,-75.34 498.09,-75.41 500.44,-82"/>
</g>
<!-- Node11 -->
<g id="node11" class="node">
<title>Node11</title>
<g id="a_node11"><a xlink:title=" ">
<polygon fill="white" stroke="#bfbfbf" points="573,-56.5 573,-75.5 627,-75.5 627,-56.5 573,-56.5"/>
<text text-anchor="middle" x="600" y="-63.5" font-family="Helvetica,sans-Serif" font-size="10.00">iostream</text>
</a>
</g>
</g>
<!-- Node2&#45;&gt;Node11 -->
<g id="edge10" class="edge">
<title>Node2&#45;&gt;Node11</title>
<path fill="none" stroke="midnightblue" d="M415.75,-112.5C450.56,-103.97 505.92,-90.38 562.96,-76.25"/>
<polygon fill="midnightblue" stroke="midnightblue" points="564.01,-79.6 572.88,-73.79 562.33,-72.8 564.01,-79.6"/>
</g>
<!-- Node12 -->
<g id="node12" class="node">
<title>Node12</title>
<g id="a_node12"><a xlink:href="_job_base_8h.html" target="_top" xlink:title=" ">
<polygon fill="white" stroke="black" points="645.5,-56.5 645.5,-75.5 708.5,-75.5 708.5,-56.5 645.5,-56.5"/>
<text text-anchor="middle" x="677" y="-63.5" font-family="Helvetica,sans-Serif" font-size="10.00">JobBase.h</text>
</a>
</g>
</g>
<!-- Node2&#45;&gt;Node12 -->
<g id="edge11" class="edge">
<title>Node2&#45;&gt;Node12</title>
<path fill="none" stroke="midnightblue" d="M418.25,-114.92C466.11,-107.01 551.97,-92.44 635.35,-76.06"/>
<polygon fill="midnightblue" stroke="midnightblue" points="636.11,-79.48 645.24,-74.11 634.75,-72.61 636.11,-79.48"/>
</g>
<!-- Node13 -->
<g id="node13" class="node">
<title>Node13</title>
<g id="a_node13"><a xlink:href="_e_thread_pool_state_8h.html" target="_top" xlink:title=" ">
<polygon fill="white" stroke="black" points="727,-56.5 727,-75.5 831,-75.5 831,-56.5 727,-56.5"/>
<text text-anchor="middle" x="779" y="-63.5" font-family="Helvetica,sans-Serif" font-size="10.00">EThreadPoolState.h</text>
</a>
</g>
</g>
<!-- Node2&#45;&gt;Node13 -->
<g id="edge12" class="edge">
<title>Node2&#45;&gt;Node13</title>
<path fill="none" stroke="midnightblue" d="M418.42,-116.17C478.88,-108.34 602.05,-92.22 716.76,-76.16"/>
<polygon fill="midnightblue" stroke="midnightblue" points="717.35,-79.61 726.76,-74.76 716.37,-72.68 717.35,-79.61"/>
</g>
<!-- Node14 -->
<g id="node14" class="node">
<title>Node14</title>
<g id="a_node14"><a xlink:title=" ">
<polygon fill="white" stroke="#bfbfbf" points="754.5,-0.5 754.5,-19.5 803.5,-19.5 803.5,-0.5 754.5,-0.5"/>
<text text-anchor="middle" x="779" y="-7.5" font-family="Helvetica,sans-Serif" font-size="10.00">stdint.h</text>
</a>
</g>
</g>
<!-- Node13&#45;&gt;Node14 -->
<g id="edge13" class="edge">
<title>Node13&#45;&gt;Node14</title>
<path fill="none" stroke="midnightblue" d="M779,-56.08C779,-49.01 779,-38.86 779,-29.99"/>
<polygon fill="midnightblue" stroke="midnightblue" points="782.5,-29.75 779,-19.75 775.5,-29.75 782.5,-29.75"/>
</g>
</g>
</svg>
