<?xml version="1.0" encoding="UTF-8" standalone="no"?>
<!DOCTYPE svg PUBLIC "-//W3C//DTD SVG 1.1//EN"
 "http://www.w3.org/Graphics/SVG/1.1/DTD/svg11.dtd">
<!-- Generated by graphviz version 2.44.1 (20200629.0846)
 -->
<!-- Title: appsign::JobGetSignature::doJob Pages: 1 -->
<svg width="279pt" height="96pt"
 viewBox="0.00 0.00 279.00 95.50" xmlns="http://www.w3.org/2000/svg" xmlns:xlink="http://www.w3.org/1999/xlink">
<g id="graph0" class="graph" transform="scale(1 1) rotate(0) translate(4 91.5)">
<title>appsign::JobGetSignature::doJob</title>
<polygon fill="white" stroke="transparent" points="-4,4 -4,-91.5 275,-91.5 275,4 -4,4"/>
<!-- Node1 -->
<g id="node1" class="node">
<title>Node1</title>
<g id="a_node1"><a xlink:title="Reads from the file and generates hash, writes to the buffer map.">
<polygon fill="#bfbfbf" stroke="black" points="0,-22.5 0,-52.5 129,-52.5 129,-22.5 0,-22.5"/>
<text text-anchor="start" x="8" y="-40.5" font-family="Helvetica,sans-Serif" font-size="10.00">appsign::JobGetSignature</text>
<text text-anchor="middle" x="64.5" y="-29.5" font-family="Helvetica,sans-Serif" font-size="10.00">::doJob</text>
</a>
</g>
</g>
<!-- Node2 -->
<g id="node2" class="node">
<title>Node2</title>
<g id="a_node2"><a xlink:href="md5_8cpp.html#a92c6eed2e9b51298af559aff6792770b" target="_top" xlink:title=" ">
<polygon fill="white" stroke="black" points="200.5,-50 200.5,-69 235.5,-69 235.5,-50 200.5,-50"/>
<text text-anchor="middle" x="218" y="-57" font-family="Helvetica,sans-Serif" font-size="10.00">md5</text>
</a>
</g>
</g>
<!-- Node1&#45;&gt;Node2 -->
<g id="edge1" class="edge">
<title>Node1&#45;&gt;Node2</title>
<path fill="none" stroke="midnightblue" d="M129.31,-46.77C150.67,-49.87 173.33,-53.16 190.26,-55.62"/>
<polygon fill="midnightblue" stroke="midnightblue" points="190.09,-59.13 200.49,-57.1 191.1,-52.2 190.09,-59.13"/>
</g>
<!-- Node3 -->
<g id="node3" class="node">
<title>Node3</title>
<g id="a_node3"><a xlink:href="classappsign_1_1_semaphore.html#a04d9259eb2fa93e9a64eaf78290f023a" target="_top" xlink:title="Notify the semaphore (and the worker thread), increases the notifications count by 1.">
<polygon fill="white" stroke="black" points="165,-0.5 165,-30.5 271,-30.5 271,-0.5 165,-0.5"/>
<text text-anchor="start" x="173" y="-18.5" font-family="Helvetica,sans-Serif" font-size="10.00">appsign::Semaphore</text>
<text text-anchor="middle" x="218" y="-7.5" font-family="Helvetica,sans-Serif" font-size="10.00">::notify</text>
</a>
</g>
</g>
<!-- Node1&#45;&gt;Node3 -->
<g id="edge3" class="edge">
<title>Node1&#45;&gt;Node3</title>
<path fill="none" stroke="midnightblue" d="M129.31,-28.23C137.7,-27.01 146.3,-25.77 154.67,-24.55"/>
<polygon fill="midnightblue" stroke="midnightblue" points="155.34,-27.99 164.73,-23.09 154.34,-21.06 155.34,-27.99"/>
</g>
<!-- Node2&#45;&gt;Node2 -->
<g id="edge2" class="edge">
<title>Node2&#45;&gt;Node2</title>
<path fill="none" stroke="midnightblue" d="M200.36,-65.69C181.39,-75.3 187.27,-87.5 218,-87.5 242.49,-87.5 251.19,-79.75 244.12,-71.74"/>
<polygon fill="midnightblue" stroke="midnightblue" points="245.82,-68.65 235.64,-65.69 241.75,-74.35 245.82,-68.65"/>
</g>
</g>
</svg>
