<?xml version="1.0" encoding="UTF-8" standalone="no"?>
<!DOCTYPE svg PUBLIC "-//W3C//DTD SVG 1.1//EN"
 "http://www.w3.org/Graphics/SVG/1.1/DTD/svg11.dtd">
<!-- Generated by graphviz version 2.44.1 (20200629.0846)
 -->
<!-- Title: appsign::ThreadPool::addJob Pages: 1 -->
<svg width="279pt" height="88pt"
 viewBox="0.00 0.00 279.00 88.00" xmlns="http://www.w3.org/2000/svg" xmlns:xlink="http://www.w3.org/1999/xlink">
<g id="graph0" class="graph" transform="scale(1 1) rotate(0) translate(4 84)">
<title>appsign::ThreadPool::addJob</title>
<polygon fill="white" stroke="transparent" points="-4,4 -4,-84 275,-84 275,4 -4,4"/>
<!-- Node1 -->
<g id="node1" class="node">
<title>Node1</title>
<g id="a_node1"><a xlink:title=" ">
<polygon fill="#bfbfbf" stroke="black" points="165,-24.5 165,-54.5 271,-54.5 271,-24.5 165,-24.5"/>
<text text-anchor="start" x="173" y="-42.5" font-family="Helvetica,sans-Serif" font-size="10.00">appsign::ThreadPool</text>
<text text-anchor="middle" x="218" y="-31.5" font-family="Helvetica,sans-Serif" font-size="10.00">::addJob</text>
</a>
</g>
</g>
<!-- Node2 -->
<g id="node2" class="node">
<title>Node2</title>
<g id="a_node2"><a xlink:href="classappsign_1_1_thread_pool.html#a4eaec61166610309d341041a12ae57a4" target="_top" xlink:title=" ">
<polygon fill="white" stroke="black" points="11.5,-49.5 11.5,-79.5 117.5,-79.5 117.5,-49.5 11.5,-49.5"/>
<text text-anchor="start" x="19.5" y="-67.5" font-family="Helvetica,sans-Serif" font-size="10.00">appsign::ThreadPool</text>
<text text-anchor="middle" x="64.5" y="-56.5" font-family="Helvetica,sans-Serif" font-size="10.00">::addJobs</text>
</a>
</g>
</g>
<!-- Node1&#45;&gt;Node2 -->
<g id="edge1" class="edge">
<title>Node1&#45;&gt;Node2</title>
<path fill="none" stroke="midnightblue" d="M154.69,-49.78C142.41,-51.81 129.64,-53.92 117.73,-55.88"/>
<polygon fill="midnightblue" stroke="midnightblue" points="155.57,-53.19 164.86,-48.1 154.43,-46.28 155.57,-53.19"/>
</g>
<!-- Node3 -->
<g id="node3" class="node">
<title>Node3</title>
<g id="a_node3"><a xlink:href="classappsign_1_1_job_get_signature.html#adc4aff329f78d4740603c3ea842f59dd" target="_top" xlink:title="Determines if the continuation is needed and pushes the next job to the pool thread,...">
<polygon fill="white" stroke="black" points="0,-0.5 0,-30.5 129,-30.5 129,-0.5 0,-0.5"/>
<text text-anchor="start" x="8" y="-18.5" font-family="Helvetica,sans-Serif" font-size="10.00">appsign::JobGetSignature</text>
<text text-anchor="middle" x="64.5" y="-7.5" font-family="Helvetica,sans-Serif" font-size="10.00">::onJobDone</text>
</a>
</g>
</g>
<!-- Node1&#45;&gt;Node3 -->
<g id="edge2" class="edge">
<title>Node1&#45;&gt;Node3</title>
<path fill="none" stroke="midnightblue" d="M154.74,-29.64C146.33,-28.31 137.69,-26.94 129.25,-25.6"/>
<polygon fill="midnightblue" stroke="midnightblue" points="154.44,-33.13 164.86,-31.24 155.53,-26.22 154.44,-33.13"/>
</g>
</g>
</svg>
