<?xml version="1.0" encoding="UTF-8" standalone="no"?>
<!DOCTYPE svg PUBLIC "-//W3C//DTD SVG 1.1//EN"
 "http://www.w3.org/Graphics/SVG/1.1/DTD/svg11.dtd">
<!-- Generated by graphviz version 2.44.1 (20200629.0846)
 -->
<!-- Title: MD5::FF Pages: 1 -->
<svg width="187pt" height="66pt"
 viewBox="0.00 0.00 187.00 66.00" xmlns="http://www.w3.org/2000/svg" xmlns:xlink="http://www.w3.org/1999/xlink">
<g id="graph0" class="graph" transform="scale(1 1) rotate(0) translate(4 62)">
<title>MD5::FF</title>
<polygon fill="white" stroke="transparent" points="-4,4 -4,-62 183,-62 183,4 -4,4"/>
<!-- Node1 -->
<g id="node1" class="node">
<title>Node1</title>
<g id="a_node1"><a xlink:title=" ">
<polygon fill="#bfbfbf" stroke="black" points="0,-19.5 0,-38.5 56,-38.5 56,-19.5 0,-19.5"/>
<text text-anchor="middle" x="28" y="-26.5" font-family="Helvetica,sans-Serif" font-size="10.00">MD5::FF</text>
</a>
</g>
</g>
<!-- Node2 -->
<g id="node2" class="node">
<title>Node2</title>
<g id="a_node2"><a xlink:href="class_m_d5.html#a95b7adf4602b92e84ca5f34084859e79" target="_top" xlink:title=" ">
<polygon fill="white" stroke="black" points="110.5,-38.5 110.5,-57.5 160.5,-57.5 160.5,-38.5 110.5,-38.5"/>
<text text-anchor="middle" x="135.5" y="-45.5" font-family="Helvetica,sans-Serif" font-size="10.00">MD5::F</text>
</a>
</g>
</g>
<!-- Node1&#45;&gt;Node2 -->
<g id="edge1" class="edge">
<title>Node1&#45;&gt;Node2</title>
<path fill="none" stroke="midnightblue" d="M56.17,-33.89C69.63,-36.32 86.02,-39.27 100.33,-41.85"/>
<polygon fill="midnightblue" stroke="midnightblue" points="99.84,-45.31 110.3,-43.64 101.08,-38.43 99.84,-45.31"/>
</g>
<!-- Node3 -->
<g id="node3" class="node">
<title>Node3</title>
<g id="a_node3"><a xlink:href="class_m_d5.html#a97ece3d8221e3c9c994aa9d13001b1d9" target="_top" xlink:title="rotate_left rotates x left n bits.">
<polygon fill="white" stroke="black" points="92,-0.5 92,-19.5 179,-19.5 179,-0.5 92,-0.5"/>
<text text-anchor="middle" x="135.5" y="-7.5" font-family="Helvetica,sans-Serif" font-size="10.00">MD5::rotate_left</text>
</a>
</g>
</g>
<!-- Node1&#45;&gt;Node3 -->
<g id="edge2" class="edge">
<title>Node1&#45;&gt;Node3</title>
<path fill="none" stroke="midnightblue" d="M56.17,-24.11C64.06,-22.69 72.97,-21.08 81.87,-19.48"/>
<polygon fill="midnightblue" stroke="midnightblue" points="82.64,-22.9 91.86,-17.68 81.4,-16.01 82.64,-22.9"/>
</g>
</g>
</svg>
