<?xml version="1.0" encoding="UTF-8" standalone="no"?>
<!DOCTYPE svg PUBLIC "-//W3C//DTD SVG 1.1//EN"
 "http://www.w3.org/Graphics/SVG/1.1/DTD/svg11.dtd">
<!-- Generated by graphviz version 2.44.1 (20200629.0846)
 -->
<!-- Title: MD5::F Pages: 1 -->
<svg width="271pt" height="28pt"
 viewBox="0.00 0.00 271.00 28.00" xmlns="http://www.w3.org/2000/svg" xmlns:xlink="http://www.w3.org/1999/xlink">
<g id="graph0" class="graph" transform="scale(1 1) rotate(0) translate(4 24)">
<title>MD5::F</title>
<polygon fill="white" stroke="transparent" points="-4,4 -4,-24 267,-24 267,4 -4,4"/>
<!-- Node1 -->
<g id="node1" class="node">
<title>Node1</title>
<g id="a_node1"><a xlink:title=" ">
<polygon fill="#bfbfbf" stroke="black" points="213,-0.5 213,-19.5 263,-19.5 263,-0.5 213,-0.5"/>
<text text-anchor="middle" x="238" y="-7.5" font-family="Helvetica,sans-Serif" font-size="10.00">MD5::F</text>
</a>
</g>
</g>
<!-- Node2 -->
<g id="node2" class="node">
<title>Node2</title>
<g id="a_node2"><a xlink:href="class_m_d5.html#a31479b157441ace2dbc2ae0edd0d2e38" target="_top" xlink:title=" ">
<polygon fill="white" stroke="black" points="121,-0.5 121,-19.5 177,-19.5 177,-0.5 121,-0.5"/>
<text text-anchor="middle" x="149" y="-7.5" font-family="Helvetica,sans-Serif" font-size="10.00">MD5::FF</text>
</a>
</g>
</g>
<!-- Node1&#45;&gt;Node2 -->
<g id="edge1" class="edge">
<title>Node1&#45;&gt;Node2</title>
<path fill="none" stroke="midnightblue" d="M202.74,-10C194.25,-10 185.27,-10 177.17,-10"/>
<polygon fill="midnightblue" stroke="midnightblue" points="202.77,-13.5 212.77,-10 202.77,-6.5 202.77,-13.5"/>
</g>
<!-- Node3 -->
<g id="node3" class="node">
<title>Node3</title>
<g id="a_node3"><a xlink:href="class_m_d5.html#a9d569ab2a3e564793e116f774a3ad269" target="_top" xlink:title="apply MD5 algo on a block">
<polygon fill="white" stroke="black" points="0,-0.5 0,-19.5 85,-19.5 85,-0.5 0,-0.5"/>
<text text-anchor="middle" x="42.5" y="-7.5" font-family="Helvetica,sans-Serif" font-size="10.00">MD5::transform</text>
</a>
</g>
</g>
<!-- Node2&#45;&gt;Node3 -->
<g id="edge2" class="edge">
<title>Node2&#45;&gt;Node3</title>
<path fill="none" stroke="midnightblue" d="M110.69,-10C102.41,-10 93.58,-10 85.14,-10"/>
<polygon fill="midnightblue" stroke="midnightblue" points="110.82,-13.5 120.82,-10 110.82,-6.5 110.82,-13.5"/>
</g>
</g>
</svg>
