<?xml version="1.0" encoding="UTF-8" standalone="no"?>
<!DOCTYPE svg PUBLIC "-//W3C//DTD SVG 1.1//EN"
 "http://www.w3.org/Graphics/SVG/1.1/DTD/svg11.dtd">
<!-- Generated by graphviz version 2.44.1 (20200629.0846)
 -->
<!-- Title: appsign::Semaphore::notify Pages: 1 -->
<svg width="552pt" height="88pt"
 viewBox="0.00 0.00 552.00 88.00" xmlns="http://www.w3.org/2000/svg" xmlns:xlink="http://www.w3.org/1999/xlink">
<g id="graph0" class="graph" transform="scale(1 1) rotate(0) translate(4 84)">
<title>appsign::Semaphore::notify</title>
<polygon fill="white" stroke="transparent" points="-4,4 -4,-84 548,-84 548,4 -4,4"/>
<!-- Node1 -->
<g id="node1" class="node">
<title>Node1</title>
<g id="a_node1"><a xlink:title="Notify the semaphore (and the worker thread), increases the notifications count by 1.">
<polygon fill="#bfbfbf" stroke="black" points="438,-24.5 438,-54.5 544,-54.5 544,-24.5 438,-24.5"/>
<text text-anchor="start" x="446" y="-42.5" font-family="Helvetica,sans-Serif" font-size="10.00">appsign::Semaphore</text>
<text text-anchor="middle" x="491" y="-31.5" font-family="Helvetica,sans-Serif" font-size="10.00">::notify</text>
</a>
</g>
</g>
<!-- Node2 -->
<g id="node2" class="node">
<title>Node2</title>
<g id="a_node2"><a xlink:href="classappsign_1_1_job_get_signature.html#a671808d075148ae0621dfee1aed9932d" target="_top" xlink:title="Reads from the file and generates hash, writes to the buffer map.">
<polygon fill="white" stroke="black" points="264.5,-49.5 264.5,-79.5 393.5,-79.5 393.5,-49.5 264.5,-49.5"/>
<text text-anchor="start" x="272.5" y="-67.5" font-family="Helvetica,sans-Serif" font-size="10.00">appsign::JobGetSignature</text>
<text text-anchor="middle" x="329" y="-56.5" font-family="Helvetica,sans-Serif" font-size="10.00">::doJob</text>
</a>
</g>
</g>
<!-- Node1&#45;&gt;Node2 -->
<g id="edge1" class="edge">
<title>Node1&#45;&gt;Node2</title>
<path fill="none" stroke="midnightblue" d="M427.55,-49.26C416.43,-51 404.83,-52.81 393.67,-54.55"/>
<polygon fill="midnightblue" stroke="midnightblue" points="428.27,-52.69 437.61,-47.69 427.19,-45.77 428.27,-52.69"/>
</g>
<!-- Node3 -->
<g id="node3" class="node">
<title>Node3</title>
<g id="a_node3"><a xlink:href="classappsign_1_1_file_signature_creator.html#afc4732430aec71feec1e5e454f273b2e" target="_top" xlink:title=" ">
<polygon fill="white" stroke="black" points="256,-0.5 256,-30.5 402,-30.5 402,-0.5 256,-0.5"/>
<text text-anchor="start" x="264" y="-18.5" font-family="Helvetica,sans-Serif" font-size="10.00">appsign::FileSignatureCreator</text>
<text text-anchor="middle" x="329" y="-7.5" font-family="Helvetica,sans-Serif" font-size="10.00">::join_output_worker_thread</text>
</a>
</g>
</g>
<!-- Node1&#45;&gt;Node3 -->
<g id="edge2" class="edge">
<title>Node1&#45;&gt;Node3</title>
<path fill="none" stroke="midnightblue" d="M427.63,-30.14C419.31,-28.9 410.73,-27.61 402.26,-26.34"/>
<polygon fill="midnightblue" stroke="midnightblue" points="427.2,-33.62 437.61,-31.64 428.24,-26.7 427.2,-33.62"/>
</g>
<!-- Node4 -->
<g id="node4" class="node">
<title>Node4</title>
<g id="a_node4"><a xlink:href="classappsign_1_1_file_signature_creator.html#ad34df2f0d3fd34a9fd997297fbc109a2" target="_top" xlink:title=" ">
<polygon fill="white" stroke="black" points="74,-0.5 74,-30.5 220,-30.5 220,-0.5 74,-0.5"/>
<text text-anchor="start" x="82" y="-18.5" font-family="Helvetica,sans-Serif" font-size="10.00">appsign::FileSignatureCreator</text>
<text text-anchor="middle" x="147" y="-7.5" font-family="Helvetica,sans-Serif" font-size="10.00">::create_file_signature</text>
</a>
</g>
</g>
<!-- Node3&#45;&gt;Node4 -->
<g id="edge3" class="edge">
<title>Node3&#45;&gt;Node4</title>
<path fill="none" stroke="midnightblue" d="M245.56,-15.5C237.09,-15.5 228.54,-15.5 220.19,-15.5"/>
<polygon fill="midnightblue" stroke="midnightblue" points="245.82,-19 255.82,-15.5 245.82,-12 245.82,-19"/>
</g>
<!-- Node5 -->
<g id="node5" class="node">
<title>Node5</title>
<g id="a_node5"><a xlink:href="main_8cpp.html#a3c04138a5bfe5d72780bb7e82a18e627" target="_top" xlink:title=" ">
<polygon fill="white" stroke="black" points="0,-6 0,-25 38,-25 38,-6 0,-6"/>
<text text-anchor="middle" x="19" y="-13" font-family="Helvetica,sans-Serif" font-size="10.00">main</text>
</a>
</g>
</g>
<!-- Node4&#45;&gt;Node5 -->
<g id="edge4" class="edge">
<title>Node4&#45;&gt;Node5</title>
<path fill="none" stroke="midnightblue" d="M63.74,-15.5C54.28,-15.5 45.45,-15.5 38.25,-15.5"/>
<polygon fill="midnightblue" stroke="midnightblue" points="63.8,-19 73.8,-15.5 63.8,-12 63.8,-19"/>
</g>
</g>
</svg>
