<?xml version="1.0" encoding="UTF-8" standalone="no"?>
<!DOCTYPE svg PUBLIC "-//W3C//DTD SVG 1.1//EN"
 "http://www.w3.org/Graphics/SVG/1.1/DTD/svg11.dtd">
<!-- Generated by graphviz version 2.44.1 (20200629.0846)
 -->
<!-- Title: MD5::transform Pages: 1 -->
<svg width="327pt" height="199pt"
 viewBox="0.00 0.00 327.00 199.00" xmlns="http://www.w3.org/2000/svg" xmlns:xlink="http://www.w3.org/1999/xlink">
<g id="graph0" class="graph" transform="scale(1 1) rotate(0) translate(4 195)">
<title>MD5::transform</title>
<polygon fill="white" stroke="transparent" points="-4,4 -4,-195 323,-195 323,4 -4,4"/>
<!-- Node1 -->
<g id="node1" class="node">
<title>Node1</title>
<g id="a_node1"><a xlink:title="apply MD5 algo on a block">
<polygon fill="#bfbfbf" stroke="black" points="0,-95.5 0,-114.5 85,-114.5 85,-95.5 0,-95.5"/>
<text text-anchor="middle" x="42.5" y="-102.5" font-family="Helvetica,sans-Serif" font-size="10.00">MD5::transform</text>
</a>
</g>
</g>
<!-- Node2 -->
<g id="node2" class="node">
<title>Node2</title>
<g id="a_node2"><a xlink:href="class_m_d5.html#a7eef3463c43a2cdfb56a0261b640f873" target="_top" xlink:title="decodes input (unsigned char) into output (uint4). Assumes len is a multiple of 4.">
<polygon fill="white" stroke="black" points="121,-171.5 121,-190.5 196,-190.5 196,-171.5 121,-171.5"/>
<text text-anchor="middle" x="158.5" y="-178.5" font-family="Helvetica,sans-Serif" font-size="10.00">MD5::decode</text>
</a>
</g>
</g>
<!-- Node1&#45;&gt;Node2 -->
<g id="edge1" class="edge">
<title>Node1&#45;&gt;Node2</title>
<path fill="none" stroke="midnightblue" d="M55.44,-114.68C70.32,-126.54 96.76,-146.9 121,-162 123.5,-163.56 126.14,-165.11 128.82,-166.61"/>
<polygon fill="midnightblue" stroke="midnightblue" points="127.4,-169.82 137.87,-171.49 130.72,-163.66 127.4,-169.82"/>
</g>
<!-- Node3 -->
<g id="node3" class="node">
<title>Node3</title>
<g id="a_node3"><a xlink:href="class_m_d5.html#a31479b157441ace2dbc2ae0edd0d2e38" target="_top" xlink:title=" ">
<polygon fill="white" stroke="black" points="130.5,-133.5 130.5,-152.5 186.5,-152.5 186.5,-133.5 130.5,-133.5"/>
<text text-anchor="middle" x="158.5" y="-140.5" font-family="Helvetica,sans-Serif" font-size="10.00">MD5::FF</text>
</a>
</g>
</g>
<!-- Node1&#45;&gt;Node3 -->
<g id="edge2" class="edge">
<title>Node1&#45;&gt;Node3</title>
<path fill="none" stroke="midnightblue" d="M72.27,-114.59C86.88,-119.46 104.8,-125.43 120.43,-130.64"/>
<polygon fill="midnightblue" stroke="midnightblue" points="119.72,-134.1 130.31,-133.94 121.93,-127.45 119.72,-134.1"/>
</g>
<!-- Node6 -->
<g id="node6" class="node">
<title>Node6</title>
<g id="a_node6"><a xlink:href="class_m_d5.html#a8ebdbe52608e522516d1759a31753212" target="_top" xlink:title=" ">
<polygon fill="white" stroke="black" points="129,-95.5 129,-114.5 188,-114.5 188,-95.5 129,-95.5"/>
<text text-anchor="middle" x="158.5" y="-102.5" font-family="Helvetica,sans-Serif" font-size="10.00">MD5::GG</text>
</a>
</g>
</g>
<!-- Node1&#45;&gt;Node6 -->
<g id="edge5" class="edge">
<title>Node1&#45;&gt;Node6</title>
<path fill="none" stroke="midnightblue" d="M85.3,-105C96.17,-105 107.83,-105 118.54,-105"/>
<polygon fill="midnightblue" stroke="midnightblue" points="118.88,-108.5 128.88,-105 118.88,-101.5 118.88,-108.5"/>
</g>
<!-- Node8 -->
<g id="node8" class="node">
<title>Node8</title>
<g id="a_node8"><a xlink:href="class_m_d5.html#aaad039caf0b33abf1bf3f3589166543c" target="_top" xlink:title=" ">
<polygon fill="white" stroke="black" points="129,-57.5 129,-76.5 188,-76.5 188,-57.5 129,-57.5"/>
<text text-anchor="middle" x="158.5" y="-64.5" font-family="Helvetica,sans-Serif" font-size="10.00">MD5::HH</text>
</a>
</g>
</g>
<!-- Node1&#45;&gt;Node8 -->
<g id="edge8" class="edge">
<title>Node1&#45;&gt;Node8</title>
<path fill="none" stroke="midnightblue" d="M72.27,-95.41C86.44,-90.69 103.74,-84.92 119.03,-79.82"/>
<polygon fill="midnightblue" stroke="midnightblue" points="120.36,-83.07 128.74,-76.59 118.15,-76.43 120.36,-83.07"/>
</g>
<!-- Node10 -->
<g id="node10" class="node">
<title>Node10</title>
<g id="a_node10"><a xlink:href="class_m_d5.html#a7af0184654644964ecdb57b1203e5ec7" target="_top" xlink:title=" ">
<polygon fill="white" stroke="black" points="133.5,-19.5 133.5,-38.5 183.5,-38.5 183.5,-19.5 133.5,-19.5"/>
<text text-anchor="middle" x="158.5" y="-26.5" font-family="Helvetica,sans-Serif" font-size="10.00">MD5::II</text>
</a>
</g>
</g>
<!-- Node1&#45;&gt;Node10 -->
<g id="edge11" class="edge">
<title>Node1&#45;&gt;Node10</title>
<path fill="none" stroke="midnightblue" d="M55.44,-95.32C70.32,-83.46 96.76,-63.1 121,-48 123.5,-46.44 126.14,-44.89 128.82,-43.39"/>
<polygon fill="midnightblue" stroke="midnightblue" points="130.72,-46.34 137.87,-38.51 127.4,-40.18 130.72,-46.34"/>
</g>
<!-- Node4 -->
<g id="node4" class="node">
<title>Node4</title>
<g id="a_node4"><a xlink:href="class_m_d5.html#a95b7adf4602b92e84ca5f34084859e79" target="_top" xlink:title=" ">
<polygon fill="white" stroke="black" points="250.5,-152.5 250.5,-171.5 300.5,-171.5 300.5,-152.5 250.5,-152.5"/>
<text text-anchor="middle" x="275.5" y="-159.5" font-family="Helvetica,sans-Serif" font-size="10.00">MD5::F</text>
</a>
</g>
</g>
<!-- Node3&#45;&gt;Node4 -->
<g id="edge3" class="edge">
<title>Node3&#45;&gt;Node4</title>
<path fill="none" stroke="midnightblue" d="M186.75,-147.5C202.7,-150.14 223,-153.49 240.05,-156.31"/>
<polygon fill="midnightblue" stroke="midnightblue" points="239.74,-159.8 250.18,-157.98 240.88,-152.9 239.74,-159.8"/>
</g>
<!-- Node5 -->
<g id="node5" class="node">
<title>Node5</title>
<g id="a_node5"><a xlink:href="class_m_d5.html#a97ece3d8221e3c9c994aa9d13001b1d9" target="_top" xlink:title="rotate_left rotates x left n bits.">
<polygon fill="white" stroke="black" points="232,-76.5 232,-95.5 319,-95.5 319,-76.5 232,-76.5"/>
<text text-anchor="middle" x="275.5" y="-83.5" font-family="Helvetica,sans-Serif" font-size="10.00">MD5::rotate_left</text>
</a>
</g>
</g>
<!-- Node3&#45;&gt;Node5 -->
<g id="edge4" class="edge">
<title>Node3&#45;&gt;Node5</title>
<path fill="none" stroke="midnightblue" d="M178.08,-133.35C183.83,-130.36 190.18,-127.05 196,-124 212.02,-115.6 215.73,-112.92 232,-105 235.58,-103.26 239.35,-101.49 243.11,-99.76"/>
<polygon fill="midnightblue" stroke="midnightblue" points="244.65,-102.9 252.32,-95.59 241.76,-96.52 244.65,-102.9"/>
</g>
<!-- Node6&#45;&gt;Node5 -->
<g id="edge7" class="edge">
<title>Node6&#45;&gt;Node5</title>
<path fill="none" stroke="midnightblue" d="M188.22,-100.25C198.41,-98.57 210.22,-96.62 221.78,-94.71"/>
<polygon fill="midnightblue" stroke="midnightblue" points="222.52,-98.14 231.81,-93.05 221.38,-91.23 222.52,-98.14"/>
</g>
<!-- Node7 -->
<g id="node7" class="node">
<title>Node7</title>
<g id="a_node7"><a xlink:href="class_m_d5.html#afbc3ab3591fca4e780f647dac3952bc8" target="_top" xlink:title=" ">
<polygon fill="white" stroke="black" points="250,-114.5 250,-133.5 301,-133.5 301,-114.5 250,-114.5"/>
<text text-anchor="middle" x="275.5" y="-121.5" font-family="Helvetica,sans-Serif" font-size="10.00">MD5::G</text>
</a>
</g>
</g>
<!-- Node6&#45;&gt;Node7 -->
<g id="edge6" class="edge">
<title>Node6&#45;&gt;Node7</title>
<path fill="none" stroke="midnightblue" d="M188.22,-109.75C203.72,-112.31 222.98,-115.49 239.37,-118.2"/>
<polygon fill="midnightblue" stroke="midnightblue" points="239.21,-121.72 249.65,-119.89 240.36,-114.81 239.21,-121.72"/>
</g>
<!-- Node8&#45;&gt;Node5 -->
<g id="edge10" class="edge">
<title>Node8&#45;&gt;Node5</title>
<path fill="none" stroke="midnightblue" d="M188.22,-71.75C198.41,-73.43 210.22,-75.38 221.78,-77.29"/>
<polygon fill="midnightblue" stroke="midnightblue" points="221.38,-80.77 231.81,-78.95 222.52,-73.86 221.38,-80.77"/>
</g>
<!-- Node9 -->
<g id="node9" class="node">
<title>Node9</title>
<g id="a_node9"><a xlink:href="class_m_d5.html#a59392e8552045b37628a48497ede9cf0" target="_top" xlink:title=" ">
<polygon fill="white" stroke="black" points="250,-38.5 250,-57.5 301,-57.5 301,-38.5 250,-38.5"/>
<text text-anchor="middle" x="275.5" y="-45.5" font-family="Helvetica,sans-Serif" font-size="10.00">MD5::H</text>
</a>
</g>
</g>
<!-- Node8&#45;&gt;Node9 -->
<g id="edge9" class="edge">
<title>Node8&#45;&gt;Node9</title>
<path fill="none" stroke="midnightblue" d="M188.22,-62.25C203.72,-59.69 222.98,-56.51 239.37,-53.8"/>
<polygon fill="midnightblue" stroke="midnightblue" points="240.36,-57.19 249.65,-52.11 239.21,-50.28 240.36,-57.19"/>
</g>
<!-- Node10&#45;&gt;Node5 -->
<g id="edge13" class="edge">
<title>Node10&#45;&gt;Node5</title>
<path fill="none" stroke="midnightblue" d="M178.08,-38.65C183.83,-41.64 190.18,-44.95 196,-48 212.02,-56.4 215.73,-59.08 232,-67 235.58,-68.74 239.35,-70.51 243.11,-72.24"/>
<polygon fill="midnightblue" stroke="midnightblue" points="241.76,-75.48 252.32,-76.41 244.65,-69.1 241.76,-75.48"/>
</g>
<!-- Node11 -->
<g id="node11" class="node">
<title>Node11</title>
<g id="a_node11"><a xlink:href="class_m_d5.html#ad2c1682834e38219894728830e3996c3" target="_top" xlink:title=" ">
<polygon fill="white" stroke="black" points="252,-0.5 252,-19.5 299,-19.5 299,-0.5 252,-0.5"/>
<text text-anchor="middle" x="275.5" y="-7.5" font-family="Helvetica,sans-Serif" font-size="10.00">MD5::I</text>
</a>
</g>
</g>
<!-- Node10&#45;&gt;Node11 -->
<g id="edge12" class="edge">
<title>Node10&#45;&gt;Node11</title>
<path fill="none" stroke="midnightblue" d="M183.61,-25.02C200.53,-22.22 223.37,-18.45 241.91,-15.38"/>
<polygon fill="midnightblue" stroke="midnightblue" points="242.69,-18.8 251.99,-13.72 241.55,-11.9 242.69,-18.8"/>
</g>
</g>
</svg>
