<?xml version="1.0" encoding="UTF-8" standalone="no"?>
<!DOCTYPE svg PUBLIC "-//W3C//DTD SVG 1.1//EN"
 "http://www.w3.org/Graphics/SVG/1.1/DTD/svg11.dtd">
<!-- Generated by graphviz version 2.44.1 (20200629.0846)
 -->
<!-- Title: MD5::MD5 Pages: 1 -->
<svg width="294pt" height="104pt"
 viewBox="0.00 0.00 294.00 104.00" xmlns="http://www.w3.org/2000/svg" xmlns:xlink="http://www.w3.org/1999/xlink">
<g id="graph0" class="graph" transform="scale(1 1) rotate(0) translate(4 100)">
<title>MD5::MD5</title>
<polygon fill="white" stroke="transparent" points="-4,4 -4,-100 290,-100 290,4 -4,4"/>
<!-- Node1 -->
<g id="node1" class="node">
<title>Node1</title>
<g id="a_node1"><a xlink:title=" ">
<polygon fill="#bfbfbf" stroke="black" points="0,-38.5 0,-57.5 65,-57.5 65,-38.5 0,-38.5"/>
<text text-anchor="middle" x="32.5" y="-45.5" font-family="Helvetica,sans-Serif" font-size="10.00">MD5::MD5</text>
</a>
</g>
</g>
<!-- Node2 -->
<g id="node2" class="node">
<title>Node2</title>
<g id="a_node2"><a xlink:href="class_m_d5.html#a10f607494a3f2e3e515fc4b99d1a06cc" target="_top" xlink:title=" ">
<polygon fill="white" stroke="black" points="101,-76.5 101,-95.5 175,-95.5 175,-76.5 101,-76.5"/>
<text text-anchor="middle" x="138" y="-83.5" font-family="Helvetica,sans-Serif" font-size="10.00">MD5::finalize</text>
</a>
</g>
</g>
<!-- Node1&#45;&gt;Node2 -->
<g id="edge1" class="edge">
<title>Node1&#45;&gt;Node2</title>
<path fill="none" stroke="midnightblue" d="M59.62,-57.59C72.24,-62.22 87.59,-67.86 101.28,-72.89"/>
<polygon fill="midnightblue" stroke="midnightblue" points="100.3,-76.25 110.89,-76.41 102.71,-69.68 100.3,-76.25"/>
</g>
<!-- Node4 -->
<g id="node4" class="node">
<title>Node4</title>
<g id="a_node4"><a xlink:href="class_m_d5.html#ac5ddf6cd8f940422396d321ea90ed045" target="_top" xlink:title=" ">
<polygon fill="white" stroke="black" points="212,-38.5 212,-57.5 285,-57.5 285,-38.5 212,-38.5"/>
<text text-anchor="middle" x="248.5" y="-45.5" font-family="Helvetica,sans-Serif" font-size="10.00">MD5::update</text>
</a>
</g>
</g>
<!-- Node1&#45;&gt;Node4 -->
<g id="edge5" class="edge">
<title>Node1&#45;&gt;Node4</title>
<path fill="none" stroke="midnightblue" d="M65.08,-48C101.2,-48 160.65,-48 201.82,-48"/>
<polygon fill="midnightblue" stroke="midnightblue" points="201.87,-51.5 211.87,-48 201.87,-44.5 201.87,-51.5"/>
</g>
<!-- Node5 -->
<g id="node5" class="node">
<title>Node5</title>
<g id="a_node5"><a xlink:href="class_m_d5.html#a65ddaecdd0bd0b09043a2f3b2601bc2e" target="_top" xlink:title=" ">
<polygon fill="white" stroke="black" points="110,-0.5 110,-19.5 166,-19.5 166,-0.5 110,-0.5"/>
<text text-anchor="middle" x="138" y="-7.5" font-family="Helvetica,sans-Serif" font-size="10.00">MD5::init</text>
</a>
</g>
</g>
<!-- Node1&#45;&gt;Node5 -->
<g id="edge4" class="edge">
<title>Node1&#45;&gt;Node5</title>
<path fill="none" stroke="midnightblue" d="M59.62,-38.41C72.24,-33.78 87.59,-28.14 101.28,-23.11"/>
<polygon fill="midnightblue" stroke="midnightblue" points="102.71,-26.32 110.89,-19.59 100.3,-19.75 102.71,-26.32"/>
</g>
<!-- Node3 -->
<g id="node3" class="node">
<title>Node3</title>
<g id="a_node3"><a xlink:href="class_m_d5.html#a52603a1b589b2863cad4caae7f259b7e" target="_top" xlink:title=" ">
<polygon fill="white" stroke="black" points="211,-76.5 211,-95.5 286,-95.5 286,-76.5 211,-76.5"/>
<text text-anchor="middle" x="248.5" y="-83.5" font-family="Helvetica,sans-Serif" font-size="10.00">MD5::encode</text>
</a>
</g>
</g>
<!-- Node2&#45;&gt;Node3 -->
<g id="edge2" class="edge">
<title>Node2&#45;&gt;Node3</title>
<path fill="none" stroke="midnightblue" d="M175.13,-86C183.28,-86 192.05,-86 200.57,-86"/>
<polygon fill="midnightblue" stroke="midnightblue" points="200.79,-89.5 210.79,-86 200.79,-82.5 200.79,-89.5"/>
</g>
<!-- Node2&#45;&gt;Node4 -->
<g id="edge3" class="edge">
<title>Node2&#45;&gt;Node4</title>
<path fill="none" stroke="midnightblue" d="M166.38,-76.41C179.74,-71.73 196.02,-66.03 210.47,-60.97"/>
<polygon fill="midnightblue" stroke="midnightblue" points="211.85,-64.19 220.13,-57.59 209.53,-57.59 211.85,-64.19"/>
</g>
</g>
</svg>
