<?xml version="1.0" encoding="UTF-8" standalone="no"?>
<!DOCTYPE svg PUBLIC "-//W3C//DTD SVG 1.1//EN"
 "http://www.w3.org/Graphics/SVG/1.1/DTD/svg11.dtd">
<!-- Generated by graphviz version 2.44.1 (20200629.0846)
 -->
<!-- Title: MD5::rotate_left Pages: 1 -->
<svg width="311pt" height="142pt"
 viewBox="0.00 0.00 311.00 142.00" xmlns="http://www.w3.org/2000/svg" xmlns:xlink="http://www.w3.org/1999/xlink">
<g id="graph0" class="graph" transform="scale(1 1) rotate(0) translate(4 138)">
<title>MD5::rotate_left</title>
<polygon fill="white" stroke="transparent" points="-4,4 -4,-138 307,-138 307,4 -4,4"/>
<!-- Node1 -->
<g id="node1" class="node">
<title>Node1</title>
<g id="a_node1"><a xlink:title="rotate_left rotates x left n bits.">
<polygon fill="#bfbfbf" stroke="black" points="216,-57.5 216,-76.5 303,-76.5 303,-57.5 216,-57.5"/>
<text text-anchor="middle" x="259.5" y="-64.5" font-family="Helvetica,sans-Serif" font-size="10.00">MD5::rotate_left</text>
</a>
</g>
</g>
<!-- Node2 -->
<g id="node2" class="node">
<title>Node2</title>
<g id="a_node2"><a xlink:href="class_m_d5.html#a31479b157441ace2dbc2ae0edd0d2e38" target="_top" xlink:title=" ">
<polygon fill="white" stroke="black" points="122.5,-114.5 122.5,-133.5 178.5,-133.5 178.5,-114.5 122.5,-114.5"/>
<text text-anchor="middle" x="150.5" y="-121.5" font-family="Helvetica,sans-Serif" font-size="10.00">MD5::FF</text>
</a>
</g>
</g>
<!-- Node1&#45;&gt;Node2 -->
<g id="edge1" class="edge">
<title>Node1&#45;&gt;Node2</title>
<path fill="none" stroke="midnightblue" d="M231.37,-81.45C211.93,-91.81 186.3,-105.46 169.38,-114.47"/>
<polygon fill="midnightblue" stroke="midnightblue" points="233.17,-84.46 240.35,-76.67 229.88,-78.28 233.17,-84.46"/>
</g>
<!-- Node4 -->
<g id="node4" class="node">
<title>Node4</title>
<g id="a_node4"><a xlink:href="class_m_d5.html#a8ebdbe52608e522516d1759a31753212" target="_top" xlink:title=" ">
<polygon fill="white" stroke="black" points="121,-76.5 121,-95.5 180,-95.5 180,-76.5 121,-76.5"/>
<text text-anchor="middle" x="150.5" y="-83.5" font-family="Helvetica,sans-Serif" font-size="10.00">MD5::GG</text>
</a>
</g>
</g>
<!-- Node1&#45;&gt;Node4 -->
<g id="edge3" class="edge">
<title>Node1&#45;&gt;Node4</title>
<path fill="none" stroke="midnightblue" d="M205.94,-76.33C197.05,-77.91 188.13,-79.5 180.15,-80.91"/>
<polygon fill="midnightblue" stroke="midnightblue" points="206.67,-79.76 215.9,-74.56 205.45,-72.87 206.67,-79.76"/>
</g>
<!-- Node5 -->
<g id="node5" class="node">
<title>Node5</title>
<g id="a_node5"><a xlink:href="class_m_d5.html#aaad039caf0b33abf1bf3f3589166543c" target="_top" xlink:title=" ">
<polygon fill="white" stroke="black" points="121,-38.5 121,-57.5 180,-57.5 180,-38.5 121,-38.5"/>
<text text-anchor="middle" x="150.5" y="-45.5" font-family="Helvetica,sans-Serif" font-size="10.00">MD5::HH</text>
</a>
</g>
</g>
<!-- Node1&#45;&gt;Node5 -->
<g id="edge5" class="edge">
<title>Node1&#45;&gt;Node5</title>
<path fill="none" stroke="midnightblue" d="M205.94,-57.67C197.05,-56.09 188.13,-54.5 180.15,-53.09"/>
<polygon fill="midnightblue" stroke="midnightblue" points="205.45,-61.13 215.9,-59.44 206.67,-54.24 205.45,-61.13"/>
</g>
<!-- Node6 -->
<g id="node6" class="node">
<title>Node6</title>
<g id="a_node6"><a xlink:href="class_m_d5.html#a7af0184654644964ecdb57b1203e5ec7" target="_top" xlink:title=" ">
<polygon fill="white" stroke="black" points="125.5,-0.5 125.5,-19.5 175.5,-19.5 175.5,-0.5 125.5,-0.5"/>
<text text-anchor="middle" x="150.5" y="-7.5" font-family="Helvetica,sans-Serif" font-size="10.00">MD5::II</text>
</a>
</g>
</g>
<!-- Node1&#45;&gt;Node6 -->
<g id="edge7" class="edge">
<title>Node1&#45;&gt;Node6</title>
<path fill="none" stroke="midnightblue" d="M231.37,-52.55C211.93,-42.19 186.3,-28.54 169.38,-19.53"/>
<polygon fill="midnightblue" stroke="midnightblue" points="229.88,-55.72 240.35,-57.33 233.17,-49.54 229.88,-55.72"/>
</g>
<!-- Node3 -->
<g id="node3" class="node">
<title>Node3</title>
<g id="a_node3"><a xlink:href="class_m_d5.html#a9d569ab2a3e564793e116f774a3ad269" target="_top" xlink:title="apply MD5 algo on a block">
<polygon fill="white" stroke="black" points="0,-57.5 0,-76.5 85,-76.5 85,-57.5 0,-57.5"/>
<text text-anchor="middle" x="42.5" y="-64.5" font-family="Helvetica,sans-Serif" font-size="10.00">MD5::transform</text>
</a>
</g>
</g>
<!-- Node2&#45;&gt;Node3 -->
<g id="edge2" class="edge">
<title>Node2&#45;&gt;Node3</title>
<path fill="none" stroke="midnightblue" d="M122.62,-109.55C103.37,-99.19 77.98,-85.54 61.22,-76.53"/>
<polygon fill="midnightblue" stroke="midnightblue" points="121.05,-112.68 131.52,-114.33 124.37,-106.51 121.05,-112.68"/>
</g>
<!-- Node4&#45;&gt;Node3 -->
<g id="edge4" class="edge">
<title>Node4&#45;&gt;Node3</title>
<path fill="none" stroke="midnightblue" d="M110.97,-79.09C102.64,-77.6 93.8,-76.02 85.35,-74.5"/>
<polygon fill="midnightblue" stroke="midnightblue" points="110.35,-82.54 120.81,-80.86 111.59,-75.65 110.35,-82.54"/>
</g>
<!-- Node5&#45;&gt;Node3 -->
<g id="edge6" class="edge">
<title>Node5&#45;&gt;Node3</title>
<path fill="none" stroke="midnightblue" d="M110.97,-54.91C102.64,-56.4 93.8,-57.98 85.35,-59.5"/>
<polygon fill="midnightblue" stroke="midnightblue" points="111.59,-58.35 120.81,-53.14 110.35,-51.46 111.59,-58.35"/>
</g>
<!-- Node6&#45;&gt;Node3 -->
<g id="edge8" class="edge">
<title>Node6&#45;&gt;Node3</title>
<path fill="none" stroke="midnightblue" d="M122.62,-24.45C103.37,-34.81 77.98,-48.46 61.22,-57.47"/>
<polygon fill="midnightblue" stroke="midnightblue" points="124.37,-27.49 131.52,-19.67 121.05,-21.32 124.37,-27.49"/>
</g>
</g>
</svg>
