<?xml version="1.0" encoding="UTF-8" standalone="no"?>
<!DOCTYPE svg PUBLIC "-//W3C//DTD SVG 1.1//EN"
 "http://www.w3.org/Graphics/SVG/1.1/DTD/svg11.dtd">
<!-- Generated by graphviz version 2.44.1 (20200629.0846)
 -->
<!-- Title: appsign::ThreadPool::init Pages: 1 -->
<svg width="256pt" height="78pt"
 viewBox="0.00 0.00 256.00 77.50" xmlns="http://www.w3.org/2000/svg" xmlns:xlink="http://www.w3.org/1999/xlink">
<g id="graph0" class="graph" transform="scale(1 1) rotate(0) translate(4 73.5)">
<title>appsign::ThreadPool::init</title>
<polygon fill="white" stroke="transparent" points="-4,4 -4,-73.5 252,-73.5 252,4 -4,4"/>
<!-- Node1 -->
<g id="node1" class="node">
<title>Node1</title>
<g id="a_node1"><a xlink:title=" ">
<polygon fill="#bfbfbf" stroke="black" points="142,-17 142,-47 248,-47 248,-17 142,-17"/>
<text text-anchor="start" x="150" y="-35" font-family="Helvetica,sans-Serif" font-size="10.00">appsign::ThreadPool</text>
<text text-anchor="middle" x="195" y="-24" font-family="Helvetica,sans-Serif" font-size="10.00">::init</text>
</a>
</g>
</g>
<!-- Node2 -->
<g id="node2" class="node">
<title>Node2</title>
<g id="a_node2"><a xlink:href="classappsign_1_1_thread_pool.html#aa52785b739eaed7767866ecaf0a672e1" target="_top" xlink:title=" ">
<polygon fill="white" stroke="black" points="0,-39 0,-69 106,-69 106,-39 0,-39"/>
<text text-anchor="start" x="8" y="-57" font-family="Helvetica,sans-Serif" font-size="10.00">appsign::ThreadPool</text>
<text text-anchor="middle" x="53" y="-46" font-family="Helvetica,sans-Serif" font-size="10.00">::init</text>
</a>
</g>
</g>
<!-- Node1&#45;&gt;Node2 -->
<g id="edge1" class="edge">
<title>Node1&#45;&gt;Node2</title>
<path fill="none" stroke="midnightblue" d="M131.89,-41.76C123.31,-43.11 114.56,-44.48 106.17,-45.8"/>
<polygon fill="midnightblue" stroke="midnightblue" points="132.53,-45.2 141.87,-40.19 131.45,-38.29 132.53,-45.2"/>
</g>
<!-- Node3 -->
<g id="node3" class="node">
<title>Node3</title>
<g id="a_node3"><a xlink:href="main_8cpp.html#a3c04138a5bfe5d72780bb7e82a18e627" target="_top" xlink:title=" ">
<polygon fill="white" stroke="black" points="34,-0.5 34,-19.5 72,-19.5 72,-0.5 34,-0.5"/>
<text text-anchor="middle" x="53" y="-7.5" font-family="Helvetica,sans-Serif" font-size="10.00">main</text>
</a>
</g>
</g>
<!-- Node1&#45;&gt;Node3 -->
<g id="edge2" class="edge">
<title>Node1&#45;&gt;Node3</title>
<path fill="none" stroke="midnightblue" d="M131.72,-22.21C110.12,-18.82 87.53,-15.27 72.31,-12.88"/>
<polygon fill="midnightblue" stroke="midnightblue" points="131.45,-25.71 141.87,-23.81 132.53,-18.8 131.45,-25.71"/>
</g>
</g>
</svg>
