<?xml version="1.0" encoding="UTF-8" standalone="no"?>
<!DOCTYPE svg PUBLIC "-//W3C//DTD SVG 1.1//EN"
 "http://www.w3.org/Graphics/SVG/1.1/DTD/svg11.dtd">
<!-- Generated by graphviz version 2.44.1 (20200629.0846)
 -->
<!-- Title: appsign::FileSignatureCreator::create_file_signature Pages: 1 -->
<svg width="508pt" height="137pt"
 viewBox="0.00 0.00 508.00 137.00" xmlns="http://www.w3.org/2000/svg" xmlns:xlink="http://www.w3.org/1999/xlink">
<g id="graph0" class="graph" transform="scale(1 1) rotate(0) translate(4 133)">
<title>appsign::FileSignatureCreator::create_file_signature</title>
<polygon fill="white" stroke="transparent" points="-4,4 -4,-133 504,-133 504,4 -4,4"/>
<!-- Node1 -->
<g id="node1" class="node">
<title>Node1</title>
<g id="a_node1"><a xlink:title=" ">
<polygon fill="#bfbfbf" stroke="black" points="0,-49.5 0,-79.5 146,-79.5 146,-49.5 0,-49.5"/>
<text text-anchor="start" x="8" y="-67.5" font-family="Helvetica,sans-Serif" font-size="10.00">appsign::FileSignatureCreator</text>
<text text-anchor="middle" x="73" y="-56.5" font-family="Helvetica,sans-Serif" font-size="10.00">::create_file_signature</text>
</a>
</g>
</g>
<!-- Node2 -->
<g id="node2" class="node">
<title>Node2</title>
<g id="a_node2"><a xlink:href="classappsign_1_1_thread_pool.html#a74a71f7d7a6fb005bfc1685b51493da7" target="_top" xlink:title="Returns the total worker thread count.">
<polygon fill="white" stroke="black" points="217,-98.5 217,-128.5 323,-128.5 323,-98.5 217,-98.5"/>
<text text-anchor="start" x="225" y="-116.5" font-family="Helvetica,sans-Serif" font-size="10.00">appsign::ThreadPool</text>
<text text-anchor="middle" x="270" y="-105.5" font-family="Helvetica,sans-Serif" font-size="10.00">::getThreadCount</text>
</a>
</g>
</g>
<!-- Node1&#45;&gt;Node2 -->
<g id="edge1" class="edge">
<title>Node1&#45;&gt;Node2</title>
<path fill="none" stroke="midnightblue" d="M133.83,-79.53C157.05,-85.37 183.63,-92.05 207.05,-97.93"/>
<polygon fill="midnightblue" stroke="midnightblue" points="206.32,-101.36 216.87,-100.4 208.02,-94.57 206.32,-101.36"/>
</g>
<!-- Node3 -->
<g id="node3" class="node">
<title>Node3</title>
<g id="a_node3"><a xlink:href="classappsign_1_1_file_signature_creator.html#afc4732430aec71feec1e5e454f273b2e" target="_top" xlink:title=" ">
<polygon fill="white" stroke="black" points="197,-49.5 197,-79.5 343,-79.5 343,-49.5 197,-49.5"/>
<text text-anchor="start" x="205" y="-67.5" font-family="Helvetica,sans-Serif" font-size="10.00">appsign::FileSignatureCreator</text>
<text text-anchor="middle" x="270" y="-56.5" font-family="Helvetica,sans-Serif" font-size="10.00">::join_output_worker_thread</text>
</a>
</g>
</g>
<!-- Node1&#45;&gt;Node3 -->
<g id="edge2" class="edge">
<title>Node1&#45;&gt;Node3</title>
<path fill="none" stroke="midnightblue" d="M146.06,-64.5C159.28,-64.5 173.18,-64.5 186.68,-64.5"/>
<polygon fill="midnightblue" stroke="midnightblue" points="186.91,-68 196.91,-64.5 186.91,-61 186.91,-68"/>
</g>
<!-- Node5 -->
<g id="node5" class="node">
<title>Node5</title>
<g id="a_node5"><a xlink:href="classappsign_1_1_file_signature_creator.html#a8d640da7df30a7581c6a68f5dcf8cbbe" target="_top" xlink:title=" ">
<polygon fill="white" stroke="black" points="182,-0.5 182,-30.5 358,-30.5 358,-0.5 182,-0.5"/>
<text text-anchor="start" x="190" y="-18.5" font-family="Helvetica,sans-Serif" font-size="10.00">appsign::FileSignatureCreator</text>
<text text-anchor="middle" x="270" y="-7.5" font-family="Helvetica,sans-Serif" font-size="10.00">::write_signature_chunk_thread_func</text>
</a>
</g>
</g>
<!-- Node1&#45;&gt;Node5 -->
<g id="edge4" class="edge">
<title>Node1&#45;&gt;Node5</title>
<path fill="none" stroke="midnightblue" d="M133.83,-49.47C154.61,-44.24 178.08,-38.35 199.57,-32.95"/>
<polygon fill="midnightblue" stroke="midnightblue" points="200.44,-36.34 209.28,-30.51 198.73,-29.55 200.44,-36.34"/>
</g>
<!-- Node4 -->
<g id="node4" class="node">
<title>Node4</title>
<g id="a_node4"><a xlink:href="classappsign_1_1_semaphore.html#a04d9259eb2fa93e9a64eaf78290f023a" target="_top" xlink:title="Notify the semaphore (and the worker thread), increases the notifications count by 1.">
<polygon fill="white" stroke="black" points="394,-49.5 394,-79.5 500,-79.5 500,-49.5 394,-49.5"/>
<text text-anchor="start" x="402" y="-67.5" font-family="Helvetica,sans-Serif" font-size="10.00">appsign::Semaphore</text>
<text text-anchor="middle" x="447" y="-56.5" font-family="Helvetica,sans-Serif" font-size="10.00">::notify</text>
</a>
</g>
</g>
<!-- Node3&#45;&gt;Node4 -->
<g id="edge3" class="edge">
<title>Node3&#45;&gt;Node4</title>
<path fill="none" stroke="midnightblue" d="M343.19,-64.5C356.56,-64.5 370.43,-64.5 383.48,-64.5"/>
<polygon fill="midnightblue" stroke="midnightblue" points="383.75,-68 393.75,-64.5 383.75,-61 383.75,-68"/>
</g>
<!-- Node6 -->
<g id="node6" class="node">
<title>Node6</title>
<g id="a_node6"><a xlink:href="classappsign_1_1_semaphore.html#a85500356c2f7d1057d4568227e7f35b7" target="_top" xlink:title="Use this function in the worker thread to wait until the notification arrives.">
<polygon fill="white" stroke="black" points="394,-0.5 394,-30.5 500,-30.5 500,-0.5 394,-0.5"/>
<text text-anchor="start" x="402" y="-18.5" font-family="Helvetica,sans-Serif" font-size="10.00">appsign::Semaphore</text>
<text text-anchor="middle" x="447" y="-7.5" font-family="Helvetica,sans-Serif" font-size="10.00">::wait</text>
</a>
</g>
</g>
<!-- Node5&#45;&gt;Node6 -->
<g id="edge5" class="edge">
<title>Node5&#45;&gt;Node6</title>
<path fill="none" stroke="midnightblue" d="M358.24,-15.5C366.79,-15.5 375.34,-15.5 383.57,-15.5"/>
<polygon fill="midnightblue" stroke="midnightblue" points="383.8,-19 393.8,-15.5 383.8,-12 383.8,-19"/>
</g>
</g>
</svg>
