<?xml version="1.0" encoding="UTF-8" standalone="no"?>
<!DOCTYPE svg PUBLIC "-//W3C//DTD SVG 1.1//EN"
 "http://www.w3.org/Graphics/SVG/1.1/DTD/svg11.dtd">
<!-- Generated by graphviz version 2.44.1 (20200629.0846)
 -->
<!-- Title: MD5::update Pages: 1 -->
<svg width="292pt" height="47pt"
 viewBox="0.00 0.00 292.00 47.00" xmlns="http://www.w3.org/2000/svg" xmlns:xlink="http://www.w3.org/1999/xlink">
<g id="graph0" class="graph" transform="scale(1 1) rotate(0) translate(4 43)">
<title>MD5::update</title>
<polygon fill="white" stroke="transparent" points="-4,4 -4,-43 288,-43 288,4 -4,4"/>
<!-- Node1 -->
<g id="node1" class="node">
<title>Node1</title>
<g id="a_node1"><a xlink:title=" ">
<polygon fill="#bfbfbf" stroke="black" points="211,-19.5 211,-38.5 284,-38.5 284,-19.5 211,-19.5"/>
<text text-anchor="middle" x="247.5" y="-26.5" font-family="Helvetica,sans-Serif" font-size="10.00">MD5::update</text>
</a>
</g>
</g>
<!-- Node2 -->
<g id="node2" class="node">
<title>Node2</title>
<g id="a_node2"><a xlink:href="class_m_d5.html#a155356ffd713345e69e6dcbd9f8da6ce" target="_top" xlink:title="nifty shortcut ctor, compute MD5 for string and finalize it right away">
<polygon fill="white" stroke="black" points="0,-19.5 0,-38.5 65,-38.5 65,-19.5 0,-19.5"/>
<text text-anchor="middle" x="32.5" y="-26.5" font-family="Helvetica,sans-Serif" font-size="10.00">MD5::MD5</text>
</a>
</g>
</g>
<!-- Node1&#45;&gt;Node2 -->
<g id="edge1" class="edge">
<title>Node1&#45;&gt;Node2</title>
<path fill="none" stroke="midnightblue" d="M200.6,-29C159.7,-29 100.94,-29 65.09,-29"/>
<polygon fill="midnightblue" stroke="midnightblue" points="200.85,-32.5 210.85,-29 200.85,-25.5 200.85,-32.5"/>
</g>
<!-- Node3 -->
<g id="node3" class="node">
<title>Node3</title>
<g id="a_node3"><a xlink:href="class_m_d5.html#a10f607494a3f2e3e515fc4b99d1a06cc" target="_top" xlink:title=" ">
<polygon fill="white" stroke="black" points="101,-0.5 101,-19.5 175,-19.5 175,-0.5 101,-0.5"/>
<text text-anchor="middle" x="138" y="-7.5" font-family="Helvetica,sans-Serif" font-size="10.00">MD5::finalize</text>
</a>
</g>
</g>
<!-- Node1&#45;&gt;Node3 -->
<g id="edge2" class="edge">
<title>Node1&#45;&gt;Node3</title>
<path fill="none" stroke="midnightblue" d="M200.78,-20.92C192.16,-19.4 183.27,-17.82 175.01,-16.36"/>
<polygon fill="midnightblue" stroke="midnightblue" points="200.25,-24.38 210.7,-22.67 201.47,-17.49 200.25,-24.38"/>
</g>
<!-- Node3&#45;&gt;Node2 -->
<g id="edge3" class="edge">
<title>Node3&#45;&gt;Node2</title>
<path fill="none" stroke="midnightblue" d="M90.75,-18.49C82.05,-20.09 73.15,-21.72 65.03,-23.21"/>
<polygon fill="midnightblue" stroke="midnightblue" points="91.6,-21.89 100.8,-16.65 90.33,-15.01 91.6,-21.89"/>
</g>
</g>
</svg>
