<?xml version="1.0" encoding="UTF-8" standalone="no"?>
<!DOCTYPE svg PUBLIC "-//W3C//DTD SVG 1.1//EN"
 "http://www.w3.org/Graphics/SVG/1.1/DTD/svg11.dtd">
<!-- Generated by graphviz version 2.44.1 (20200629.0846)
 -->
<!-- Title: appsign::JobGetSignature Pages: 1 -->
<svg width="400pt" height="184pt"
 viewBox="0.00 0.00 399.50 184.00" xmlns="http://www.w3.org/2000/svg" xmlns:xlink="http://www.w3.org/1999/xlink">
<g id="graph0" class="graph" transform="scale(1 1) rotate(0) translate(4 180)">
<title>appsign::JobGetSignature</title>
<polygon fill="white" stroke="transparent" points="-4,4 -4,-180 395.5,-180 395.5,4 -4,4"/>
<!-- Node1 -->
<g id="node1" class="node">
<title>Node1</title>
<g id="a_node1"><a xlink:title="Job implementation for the reading a block from the file and hash generation.">
<polygon fill="#bfbfbf" stroke="black" points="0,-0.5 0,-19.5 129,-19.5 129,-0.5 0,-0.5"/>
<text text-anchor="middle" x="64.5" y="-7.5" font-family="Helvetica,sans-Serif" font-size="10.00">appsign::JobGetSignature</text>
</a>
</g>
</g>
<!-- Node2 -->
<g id="node2" class="node">
<title>Node2</title>
<g id="a_node2"><a xlink:href="classappsign_1_1_job_base.html" target="_top" xlink:title="Abstract class for the simple job definition, that is intended for the execution in a ThreadPool.">
<polygon fill="white" stroke="black" points="1,-73 1,-92 96,-92 96,-73 1,-73"/>
<text text-anchor="middle" x="48.5" y="-80" font-family="Helvetica,sans-Serif" font-size="10.00">appsign::JobBase</text>
</a>
</g>
</g>
<!-- Node2&#45;&gt;Node1 -->
<g id="edge1" class="edge">
<title>Node2&#45;&gt;Node1</title>
<path fill="none" stroke="midnightblue" d="M52.73,-62.86C55.9,-48.9 60.09,-30.43 62.52,-19.72"/>
<polygon fill="midnightblue" stroke="midnightblue" points="49.26,-62.33 50.46,-72.86 56.09,-63.88 49.26,-62.33"/>
</g>
<!-- Node3 -->
<g id="node3" class="node">
<title>Node3</title>
<g id="a_node3"><a xlink:href="structappsign_1_1internal_1_1_file_signature_creation_context.html" target="_top" xlink:title="Context holds all shared data that is used during the signature creation process.">
<polygon fill="white" stroke="black" points="114,-67.5 114,-97.5 259,-97.5 259,-67.5 114,-67.5"/>
<text text-anchor="start" x="122" y="-85.5" font-family="Helvetica,sans-Serif" font-size="10.00">appsign::internal::</text>
<text text-anchor="middle" x="186.5" y="-74.5" font-family="Helvetica,sans-Serif" font-size="10.00">FileSignatureCreationContext</text>
</a>
</g>
</g>
<!-- Node3&#45;&gt;Node1 -->
<g id="edge2" class="edge">
<title>Node3&#45;&gt;Node1</title>
<path fill="none" stroke="#9a32cd" stroke-dasharray="5,2" d="M153.24,-62.28C129.07,-48.31 97.5,-30.07 79.27,-19.53"/>
<polygon fill="#9a32cd" stroke="#9a32cd" points="151.7,-65.43 162.1,-67.4 155.2,-59.37 151.7,-65.43"/>
<text text-anchor="middle" x="146.5" y="-41" font-family="Helvetica,sans-Serif" font-size="10.00"> context</text>
</g>
<!-- Node4 -->
<g id="node4" class="node">
<title>Node4</title>
<g id="a_node4"><a xlink:href="classappsign_1_1_semaphore.html" target="_top" xlink:title=" ">
<polygon fill="white" stroke="black" points="9.5,-151 9.5,-170 115.5,-170 115.5,-151 9.5,-151"/>
<text text-anchor="middle" x="62.5" y="-158" font-family="Helvetica,sans-Serif" font-size="10.00">appsign::Semaphore</text>
</a>
</g>
</g>
<!-- Node4&#45;&gt;Node3 -->
<g id="edge3" class="edge">
<title>Node4&#45;&gt;Node3</title>
<path fill="none" stroke="#9a32cd" stroke-dasharray="5,2" d="M73.33,-142.49C79.73,-133.57 88.53,-123.07 98.5,-116 109.26,-108.37 122.02,-102.32 134.44,-97.6"/>
<polygon fill="#9a32cd" stroke="#9a32cd" points="70.28,-140.75 67.57,-150.99 76.08,-144.67 70.28,-140.75"/>
<text text-anchor="middle" x="140.5" y="-119" font-family="Helvetica,sans-Serif" font-size="10.00"> semaphore_output</text>
</g>
<!-- Node5 -->
<g id="node5" class="node">
<title>Node5</title>
<g id="a_node5"><a xlink:href="classappsign_1_1_thread_pool.html" target="_top" xlink:title=" ">
<polygon fill="white" stroke="black" points="133.5,-151 133.5,-170 239.5,-170 239.5,-151 133.5,-151"/>
<text text-anchor="middle" x="186.5" y="-158" font-family="Helvetica,sans-Serif" font-size="10.00">appsign::ThreadPool</text>
</a>
</g>
</g>
<!-- Node5&#45;&gt;Node3 -->
<g id="edge4" class="edge">
<title>Node5&#45;&gt;Node3</title>
<path fill="none" stroke="#9a32cd" stroke-dasharray="5,2" d="M186.5,-140.78C186.5,-127.4 186.5,-109.69 186.5,-97.52"/>
<polygon fill="#9a32cd" stroke="#9a32cd" points="183,-140.78 186.5,-150.78 190,-140.78 183,-140.78"/>
<text text-anchor="middle" x="213.5" y="-119" font-family="Helvetica,sans-Serif" font-size="10.00"> thread_pool</text>
</g>
<!-- Node6 -->
<g id="node6" class="node">
<title>Node6</title>
<g id="a_node6"><a xlink:href="structappsign_1_1_signature_creation_params.html" target="_top" xlink:title=" ">
<polygon fill="white" stroke="black" points="257.5,-145.5 257.5,-175.5 391.5,-175.5 391.5,-145.5 257.5,-145.5"/>
<text text-anchor="start" x="265.5" y="-163.5" font-family="Helvetica,sans-Serif" font-size="10.00">appsign::SignatureCreation</text>
<text text-anchor="middle" x="324.5" y="-152.5" font-family="Helvetica,sans-Serif" font-size="10.00">Params</text>
</a>
</g>
</g>
<!-- Node6&#45;&gt;Node3 -->
<g id="edge5" class="edge">
<title>Node6&#45;&gt;Node3</title>
<path fill="none" stroke="#9a32cd" stroke-dasharray="5,2" d="M290,-140.5C265.78,-127.16 233.93,-109.62 212,-97.54"/>
<polygon fill="#9a32cd" stroke="#9a32cd" points="288.42,-143.62 298.87,-145.38 291.8,-137.49 288.42,-143.62"/>
<text text-anchor="middle" x="301.5" y="-119" font-family="Helvetica,sans-Serif" font-size="10.00"> creation_params</text>
</g>
</g>
</svg>
