<?xml version="1.0" encoding="UTF-8" standalone="no"?>
<!DOCTYPE svg PUBLIC "-//W3C//DTD SVG 1.1//EN"
 "http://www.w3.org/Graphics/SVG/1.1/DTD/svg11.dtd">
<!-- Generated by graphviz version 2.44.1 (20200629.0846)
 -->
<!-- Title: appsign::ThreadPool::getThreadCount Pages: 1 -->
<svg width="370pt" height="61pt"
 viewBox="0.00 0.00 370.00 61.00" xmlns="http://www.w3.org/2000/svg" xmlns:xlink="http://www.w3.org/1999/xlink">
<g id="graph0" class="graph" transform="scale(1 1) rotate(0) translate(4 57)">
<title>appsign::ThreadPool::getThreadCount</title>
<polygon fill="white" stroke="transparent" points="-4,4 -4,-57 366,-57 366,4 -4,4"/>
<!-- Node1 -->
<g id="node1" class="node">
<title>Node1</title>
<g id="a_node1"><a xlink:title="Returns the total worker thread count.">
<polygon fill="#bfbfbf" stroke="black" points="256,-0.5 256,-30.5 362,-30.5 362,-0.5 256,-0.5"/>
<text text-anchor="start" x="264" y="-18.5" font-family="Helvetica,sans-Serif" font-size="10.00">appsign::ThreadPool</text>
<text text-anchor="middle" x="309" y="-7.5" font-family="Helvetica,sans-Serif" font-size="10.00">::getThreadCount</text>
</a>
</g>
</g>
<!-- Node2 -->
<g id="node2" class="node">
<title>Node2</title>
<g id="a_node2"><a xlink:href="classappsign_1_1_file_signature_creator.html#ad34df2f0d3fd34a9fd997297fbc109a2" target="_top" xlink:title=" ">
<polygon fill="white" stroke="black" points="74,-22.5 74,-52.5 220,-52.5 220,-22.5 74,-22.5"/>
<text text-anchor="start" x="82" y="-40.5" font-family="Helvetica,sans-Serif" font-size="10.00">appsign::FileSignatureCreator</text>
<text text-anchor="middle" x="147" y="-29.5" font-family="Helvetica,sans-Serif" font-size="10.00">::create_file_signature</text>
</a>
</g>
</g>
<!-- Node1&#45;&gt;Node2 -->
<g id="edge1" class="edge">
<title>Node1&#45;&gt;Node2</title>
<path fill="none" stroke="midnightblue" d="M245.63,-24.08C237.31,-25.22 228.73,-26.4 220.26,-27.56"/>
<polygon fill="midnightblue" stroke="midnightblue" points="246.18,-27.53 255.61,-22.7 245.23,-20.6 246.18,-27.53"/>
</g>
<!-- Node3 -->
<g id="node3" class="node">
<title>Node3</title>
<g id="a_node3"><a xlink:href="main_8cpp.html#a3c04138a5bfe5d72780bb7e82a18e627" target="_top" xlink:title=" ">
<polygon fill="white" stroke="black" points="0,-6 0,-25 38,-25 38,-6 0,-6"/>
<text text-anchor="middle" x="19" y="-13" font-family="Helvetica,sans-Serif" font-size="10.00">main</text>
</a>
</g>
</g>
<!-- Node1&#45;&gt;Node3 -->
<g id="edge3" class="edge">
<title>Node1&#45;&gt;Node3</title>
<path fill="none" stroke="midnightblue" d="M245.81,-13.91C237.14,-13.74 228.35,-13.59 220,-13.5 155.12,-12.76 138.88,-12.3 74,-13.5 62.18,-13.72 48.92,-14.21 38.49,-14.65"/>
<polygon fill="midnightblue" stroke="midnightblue" points="245.82,-17.41 255.89,-14.12 245.96,-10.41 245.82,-17.41"/>
</g>
<!-- Node2&#45;&gt;Node3 -->
<g id="edge2" class="edge">
<title>Node2&#45;&gt;Node3</title>
<path fill="none" stroke="midnightblue" d="M63.74,-23.14C54.28,-21.49 45.45,-19.94 38.25,-18.69"/>
<polygon fill="midnightblue" stroke="midnightblue" points="63.35,-26.62 73.8,-24.89 64.55,-19.73 63.35,-26.62"/>
</g>
</g>
</svg>
