<?xml version="1.0" encoding="UTF-8" standalone="no"?>
<!DOCTYPE svg PUBLIC "-//W3C//DTD SVG 1.1//EN"
 "http://www.w3.org/Graphics/SVG/1.1/DTD/svg11.dtd">
<!-- Generated by graphviz version 2.44.1 (20200629.0846)
 -->
<!-- Title: MD5::H Pages: 1 -->
<svg width="275pt" height="28pt"
 viewBox="0.00 0.00 275.00 28.00" xmlns="http://www.w3.org/2000/svg" xmlns:xlink="http://www.w3.org/1999/xlink">
<g id="graph0" class="graph" transform="scale(1 1) rotate(0) translate(4 24)">
<title>MD5::H</title>
<polygon fill="white" stroke="transparent" points="-4,4 -4,-24 271,-24 271,4 -4,4"/>
<!-- Node1 -->
<g id="node1" class="node">
<title>Node1</title>
<g id="a_node1"><a xlink:title=" ">
<polygon fill="#bfbfbf" stroke="black" points="216,-0.5 216,-19.5 267,-19.5 267,-0.5 216,-0.5"/>
<text text-anchor="middle" x="241.5" y="-7.5" font-family="Helvetica,sans-Serif" font-size="10.00">MD5::H</text>
</a>
</g>
</g>
<!-- Node2 -->
<g id="node2" class="node">
<title>Node2</title>
<g id="a_node2"><a xlink:href="class_m_d5.html#aaad039caf0b33abf1bf3f3589166543c" target="_top" xlink:title=" ">
<polygon fill="white" stroke="black" points="121,-0.5 121,-19.5 180,-19.5 180,-0.5 121,-0.5"/>
<text text-anchor="middle" x="150.5" y="-7.5" font-family="Helvetica,sans-Serif" font-size="10.00">MD5::HH</text>
</a>
</g>
</g>
<!-- Node1&#45;&gt;Node2 -->
<g id="edge1" class="edge">
<title>Node1&#45;&gt;Node2</title>
<path fill="none" stroke="midnightblue" d="M205.47,-10C197.11,-10 188.29,-10 180.25,-10"/>
<polygon fill="midnightblue" stroke="midnightblue" points="205.71,-13.5 215.71,-10 205.71,-6.5 205.71,-13.5"/>
</g>
<!-- Node3 -->
<g id="node3" class="node">
<title>Node3</title>
<g id="a_node3"><a xlink:href="class_m_d5.html#a9d569ab2a3e564793e116f774a3ad269" target="_top" xlink:title="apply MD5 algo on a block">
<polygon fill="white" stroke="black" points="0,-0.5 0,-19.5 85,-19.5 85,-0.5 0,-0.5"/>
<text text-anchor="middle" x="42.5" y="-7.5" font-family="Helvetica,sans-Serif" font-size="10.00">MD5::transform</text>
</a>
</g>
</g>
<!-- Node2&#45;&gt;Node3 -->
<g id="edge2" class="edge">
<title>Node2&#45;&gt;Node3</title>
<path fill="none" stroke="midnightblue" d="M110.7,-10C102.45,-10 93.7,-10 85.35,-10"/>
<polygon fill="midnightblue" stroke="midnightblue" points="110.81,-13.5 120.81,-10 110.81,-6.5 110.81,-13.5"/>
</g>
</g>
</svg>
