<?xml version="1.0" encoding="UTF-8" standalone="no"?>
<!DOCTYPE svg PUBLIC "-//W3C//DTD SVG 1.1//EN"
 "http://www.w3.org/Graphics/SVG/1.1/DTD/svg11.dtd">
<!-- Generated by graphviz version 2.44.1 (20200629.0846)
 -->
<!-- Title: source/app/sign/jobs Pages: 1 -->
<svg width="150pt" height="223pt"
 viewBox="0.00 0.00 150.00 223.00" xmlns="http://www.w3.org/2000/svg" xmlns:xlink="http://www.w3.org/1999/xlink">
<g id="graph0" class="graph" transform="scale(1 1) rotate(0) translate(4 219)">
<title>source/app/sign/jobs</title>
<polygon fill="white" stroke="transparent" points="-4,4 -4,-219 146,-219 146,4 -4,4"/>
<g id="clust1" class="cluster">
<title>clusterdir_03504332a78f2d1411dc0cf26d5ab16a</title>
<g id="a_clust1"><a xlink:href="dir_03504332a78f2d1411dc0cf26d5ab16a.html" target="_top" xlink:title="sign">
<polygon fill="#ddddee" stroke="black" points="8,-136 8,-207 78,-207 78,-136 8,-136"/>
<text text-anchor="middle" x="43" y="-195" font-family="Helvetica,sans-Serif" font-size="10.00">sign</text>
</a>
</g>
</g>
<!-- dir_1249a869c4535a9ce4f8846cd4f63718 -->
<g id="node1" class="node">
<title>dir_1249a869c4535a9ce4f8846cd4f63718</title>
<g id="a_node1"><a xlink:href="dir_1249a869c4535a9ce4f8846cd4f63718.html" target="_top" xlink:title="jobs">
<polygon fill="#eeeeff" stroke="black" points="70,-180 16,-180 16,-144 70,-144 70,-180"/>
<text text-anchor="middle" x="43" y="-159.5" font-family="Helvetica,sans-Serif" font-size="10.00">jobs</text>
</a>
</g>
</g>
<!-- dir_9cd8d8a49d8c671d3e1f9eed409522b6 -->
<g id="node2" class="node">
<title>dir_9cd8d8a49d8c671d3e1f9eed409522b6</title>
<g id="a_node2"><a xlink:href="dir_9cd8d8a49d8c671d3e1f9eed409522b6.html" target="_top" xlink:title="utils">
<polygon fill="white" stroke="red" points="78,-36 24,-36 24,0 78,0 78,-36"/>
<text text-anchor="middle" x="51" y="-15.5" font-family="Helvetica,sans-Serif" font-size="10.00">utils</text>
</a>
</g>
</g>
<!-- dir_1249a869c4535a9ce4f8846cd4f63718&#45;&gt;dir_9cd8d8a49d8c671d3e1f9eed409522b6 -->
<g id="edge2" class="edge">
<title>dir_1249a869c4535a9ce4f8846cd4f63718&#45;&gt;dir_9cd8d8a49d8c671d3e1f9eed409522b6</title>
<path fill="none" stroke="black" d="M27.39,-143.77C19.63,-134.03 11.05,-121.18 7,-108 2.3,-92.71 1.57,-87.05 7,-72 10.75,-61.6 17.54,-51.8 24.67,-43.52"/>
<polygon fill="black" stroke="black" points="27.32,-45.81 31.53,-36.08 22.17,-41.06 27.32,-45.81"/>
<g id="a_edge2&#45;headlabel"><a xlink:href="dir_000004_000005.html" target="_top" xlink:title="1">
<text text-anchor="middle" x="26.97" y="-47.87" font-family="Helvetica,sans-Serif" font-size="10.00">1</text>
</a>
</g>
</g>
<!-- dir_946c1c613625e3ac426c24dc93334e3b -->
<g id="node3" class="node">
<title>dir_946c1c613625e3ac426c24dc93334e3b</title>
<g id="a_node3"><a xlink:href="dir_946c1c613625e3ac426c24dc93334e3b.html" target="_top" xlink:title="md5">
<polygon fill="none" stroke="black" points="70,-108 16,-108 16,-72 70,-72 70,-108"/>
<text text-anchor="middle" x="43" y="-87.5" font-family="Helvetica,sans-Serif" font-size="10.00">md5</text>
</a>
</g>
</g>
<!-- dir_1249a869c4535a9ce4f8846cd4f63718&#45;&gt;dir_946c1c613625e3ac426c24dc93334e3b -->
<g id="edge3" class="edge">
<title>dir_1249a869c4535a9ce4f8846cd4f63718&#45;&gt;dir_946c1c613625e3ac426c24dc93334e3b</title>
<path fill="none" stroke="black" d="M43,-143.7C43,-135.98 43,-126.71 43,-118.11"/>
<polygon fill="black" stroke="black" points="46.5,-118.1 43,-108.1 39.5,-118.1 46.5,-118.1"/>
<g id="a_edge3&#45;headlabel"><a xlink:href="dir_000004_000008.html" target="_top" xlink:title="1">
<text text-anchor="middle" x="49.34" y="-119.2" font-family="Helvetica,sans-Serif" font-size="10.00">1</text>
</a>
</g>
</g>
<!-- dir_e07d91da28a308eee470fd83e18c5ce6 -->
<g id="node4" class="node">
<title>dir_e07d91da28a308eee470fd83e18c5ce6</title>
<g id="a_node4"><a xlink:href="dir_e07d91da28a308eee470fd83e18c5ce6.html" target="_top" xlink:title="internal">
<polygon fill="none" stroke="black" points="142,-108 88,-108 88,-72 142,-72 142,-108"/>
<text text-anchor="middle" x="115" y="-87.5" font-family="Helvetica,sans-Serif" font-size="10.00">internal</text>
</a>
</g>
</g>
<!-- dir_1249a869c4535a9ce4f8846cd4f63718&#45;&gt;dir_e07d91da28a308eee470fd83e18c5ce6 -->
<g id="edge4" class="edge">
<title>dir_1249a869c4535a9ce4f8846cd4f63718&#45;&gt;dir_e07d91da28a308eee470fd83e18c5ce6</title>
<path fill="none" stroke="black" d="M60.8,-143.7C69.6,-135.14 80.38,-124.66 90,-115.3"/>
<polygon fill="black" stroke="black" points="92.68,-117.58 97.41,-108.1 87.8,-112.57 92.68,-117.58"/>
<g id="a_edge4&#45;headlabel"><a xlink:href="dir_000004_000003.html" target="_top" xlink:title="1">
<text text-anchor="middle" x="92.08" y="-119.63" font-family="Helvetica,sans-Serif" font-size="10.00">1</text>
</a>
</g>
</g>
<!-- dir_e07d91da28a308eee470fd83e18c5ce6&#45;&gt;dir_9cd8d8a49d8c671d3e1f9eed409522b6 -->
<g id="edge1" class="edge">
<title>dir_e07d91da28a308eee470fd83e18c5ce6&#45;&gt;dir_9cd8d8a49d8c671d3e1f9eed409522b6</title>
<path fill="none" stroke="black" d="M99.18,-71.7C91.43,-63.22 81.96,-52.86 73.48,-43.58"/>
<polygon fill="black" stroke="black" points="75.97,-41.12 66.64,-36.1 70.8,-45.85 75.97,-41.12"/>
<g id="a_edge1&#45;headlabel"><a xlink:href="dir_000003_000005.html" target="_top" xlink:title="2">
<text text-anchor="middle" x="80.49" y="-39.36" font-family="Helvetica,sans-Serif" font-size="10.00">2</text>
</a>
</g>
</g>
</g>
</svg>
