<?xml version="1.0" encoding="UTF-8" standalone="no"?>
<!DOCTYPE svg PUBLIC "-//W3C//DTD SVG 1.1//EN"
 "http://www.w3.org/Graphics/SVG/1.1/DTD/svg11.dtd">
<!-- Generated by graphviz version 2.44.1 (20200629.0846)
 -->
<!-- Title: source/app Pages: 1 -->
<svg width="184pt" height="255pt"
 viewBox="0.00 0.00 184.00 255.00" xmlns="http://www.w3.org/2000/svg" xmlns:xlink="http://www.w3.org/1999/xlink">
<g id="graph0" class="graph" transform="scale(1 1) rotate(0) translate(4 251)">
<title>source/app</title>
<polygon fill="white" stroke="transparent" points="-4,4 -4,-251 180,-251 180,4 -4,4"/>
<g id="clust1" class="cluster">
<title>clusterdir_b2f33c71d4aa5e7af42a1ca61ff5af1b</title>
<g id="a_clust1"><a xlink:href="dir_b2f33c71d4aa5e7af42a1ca61ff5af1b.html" target="_top" xlink:title="source">
<polygon fill="#ddddee" stroke="black" points="8,-8 8,-239 114,-239 114,-8 8,-8"/>
<text text-anchor="middle" x="61" y="-227" font-family="Helvetica,sans-Serif" font-size="10.00">source</text>
</a>
</g>
</g>
<g id="clust2" class="cluster">
<title>clusterdir_361898d03ae3cb58056ee2cf20f54b82</title>
<g id="a_clust2"><a xlink:href="dir_361898d03ae3cb58056ee2cf20f54b82.html" target="_top">
<polygon fill="#eeeeff" stroke="black" points="16,-16 16,-212 106,-212 106,-16 16,-16"/>
</a>
</g>
</g>
<!-- dir_361898d03ae3cb58056ee2cf20f54b82 -->
<g id="node1" class="node">
<title>dir_361898d03ae3cb58056ee2cf20f54b82</title>
<text text-anchor="middle" x="61" y="-183.5" font-family="Helvetica,sans-Serif" font-size="10.00">app</text>
</g>
<!-- dir_03504332a78f2d1411dc0cf26d5ab16a -->
<g id="node2" class="node">
<title>dir_03504332a78f2d1411dc0cf26d5ab16a</title>
<g id="a_node2"><a xlink:href="dir_03504332a78f2d1411dc0cf26d5ab16a.html" target="_top" xlink:title="sign">
<polygon fill="white" stroke="red" points="98,-132 44,-132 44,-96 98,-96 98,-132"/>
<text text-anchor="middle" x="71" y="-111.5" font-family="Helvetica,sans-Serif" font-size="10.00">sign</text>
</a>
</g>
</g>
<!-- dir_361898d03ae3cb58056ee2cf20f54b82&#45;&gt;dir_03504332a78f2d1411dc0cf26d5ab16a -->
<g id="edge4" class="edge">
<title>dir_361898d03ae3cb58056ee2cf20f54b82&#45;&gt;dir_03504332a78f2d1411dc0cf26d5ab16a</title>
<path fill="none" stroke="black" d="M63.47,-167.7C64.57,-159.98 65.9,-150.71 67.13,-142.11"/>
<polygon fill="black" stroke="black" points="70.61,-142.5 68.56,-132.1 63.68,-141.51 70.61,-142.5"/>
<g id="a_edge4&#45;headlabel"><a xlink:href="dir_000001_000002.html" target="_top" xlink:title="6">
<text text-anchor="middle" x="72.91" y="-143.96" font-family="Helvetica,sans-Serif" font-size="10.00">6</text>
</a>
</g>
</g>
<!-- dir_9cd8d8a49d8c671d3e1f9eed409522b6 -->
<g id="node3" class="node">
<title>dir_9cd8d8a49d8c671d3e1f9eed409522b6</title>
<g id="a_node3"><a xlink:href="dir_9cd8d8a49d8c671d3e1f9eed409522b6.html" target="_top" xlink:title="utils">
<polygon fill="white" stroke="red" points="88,-60 34,-60 34,-24 88,-24 88,-60"/>
<text text-anchor="middle" x="61" y="-39.5" font-family="Helvetica,sans-Serif" font-size="10.00">utils</text>
</a>
</g>
</g>
<!-- dir_361898d03ae3cb58056ee2cf20f54b82&#45;&gt;dir_9cd8d8a49d8c671d3e1f9eed409522b6 -->
<g id="edge3" class="edge">
<title>dir_361898d03ae3cb58056ee2cf20f54b82&#45;&gt;dir_9cd8d8a49d8c671d3e1f9eed409522b6</title>
<path fill="none" stroke="black" d="M49.95,-167.61C44.26,-157.62 37.92,-144.58 35,-132 31.38,-116.41 31.38,-111.59 35,-96 37.1,-86.96 40.97,-77.68 45.09,-69.47"/>
<polygon fill="black" stroke="black" points="48.31,-70.86 49.95,-60.39 42.14,-67.55 48.31,-70.86"/>
<g id="a_edge3&#45;headlabel"><a xlink:href="dir_000001_000005.html" target="_top" xlink:title="5">
<text text-anchor="middle" x="49.12" y="-72.87" font-family="Helvetica,sans-Serif" font-size="10.00">5</text>
</a>
</g>
</g>
<!-- dir_03504332a78f2d1411dc0cf26d5ab16a&#45;&gt;dir_9cd8d8a49d8c671d3e1f9eed409522b6 -->
<g id="edge1" class="edge">
<title>dir_03504332a78f2d1411dc0cf26d5ab16a&#45;&gt;dir_9cd8d8a49d8c671d3e1f9eed409522b6</title>
<path fill="none" stroke="black" d="M68.53,-95.7C67.43,-87.98 66.1,-78.71 64.87,-70.11"/>
<polygon fill="black" stroke="black" points="68.32,-69.51 63.44,-60.1 61.39,-70.5 68.32,-69.51"/>
<g id="a_edge1&#45;headlabel"><a xlink:href="dir_000002_000005.html" target="_top" xlink:title="4">
<text text-anchor="middle" x="71.64" y="-70.17" font-family="Helvetica,sans-Serif" font-size="10.00">4</text>
</a>
</g>
</g>
<!-- dir_946c1c613625e3ac426c24dc93334e3b -->
<g id="node4" class="node">
<title>dir_946c1c613625e3ac426c24dc93334e3b</title>
<g id="a_node4"><a xlink:href="dir_946c1c613625e3ac426c24dc93334e3b.html" target="_top" xlink:title="md5">
<polygon fill="none" stroke="black" points="176,-60 122,-60 122,-24 176,-24 176,-60"/>
<text text-anchor="middle" x="149" y="-39.5" font-family="Helvetica,sans-Serif" font-size="10.00">md5</text>
</a>
</g>
</g>
<!-- dir_03504332a78f2d1411dc0cf26d5ab16a&#45;&gt;dir_946c1c613625e3ac426c24dc93334e3b -->
<g id="edge2" class="edge">
<title>dir_03504332a78f2d1411dc0cf26d5ab16a&#45;&gt;dir_946c1c613625e3ac426c24dc93334e3b</title>
<path fill="none" stroke="black" d="M90.28,-95.7C99.92,-87.05 111.73,-76.45 122.23,-67.03"/>
<polygon fill="black" stroke="black" points="124.84,-69.39 129.94,-60.1 120.16,-64.18 124.84,-69.39"/>
<g id="a_edge2&#45;headlabel"><a xlink:href="dir_000002_000008.html" target="_top" xlink:title="1">
<text text-anchor="middle" x="124.06" y="-71.4" font-family="Helvetica,sans-Serif" font-size="10.00">1</text>
</a>
</g>
</g>
</g>
</svg>
