<?xml version="1.0" encoding="UTF-8" standalone="no"?>
<!DOCTYPE svg PUBLIC "-//W3C//DTD SVG 1.1//EN"
 "http://www.w3.org/Graphics/SVG/1.1/DTD/svg11.dtd">
<!-- Generated by graphviz version 2.44.1 (20200629.0846)
 -->
<!-- Title: source/app/sign Pages: 1 -->
<svg width="196pt" height="303pt"
 viewBox="0.00 0.00 196.00 303.00" xmlns="http://www.w3.org/2000/svg" xmlns:xlink="http://www.w3.org/1999/xlink">
<g id="graph0" class="graph" transform="scale(1 1) rotate(0) translate(4 299)">
<title>source/app/sign</title>
<polygon fill="white" stroke="transparent" points="-4,4 -4,-299 192,-299 192,4 -4,4"/>
<g id="clust1" class="cluster">
<title>clusterdir_361898d03ae3cb58056ee2cf20f54b82</title>
<g id="a_clust1"><a xlink:href="dir_361898d03ae3cb58056ee2cf20f54b82.html" target="_top" xlink:title="app">
<polygon fill="#ddddee" stroke="black" points="8,-56 8,-287 94,-287 94,-56 8,-56"/>
<text text-anchor="middle" x="51" y="-275" font-family="Helvetica,sans-Serif" font-size="10.00">app</text>
</a>
</g>
</g>
<g id="clust2" class="cluster">
<title>clusterdir_03504332a78f2d1411dc0cf26d5ab16a</title>
<g id="a_clust2"><a xlink:href="dir_03504332a78f2d1411dc0cf26d5ab16a.html" target="_top">
<polygon fill="#eeeeff" stroke="black" points="16,-64 16,-260 86,-260 86,-64 16,-64"/>
</a>
</g>
</g>
<!-- dir_03504332a78f2d1411dc0cf26d5ab16a -->
<g id="node1" class="node">
<title>dir_03504332a78f2d1411dc0cf26d5ab16a</title>
<text text-anchor="middle" x="51" y="-231.5" font-family="Helvetica,sans-Serif" font-size="10.00">sign</text>
</g>
<!-- dir_1249a869c4535a9ce4f8846cd4f63718 -->
<g id="node3" class="node">
<title>dir_1249a869c4535a9ce4f8846cd4f63718</title>
<g id="a_node3"><a xlink:href="dir_1249a869c4535a9ce4f8846cd4f63718.html" target="_top" xlink:title="jobs">
<polygon fill="white" stroke="black" points="78,-180 24,-180 24,-144 78,-144 78,-180"/>
<text text-anchor="middle" x="51" y="-159.5" font-family="Helvetica,sans-Serif" font-size="10.00">jobs</text>
</a>
</g>
</g>
<!-- dir_03504332a78f2d1411dc0cf26d5ab16a&#45;&gt;dir_1249a869c4535a9ce4f8846cd4f63718 -->
<g id="edge1" class="edge">
<title>dir_03504332a78f2d1411dc0cf26d5ab16a&#45;&gt;dir_1249a869c4535a9ce4f8846cd4f63718</title>
<path fill="none" stroke="black" d="M51,-215.7C51,-207.98 51,-198.71 51,-190.11"/>
<polygon fill="black" stroke="black" points="54.5,-190.1 51,-180.1 47.5,-190.1 54.5,-190.1"/>
<g id="a_edge1&#45;headlabel"><a xlink:href="dir_000002_000004.html" target="_top" xlink:title="1">
<text text-anchor="middle" x="57.34" y="-191.2" font-family="Helvetica,sans-Serif" font-size="10.00">1</text>
</a>
</g>
</g>
<!-- dir_e07d91da28a308eee470fd83e18c5ce6 -->
<g id="node2" class="node">
<title>dir_e07d91da28a308eee470fd83e18c5ce6</title>
<g id="a_node2"><a xlink:href="dir_e07d91da28a308eee470fd83e18c5ce6.html" target="_top" xlink:title="internal">
<polygon fill="white" stroke="black" points="78,-108 24,-108 24,-72 78,-72 78,-108"/>
<text text-anchor="middle" x="51" y="-87.5" font-family="Helvetica,sans-Serif" font-size="10.00">internal</text>
</a>
</g>
</g>
<!-- dir_9cd8d8a49d8c671d3e1f9eed409522b6 -->
<g id="node4" class="node">
<title>dir_9cd8d8a49d8c671d3e1f9eed409522b6</title>
<g id="a_node4"><a xlink:href="dir_9cd8d8a49d8c671d3e1f9eed409522b6.html" target="_top" xlink:title="utils">
<polygon fill="white" stroke="red" points="105,-36 51,-36 51,0 105,0 105,-36"/>
<text text-anchor="middle" x="78" y="-15.5" font-family="Helvetica,sans-Serif" font-size="10.00">utils</text>
</a>
</g>
</g>
<!-- dir_e07d91da28a308eee470fd83e18c5ce6&#45;&gt;dir_9cd8d8a49d8c671d3e1f9eed409522b6 -->
<g id="edge2" class="edge">
<title>dir_e07d91da28a308eee470fd83e18c5ce6&#45;&gt;dir_9cd8d8a49d8c671d3e1f9eed409522b6</title>
<path fill="none" stroke="black" d="M57.67,-71.7C60.71,-63.81 64.38,-54.3 67.76,-45.55"/>
<polygon fill="black" stroke="black" points="71.07,-46.69 71.4,-36.1 64.54,-44.17 71.07,-46.69"/>
<g id="a_edge2&#45;headlabel"><a xlink:href="dir_000003_000005.html" target="_top" xlink:title="2">
<text text-anchor="middle" x="72.42" y="-48.57" font-family="Helvetica,sans-Serif" font-size="10.00">2</text>
</a>
</g>
</g>
<!-- dir_1249a869c4535a9ce4f8846cd4f63718&#45;&gt;dir_e07d91da28a308eee470fd83e18c5ce6 -->
<g id="edge5" class="edge">
<title>dir_1249a869c4535a9ce4f8846cd4f63718&#45;&gt;dir_e07d91da28a308eee470fd83e18c5ce6</title>
<path fill="none" stroke="black" d="M51,-143.7C51,-135.98 51,-126.71 51,-118.11"/>
<polygon fill="black" stroke="black" points="54.5,-118.1 51,-108.1 47.5,-118.1 54.5,-118.1"/>
<g id="a_edge5&#45;headlabel"><a xlink:href="dir_000004_000003.html" target="_top" xlink:title="1">
<text text-anchor="middle" x="57.34" y="-119.2" font-family="Helvetica,sans-Serif" font-size="10.00">1</text>
</a>
</g>
</g>
<!-- dir_1249a869c4535a9ce4f8846cd4f63718&#45;&gt;dir_9cd8d8a49d8c671d3e1f9eed409522b6 -->
<g id="edge3" class="edge">
<title>dir_1249a869c4535a9ce4f8846cd4f63718&#45;&gt;dir_9cd8d8a49d8c671d3e1f9eed409522b6</title>
<path fill="none" stroke="black" d="M66.61,-143.77C74.37,-134.03 82.95,-121.18 87,-108 93.22,-87.77 90.27,-63.87 86.15,-45.92"/>
<polygon fill="black" stroke="black" points="89.51,-44.95 83.65,-36.12 82.73,-46.68 89.51,-44.95"/>
<g id="a_edge3&#45;headlabel"><a xlink:href="dir_000004_000005.html" target="_top" xlink:title="1">
<text text-anchor="middle" x="93.15" y="-45.23" font-family="Helvetica,sans-Serif" font-size="10.00">1</text>
</a>
</g>
</g>
<!-- dir_946c1c613625e3ac426c24dc93334e3b -->
<g id="node5" class="node">
<title>dir_946c1c613625e3ac426c24dc93334e3b</title>
<g id="a_node5"><a xlink:href="dir_946c1c613625e3ac426c24dc93334e3b.html" target="_top" xlink:title="md5">
<polygon fill="none" stroke="black" points="188,-108 134,-108 134,-72 188,-72 188,-108"/>
<text text-anchor="middle" x="161" y="-87.5" font-family="Helvetica,sans-Serif" font-size="10.00">md5</text>
</a>
</g>
</g>
<!-- dir_1249a869c4535a9ce4f8846cd4f63718&#45;&gt;dir_946c1c613625e3ac426c24dc93334e3b -->
<g id="edge4" class="edge">
<title>dir_1249a869c4535a9ce4f8846cd4f63718&#45;&gt;dir_946c1c613625e3ac426c24dc93334e3b</title>
<path fill="none" stroke="black" d="M77.91,-143.88C92.16,-134.81 109.85,-123.55 125.24,-113.76"/>
<polygon fill="black" stroke="black" points="127.43,-116.51 133.99,-108.19 123.67,-110.61 127.43,-116.51"/>
<g id="a_edge4&#45;headlabel"><a xlink:href="dir_000004_000008.html" target="_top" xlink:title="1">
<text text-anchor="middle" x="125.92" y="-118.34" font-family="Helvetica,sans-Serif" font-size="10.00">1</text>
</a>
</g>
</g>
</g>
</svg>
