<?xml version="1.0" encoding="UTF-8" standalone="no"?>
<!DOCTYPE svg PUBLIC "-//W3C//DTD SVG 1.1//EN"
 "http://www.w3.org/Graphics/SVG/1.1/DTD/svg11.dtd">
<!-- Generated by graphviz version 2.44.1 (20200629.0846)
 -->
<!-- Title: main Pages: 1 -->
<svg width="582pt" height="225pt"
 viewBox="0.00 0.00 582.00 225.00" xmlns="http://www.w3.org/2000/svg" xmlns:xlink="http://www.w3.org/1999/xlink">
<g id="graph0" class="graph" transform="scale(1 1) rotate(0) translate(4 221)">
<title>main</title>
<polygon fill="white" stroke="transparent" points="-4,4 -4,-221 578,-221 578,4 -4,4"/>
<!-- Node1 -->
<g id="node1" class="node">
<title>Node1</title>
<g id="a_node1"><a xlink:title=" ">
<polygon fill="#bfbfbf" stroke="black" points="0,-99 0,-118 38,-118 38,-99 0,-99"/>
<text text-anchor="middle" x="19" y="-106" font-family="Helvetica,sans-Serif" font-size="10.00">main</text>
</a>
</g>
</g>
<!-- Node2 -->
<g id="node2" class="node">
<title>Node2</title>
<g id="a_node2"><a xlink:href="classappsign_1_1_file_signature_creator.html#ad34df2f0d3fd34a9fd997297fbc109a2" target="_top" xlink:title=" ">
<polygon fill="white" stroke="black" points="74,-137.5 74,-167.5 220,-167.5 220,-137.5 74,-137.5"/>
<text text-anchor="start" x="82" y="-155.5" font-family="Helvetica,sans-Serif" font-size="10.00">appsign::FileSignatureCreator</text>
<text text-anchor="middle" x="147" y="-144.5" font-family="Helvetica,sans-Serif" font-size="10.00">::create_file_signature</text>
</a>
</g>
</g>
<!-- Node1&#45;&gt;Node2 -->
<g id="edge1" class="edge">
<title>Node1&#45;&gt;Node2</title>
<path fill="none" stroke="midnightblue" d="M38.49,-115.03C48.91,-118.7 62.18,-123.37 74,-127.5 80.07,-129.62 86.42,-131.84 92.74,-134.03"/>
<polygon fill="midnightblue" stroke="midnightblue" points="91.99,-137.48 102.59,-137.46 94.29,-130.87 91.99,-137.48"/>
</g>
<!-- Node3 -->
<g id="node3" class="node">
<title>Node3</title>
<g id="a_node3"><a xlink:href="classappsign_1_1_thread_pool.html#a74a71f7d7a6fb005bfc1685b51493da7" target="_top" xlink:title="Returns the total worker thread count.">
<polygon fill="white" stroke="black" points="291,-186.5 291,-216.5 397,-216.5 397,-186.5 291,-186.5"/>
<text text-anchor="start" x="299" y="-204.5" font-family="Helvetica,sans-Serif" font-size="10.00">appsign::ThreadPool</text>
<text text-anchor="middle" x="344" y="-193.5" font-family="Helvetica,sans-Serif" font-size="10.00">::getThreadCount</text>
</a>
</g>
</g>
<!-- Node1&#45;&gt;Node3 -->
<g id="edge8" class="edge">
<title>Node1&#45;&gt;Node3</title>
<path fill="none" stroke="midnightblue" d="M24.33,-118.12C31.9,-133.69 49.14,-163.99 74,-177.5 138.12,-212.35 223.72,-213.7 280.97,-209.39"/>
<polygon fill="midnightblue" stroke="midnightblue" points="281.28,-212.88 290.96,-208.56 280.7,-205.9 281.28,-212.88"/>
</g>
<!-- Node8 -->
<g id="node8" class="node">
<title>Node8</title>
<g id="a_node8"><a xlink:href="main_8cpp.html#af1e0b7bffce345bfd964f47a109a8f77" target="_top" xlink:title=" ">
<polygon fill="white" stroke="black" points="75.5,-99 75.5,-118 218.5,-118 218.5,-99 75.5,-99"/>
<text text-anchor="middle" x="147" y="-106" font-family="Helvetica,sans-Serif" font-size="10.00">getCreationParamsFromArgs</text>
</a>
</g>
</g>
<!-- Node1&#45;&gt;Node8 -->
<g id="edge7" class="edge">
<title>Node1&#45;&gt;Node8</title>
<path fill="none" stroke="midnightblue" d="M38.05,-108.5C45.66,-108.5 55.08,-108.5 65.18,-108.5"/>
<polygon fill="midnightblue" stroke="midnightblue" points="65.45,-112 75.45,-108.5 65.45,-105 65.45,-112"/>
</g>
<!-- Node9 -->
<g id="node9" class="node">
<title>Node9</title>
<g id="a_node9"><a xlink:href="classappsign_1_1_thread_pool.html#af7f54144ddf3fe8e3001cd3fcbfc707b" target="_top" xlink:title=" ">
<polygon fill="white" stroke="black" points="94,-49.5 94,-79.5 200,-79.5 200,-49.5 94,-49.5"/>
<text text-anchor="start" x="102" y="-67.5" font-family="Helvetica,sans-Serif" font-size="10.00">appsign::ThreadPool</text>
<text text-anchor="middle" x="147" y="-56.5" font-family="Helvetica,sans-Serif" font-size="10.00">::init</text>
</a>
</g>
</g>
<!-- Node1&#45;&gt;Node9 -->
<g id="edge9" class="edge">
<title>Node1&#45;&gt;Node9</title>
<path fill="none" stroke="midnightblue" d="M38.49,-101.97C48.91,-98.3 62.18,-93.63 74,-89.5 80.07,-87.38 86.42,-85.16 92.74,-82.97"/>
<polygon fill="midnightblue" stroke="midnightblue" points="94.29,-86.13 102.59,-79.54 91.99,-79.52 94.29,-86.13"/>
</g>
<!-- Node11 -->
<g id="node11" class="node">
<title>Node11</title>
<g id="a_node11"><a xlink:href="structappsign_1_1_signature_creation_params.html#a38272245e95a658b41e026792e3c94a6" target="_top" xlink:title="Validates the provided params, will throw an exception if something isn&#39;t right.">
<polygon fill="white" stroke="black" points="80,-0.5 80,-30.5 214,-30.5 214,-0.5 80,-0.5"/>
<text text-anchor="start" x="88" y="-18.5" font-family="Helvetica,sans-Serif" font-size="10.00">appsign::SignatureCreation</text>
<text text-anchor="middle" x="147" y="-7.5" font-family="Helvetica,sans-Serif" font-size="10.00">Params::validate</text>
</a>
</g>
</g>
<!-- Node1&#45;&gt;Node11 -->
<g id="edge11" class="edge">
<title>Node1&#45;&gt;Node11</title>
<path fill="none" stroke="midnightblue" d="M25.26,-98.54C33.63,-83.6 51.38,-55.46 74,-39.5 76.12,-38 78.34,-36.6 80.63,-35.27"/>
<polygon fill="midnightblue" stroke="midnightblue" points="82.48,-38.26 89.77,-30.57 79.27,-32.04 82.48,-38.26"/>
</g>
<!-- Node2&#45;&gt;Node3 -->
<g id="edge2" class="edge">
<title>Node2&#45;&gt;Node3</title>
<path fill="none" stroke="midnightblue" d="M207.83,-167.53C231.05,-173.37 257.63,-180.05 281.05,-185.93"/>
<polygon fill="midnightblue" stroke="midnightblue" points="280.32,-189.36 290.87,-188.4 282.02,-182.57 280.32,-189.36"/>
</g>
<!-- Node4 -->
<g id="node4" class="node">
<title>Node4</title>
<g id="a_node4"><a xlink:href="classappsign_1_1_file_signature_creator.html#afc4732430aec71feec1e5e454f273b2e" target="_top" xlink:title=" ">
<polygon fill="white" stroke="black" points="271,-137.5 271,-167.5 417,-167.5 417,-137.5 271,-137.5"/>
<text text-anchor="start" x="279" y="-155.5" font-family="Helvetica,sans-Serif" font-size="10.00">appsign::FileSignatureCreator</text>
<text text-anchor="middle" x="344" y="-144.5" font-family="Helvetica,sans-Serif" font-size="10.00">::join_output_worker_thread</text>
</a>
</g>
</g>
<!-- Node2&#45;&gt;Node4 -->
<g id="edge3" class="edge">
<title>Node2&#45;&gt;Node4</title>
<path fill="none" stroke="midnightblue" d="M220.06,-152.5C233.28,-152.5 247.18,-152.5 260.68,-152.5"/>
<polygon fill="midnightblue" stroke="midnightblue" points="260.91,-156 270.91,-152.5 260.91,-149 260.91,-156"/>
</g>
<!-- Node6 -->
<g id="node6" class="node">
<title>Node6</title>
<g id="a_node6"><a xlink:href="classappsign_1_1_file_signature_creator.html#a8d640da7df30a7581c6a68f5dcf8cbbe" target="_top" xlink:title=" ">
<polygon fill="white" stroke="black" points="256,-88.5 256,-118.5 432,-118.5 432,-88.5 256,-88.5"/>
<text text-anchor="start" x="264" y="-106.5" font-family="Helvetica,sans-Serif" font-size="10.00">appsign::FileSignatureCreator</text>
<text text-anchor="middle" x="344" y="-95.5" font-family="Helvetica,sans-Serif" font-size="10.00">::write_signature_chunk_thread_func</text>
</a>
</g>
</g>
<!-- Node2&#45;&gt;Node6 -->
<g id="edge5" class="edge">
<title>Node2&#45;&gt;Node6</title>
<path fill="none" stroke="midnightblue" d="M207.83,-137.47C228.61,-132.24 252.08,-126.35 273.57,-120.95"/>
<polygon fill="midnightblue" stroke="midnightblue" points="274.44,-124.34 283.28,-118.51 272.73,-117.55 274.44,-124.34"/>
</g>
<!-- Node5 -->
<g id="node5" class="node">
<title>Node5</title>
<g id="a_node5"><a xlink:href="classappsign_1_1_semaphore.html#a04d9259eb2fa93e9a64eaf78290f023a" target="_top" xlink:title="Notify the semaphore (and the worker thread), increases the notifications count by 1.">
<polygon fill="white" stroke="black" points="468,-137.5 468,-167.5 574,-167.5 574,-137.5 468,-137.5"/>
<text text-anchor="start" x="476" y="-155.5" font-family="Helvetica,sans-Serif" font-size="10.00">appsign::Semaphore</text>
<text text-anchor="middle" x="521" y="-144.5" font-family="Helvetica,sans-Serif" font-size="10.00">::notify</text>
</a>
</g>
</g>
<!-- Node4&#45;&gt;Node5 -->
<g id="edge4" class="edge">
<title>Node4&#45;&gt;Node5</title>
<path fill="none" stroke="midnightblue" d="M417.19,-152.5C430.56,-152.5 444.43,-152.5 457.48,-152.5"/>
<polygon fill="midnightblue" stroke="midnightblue" points="457.75,-156 467.75,-152.5 457.75,-149 457.75,-156"/>
</g>
<!-- Node7 -->
<g id="node7" class="node">
<title>Node7</title>
<g id="a_node7"><a xlink:href="classappsign_1_1_semaphore.html#a85500356c2f7d1057d4568227e7f35b7" target="_top" xlink:title="Use this function in the worker thread to wait until the notification arrives.">
<polygon fill="white" stroke="black" points="468,-88.5 468,-118.5 574,-118.5 574,-88.5 468,-88.5"/>
<text text-anchor="start" x="476" y="-106.5" font-family="Helvetica,sans-Serif" font-size="10.00">appsign::Semaphore</text>
<text text-anchor="middle" x="521" y="-95.5" font-family="Helvetica,sans-Serif" font-size="10.00">::wait</text>
</a>
</g>
</g>
<!-- Node6&#45;&gt;Node7 -->
<g id="edge6" class="edge">
<title>Node6&#45;&gt;Node7</title>
<path fill="none" stroke="midnightblue" d="M432.24,-103.5C440.79,-103.5 449.34,-103.5 457.57,-103.5"/>
<polygon fill="midnightblue" stroke="midnightblue" points="457.8,-107 467.8,-103.5 457.8,-100 457.8,-107"/>
</g>
<!-- Node10 -->
<g id="node10" class="node">
<title>Node10</title>
<g id="a_node10"><a xlink:href="classappsign_1_1_thread_pool.html#af16fa51aa1c9a36fe4c59b110493b3ae" target="_top" xlink:title="The main thread work function, waits for the jobs and performs them.">
<polygon fill="white" stroke="black" points="289,-39.5 289,-69.5 399,-69.5 399,-39.5 289,-39.5"/>
<text text-anchor="start" x="297" y="-57.5" font-family="Helvetica,sans-Serif" font-size="10.00">appsign::ThreadPool</text>
<text text-anchor="middle" x="344" y="-46.5" font-family="Helvetica,sans-Serif" font-size="10.00">::threadWorkFunction</text>
</a>
</g>
</g>
<!-- Node9&#45;&gt;Node10 -->
<g id="edge10" class="edge">
<title>Node9&#45;&gt;Node10</title>
<path fill="none" stroke="midnightblue" d="M200,-61.83C224.1,-60.6 252.97,-59.12 278.45,-57.81"/>
<polygon fill="midnightblue" stroke="midnightblue" points="278.95,-61.29 288.76,-57.28 278.6,-54.3 278.95,-61.29"/>
</g>
</g>
</svg>
