<?xml version="1.0" encoding="UTF-8" standalone="no"?>
<!DOCTYPE svg PUBLIC "-//W3C//DTD SVG 1.1//EN"
 "http://www.w3.org/Graphics/SVG/1.1/DTD/svg11.dtd">
<!-- Generated by graphviz version 2.44.1 (20200629.0846)
 -->
<!-- Title: source/app/main.cpp Pages: 1 -->
<!--zoomable 386 -->
<svg id="main" version="1.1" xmlns="http://www.w3.org/2000/svg" xmlns:xlink="http://www.w3.org/1999/xlink" xml:space="preserve" onload="init(evt)">
<style type="text/css"><![CDATA[
.edge:hover path { stroke: red; }
.edge:hover polygon { stroke: red; fill: red; }
]]></style>
<script type="text/javascript"><![CDATA[
var edges = document.getElementsByTagName('g');
if (edges && edges.length) {
  for (var i=0;i<edges.length;i++) {
    if (edges[i].id.substr(0,4)=='edge') {
      edges[i].setAttribute('class','edge');
    }
  }
}
]]></script>
        <defs>
                <circle id="rim" cx="0" cy="0" r="7"/>
                <circle id="rim2" cx="0" cy="0" r="3.5"/>
                <g id="zoomPlus">
                        <use xlink:href="#rim" fill="#404040">
                                <set attributeName="fill" to="#808080" begin="zoomplus.mouseover" end="zoomplus.mouseout"/>
                        </use>
                        <path d="M-4,0h8M0,-4v8" fill="none" stroke="white" stroke-width="1.5" pointer-events="none"/>
                </g>
                <g id="zoomMin">
                        <use xlink:href="#rim" fill="#404040">
                                <set attributeName="fill" to="#808080" begin="zoomminus.mouseover" end="zoomminus.mouseout"/>
                        </use>
                        <path d="M-4,0h8" fill="none" stroke="white" stroke-width="1.5" pointer-events="none"/>
                </g>
                <g id="dirArrow">
                        <path fill="none" stroke="white" stroke-width="1.5" d="M0,-3.0v7 M-2.5,-0.5L0,-3.0L2.5,-0.5"/>
                </g>
               <g id="resetDef">
                       <use xlink:href="#rim2" fill="#404040">
                               <set attributeName="fill" to="#808080" begin="reset.mouseover" end="reset.mouseout"/>
                       </use>
               </g>
        </defs>

<script type="text/javascript">
var viewWidth = 1094;
var viewHeight = 386;
var sectionId = 'dynsection-0';
</script>
<script xlink:href="svgpan.js"/>
<svg id="graph" class="graph">
<g id="viewport">
<title>source/app/main.cpp</title>
<polygon fill="white" stroke="transparent" points="-4,4 -4,-382 1089.5,-382 1089.5,4 -4,4"/>
<!-- Node1 -->
<g id="node1" class="node">
<title>Node1</title>
<g id="a_node1"><a xlink:title=" ">
<polygon fill="#bfbfbf" stroke="black" points="592.5,-358.5 592.5,-377.5 699.5,-377.5 699.5,-358.5 592.5,-358.5"/>
<text text-anchor="middle" x="646" y="-365.5" font-family="Helvetica,sans-Serif" font-size="10.00">source/app/main.cpp</text>
</a>
</g>
</g>
<!-- Node2 -->
<g id="node2" class="node">
<title>Node2</title>
<g id="a_node2"><a xlink:href="_thread_pool_8h.html" target="_top" xlink:title=" ">
<polygon fill="white" stroke="black" points="584.5,-112.5 584.5,-142.5 691.5,-142.5 691.5,-112.5 584.5,-112.5"/>
<text text-anchor="start" x="592.5" y="-130.5" font-family="Helvetica,sans-Serif" font-size="10.00">app/utils/thread_pool</text>
<text text-anchor="middle" x="638" y="-119.5" font-family="Helvetica,sans-Serif" font-size="10.00">/ThreadPool.h</text>
</a>
</g>
</g>
<!-- Node1&#45;&gt;Node2 -->
<g id="edge1" class="edge">
<title>Node1&#45;&gt;Node2</title>
<path fill="none" stroke="midnightblue" d="M612.2,-358.39C593.61,-351.74 572.11,-340.45 561,-322 526.15,-264.12 583.21,-187.64 616.56,-150.55"/>
<polygon fill="midnightblue" stroke="midnightblue" points="619.47,-152.56 623.67,-142.84 614.32,-147.82 619.47,-152.56"/>
</g>
<!-- Node3 -->
<g id="node3" class="node">
<title>Node3</title>
<g id="a_node3"><a xlink:title=" ">
<polygon fill="white" stroke="#bfbfbf" points="27,-56.5 27,-75.5 79,-75.5 79,-56.5 27,-56.5"/>
<text text-anchor="middle" x="53" y="-63.5" font-family="Helvetica,sans-Serif" font-size="10.00">memory</text>
</a>
</g>
</g>
<!-- Node1&#45;&gt;Node3 -->
<g id="edge37" class="edge">
<title>Node1&#45;&gt;Node3</title>
<path fill="none" stroke="midnightblue" d="M592.31,-363.5C437.29,-352.7 0,-316.91 0,-257 0,-257 0,-257 0,-193.5 0,-151.64 24.99,-107.63 40.65,-84.15"/>
<polygon fill="midnightblue" stroke="midnightblue" points="43.7,-85.89 46.5,-75.67 37.94,-81.91 43.7,-85.89"/>
</g>
<!-- Node5 -->
<g id="node5" class="node">
<title>Node5</title>
<g id="a_node5"><a xlink:title=" ">
<polygon fill="white" stroke="#bfbfbf" points="1026.5,-56.5 1026.5,-75.5 1085.5,-75.5 1085.5,-56.5 1026.5,-56.5"/>
<text text-anchor="middle" x="1056" y="-63.5" font-family="Helvetica,sans-Serif" font-size="10.00">exception</text>
</a>
</g>
</g>
<!-- Node1&#45;&gt;Node5 -->
<g id="edge40" class="edge">
<title>Node1&#45;&gt;Node5</title>
<path fill="none" stroke="midnightblue" d="M699.55,-363.28C807.27,-354.31 1040,-326.86 1040,-257 1040,-257 1040,-257 1040,-193.5 1040,-154.9 1047.42,-110.19 1052.16,-85.6"/>
<polygon fill="midnightblue" stroke="midnightblue" points="1055.64,-86.03 1054.16,-75.54 1048.78,-84.66 1055.64,-86.03"/>
</g>
<!-- Node11 -->
<g id="node11" class="node">
<title>Node11</title>
<g id="a_node11"><a xlink:title=" ">
<polygon fill="white" stroke="#bfbfbf" points="769,-56.5 769,-75.5 823,-75.5 823,-56.5 769,-56.5"/>
<text text-anchor="middle" x="796" y="-63.5" font-family="Helvetica,sans-Serif" font-size="10.00">iostream</text>
</a>
</g>
</g>
<!-- Node1&#45;&gt;Node11 -->
<g id="edge39" class="edge">
<title>Node1&#45;&gt;Node11</title>
<path fill="none" stroke="midnightblue" d="M675.62,-358.47C694.43,-351.58 717.82,-340 732,-322 789.43,-249.11 796.01,-131.17 796.28,-85.7"/>
<polygon fill="midnightblue" stroke="midnightblue" points="799.78,-85.54 796.24,-75.55 792.78,-85.57 799.78,-85.54"/>
</g>
<!-- Node15 -->
<g id="node15" class="node">
<title>Node15</title>
<g id="a_node15"><a xlink:href="_job_get_signature_8h.html" target="_top" xlink:title=" ">
<polygon fill="white" stroke="black" points="115,-246.5 115,-265.5 273,-265.5 273,-246.5 115,-246.5"/>
<text text-anchor="middle" x="194" y="-253.5" font-family="Helvetica,sans-Serif" font-size="10.00">app/sign/jobs/JobGetSignature.h</text>
</a>
</g>
</g>
<!-- Node1&#45;&gt;Node15 -->
<g id="edge14" class="edge">
<title>Node1&#45;&gt;Node15</title>
<path fill="none" stroke="midnightblue" d="M610.91,-358.46C529.72,-338.7 329.01,-289.86 238.97,-267.94"/>
<polygon fill="midnightblue" stroke="midnightblue" points="239.61,-264.5 229.07,-265.53 237.96,-271.3 239.61,-264.5"/>
</g>
<!-- Node19 -->
<g id="node19" class="node">
<title>Node19</title>
<g id="a_node19"><a xlink:href="_signature_creation_params_8h.html" target="_top" xlink:title=" ">
<polygon fill="white" stroke="black" points="862,-112.5 862,-142.5 996,-142.5 996,-112.5 862,-112.5"/>
<text text-anchor="start" x="870" y="-130.5" font-family="Helvetica,sans-Serif" font-size="10.00">app/sign/SignatureCreation</text>
<text text-anchor="middle" x="929" y="-119.5" font-family="Helvetica,sans-Serif" font-size="10.00">Params.h</text>
</a>
</g>
</g>
<!-- Node1&#45;&gt;Node19 -->
<g id="edge38" class="edge">
<title>Node1&#45;&gt;Node19</title>
<path fill="none" stroke="midnightblue" d="M699.64,-360.68C751.64,-353.57 825.82,-340.56 848,-322 900.69,-277.91 919.71,-193.73 926.07,-152.48"/>
<polygon fill="midnightblue" stroke="midnightblue" points="929.55,-152.9 927.49,-142.51 922.62,-151.92 929.55,-152.9"/>
</g>
<!-- Node23 -->
<g id="node23" class="node">
<title>Node23</title>
<g id="a_node23"><a xlink:href="_file_signature_creator_8h.html" target="_top" xlink:title=" ">
<polygon fill="white" stroke="black" points="569.5,-302.5 569.5,-321.5 722.5,-321.5 722.5,-302.5 569.5,-302.5"/>
<text text-anchor="middle" x="646" y="-309.5" font-family="Helvetica,sans-Serif" font-size="10.00">app/sign/FileSignatureCreator.h</text>
</a>
</g>
</g>
<!-- Node1&#45;&gt;Node23 -->
<g id="edge41" class="edge">
<title>Node1&#45;&gt;Node23</title>
<path fill="none" stroke="midnightblue" d="M646,-358.08C646,-351.01 646,-340.86 646,-331.99"/>
<polygon fill="midnightblue" stroke="midnightblue" points="649.5,-331.75 646,-321.75 642.5,-331.75 649.5,-331.75"/>
</g>
<!-- Node2&#45;&gt;Node3 -->
<g id="edge2" class="edge">
<title>Node2&#45;&gt;Node3</title>
<path fill="none" stroke="midnightblue" d="M584.22,-120.76C558.44,-118.04 527.13,-114.79 499,-112 328.86,-95.13 285.79,-96.1 116,-76 107.25,-74.96 97.83,-73.7 89.01,-72.45"/>
<polygon fill="midnightblue" stroke="midnightblue" points="89.41,-68.97 79.02,-71 88.41,-75.9 89.41,-68.97"/>
</g>
<!-- Node4 -->
<g id="node4" class="node">
<title>Node4</title>
<g id="a_node4"><a xlink:title=" ">
<polygon fill="white" stroke="#bfbfbf" points="707,-56.5 707,-75.5 751,-75.5 751,-56.5 707,-56.5"/>
<text text-anchor="middle" x="729" y="-63.5" font-family="Helvetica,sans-Serif" font-size="10.00">thread</text>
</a>
</g>
</g>
<!-- Node2&#45;&gt;Node4 -->
<g id="edge3" class="edge">
<title>Node2&#45;&gt;Node4</title>
<path fill="none" stroke="midnightblue" d="M659.57,-112.4C673.88,-103.04 692.61,-90.79 707.01,-81.38"/>
<polygon fill="midnightblue" stroke="midnightblue" points="709.3,-84.06 715.76,-75.66 705.47,-78.2 709.3,-84.06"/>
</g>
<!-- Node2&#45;&gt;Node5 -->
<g id="edge4" class="edge">
<title>Node2&#45;&gt;Node5</title>
<path fill="none" stroke="midnightblue" d="M691.76,-121.08C763.6,-113.45 895.05,-98.17 1016.01,-76.23"/>
<polygon fill="midnightblue" stroke="midnightblue" points="1016.98,-79.61 1026.19,-74.36 1015.72,-72.72 1016.98,-79.61"/>
</g>
<!-- Node6 -->
<g id="node6" class="node">
<title>Node6</title>
<g id="a_node6"><a xlink:title=" ">
<polygon fill="white" stroke="#bfbfbf" points="461,-56.5 461,-75.5 505,-75.5 505,-56.5 461,-56.5"/>
<text text-anchor="middle" x="483" y="-63.5" font-family="Helvetica,sans-Serif" font-size="10.00">vector</text>
</a>
</g>
</g>
<!-- Node2&#45;&gt;Node6 -->
<g id="edge5" class="edge">
<title>Node2&#45;&gt;Node6</title>
<path fill="none" stroke="midnightblue" d="M601.27,-112.4C574.87,-102.27 539.65,-88.75 514.53,-79.1"/>
<polygon fill="midnightblue" stroke="midnightblue" points="515.69,-75.8 505.1,-75.48 513.18,-82.34 515.69,-75.8"/>
</g>
<!-- Node7 -->
<g id="node7" class="node">
<title>Node7</title>
<g id="a_node7"><a xlink:title=" ">
<polygon fill="white" stroke="#bfbfbf" points="523.5,-56.5 523.5,-75.5 566.5,-75.5 566.5,-56.5 523.5,-56.5"/>
<text text-anchor="middle" x="545" y="-63.5" font-family="Helvetica,sans-Serif" font-size="10.00">queue</text>
</a>
</g>
</g>
<!-- Node2&#45;&gt;Node7 -->
<g id="edge6" class="edge">
<title>Node2&#45;&gt;Node7</title>
<path fill="none" stroke="midnightblue" d="M615.96,-112.4C601.19,-102.95 581.82,-90.56 567.05,-81.11"/>
<polygon fill="midnightblue" stroke="midnightblue" points="568.84,-78.1 558.53,-75.66 565.07,-84 568.84,-78.1"/>
</g>
<!-- Node8 -->
<g id="node8" class="node">
<title>Node8</title>
<g id="a_node8"><a xlink:title=" ">
<polygon fill="white" stroke="#bfbfbf" points="347.5,-56.5 347.5,-75.5 442.5,-75.5 442.5,-56.5 347.5,-56.5"/>
<text text-anchor="middle" x="395" y="-63.5" font-family="Helvetica,sans-Serif" font-size="10.00">condition_variable</text>
</a>
</g>
</g>
<!-- Node2&#45;&gt;Node8 -->
<g id="edge7" class="edge">
<title>Node2&#45;&gt;Node8</title>
<path fill="none" stroke="midnightblue" d="M584.37,-113.37C540.95,-102.74 480.5,-87.94 439.67,-77.94"/>
<polygon fill="midnightblue" stroke="midnightblue" points="440.28,-74.48 429.74,-75.51 438.62,-81.28 440.28,-74.48"/>
</g>
<!-- Node9 -->
<g id="node9" class="node">
<title>Node9</title>
<g id="a_node9"><a xlink:title=" ">
<polygon fill="white" stroke="#bfbfbf" points="221,-56.5 221,-75.5 265,-75.5 265,-56.5 221,-56.5"/>
<text text-anchor="middle" x="243" y="-63.5" font-family="Helvetica,sans-Serif" font-size="10.00">mutex</text>
</a>
</g>
</g>
<!-- Node2&#45;&gt;Node9 -->
<g id="edge8" class="edge">
<title>Node2&#45;&gt;Node9</title>
<path fill="none" stroke="midnightblue" d="M584.23,-121.5C514.85,-114.5 390.34,-100.11 275.29,-76.01"/>
<polygon fill="midnightblue" stroke="midnightblue" points="275.76,-72.53 265.25,-73.88 274.31,-79.38 275.76,-72.53"/>
</g>
<!-- Node10 -->
<g id="node10" class="node">
<title>Node10</title>
<g id="a_node10"><a xlink:title=" ">
<polygon fill="white" stroke="#bfbfbf" points="283,-56.5 283,-75.5 329,-75.5 329,-56.5 283,-56.5"/>
<text text-anchor="middle" x="306" y="-63.5" font-family="Helvetica,sans-Serif" font-size="10.00">atomic</text>
</a>
</g>
</g>
<!-- Node2&#45;&gt;Node10 -->
<g id="edge9" class="edge">
<title>Node2&#45;&gt;Node10</title>
<path fill="none" stroke="midnightblue" d="M584.28,-119.23C526.11,-110.97 430.45,-96.23 339.29,-76.1"/>
<polygon fill="midnightblue" stroke="midnightblue" points="339.87,-72.64 329.35,-73.88 338.34,-79.47 339.87,-72.64"/>
</g>
<!-- Node2&#45;&gt;Node11 -->
<g id="edge10" class="edge">
<title>Node2&#45;&gt;Node11</title>
<path fill="none" stroke="midnightblue" d="M675.44,-112.4C702.19,-102.33 737.82,-88.91 763.4,-79.28"/>
<polygon fill="midnightblue" stroke="midnightblue" points="764.88,-82.46 773.01,-75.66 762.42,-75.91 764.88,-82.46"/>
</g>
<!-- Node12 -->
<g id="node12" class="node">
<title>Node12</title>
<g id="a_node12"><a xlink:href="_job_base_8h.html" target="_top" xlink:title=" ">
<polygon fill="white" stroke="black" points="125.5,-56.5 125.5,-75.5 188.5,-75.5 188.5,-56.5 125.5,-56.5"/>
<text text-anchor="middle" x="157" y="-63.5" font-family="Helvetica,sans-Serif" font-size="10.00">JobBase.h</text>
</a>
</g>
</g>
<!-- Node2&#45;&gt;Node12 -->
<g id="edge11" class="edge">
<title>Node2&#45;&gt;Node12</title>
<path fill="none" stroke="midnightblue" d="M584.44,-120.92C503.6,-112.32 345.67,-94.85 212,-76 207.74,-75.4 203.31,-74.74 198.88,-74.05"/>
<polygon fill="midnightblue" stroke="midnightblue" points="199.09,-70.54 188.66,-72.43 197.99,-77.45 199.09,-70.54"/>
</g>
<!-- Node13 -->
<g id="node13" class="node">
<title>Node13</title>
<g id="a_node13"><a xlink:href="_e_thread_pool_state_8h.html" target="_top" xlink:title=" ">
<polygon fill="white" stroke="black" points="585,-56.5 585,-75.5 689,-75.5 689,-56.5 585,-56.5"/>
<text text-anchor="middle" x="637" y="-63.5" font-family="Helvetica,sans-Serif" font-size="10.00">EThreadPoolState.h</text>
</a>
</g>
</g>
<!-- Node2&#45;&gt;Node13 -->
<g id="edge12" class="edge">
<title>Node2&#45;&gt;Node13</title>
<path fill="none" stroke="midnightblue" d="M637.76,-112.4C637.63,-104.47 637.46,-94.46 637.32,-85.86"/>
<polygon fill="midnightblue" stroke="midnightblue" points="640.81,-85.6 637.15,-75.66 633.81,-85.72 640.81,-85.6"/>
</g>
<!-- Node14 -->
<g id="node14" class="node">
<title>Node14</title>
<g id="a_node14"><a xlink:title=" ">
<polygon fill="white" stroke="#bfbfbf" points="612.5,-0.5 612.5,-19.5 661.5,-19.5 661.5,-0.5 612.5,-0.5"/>
<text text-anchor="middle" x="637" y="-7.5" font-family="Helvetica,sans-Serif" font-size="10.00">stdint.h</text>
</a>
</g>
</g>
<!-- Node13&#45;&gt;Node14 -->
<g id="edge13" class="edge">
<title>Node13&#45;&gt;Node14</title>
<path fill="none" stroke="midnightblue" d="M637,-56.08C637,-49.01 637,-38.86 637,-29.99"/>
<polygon fill="midnightblue" stroke="midnightblue" points="640.5,-29.75 637,-19.75 633.5,-29.75 640.5,-29.75"/>
</g>
<!-- Node15&#45;&gt;Node3 -->
<g id="edge36" class="edge">
<title>Node15&#45;&gt;Node3</title>
<path fill="none" stroke="midnightblue" d="M146.29,-246.44C123.97,-240.04 98.87,-228.99 83,-210 52.98,-174.09 50.65,-115.66 51.69,-85.83"/>
<polygon fill="midnightblue" stroke="midnightblue" points="55.2,-85.75 52.22,-75.58 48.21,-85.38 55.2,-85.75"/>
</g>
<!-- Node15&#45;&gt;Node9 -->
<g id="edge35" class="edge">
<title>Node15&#45;&gt;Node9</title>
<path fill="none" stroke="midnightblue" d="M176.5,-246.46C163.21,-238.92 145.92,-226.53 138,-210 119.17,-170.72 114.02,-148.36 138,-112 146.51,-99.1 183.58,-85.23 211.28,-76.35"/>
<polygon fill="midnightblue" stroke="midnightblue" points="212.48,-79.64 220.99,-73.31 210.4,-72.95 212.48,-79.64"/>
</g>
<!-- Node15&#45;&gt;Node10 -->
<g id="edge16" class="edge">
<title>Node15&#45;&gt;Node10</title>
<path fill="none" stroke="midnightblue" d="M192.2,-246.26C187.78,-222.24 178.81,-154.24 209,-112 217,-100.8 248.29,-87.47 273.2,-78.24"/>
<polygon fill="midnightblue" stroke="midnightblue" points="274.5,-81.49 282.71,-74.8 272.11,-74.91 274.5,-81.49"/>
</g>
<!-- Node15&#45;&gt;Node12 -->
<g id="edge15" class="edge">
<title>Node15&#45;&gt;Node12</title>
<path fill="none" stroke="midnightblue" d="M153.85,-246.43C134.03,-239.95 111.86,-228.83 100,-210 76.78,-173.15 81.01,-151.2 100,-112 106.4,-98.8 118.75,-88.3 130.33,-80.78"/>
<polygon fill="midnightblue" stroke="midnightblue" points="132.16,-83.77 138.92,-75.61 128.55,-77.77 132.16,-83.77"/>
</g>
<!-- Node16 -->
<g id="node16" class="node">
<title>Node16</title>
<g id="a_node16"><a xlink:href="_file_signature_creation_context_8h.html" target="_top" xlink:title=" ">
<polygon fill="white" stroke="black" points="356,-179.5 356,-209.5 504,-209.5 504,-179.5 356,-179.5"/>
<text text-anchor="start" x="364" y="-197.5" font-family="Helvetica,sans-Serif" font-size="10.00">app/sign/internal/FileSignature</text>
<text text-anchor="middle" x="430" y="-186.5" font-family="Helvetica,sans-Serif" font-size="10.00">CreationContext.h</text>
</a>
</g>
</g>
<!-- Node15&#45;&gt;Node16 -->
<g id="edge17" class="edge">
<title>Node15&#45;&gt;Node16</title>
<path fill="none" stroke="midnightblue" d="M227.81,-246.48C263.36,-237.51 320.18,-223.19 364.54,-212"/>
<polygon fill="midnightblue" stroke="midnightblue" points="365.54,-215.36 374.38,-209.52 363.83,-208.57 365.54,-215.36"/>
</g>
<!-- Node17 -->
<g id="node17" class="node">
<title>Node17</title>
<g id="a_node17"><a xlink:title=" ">
<polygon fill="white" stroke="#bfbfbf" points="218.5,-118 218.5,-137 253.5,-137 253.5,-118 218.5,-118"/>
<text text-anchor="middle" x="236" y="-125" font-family="Helvetica,sans-Serif" font-size="10.00">map</text>
</a>
</g>
</g>
<!-- Node15&#45;&gt;Node17 -->
<g id="edge34" class="edge">
<title>Node15&#45;&gt;Node17</title>
<path fill="none" stroke="midnightblue" d="M196.89,-246.31C203.66,-225.9 220.69,-174.6 229.89,-146.91"/>
<polygon fill="midnightblue" stroke="midnightblue" points="233.26,-147.85 233.09,-137.26 226.62,-145.64 233.26,-147.85"/>
</g>
<!-- Node16&#45;&gt;Node2 -->
<g id="edge29" class="edge">
<title>Node16&#45;&gt;Node2</title>
<path fill="none" stroke="midnightblue" d="M474.88,-179.48C506.62,-169.56 549.36,-156.2 583.13,-145.65"/>
<polygon fill="midnightblue" stroke="midnightblue" points="584.34,-148.93 592.85,-142.61 582.26,-142.25 584.34,-148.93"/>
</g>
<!-- Node16&#45;&gt;Node3 -->
<g id="edge23" class="edge">
<title>Node16&#45;&gt;Node3</title>
<path fill="none" stroke="midnightblue" d="M381.43,-179.4C355.65,-170.83 324.02,-158.53 298,-143 279.87,-132.18 280.91,-121.4 262,-112 232.07,-97.12 140.82,-80.9 89.34,-72.6"/>
<polygon fill="midnightblue" stroke="midnightblue" points="89.72,-69.11 79.29,-71 88.62,-76.03 89.72,-69.11"/>
</g>
<!-- Node16&#45;&gt;Node6 -->
<g id="edge21" class="edge">
<title>Node16&#45;&gt;Node6</title>
<path fill="none" stroke="midnightblue" d="M471.4,-179.4C488.03,-171.46 505.49,-159.71 515,-143 526.11,-123.47 511.57,-99.33 498.66,-83.56"/>
<polygon fill="midnightblue" stroke="midnightblue" points="501.04,-80.97 491.82,-75.75 495.77,-85.58 501.04,-80.97"/>
</g>
<!-- Node16&#45;&gt;Node8 -->
<g id="edge30" class="edge">
<title>Node16&#45;&gt;Node8</title>
<path fill="none" stroke="midnightblue" d="M460.91,-179.34C475.28,-170.98 490.94,-158.89 499,-143 505.23,-130.71 506.56,-123.52 499,-112 488.34,-95.77 470.43,-85.36 452.46,-78.7"/>
<polygon fill="midnightblue" stroke="midnightblue" points="453.1,-75.23 442.51,-75.38 450.88,-81.87 453.1,-75.23"/>
</g>
<!-- Node16&#45;&gt;Node9 -->
<g id="edge20" class="edge">
<title>Node16&#45;&gt;Node9</title>
<path fill="none" stroke="midnightblue" d="M404.32,-179.44C386.98,-169.7 363.74,-156.16 344,-143 314.26,-123.17 281.47,-97.81 261.56,-81.98"/>
<polygon fill="midnightblue" stroke="midnightblue" points="263.61,-79.14 253.62,-75.63 259.24,-84.6 263.61,-79.14"/>
</g>
<!-- Node16&#45;&gt;Node10 -->
<g id="edge18" class="edge">
<title>Node16&#45;&gt;Node10</title>
<path fill="none" stroke="midnightblue" d="M414.47,-179.15C403.78,-169.16 389.34,-155.46 377,-143 357.06,-122.86 334.89,-98.85 320.71,-83.29"/>
<polygon fill="midnightblue" stroke="midnightblue" points="323.03,-80.64 313.72,-75.59 317.85,-85.34 323.03,-80.64"/>
</g>
<!-- Node16&#45;&gt;Node17 -->
<g id="edge19" class="edge">
<title>Node16&#45;&gt;Node17</title>
<path fill="none" stroke="midnightblue" d="M379.47,-179.49C347.23,-170.13 304.75,-156.99 268,-143 266.39,-142.39 264.75,-141.74 263.1,-141.06"/>
<polygon fill="midnightblue" stroke="midnightblue" points="264.34,-137.78 253.78,-137.02 261.56,-144.21 264.34,-137.78"/>
</g>
<!-- Node18 -->
<g id="node18" class="node">
<title>Node18</title>
<g id="a_node18"><a xlink:title=" ">
<polygon fill="white" stroke="#bfbfbf" points="841,-56.5 841,-75.5 891,-75.5 891,-56.5 841,-56.5"/>
<text text-anchor="middle" x="866" y="-63.5" font-family="Helvetica,sans-Serif" font-size="10.00">fstream</text>
</a>
</g>
</g>
<!-- Node16&#45;&gt;Node18 -->
<g id="edge22" class="edge">
<title>Node16&#45;&gt;Node18</title>
<path fill="none" stroke="midnightblue" d="M504.25,-184.71C559.4,-176.98 636.01,-163.67 701,-143 753.02,-126.45 810.13,-97.54 841.66,-80.54"/>
<polygon fill="midnightblue" stroke="midnightblue" points="843.48,-83.54 850.59,-75.68 840.14,-77.39 843.48,-83.54"/>
</g>
<!-- Node16&#45;&gt;Node19 -->
<g id="edge24" class="edge">
<title>Node16&#45;&gt;Node19</title>
<path fill="none" stroke="midnightblue" d="M504.17,-183.84C597.42,-171.69 756.75,-150.94 851.54,-138.59"/>
<polygon fill="midnightblue" stroke="midnightblue" points="852.17,-142.04 861.63,-137.28 851.27,-135.1 852.17,-142.04"/>
</g>
<!-- Node22 -->
<g id="node22" class="node">
<title>Node22</title>
<g id="a_node22"><a xlink:href="_semaphore_8h.html" target="_top" xlink:title=" ">
<polygon fill="white" stroke="black" points="386,-112.5 386,-142.5 490,-142.5 490,-112.5 386,-112.5"/>
<text text-anchor="start" x="394" y="-130.5" font-family="Helvetica,sans-Serif" font-size="10.00">app/utils/semaphore</text>
<text text-anchor="middle" x="438" y="-119.5" font-family="Helvetica,sans-Serif" font-size="10.00">/Semaphore.h</text>
</a>
</g>
</g>
<!-- Node16&#45;&gt;Node22 -->
<g id="edge31" class="edge">
<title>Node16&#45;&gt;Node22</title>
<path fill="none" stroke="midnightblue" d="M431.74,-179.4C432.7,-171.56 433.93,-161.6 435.04,-152.57"/>
<polygon fill="midnightblue" stroke="midnightblue" points="438.52,-152.93 436.27,-142.58 431.57,-152.07 438.52,-152.93"/>
</g>
<!-- Node19&#45;&gt;Node5 -->
<g id="edge28" class="edge">
<title>Node19&#45;&gt;Node5</title>
<path fill="none" stroke="midnightblue" d="M959.1,-112.4C980.12,-102.55 1007.97,-89.5 1028.42,-79.92"/>
<polygon fill="midnightblue" stroke="midnightblue" points="1029.95,-83.07 1037.52,-75.66 1026.98,-76.73 1029.95,-83.07"/>
</g>
<!-- Node19&#45;&gt;Node18 -->
<g id="edge27" class="edge">
<title>Node19&#45;&gt;Node18</title>
<path fill="none" stroke="midnightblue" d="M914.07,-112.4C904.63,-103.49 892.42,-91.95 882.67,-82.74"/>
<polygon fill="midnightblue" stroke="midnightblue" points="884.84,-79.98 875.17,-75.66 880.03,-85.07 884.84,-79.98"/>
</g>
<!-- Node20 -->
<g id="node20" class="node">
<title>Node20</title>
<g id="a_node20"><a xlink:title=" ">
<polygon fill="white" stroke="#bfbfbf" points="909,-56.5 909,-75.5 949,-75.5 949,-56.5 909,-56.5"/>
<text text-anchor="middle" x="929" y="-63.5" font-family="Helvetica,sans-Serif" font-size="10.00">utility</text>
</a>
</g>
</g>
<!-- Node19&#45;&gt;Node20 -->
<g id="edge25" class="edge">
<title>Node19&#45;&gt;Node20</title>
<path fill="none" stroke="midnightblue" d="M929,-112.4C929,-104.47 929,-94.46 929,-85.86"/>
<polygon fill="midnightblue" stroke="midnightblue" points="932.5,-85.66 929,-75.66 925.5,-85.66 932.5,-85.66"/>
</g>
<!-- Node21 -->
<g id="node21" class="node">
<title>Node21</title>
<g id="a_node21"><a xlink:title=" ">
<polygon fill="white" stroke="#bfbfbf" points="967.5,-56.5 967.5,-75.5 1008.5,-75.5 1008.5,-56.5 967.5,-56.5"/>
<text text-anchor="middle" x="988" y="-63.5" font-family="Helvetica,sans-Serif" font-size="10.00">string</text>
</a>
</g>
</g>
<!-- Node19&#45;&gt;Node21 -->
<g id="edge26" class="edge">
<title>Node19&#45;&gt;Node21</title>
<path fill="none" stroke="midnightblue" d="M942.98,-112.4C951.73,-103.58 963.03,-92.18 972.12,-83.02"/>
<polygon fill="midnightblue" stroke="midnightblue" points="974.86,-85.22 979.41,-75.66 969.89,-80.29 974.86,-85.22"/>
</g>
<!-- Node22&#45;&gt;Node8 -->
<g id="edge33" class="edge">
<title>Node22&#45;&gt;Node8</title>
<path fill="none" stroke="midnightblue" d="M427.81,-112.4C421.63,-103.84 413.7,-92.87 407.18,-83.86"/>
<polygon fill="midnightblue" stroke="midnightblue" points="409.95,-81.71 401.26,-75.66 404.28,-85.81 409.95,-81.71"/>
</g>
<!-- Node22&#45;&gt;Node9 -->
<g id="edge32" class="edge">
<title>Node22&#45;&gt;Node9</title>
<path fill="none" stroke="midnightblue" d="M391.79,-112.4C355.71,-101.39 306.54,-86.39 274.77,-76.7"/>
<polygon fill="midnightblue" stroke="midnightblue" points="275.7,-73.32 265.11,-73.75 273.66,-80.01 275.7,-73.32"/>
</g>
<!-- Node23&#45;&gt;Node2 -->
<g id="edge45" class="edge">
<title>Node23&#45;&gt;Node2</title>
<path fill="none" stroke="midnightblue" d="M645.61,-302.2C644.44,-275.39 640.88,-194.09 639.07,-152.93"/>
<polygon fill="midnightblue" stroke="midnightblue" points="642.56,-152.53 638.62,-142.69 635.56,-152.84 642.56,-152.53"/>
</g>
<!-- Node23&#45;&gt;Node4 -->
<g id="edge48" class="edge">
<title>Node23&#45;&gt;Node4</title>
<path fill="none" stroke="midnightblue" d="M648.95,-302.32C660.95,-267.04 706.21,-134 722.83,-85.14"/>
<polygon fill="midnightblue" stroke="midnightblue" points="726.17,-86.17 726.08,-75.58 719.55,-83.92 726.17,-86.17"/>
</g>
<!-- Node23&#45;&gt;Node9 -->
<g id="edge47" class="edge">
<title>Node23&#45;&gt;Node9</title>
<path fill="none" stroke="midnightblue" d="M569.09,-307.75C465.53,-298.66 285.46,-265.11 209,-143 196.85,-123.6 212.75,-99.11 226.64,-83.26"/>
<polygon fill="midnightblue" stroke="midnightblue" points="229.31,-85.53 233.56,-75.83 224.19,-80.76 229.31,-85.53"/>
</g>
<!-- Node23&#45;&gt;Node15 -->
<g id="edge44" class="edge">
<title>Node23&#45;&gt;Node15</title>
<path fill="none" stroke="midnightblue" d="M574.38,-302.44C493.05,-292.73 360.63,-276.91 275.43,-266.73"/>
<polygon fill="midnightblue" stroke="midnightblue" points="275.63,-263.23 265.29,-265.52 274.8,-270.18 275.63,-263.23"/>
</g>
<!-- Node23&#45;&gt;Node16 -->
<g id="edge46" class="edge">
<title>Node23&#45;&gt;Node16</title>
<path fill="none" stroke="midnightblue" d="M639.8,-302.1C629.68,-288.19 608.27,-261.31 584,-246 560.47,-231.15 532.15,-220.24 506.24,-212.44"/>
<polygon fill="midnightblue" stroke="midnightblue" points="507.03,-209.02 496.45,-209.6 505.08,-215.75 507.03,-209.02"/>
</g>
<!-- Node23&#45;&gt;Node19 -->
<g id="edge43" class="edge">
<title>Node23&#45;&gt;Node19</title>
<path fill="none" stroke="midnightblue" d="M680.69,-302.43C706.9,-295.06 743.16,-282.94 772,-266 827.63,-233.32 881.84,-179.57 909.68,-149.87"/>
<polygon fill="midnightblue" stroke="midnightblue" points="912.27,-152.24 916.5,-142.52 907.13,-147.48 912.27,-152.24"/>
</g>
<!-- Node23&#45;&gt;Node20 -->
<g id="edge42" class="edge">
<title>Node23&#45;&gt;Node20</title>
<path fill="none" stroke="midnightblue" d="M653.66,-302.31C679.67,-273.14 767.69,-176.88 853,-112 868.77,-100.01 887.98,-88.66 903.14,-80.36"/>
<polygon fill="midnightblue" stroke="midnightblue" points="904.83,-83.42 911.99,-75.61 901.52,-77.26 904.83,-83.42"/>
</g>
</g>
</svg>
        <g id="navigator" transform="translate(0 0)" fill="#404254">
                <rect fill="#f2f5e9" fill-opacity="0.5" stroke="#606060" stroke-width=".5" x="0" y="0" width="60" height="60"/>
                <use id="zoomplus" xlink:href="#zoomPlus" x="17" y="9" onmousedown="handleZoom(evt,'in')"/>
                <use id="zoomminus" xlink:href="#zoomMin" x="42" y="9" onmousedown="handleZoom(evt,'out')"/>
                <use id="reset" xlink:href="#resetDef" x="30" y="36" onmousedown="handleReset()"/>
                <g id="arrowUp" xlink:href="#dirArrow" transform="translate(30 24)" onmousedown="handlePan(0,-1)">
                  <use xlink:href="#rim" fill="#404040">
                        <set attributeName="fill" to="#808080" begin="arrowUp.mouseover" end="arrowUp.mouseout"/>
                  </use>
                  <path fill="none" stroke="white" stroke-width="1.5" d="M0,-3.0v7 M-2.5,-0.5L0,-3.0L2.5,-0.5"/>
                </g>
                <g id="arrowRight" xlink:href="#dirArrow" transform="rotate(90) translate(36 -43)" onmousedown="handlePan(1,0)">
                  <use xlink:href="#rim" fill="#404040">
                        <set attributeName="fill" to="#808080" begin="arrowRight.mouseover" end="arrowRight.mouseout"/>
                  </use>
                  <path fill="none" stroke="white" stroke-width="1.5" d="M0,-3.0v7 M-2.5,-0.5L0,-3.0L2.5,-0.5"/>
                </g>
                <g id="arrowDown" xlink:href="#dirArrow" transform="rotate(180) translate(-30 -48)" onmousedown="handlePan(0,1)">
                  <use xlink:href="#rim" fill="#404040">
                        <set attributeName="fill" to="#808080" begin="arrowDown.mouseover" end="arrowDown.mouseout"/>
                  </use>
                  <path fill="none" stroke="white" stroke-width="1.5" d="M0,-3.0v7 M-2.5,-0.5L0,-3.0L2.5,-0.5"/>
                </g>
                <g id="arrowLeft" xlink:href="#dirArrow" transform="rotate(270) translate(-36 17)" onmousedown="handlePan(-1,0)">
                  <use xlink:href="#rim" fill="#404040">
                        <set attributeName="fill" to="#808080" begin="arrowLeft.mouseover" end="arrowLeft.mouseout"/>
                  </use>
                  <path fill="none" stroke="white" stroke-width="1.5" d="M0,-3.0v7 M-2.5,-0.5L0,-3.0L2.5,-0.5"/>
                </g>
        </g>
        <svg viewBox="0 0 15 15" width="100%" height="30px" preserveAspectRatio="xMaxYMin meet">
         <g id="arrow_out" transform="scale(0.3 0.3)">
          <a xlink:href="main_8cpp__incl_org.svg" target="_base">
           <rect id="button" ry="5" rx="5" y="6" x="6" height="38" width="38"
                fill="#f2f5e9" fill-opacity="0.5" stroke="#606060" stroke-width="1.0"/>
           <path id="arrow"
             d="M 11.500037,31.436501 C 11.940474,20.09759 22.043105,11.32322 32.158766,21.979434 L 37.068811,17.246167 C 37.068811,17.246167 37.088388,32 37.088388,32 L 22.160133,31.978069 C 22.160133,31.978069 26.997745,27.140456 26.997745,27.140456 C 18.528582,18.264221 13.291696,25.230495 11.500037,31.436501 z"
             style="fill:#404040;"/>
          </a>
         </g>
        </svg>
</svg>
