<?xml version="1.0" encoding="UTF-8" standalone="no"?>
<!DOCTYPE svg PUBLIC "-//W3C//DTD SVG 1.1//EN"
 "http://www.w3.org/Graphics/SVG/1.1/DTD/svg11.dtd">
<!-- Generated by graphviz version 2.44.1 (20200629.0846)
 -->
<!-- Title: md5 Pages: 1 -->
<svg width="213pt" height="78pt"
 viewBox="0.00 0.00 212.58 77.50" xmlns="http://www.w3.org/2000/svg" xmlns:xlink="http://www.w3.org/1999/xlink">
<g id="graph0" class="graph" transform="scale(1 1) rotate(0) translate(4 73.5)">
<title>md5</title>
<polygon fill="white" stroke="transparent" points="-4,4 -4,-73.5 208.58,-73.5 208.58,4 -4,4"/>
<!-- Node1 -->
<g id="node1" class="node">
<title>Node1</title>
<g id="a_node1"><a xlink:title=" ">
<polygon fill="#bfbfbf" stroke="black" points="165,-22.5 165,-41.5 200,-41.5 200,-22.5 165,-22.5"/>
<text text-anchor="middle" x="182.5" y="-29.5" font-family="Helvetica,sans-Serif" font-size="10.00">md5</text>
</a>
</g>
</g>
<!-- Node1&#45;&gt;Node1 -->
<g id="edge2" class="edge">
<title>Node1&#45;&gt;Node1</title>
<path fill="none" stroke="midnightblue" d="M204.58,-50.3C203.92,-55.76 196.57,-60 182.5,-60 161.07,-60 155.21,-50.15 164.92,-41.18"/>
<polygon fill="midnightblue" stroke="midnightblue" points="207.64,-48.6 200.08,-41.18 201.36,-51.69 207.64,-48.6"/>
</g>
<!-- Node2 -->
<g id="node2" class="node">
<title>Node2</title>
<g id="a_node2"><a xlink:href="classappsign_1_1_job_get_signature.html#a671808d075148ae0621dfee1aed9932d" target="_top" xlink:title="Reads from the file and generates hash, writes to the buffer map.">
<polygon fill="white" stroke="black" points="0,-39 0,-69 129,-69 129,-39 0,-39"/>
<text text-anchor="start" x="8" y="-57" font-family="Helvetica,sans-Serif" font-size="10.00">appsign::JobGetSignature</text>
<text text-anchor="middle" x="64.5" y="-46" font-family="Helvetica,sans-Serif" font-size="10.00">::doJob</text>
</a>
</g>
</g>
<!-- Node1&#45;&gt;Node2 -->
<g id="edge1" class="edge">
<title>Node1&#45;&gt;Node2</title>
<path fill="none" stroke="midnightblue" d="M154.99,-37.03C147.17,-38.51 138.26,-40.2 129.17,-41.93"/>
<polygon fill="midnightblue" stroke="midnightblue" points="155.71,-40.45 164.88,-35.15 154.4,-33.58 155.71,-40.45"/>
</g>
<!-- Node3 -->
<g id="node3" class="node">
<title>Node3</title>
<g id="a_node3"><a xlink:href="md5_8cpp.html#a80cbf042ee22a0e557ac7938a6218e55" target="_top" xlink:title=" ">
<polygon fill="white" stroke="black" points="32.5,-0.5 32.5,-19.5 96.5,-19.5 96.5,-0.5 32.5,-0.5"/>
<text text-anchor="middle" x="64.5" y="-7.5" font-family="Helvetica,sans-Serif" font-size="10.00">operator&lt;&lt;</text>
</a>
</g>
</g>
<!-- Node1&#45;&gt;Node3 -->
<g id="edge3" class="edge">
<title>Node1&#45;&gt;Node3</title>
<path fill="none" stroke="midnightblue" d="M154.91,-26.96C137.66,-23.69 115.09,-19.41 96.95,-15.96"/>
<polygon fill="midnightblue" stroke="midnightblue" points="154.4,-30.42 164.88,-28.85 155.71,-23.55 154.4,-30.42"/>
</g>
</g>
</svg>
