<?xml version="1.0" encoding="UTF-8" standalone="no"?>
<!DOCTYPE svg PUBLIC "-//W3C//DTD SVG 1.1//EN"
 "http://www.w3.org/Graphics/SVG/1.1/DTD/svg11.dtd">
<!-- Generated by graphviz version 2.44.1 (20200629.0846)
 -->
<!-- Title: md5 Pages: 1 -->
<svg width="279pt" height="93pt"
 viewBox="0.00 0.00 279.00 92.50" xmlns="http://www.w3.org/2000/svg" xmlns:xlink="http://www.w3.org/1999/xlink">
<g id="graph0" class="graph" transform="scale(1 1) rotate(0) translate(4 88.5)">
<title>md5</title>
<polygon fill="white" stroke="transparent" points="-4,4 -4,-88.5 275,-88.5 275,4 -4,4"/>
<!-- Node1 -->
<g id="node1" class="node">
<title>Node1</title>
<g id="a_node1"><a xlink:title=" ">
<polygon fill="#bfbfbf" stroke="black" points="236,-19.5 236,-38.5 271,-38.5 271,-19.5 236,-19.5"/>
<text text-anchor="middle" x="253.5" y="-26.5" font-family="Helvetica,sans-Serif" font-size="10.00">md5</text>
</a>
</g>
</g>
<!-- Node2 -->
<g id="node2" class="node">
<title>Node2</title>
<g id="a_node2"><a xlink:href="classappsign_1_1_job_get_signature.html#a671808d075148ae0621dfee1aed9932d" target="_top" xlink:title="Reads from the file and generates hash, writes to the buffer map.">
<polygon fill="white" stroke="black" points="0,-54 0,-84 129,-84 129,-54 0,-54"/>
<text text-anchor="start" x="8" y="-72" font-family="Helvetica,sans-Serif" font-size="10.00">appsign::JobGetSignature</text>
<text text-anchor="middle" x="64.5" y="-61" font-family="Helvetica,sans-Serif" font-size="10.00">::doJob</text>
</a>
</g>
</g>
<!-- Node1&#45;&gt;Node2 -->
<g id="edge1" class="edge">
<title>Node1&#45;&gt;Node2</title>
<path fill="none" stroke="midnightblue" d="M235.07,-45.26C225.49,-53.11 212.94,-61.74 200,-66 177.59,-73.38 151.93,-75.4 129.07,-75.15"/>
<polygon fill="midnightblue" stroke="midnightblue" points="237.4,-47.88 242.67,-38.69 232.81,-42.59 237.4,-47.88"/>
</g>
<!-- Node3 -->
<g id="node3" class="node">
<title>Node3</title>
<g id="a_node3"><a xlink:href="md5_8h.html#a92c6eed2e9b51298af559aff6792770b" target="_top" xlink:title=" ">
<polygon fill="white" stroke="black" points="165,-19.5 165,-38.5 200,-38.5 200,-19.5 165,-19.5"/>
<text text-anchor="middle" x="182.5" y="-26.5" font-family="Helvetica,sans-Serif" font-size="10.00">md5</text>
</a>
</g>
</g>
<!-- Node1&#45;&gt;Node3 -->
<g id="edge2" class="edge">
<title>Node1&#45;&gt;Node3</title>
<path fill="none" stroke="midnightblue" d="M225.74,-29C217.08,-29 207.74,-29 200.05,-29"/>
<polygon fill="midnightblue" stroke="midnightblue" points="225.8,-32.5 235.8,-29 225.8,-25.5 225.8,-32.5"/>
</g>
<!-- Node4 -->
<g id="node4" class="node">
<title>Node4</title>
<g id="a_node4"><a xlink:href="md5_8cpp.html#a80cbf042ee22a0e557ac7938a6218e55" target="_top" xlink:title=" ">
<polygon fill="white" stroke="black" points="32.5,-0.5 32.5,-19.5 96.5,-19.5 96.5,-0.5 32.5,-0.5"/>
<text text-anchor="middle" x="64.5" y="-7.5" font-family="Helvetica,sans-Serif" font-size="10.00">operator&lt;&lt;</text>
</a>
</g>
</g>
<!-- Node1&#45;&gt;Node4 -->
<g id="edge6" class="edge">
<title>Node1&#45;&gt;Node4</title>
<path fill="none" stroke="midnightblue" d="M226.4,-17.54C218.12,-14.45 208.82,-11.55 200,-10 165.04,-3.87 124.18,-5.02 96.75,-6.96"/>
<polygon fill="midnightblue" stroke="midnightblue" points="225.3,-20.87 235.89,-21.3 227.88,-14.36 225.3,-20.87"/>
</g>
<!-- Node3&#45;&gt;Node2 -->
<g id="edge3" class="edge">
<title>Node3&#45;&gt;Node2</title>
<path fill="none" stroke="midnightblue" d="M155.21,-38.07C141.6,-42.76 124.63,-48.61 109.12,-53.96"/>
<polygon fill="midnightblue" stroke="midnightblue" points="156.57,-41.3 164.88,-34.73 154.29,-34.68 156.57,-41.3"/>
</g>
<!-- Node3&#45;&gt;Node3 -->
<g id="edge4" class="edge">
<title>Node3&#45;&gt;Node3</title>
<path fill="none" stroke="midnightblue" d="M195.39,-48.77C194.38,-53.5 190.08,-57 182.5,-57 170.06,-57 166.46,-47.57 171.71,-38.76"/>
<polygon fill="midnightblue" stroke="midnightblue" points="198.77,-47.82 193.29,-38.76 191.92,-49.26 198.77,-47.82"/>
</g>
<!-- Node3&#45;&gt;Node4 -->
<g id="edge5" class="edge">
<title>Node3&#45;&gt;Node4</title>
<path fill="none" stroke="midnightblue" d="M154.91,-24.64C137.66,-21.82 115.09,-18.12 96.95,-15.15"/>
<polygon fill="midnightblue" stroke="midnightblue" points="154.45,-28.12 164.88,-26.28 155.58,-21.21 154.45,-28.12"/>
</g>
</g>
</svg>
