<?xml version="1.0" encoding="UTF-8" standalone="no"?>
<!DOCTYPE svg PUBLIC "-//W3C//DTD SVG 1.1//EN"
 "http://www.w3.org/Graphics/SVG/1.1/DTD/svg11.dtd">
<!-- Generated by graphviz version 2.44.1 (20200629.0846)
 -->
<!-- Title: source/md5/md5.h Pages: 1 -->
<svg width="246pt" height="95pt"
 viewBox="0.00 0.00 245.50 95.00" xmlns="http://www.w3.org/2000/svg" xmlns:xlink="http://www.w3.org/1999/xlink">
<g id="graph0" class="graph" transform="scale(1 1) rotate(0) translate(4 91)">
<title>source/md5/md5.h</title>
<polygon fill="white" stroke="transparent" points="-4,4 -4,-91 241.5,-91 241.5,4 -4,4"/>
<!-- Node1 -->
<g id="node1" class="node">
<title>Node1</title>
<g id="a_node1"><a xlink:title=" ">
<polygon fill="#bfbfbf" stroke="black" points="70.5,-67.5 70.5,-86.5 168.5,-86.5 168.5,-67.5 70.5,-67.5"/>
<text text-anchor="middle" x="119.5" y="-74.5" font-family="Helvetica,sans-Serif" font-size="10.00">source/md5/md5.h</text>
</a>
</g>
</g>
<!-- Node2 -->
<g id="node2" class="node">
<title>Node2</title>
<g id="a_node2"><a xlink:href="_job_get_signature_8cpp.html" target="_top" xlink:title=" ">
<polygon fill="white" stroke="black" points="0,-0.5 0,-30.5 111,-30.5 111,-0.5 0,-0.5"/>
<text text-anchor="start" x="8" y="-18.5" font-family="Helvetica,sans-Serif" font-size="10.00">source/app/sign/jobs</text>
<text text-anchor="middle" x="55.5" y="-7.5" font-family="Helvetica,sans-Serif" font-size="10.00">/JobGetSignature.cpp</text>
</a>
</g>
</g>
<!-- Node1&#45;&gt;Node2 -->
<g id="edge1" class="edge">
<title>Node1&#45;&gt;Node2</title>
<path fill="none" stroke="midnightblue" d="M102.98,-60.65C92.98,-51.35 80.32,-39.57 70.58,-30.52"/>
<polygon fill="midnightblue" stroke="midnightblue" points="100.62,-63.23 110.33,-67.48 105.39,-58.1 100.62,-63.23"/>
</g>
<!-- Node3 -->
<g id="node3" class="node">
<title>Node3</title>
<g id="a_node3"><a xlink:href="md5_8cpp.html" target="_top" xlink:title=" ">
<polygon fill="white" stroke="black" points="129.5,-6 129.5,-25 237.5,-25 237.5,-6 129.5,-6"/>
<text text-anchor="middle" x="183.5" y="-13" font-family="Helvetica,sans-Serif" font-size="10.00">source/md5/md5.cpp</text>
</a>
</g>
</g>
<!-- Node1&#45;&gt;Node3 -->
<g id="edge2" class="edge">
<title>Node1&#45;&gt;Node3</title>
<path fill="none" stroke="midnightblue" d="M136.01,-60.65C148.21,-49.31 164.37,-34.28 174.35,-25.01"/>
<polygon fill="midnightblue" stroke="midnightblue" points="133.61,-58.1 128.67,-67.48 138.38,-63.23 133.61,-58.1"/>
</g>
</g>
</svg>
