<?xml version="1.0" encoding="UTF-8" standalone="no"?>
<!DOCTYPE svg PUBLIC "-//W3C//DTD SVG 1.1//EN"
 "http://www.w3.org/Graphics/SVG/1.1/DTD/svg11.dtd">
<!-- Generated by graphviz version 2.44.1 (20200629.0846)
 -->
<!-- Title: operator&lt;&lt; Pages: 1 -->
<svg width="143pt" height="46pt"
 viewBox="0.00 0.00 143.00 46.00" xmlns="http://www.w3.org/2000/svg" xmlns:xlink="http://www.w3.org/1999/xlink">
<g id="graph0" class="graph" transform="scale(1 1) rotate(0) translate(4 42)">
<title>operator&lt;&lt;</title>
<polygon fill="white" stroke="transparent" points="-4,4 -4,-42 139,-42 139,4 -4,4"/>
<!-- Node1 -->
<g id="node1" class="node">
<title>Node1</title>
<g id="a_node1"><a xlink:title=" ">
<polygon fill="#bfbfbf" stroke="black" points="0,-0.5 0,-19.5 64,-19.5 64,-0.5 0,-0.5"/>
<text text-anchor="middle" x="32" y="-7.5" font-family="Helvetica,sans-Serif" font-size="10.00">operator&lt;&lt;</text>
</a>
</g>
</g>
<!-- Node2 -->
<g id="node2" class="node">
<title>Node2</title>
<g id="a_node2"><a xlink:href="md5_8cpp.html#a92c6eed2e9b51298af559aff6792770b" target="_top" xlink:title=" ">
<polygon fill="white" stroke="black" points="100,-0.5 100,-19.5 135,-19.5 135,-0.5 100,-0.5"/>
<text text-anchor="middle" x="117.5" y="-7.5" font-family="Helvetica,sans-Serif" font-size="10.00">md5</text>
</a>
</g>
</g>
<!-- Node1&#45;&gt;Node2 -->
<g id="edge1" class="edge">
<title>Node1&#45;&gt;Node2</title>
<path fill="none" stroke="midnightblue" d="M64.09,-10C72.47,-10 81.47,-10 89.6,-10"/>
<polygon fill="midnightblue" stroke="midnightblue" points="89.67,-13.5 99.67,-10 89.67,-6.5 89.67,-13.5"/>
</g>
<!-- Node2&#45;&gt;Node2 -->
<g id="edge2" class="edge">
<title>Node2&#45;&gt;Node2</title>
<path fill="none" stroke="midnightblue" d="M104.55,-19.76C98.25,-28.57 102.57,-38 117.5,-38 126.6,-38 131.75,-34.5 132.97,-29.77"/>
<polygon fill="midnightblue" stroke="midnightblue" points="136.28,-28.6 130.45,-19.76 129.5,-30.31 136.28,-28.6"/>
</g>
</g>
</svg>
