<?xml version="1.0" encoding="UTF-8" standalone="no"?>
<!DOCTYPE svg PUBLIC "-//W3C//DTD SVG 1.1//EN"
 "http://www.w3.org/Graphics/SVG/1.1/DTD/svg11.dtd">
<!-- Generated by graphviz version 2.44.1 (20200629.0846)
 -->
<!-- Title: appsign::internal::FileSignatureCreationContext Pages: 1 -->
<svg width="390pt" height="117pt"
 viewBox="0.00 0.00 390.00 117.00" xmlns="http://www.w3.org/2000/svg" xmlns:xlink="http://www.w3.org/1999/xlink">
<g id="graph0" class="graph" transform="scale(1 1) rotate(0) translate(4 113)">
<title>appsign::internal::FileSignatureCreationContext</title>
<polygon fill="white" stroke="transparent" points="-4,4 -4,-113 386,-113 386,4 -4,4"/>
<!-- Node1 -->
<g id="node1" class="node">
<title>Node1</title>
<g id="a_node1"><a xlink:title="Context holds all shared data that is used during the signature creation process.">
<polygon fill="#bfbfbf" stroke="black" points="104.5,-0.5 104.5,-30.5 249.5,-30.5 249.5,-0.5 104.5,-0.5"/>
<text text-anchor="start" x="112.5" y="-18.5" font-family="Helvetica,sans-Serif" font-size="10.00">appsign::internal::</text>
<text text-anchor="middle" x="177" y="-7.5" font-family="Helvetica,sans-Serif" font-size="10.00">FileSignatureCreationContext</text>
</a>
</g>
</g>
<!-- Node2 -->
<g id="node2" class="node">
<title>Node2</title>
<g id="a_node2"><a xlink:href="classappsign_1_1_semaphore.html" target="_top" xlink:title=" ">
<polygon fill="white" stroke="black" points="0,-84 0,-103 106,-103 106,-84 0,-84"/>
<text text-anchor="middle" x="53" y="-91" font-family="Helvetica,sans-Serif" font-size="10.00">appsign::Semaphore</text>
</a>
</g>
</g>
<!-- Node2&#45;&gt;Node1 -->
<g id="edge1" class="edge">
<title>Node2&#45;&gt;Node1</title>
<path fill="none" stroke="#9a32cd" stroke-dasharray="5,2" d="M63.83,-75.49C70.23,-66.57 79.03,-56.07 89,-49 99.76,-41.37 112.52,-35.32 124.94,-30.6"/>
<polygon fill="#9a32cd" stroke="#9a32cd" points="60.78,-73.75 58.07,-83.99 66.58,-77.67 60.78,-73.75"/>
<text text-anchor="middle" x="131" y="-52" font-family="Helvetica,sans-Serif" font-size="10.00"> semaphore_output</text>
</g>
<!-- Node3 -->
<g id="node3" class="node">
<title>Node3</title>
<g id="a_node3"><a xlink:href="classappsign_1_1_thread_pool.html" target="_top" xlink:title=" ">
<polygon fill="white" stroke="black" points="124,-84 124,-103 230,-103 230,-84 124,-84"/>
<text text-anchor="middle" x="177" y="-91" font-family="Helvetica,sans-Serif" font-size="10.00">appsign::ThreadPool</text>
</a>
</g>
</g>
<!-- Node3&#45;&gt;Node1 -->
<g id="edge2" class="edge">
<title>Node3&#45;&gt;Node1</title>
<path fill="none" stroke="#9a32cd" stroke-dasharray="5,2" d="M177,-73.78C177,-60.4 177,-42.69 177,-30.52"/>
<polygon fill="#9a32cd" stroke="#9a32cd" points="173.5,-73.78 177,-83.78 180.5,-73.78 173.5,-73.78"/>
<text text-anchor="middle" x="204" y="-52" font-family="Helvetica,sans-Serif" font-size="10.00"> thread_pool</text>
</g>
<!-- Node4 -->
<g id="node4" class="node">
<title>Node4</title>
<g id="a_node4"><a xlink:href="structappsign_1_1_signature_creation_params.html" target="_top" xlink:title=" ">
<polygon fill="white" stroke="black" points="248,-78.5 248,-108.5 382,-108.5 382,-78.5 248,-78.5"/>
<text text-anchor="start" x="256" y="-96.5" font-family="Helvetica,sans-Serif" font-size="10.00">appsign::SignatureCreation</text>
<text text-anchor="middle" x="315" y="-85.5" font-family="Helvetica,sans-Serif" font-size="10.00">Params</text>
</a>
</g>
</g>
<!-- Node4&#45;&gt;Node1 -->
<g id="edge3" class="edge">
<title>Node4&#45;&gt;Node1</title>
<path fill="none" stroke="#9a32cd" stroke-dasharray="5,2" d="M280.5,-73.5C256.28,-60.16 224.43,-42.62 202.5,-30.54"/>
<polygon fill="#9a32cd" stroke="#9a32cd" points="278.92,-76.62 289.37,-78.38 282.3,-70.49 278.92,-76.62"/>
<text text-anchor="middle" x="292" y="-52" font-family="Helvetica,sans-Serif" font-size="10.00"> creation_params</text>
</g>
</g>
</svg>
